<svg id="Layer_1" xmlns="http://www.w3.org/2000/svg" viewBox="0 0 486 486"><defs><clipPath id="clippath"><path class="cls-3" d="M469.81 241.2c-.47 5.16-1.76 10.24-3.7 15.04-3.92 9.57-10.48 18.05-18.91 24.09-2.52 1.76-5.14 3.42-7.98 4.67-1.38.71-2.82 1.25-4.28 1.74-1.46.47-2.86 1.12-4.37 1.44-5.92 1.68-12 2.32-18.03 2.67-12.07.47-23.96-.69-35.71-.82-8.86-.11-17.81.39-26.14 2.99-2.07.67-4.15 1.29-6.09 2.3l-2.95 1.36c-.92.56-1.89 1.05-2.8 1.66-3.68 2.32-7.08 5.14-10.37 8.13-5.53 4.99-10.8 10.5-16.99 15.23-6.2 4.73-13.21 8.37-20.59 10.82a71.075 71.075 0 0 1-22.95 3.61c-7.74-.02-15.36-1.1-22.84-2.17-7.42-1.05-14.74-2.19-22.09-2.41-7.34-.28-14.74.13-22.11.92-14.76 1.59-29.43 4.71-44.33 6.91-6.43.69-12.91 1.48-19.6 1.94-6.67.45-13.55.47-20.54-.28-12.2-1.25-26.44-4.15-39.02-9.06-6.5-2.5-12.82-5.49-18.91-8.93-6.07-3.4-11.94-7.31-17.29-11.9-3.98-3.38-7.87-7.46-10.2-11.01l-.58-.73v-.02s-.02-.04-.04-.06l-.04-.06c-2.3-3.01-4.32-6.37-5.94-9.92-1.59-3.55-2.77-7.27-3.7-11.04-1.81-7.55-2.67-15.12-3.59-22.65-1.05-9.23-1.68-18.69-.45-28.16.6-4.73 1.7-9.42 3.48-13.92a46.9 46.9 0 0 1 7.29-12.5c6.2-7.49 14.33-12.86 22.74-17.02 8.5-4.13 17.25-7.27 26.14-10.09 13.79-4.24 28.16-7.18 42.79-6.95 14.63.19 28.82 3.4 42.72 6.82 12.5 3.14 24.87 6.65 37.36 9.42 12.5 2.77 25.1 4.82 37.75 5.61 3.25.11 6.24.24 9.34.28 4.67-.13 8.11-.26 10.84-.22 2.73.06 4.75-.06 6.58.15 4.09.39 6.82.86 7.57 1.48.06 0 .13-.02.19-.02.54-.06 1.08-.11 1.61-.19-1.08-.22-1.66-.54-1.74-.92 0-.06.04-.13.02-.17-.11-.39 1.83-.67 8.41-1.57 17.27-2.37 34.33-6.82 51.63-10.65 16.35-3.66 33-6.69 49.88-7.01 16.82-.28 34.12 2.13 49.48 9.79 2.32 1.1 4.5 2.45 6.71 3.74 2.11 1.42 4.28 2.8 6.26 4.41 4.07 3.12 7.83 6.63 11.14 10.54 6.73 7.74 11.75 17.1 13.98 27.21.99 5.08 1.42 10.28.95 15.47z"/></clipPath><clipPath id="clippath-1"><path class="cls-4" d="M394.82 154.06c-1.48 10.69-2.82 21.42-4.99 32.11-1.08 5.34-2.36 10.66-4 15.89-.81 2.63-1.71 5.18-2.71 7.81l-.32.86c-.14.29-.45.45-.65.67l-.86.78-1.5 1.37-3.01 2.72c-8.08 7.19-16.72 14.23-26.95 18.82-5.08 2.26-10.5 3.9-16.13 4.56-5.58.7-11.46.21-16.81-1.31-4.13-1.1-8.03-2.44-11.92-3.16-3.86-.73-7.78-.67-11.68.02-7.82 1.42-15.22 5.12-22.41 9.16-7.22 4.03-14.53 8.48-22.82 11.15-8.27 2.71-17.34 3.06-25.8 1.02-3.81-.91-7.54-2.31-11-4.13-3.46-1.82-6.65-3.9-9.8-5.86-3.17-1.98-6.31-3.84-9.61-5.18a28.054 28.054 0 0 0-10.25-2.17c-7.09-.18-14.23 1.94-21.42 4.03-3.6 1.04-7.27 2.09-11.06 2.85-3.79.75-7.6 1.23-11.46 1.4-3.95.18-7.65-.02-11.46-.53-5.75-.78-9.94-2.41-12.96-4.18-3.03-1.8-4.97-3.62-6.37-5.47-1.56-1.99-2.44-3.9-3.04-5.32-.46-1.5-.67-2.53-.59-3.08 0-.02 0-.03.02-.05-.05-.06-.08-.14-.11-.21-.27-.54-.53-1.08-.76-1.63.19 1.18.14 1.88-.24 2.12-.05.03-.13 0-.18.05-.14.13-.51-.33-1.24-1.72-.37-.7-.81-1.64-1.39-2.85-.49-1.24-1.12-2.76-1.85-4.61-3.55-9.8-5.77-20-7.19-30.28-1.42-10.26-2.12-20.6-2.68-30.93-.53-9.77-1.05-19.52-1.58-29.27-.4-9.77-.45-19.66.86-29.5.65-4.91 1.64-9.78 3.09-14.55 1.45-4.76 3.43-9.4 5.82-13.77 4.76-8.8 11.43-16.46 19.19-22.72 9.34-7.46 20.48-12.72 32.29-14.93 5.9-1.07 12.08-1.32 18.07-.11 5.99 1.12 11.66 3.55 16.78 6.72 10.23 6.49 18.2 16.03 23.57 26.68 5.42 10.66 8.51 22.23 10.76 33.74 2.6 13.72 4.33 27.55 5.43 41.45.25 3.47.48 6.95.67 10.42.18 3.47.33 6.82 1.27 9.75.48 1.47 1.16 2.84 2.04 3.87.92 1.08 2.1 1.96 3.38 2.49 1.26.53 2.6.69 3.73.35 1.13-.3 2.15-1.1 2.8-2.18 1.05-1.69 1.42-4.08 1.47-6.5.02-.62 0-1.24-.02-1.86l-.02-.22s.02-.13-.06-.13l-.16-.08-.33-.18c-.16-.08-.33-.16-.48-.24-.64-.35-1.26-.73-1.86-1.13-4.81-3.22-8.38-8.06-10.29-13.42-1.91-5.39-2.29-11.14-1.43-16.72.46-2.8 1.42-5.72 3.22-8.22 1.8-2.49 4.18-4.3 6.58-5.74 7-4.13 15.23-5.94 23.3-5.26 4.05.38 7.95 1.23 11.79 2.98 1.91.89 3.82 2.22 5.27 3.81 1.48 1.58 2.63 3.33 3.62 5.08 1.96 3.49 3.52 7.28 4.25 11.36.75 4.05.54 8.41-.91 12.41-.72 1.99-1.74 3.9-3.09 5.61-1.35 1.71-3.04 3.12-4.81 4.24-1.78 1.12-3.63 1.98-5.43 2.72l-4.1 1.67-.14 2.15c-.06 1.13-.08 2.25-.03 3.33.1 2.17.48 4.22 1.37 5.99.81 1.66 2.01 3.08 3.44 3.87 1.42.83 3.09 1 4.8.65 3.52-.75 6.31-3.59 8.08-7.19 1.8-3.59 2.95-7.76 3.92-11.92.96-4.19 1.75-8.53 2.6-12.81l5.05-25.78c1.86-8.61 3.89-17.19 6.71-25.64 2.68-7.12 5.69-14.26 9.88-21.02 4.16-6.71 9.47-13.08 16.27-18.07 5.91-4.3 13.29-7.98 21.43-9.34 8.08-1.4 16.75-.67 24.37 2.33 7.89 3.08 14.79 8.49 19.68 15.38 2.45 3.44 4.38 7.3 5.67 11.31 1.31 4 2.04 8.1 2.55 12.16.7 6.01 1.13 12.4.96 17.23l.02 1.08h.02v.16c.57 17.4-1.78 35.31-4.13 52.73z"/></clipPath><clipPath id="clippath-2"><path class="cls-2" d="M280.03 51.06c-.08.13-.11.48.14.46.03 0 .1.03.13.03l.67.19c.45.13.88.32 1.31.48 1.69.73 3.2 1.77 4.49 3.04 2.58 2.52 4.22 6.14 4.1 9.83-.13 3.62-1.45 6.77-2.12 9.86-.72 3.09-.99 6.49-2.33 9.78-1.56 3.7-3.94 6.15-5.26 9.42-.49 1.1-1.45 2.45-1.98 2.74-.02.05-.02.08-.03.13.02 0 .03-.02.05-.02.05-.16.37-.48 1.16-.49 1.27 0 2.71.96 3.23 2.37.43 1.1.51 2.23.51 3.27s-.1 2.01-.16 3c-.27 4.06-.32 8.14-.94 12.35-.11.67-.1 1.34-.26 2.12-.13.75-.45 1.63-1.1 2.15-.14.16-.76.69-1.1.83-.89.51-1.75.56-2.42.65l-2.14.26c-1.42.16-2.85.24-4.3.32-2.88.11-5.78.24-8.64.35-4.88.21-9.61.73-14.53.56-2.71.45-5.91.32-8.64.14-4.83-.33-9.67-.56-14.5-.81l-4.13-.22-1.64-.1c-.14-.46-.14-1.07-.22-1.59l-.24-2.37c-.24-2.45-.33-4.91-.3-7.36.03-4.97.51-9.94 1.39-14.85.13-.62.35-1.63 1.08-2.41.72-.76 1.58-1.08 2.23-1.29.69-.21 1.27-.33 1.82-.49l.26-.08c.06 0 .06-.06.08-.13l.7-3.22.83-3.6c.4-1.63.51-3.09 1.2-4.96.65-1.74 1.18-4.08 1.88-6.14.62-1.9 1.26-3.89 2.09-5.59 3.38-7 7.57-13.94 13.78-19.01 1.34-1.12 2.8-2.1 4.32-3.01.76-.45 1.53-.88 2.33-1.24l.53-.25.19-.08.4-.18-.29-.46-.25-.46-.38-.75c-.49-.99-.96-2.01-1.32-3.09-.72-2.12-1.18-4.61-.33-7.06.43-1.31 1.37-2.55 2.22-3.36.83-.86 1.47-1.59 1.58-2.2.18-.62-.08-1.63-.19-3.01-.1-1.45.27-2.9.94-4.14 1.08-2.12 3-3.98 5.27-4.48.32-.06.96-.35 1.74-.57.78-.22 1.74-.37 2.52-.27.99.05 1.94.37 2.84.78.84.43 1.51.92 2.12 1.26.61.37 1.1.51 1.66.57.56.08 1.2-.02 1.85-.19 1.86-.46 3.82-1.66 6.36-2.22 1.26-.29 2.76-.27 4.14.25 1.35.54 2.42 1.53 3.2 2.6.96 1.29 1.56 2.8 1.93 4.22.37 1.43.56 2.82.78 4.1.37 2.61 1.37 5.21 1.94 8.22.37 1.88.46 4-.02 6.01-.45 2.01-1.53 4.08-3.39 5.42-1.94 1.35-4.06 1.69-5.7 2.22-.88.26-1.51.53-2.12.92-.29.19-.56.41-.76.62-.16.16-.14.14-.22.24z"/></clipPath><style>.cls-2{fill:#0072c6}.cls-3{fill:#fdfeff}.cls-4{fill:#c2a251}</style></defs><g id="AVANTO"><path class="cls-3" d="M469.81 241.2c-.47 5.16-1.76 10.24-3.7 15.04-3.92 9.57-10.48 18.05-18.91 24.09-2.52 1.76-5.14 3.42-7.98 4.67-1.38.71-2.82 1.25-4.28 1.74-1.46.47-2.86 1.12-4.37 1.44-5.92 1.68-12 2.32-18.03 2.67-12.07.47-23.96-.69-35.71-.82-8.86-.11-17.81.39-26.14 2.99-2.07.67-4.15 1.29-6.09 2.3l-2.95 1.36c-.92.56-1.89 1.05-2.8 1.66-3.68 2.32-7.08 5.14-10.37 8.13-5.53 4.99-10.8 10.5-16.99 15.23-6.2 4.73-13.21 8.37-20.59 10.82a71.075 71.075 0 0 1-22.95 3.61c-7.74-.02-15.36-1.1-22.84-2.17-7.42-1.05-14.74-2.19-22.09-2.41-7.34-.28-14.74.13-22.11.92-14.76 1.59-29.43 4.71-44.33 6.91-6.43.69-12.91 1.48-19.6 1.94-6.67.45-13.55.47-20.54-.28-12.2-1.25-26.44-4.15-39.02-9.06-6.5-2.5-12.82-5.49-18.91-8.93-6.07-3.4-11.94-7.31-17.29-11.9-3.98-3.38-7.87-7.46-10.2-11.01l-.58-.73v-.02s-.02-.04-.04-.06l-.04-.06c-2.3-3.01-4.32-6.37-5.94-9.92-1.59-3.55-2.77-7.27-3.7-11.04-1.81-7.55-2.67-15.12-3.59-22.65-1.05-9.23-1.68-18.69-.45-28.16.6-4.73 1.7-9.42 3.48-13.92a46.9 46.9 0 0 1 7.29-12.5c6.2-7.49 14.33-12.86 22.74-17.02 8.5-4.13 17.25-7.27 26.14-10.09 13.79-4.24 28.16-7.18 42.79-6.95 14.63.19 28.82 3.4 42.72 6.82 12.5 3.14 24.87 6.65 37.36 9.42 12.5 2.77 25.1 4.82 37.75 5.61 3.25.11 6.24.24 9.34.28 4.67-.13 8.11-.26 10.84-.22 2.73.06 4.75-.06 6.58.15 4.09.39 6.82.86 7.57 1.48.06 0 .13-.02.19-.02.54-.06 1.08-.11 1.61-.19-1.08-.22-1.66-.54-1.74-.92 0-.06.04-.13.02-.17-.11-.39 1.83-.67 8.41-1.57 17.27-2.37 34.33-6.82 51.63-10.65 16.35-3.66 33-6.69 49.88-7.01 16.82-.28 34.12 2.13 49.48 9.79 2.32 1.1 4.5 2.45 6.71 3.74 2.11 1.42 4.28 2.8 6.26 4.41 4.07 3.12 7.83 6.63 11.14 10.54 6.73 7.74 11.75 17.1 13.98 27.21.99 5.08 1.42 10.28.95 15.47z"/><g style="clip-path:url(#clippath)"><path d="M380.61 256.43c1.36-.82 1.78-2.44 3-3.38 1.98-1.51 4.14-2.74 6.1-4.12 4.29-3.08 9.27-4.58 13.63-7.12 5.06-2.81 8.85-7.3 11.41-12.44 1.47-2.95 4.34-5.08 5.93-7.93 1.08-1.99 2-4.04 2.46-6.14.45-2.1.44-4.28.01-6.42-.59-2.99-.6-6.28-2.04-9.28-.18-.38-.4-.75-.8-1.05-.69-.52.24-1.2 1.34-1.7 1.19-.55 1.67-.19 1.83.27.69 1.93 1.26 3.92 1.91 5.9.83 2.59 1.48 5.33 1.54 8.2.09 2.85-.52 5.84-1.68 8.44-1.19 2.75-3.08 4.96-4.44 7.42-1.72 3.09-3.76 6.03-5.98 8.93-2.3 3.06-5.14 6.05-8.59 7.9-4.67 2.54-9.26 4.68-13.57 7.14-3.08 1.75-5.6 4.02-8.19 6.25-1.74 1.51-3.11 3.41-4.07 5.44-.98 2.04-1.61 4.14-2.06 6.38-.12.59-1.12.66-2.11.71-.81.05-1.27-.18-1.25-.63.21-5.01 2.63-9.42 5.64-12.77h-.02zM424.62 243.09c.73.16.68-.81 1.17-.98.8-.33 1.69-.58 2.26-1.23 1.25-1.38 3.15-2.03 4.62-3.24 1.65-1.38 2.79-3.3 3.24-5.56.25-1.29 1.89-1.63 2.46-2.73.82-1.5 1.58-3.04 1.88-4.76.18-1.22 1.44-1.98 1.39-3.28 0-.17-.04-.34-.26-.58-.38-.41.69-.15 1.84.21 1.25.39 1.5.68 1.45.86-.22.75-.51 1.47-.68 2.25-.4 2.05-1.1 4.02-2.12 5.83-.56.93-1.42 1.65-1.84 2.66-.5 1.3-1.29 2.41-1.95 3.63-.7 1.28-1.41 2.62-2.66 3.44-1.74 1.09-3.2 2.41-4.83 3.53-1.13.81-2.05 1.93-3.42 2.41-1.8.66-3.05 2.21-5.08 2.39-.26.02-.75-.85-1.22-1.71-.39-.71-.54-1.15-.42-1.21 1.41-.57 2.81-1.2 4.18-1.92l-.02-.02zM310.82 266.6c2.09.84 4.33.26 6.47.54 3.54.47 7.16.75 10.68.25 7.59-1.1 15.36-2.91 21.75-7.53 1.79-1.31 3.4-2.86 4.83-4.55 1.4-1.72 2.56-3.6 3.5-5.61 1.89-4.04 2.98-8.42 4.67-12.86.98-2.56 2.65-4.97 4.82-6.9 2.18-1.95 4.87-3.22 7.47-4.17 3.67-1.35 7.41-1.79 10.88-2.62 3.47-.79 6.74-2.02 8.98-4.3 1.61-1.59 3.06-3.38 4.1-5.45 1.03-2.05 1.62-4.42 1.32-6.69-.08-.58-.21-1.14-.59-1.63-.62-.82.29-1.48 1.42-2.03 1.2-.59 1.71.08 1.91.88.65 3.32.26 6.79-.85 9.97-1.39 4.17-4.36 7.98-8.45 10.12-4.05 2.14-8.43 2.72-12.41 3.5-4.13.78-8.22 1.61-10.89 4.59-3.36 3.63-5.17 8.65-7.1 13.79-1.03 2.72-2.08 5.56-3.74 8.25-1.62 2.69-3.73 5.1-6.19 7.02-6.77 5.2-14.73 8.2-22.86 9.28-5.77.76-11.61.96-17.25-.05-7.57-1.36-15.14-2.45-22.28-5.07-.94-.34-.75-1.33-.56-2.29.16-.8.59-1.16 1.17-1 6.41 1.76 12.78 3.47 19.23 4.57v-.02zM257.11 290.62c1.9.23 3.48-1.02 5.21-1.44 2.89-.71 5.77-1.81 8.41-3.47 2.88-1.79 5.9-3.52 9.16-4.9 3.24-1.4 6.77-2.32 10.3-2.57 8.05-.65 15.84 1.47 23.58 2.19 4.43.45 8.53 2.33 12.94 2.17 6.09-.21 12.14-1.77 17.76-4.33 3.97-1.82 8.33-2.85 12.15-5.19.49-.3.95-.62 1.33-1.12.65-.86 1.55-.08 2.25.92.75 1.09.31 1.68-.28 1.97-2.48 1.21-4.94 2.41-7.43 3.63-6.4 3.26-13.27 6.04-20.67 7.02-3.85.53-7.77.12-11.61-.17-4.86-.32-9.49-1.56-14.06-2.37-4.85-.88-9.52-1.4-14.06-1.53-6.29-.32-12.13 2.94-18.07 6.29-2.13 1.17-4.25 2.45-6.54 3.51-2.28 1.07-4.72 1.9-7.21 2.3-3.35.54-6.7.94-10.08.87-3.36-.06-6.76-.62-9.84-1.97-.81-.36-.55-1.32-.28-2.27.22-.78.62-1.14 1.08-.99 5.06 1.71 10.6 2.19 15.99 1.47l-.02-.02zM284.02 308.97c-1.25-.12-2.04 1.03-3.17 1.29-1.86.39-3.75.7-5.52 1.36-3.87 1.47-8.08 1.71-12.15 2.23-4.64.6-9.19 1.48-13.95 2.39-2.78.53-5.48-.78-8.17-1.07-3.82-.4-7.56-1.26-11.38-2.11-2.75-.63-4.9-2.54-7.53-3.48-.34-.13-.68-.23-1.14-.16-.78.12-.46-.97.09-2.04.6-1.16 1.11-1.25 1.45-1.07 1.39.77 2.77 1.58 4.28 2.1 3.91 1.39 7.9 2.32 11.93 3.07 2.1.36 4.18 1.06 6.35.95 2.71-.1 5.41-.13 8.09-.5 2.83-.4 5.57-1.08 8.45-1.21 3.94-.19 7.83-1.05 11.68-2.03 2.74-.69 5.32-1.9 8.11-2.5 3.78-.81 7.08-2.88 10.95-3.56.51-.09.92.83 1.31 1.72.33.74.35 1.23.05 1.34-3.22 1.13-6.46 2.23-9.74 3.24l.02.02zM168.45 262.6c1.77 1.02 3.86.84 5.68 1.63 2.98 1.31 5.81 2.83 8.78 3.97 6.46 2.52 12.4 5.87 18.99 7.87 7.43 2.3 15.4 3.08 22.98 1.8 4.33-.72 8.85-.2 13.2-1.34 6.01-1.57 11.84-3.95 16.97-7.38 3.6-2.43 7.67-4.26 10.66-7.5.38-.42.71-.86.91-1.44.34-.99 1.43-.51 2.41.23 1.06.8.81 1.49.32 1.96-1.99 1.98-4.21 3.69-6.38 5.47-5.69 4.61-12.26 8.22-19.3 10.48-3.67 1.2-7.5 1.69-11.26 2.48-4.74 1.01-9.65 1.25-14.52 1.17-5.15-.07-10.33-.62-15.23-2.24-6.67-2.18-13.19-4.8-19.4-7.7-4.43-2.02-8.95-3.63-13.35-5.38-6-2.39-12.39-2.63-18.55-1.67-.82.11-1.19-.82-1.53-1.75-.29-.76-.14-1.28.43-1.42 6.16-1.72 12.53-.87 18.19.81v-.03zM192.46 298.74c-1.73-.51-3.44.3-5.17.08-2.85-.37-5.64-.98-8.46-1.32-6.21-.75-11.89-3.41-17.49-5.72-6.39-2.64-12.9-5.02-19.64-6.31-3.86-.74-7.29-2.92-11.17-3.66-5.36-1.03-10.86-1.6-16.18-.84-3.72.53-7.61.34-11.06 1.98-.44.21-.84.47-1.17.91-.56.74-1.33-.14-1.95-1.19-.67-1.14-.26-1.66.3-1.89 2.28-1.01 4.7-1.55 7.09-2.24 6.29-1.6 12.95-1.74 19.33-.74 3.34.52 6.52 1.63 9.81 2.3 4.14.84 8.15 2.21 12.13 3.48 4.21 1.34 8.38 2.68 12.31 4.55 5.38 2.56 10.96 4.52 16.68 5.77 4.07.9 8.25.97 12.39 1.39 5.65.55 11.18-.78 16.82-1.29.75-.06 1.04.9 1.31 1.84.23.78.09 1.29-.38 1.38a71.845 71.845 0 0 1-15.52 1.51v.02zM120.86 265.98c-1.51-.46-2.94.45-4.43.37-2.47-.13-4.92-.38-7.38-.24-5.36.3-10.8-.73-16-2.17-5.97-1.58-11.56-4.21-17.07-7.19-3.2-1.75-5.16-4.94-7.73-7.38-3.62-3.42-6.85-7.27-9.73-11.53-2.09-3.07-2.6-6.83-3.7-10.35-.16-.46-.31-.9-.65-1.34-.59-.76.46-1.28 1.64-1.5 1.28-.25 1.68.22 1.75.7.26 2.02.69 4.05 1.52 5.92 2.14 4.9 5.38 9.17 8.95 13.14 1.86 2.07 3.63 4.3 5.92 5.99 2.87 2.11 5.69 4.25 8.76 5.88 3.27 1.71 6.58 2.86 9.93 4.11 4.64 1.75 9.82 2.17 14.99 2.35 3.69.12 7.39-.3 11.09-.12 5.02.25 9.92-.89 14.96-.69.66.03.83 1.02.99 1.99.13.8-.03 1.29-.44 1.32-4.46.39-8.92.63-13.39.73v.02zM131.43 310.45c-1.09-.93-2.59-.51-3.81-.99-2.04-.79-4.12-1.6-6.31-1.93-4.75-.73-9.39-2.32-14.13-3.48-5.39-1.33-10.84-2.17-16.49-3.3-3.29-.67-5.85-3.11-8.65-4.78-3.98-2.34-7.56-5.33-10.84-8.78-2.38-2.49-3.29-5.88-4.8-8.92-.21-.4-.42-.78-.81-1.12-.68-.6.29-1.24 1.43-1.63 1.24-.42 1.68-.06 1.81.36.52 1.79 1.17 3.56 2.18 5.13 2.62 4.11 6.15 7.47 10.02 10.33 2.01 1.49 4.01 3.14 6.4 4.05 3.01 1.12 6.03 2.23 9.19 2.92 3.33.75 6.73 1.17 10.05 2.22 4.56 1.43 9.31 2.29 14.03 3.42 3.35.8 6.82 1.28 10.05 2.64 4.3 1.81 9.02 2.94 12.69 6.07.48.4-.01 1.28-.5 2.13-.4.7-.81 1-1.1.81-3.2-2.11-6.75-3.79-10.44-5.18v.02zM47.01 214.54c-.78.71-.24 1.78-.54 2.62-.57 1.38-1.08 2.83-1.13 4.34-.07 3.26-.87 6.53-.77 9.9.11 3.81 1.25 7.55 3.17 10.9 1.11 1.92.68 4.34 1.53 6.35 1.19 2.76 2.59 5.49 4.73 7.4 1.46 1.28 2.39 3.23 4.34 3.68.24.06.49.08.81-.11.54-.32.3.77-.02 1.94-.35 1.26-.78 1.46-1.11 1.34-1.37-.49-2.61-1.27-3.82-2.08-3.22-2.1-5.49-5.34-7.02-8.68-.8-1.76-1.11-3.67-1.89-5.38-1.04-2.15-1.68-4.45-2.47-6.72-.76-2.41-1.59-4.88-1.49-7.47.11-3.52.11-7.01.57-10.48.29-2.45.43-4.98 1.41-7.3 1.32-3.05 1.95-6.48 4.38-8.94.31-.32 1.17.17 2.02.67.7.41 1.03.76.9.96-1.51 2.16-2.68 4.56-3.64 7.07h.02z"/></g></g><g id="UIMARI"><path class="cls-4" d="M394.82 154.06c-1.48 10.69-2.82 21.42-4.99 32.11-1.08 5.34-2.36 10.66-4 15.89-.81 2.63-1.71 5.18-2.71 7.81l-.32.86c-.14.29-.45.45-.65.67l-.86.78-1.5 1.37-3.01 2.72c-8.08 7.19-16.72 14.23-26.95 18.82-5.08 2.26-10.5 3.9-16.13 4.56-5.58.7-11.46.21-16.81-1.31-4.13-1.1-8.03-2.44-11.92-3.16-3.86-.73-7.78-.67-11.68.02-7.82 1.42-15.22 5.12-22.41 9.16-7.22 4.03-14.53 8.48-22.82 11.15-8.27 2.71-17.34 3.06-25.8 1.02-3.81-.91-7.54-2.31-11-4.13-3.46-1.82-6.65-3.9-9.8-5.86-3.17-1.98-6.31-3.84-9.61-5.18a28.054 28.054 0 0 0-10.25-2.17c-7.09-.18-14.23 1.94-21.42 4.03-3.6 1.04-7.27 2.09-11.06 2.85-3.79.75-7.6 1.23-11.46 1.4-3.95.18-7.65-.02-11.46-.53-5.75-.78-9.94-2.41-12.96-4.18-3.03-1.8-4.97-3.62-6.37-5.47-1.56-1.99-2.44-3.9-3.04-5.32-.46-1.5-.67-2.53-.59-3.08 0-.02 0-.03.02-.05-.05-.06-.08-.14-.11-.21-.27-.54-.53-1.08-.76-1.63.19 1.18.14 1.88-.24 2.12-.05.03-.13 0-.18.05-.14.13-.51-.33-1.24-1.72-.37-.7-.81-1.64-1.39-2.85-.49-1.24-1.12-2.76-1.85-4.61-3.55-9.8-5.77-20-7.19-30.28-1.42-10.26-2.12-20.6-2.68-30.93-.53-9.77-1.05-19.52-1.58-29.27-.4-9.77-.45-19.66.86-29.5.65-4.91 1.64-9.78 3.09-14.55 1.45-4.76 3.43-9.4 5.82-13.77 4.76-8.8 11.43-16.46 19.19-22.72 9.34-7.46 20.48-12.72 32.29-14.93 5.9-1.07 12.08-1.32 18.07-.11 5.99 1.12 11.66 3.55 16.78 6.72 10.23 6.49 18.2 16.03 23.57 26.68 5.42 10.66 8.51 22.23 10.76 33.74 2.6 13.72 4.33 27.55 5.43 41.45.25 3.47.48 6.95.67 10.42.18 3.47.33 6.82 1.27 9.75.48 1.47 1.16 2.84 2.04 3.87.92 1.08 2.1 1.96 3.38 2.49 1.26.53 2.6.69 3.73.35 1.13-.3 2.15-1.1 2.8-2.18 1.05-1.69 1.42-4.08 1.47-6.5.02-.62 0-1.24-.02-1.86l-.02-.22s.02-.13-.06-.13l-.16-.08-.33-.18c-.16-.08-.33-.16-.48-.24-.64-.35-1.26-.73-1.86-1.13-4.81-3.22-8.38-8.06-10.29-13.42-1.91-5.39-2.29-11.14-1.43-16.72.46-2.8 1.42-5.72 3.22-8.22 1.8-2.49 4.18-4.3 6.58-5.74 7-4.13 15.23-5.94 23.3-5.26 4.05.38 7.95 1.23 11.79 2.98 1.91.89 3.82 2.22 5.27 3.81 1.48 1.58 2.63 3.33 3.62 5.08 1.96 3.49 3.52 7.28 4.25 11.36.75 4.05.54 8.41-.91 12.41-.72 1.99-1.74 3.9-3.09 5.61-1.35 1.71-3.04 3.12-4.81 4.24-1.78 1.12-3.63 1.98-5.43 2.72l-4.1 1.67-.14 2.15c-.06 1.13-.08 2.25-.03 3.33.1 2.17.48 4.22 1.37 5.99.81 1.66 2.01 3.08 3.44 3.87 1.42.83 3.09 1 4.8.65 3.52-.75 6.31-3.59 8.08-7.19 1.8-3.59 2.95-7.76 3.92-11.92.96-4.19 1.75-8.53 2.6-12.81l5.05-25.78c1.86-8.61 3.89-17.19 6.71-25.64 2.68-7.12 5.69-14.26 9.88-21.02 4.16-6.71 9.47-13.08 16.27-18.07 5.91-4.3 13.29-7.98 21.43-9.34 8.08-1.4 16.75-.67 24.37 2.33 7.89 3.08 14.79 8.49 19.68 15.38 2.45 3.44 4.38 7.3 5.67 11.31 1.31 4 2.04 8.1 2.55 12.16.7 6.01 1.13 12.4.96 17.23l.02 1.08h.02v.16c.57 17.4-1.78 35.31-4.13 52.73z"/><g style="clip-path:url(#clippath-1)"><path transform="rotate(-4.9 156.084 163.556)" d="M154.55 80.55h3.19v166.27h-3.19z"/><path d="m323.02 244.7-3.19-.06c.52-27.72 4.72-55.59 8.79-82.54 4.1-27.19 8.34-55.31 8.77-83.17l3.19.05c-.43 28.08-4.69 56.3-8.81 83.6-4.05 26.85-8.24 54.62-8.76 82.13z"/><path d="M224.96 159.98c-.76 8.59-1.96 17.22-4.89 25.33-2.93 8.11-7.71 15.74-14.6 20.92-4.93 3.7-10.73 6.04-16.56 8.05-8.91 3.08-18.04 5.53-27.29 7.31 0 0 1.89 23.34 2.85 23.19 18.1 5.1 34.04 17.02 52.62 19.87 10.57 1.62 21.43.17 31.69-2.82 10.26-2.99 20.01-7.49 29.67-12.08 4.92-2.34 9.89-4.73 15.21-5.9 4.36-.96 8.86-1.08 13.32-1.2l14.45-.38s2.38-31.27 1.27-31.47c-6.95.9-14.05 1.61-20.95.36s-13.68-4.68-17.54-10.54c-6.31-9.56-3.36-22.35-6.23-33.44 0 0-6.96 1.91-6.51 2.73-1.41 9.05-.24 18.34-1.59 27.39s-6.18 18.57-14.9 21.36c-3.26 1.05-6.78 1.05-10.19.66-3.32-.38-6.72-1.17-9.38-3.2-4.85-3.68-6.09-10.38-6.54-16.46-.94-12.81.04-25.75 2.91-38.27-1.86.06-3.73-.31-6.83-1.43z"/><path d="M226.13 266.9c-3.19 0-6.28-.23-9.28-.69-10.79-1.66-20.78-6.34-30.44-10.86-7.12-3.33-14.47-6.78-22.04-8.95l-.34.05-.61-.45c-.61-.48-1.52-1.2-3.39-24.29l-.12-1.42 1.4-.27c9.14-1.75 18.25-4.19 27.07-7.24 5.5-1.91 11.27-4.17 16.12-7.82 6.08-4.57 10.94-11.55 14.06-20.19 3.03-8.38 4.13-17.31 4.8-24.93l.18-2.06 1.95.7c2.81 1.01 4.56 1.38 6.24 1.34l2.06-.06-.46 2.01c-2.84 12.4-3.8 25.12-2.87 37.8.39 5.33 1.42 11.89 5.91 15.3 2.01 1.53 4.74 2.44 8.6 2.88 3.86.44 6.88.25 9.52-.59 8.38-2.69 12.63-12.13 13.81-20.08.65-4.37.7-8.92.75-13.33.05-4.44.1-9.03.75-13.54l-.11-.21.3-.87c.25-.6.68-1.6 7.56-3.48l1.56-.43.41 1.57c1.14 4.42 1.4 9.09 1.64 13.6.38 7.12.74 13.84 4.38 19.36 3.27 4.96 9.28 8.54 16.49 9.85 6.8 1.23 13.84.49 20.46-.37l.25-.03.25.05c1.68.31 2.52.47.03 33.16l-.11 1.44-15.89.41c-4.32.11-8.79.23-13.02 1.16-5.03 1.11-9.87 3.41-14.55 5.64l-.32.15c-9.89 4.7-19.62 9.17-29.91 12.17-8.11 2.36-15.85 3.55-23.1 3.55zm-60.51-23.46c7.68 2.24 15.03 5.69 22.15 9.03 9.46 4.43 19.23 9.01 29.57 10.6 9.34 1.44 19.77.5 31-2.77 10.06-2.93 19.66-7.34 29.43-11.99l.32-.15c4.84-2.3 9.85-4.68 15.24-5.87 4.53-1 9.15-1.12 13.62-1.23l13.01-.34c.87-11.61 1.58-24.14 1.45-28.14-6.42.81-13.19 1.37-19.93.16-8.07-1.46-14.84-5.55-18.59-11.23-4.12-6.24-4.52-13.71-4.9-20.94-.2-3.8-.41-7.71-1.17-11.38-1.58.48-3.12 1.03-3.83 1.39-.64 4.33-.68 8.84-.73 13.21-.05 4.51-.1 9.18-.79 13.76-1.32 8.89-6.22 19.52-15.99 22.65-3.04.97-6.59 1.21-10.85.72-2.8-.32-6.9-1.03-10.16-3.51-5.51-4.18-6.72-11.61-7.16-17.61-.91-12.37-.06-24.76 2.53-36.88-1.04-.13-2.15-.38-3.46-.78-.71 7.37-1.91 15.73-4.79 23.72-3.33 9.22-8.57 16.71-15.14 21.65-5.2 3.91-11.24 6.29-16.99 8.28-8.51 2.95-17.29 5.33-26.11 7.09.74 8.81 1.72 18.11 2.29 20.57z"/><g><path d="M251.18 135.6s.03-.02 0 0zM252.64 135.52c-.09-.35-.14-.39-.21-.2-.02.07-.05.09-.08.12-.23.2-.49.16-.74.2-.08.02-.11-.04-.16-.02-.08.02-.05-.06-.15-.03-.04 0 .09-.11-.13.02h-.01c.18-.12.13-.09.14-.11 0-.03.02-.05.02-.07 0-.01-.14-.01 0-.06.16-.02-.22-.05.05-.05-.02-.24.05-.56.07-.83.02-.29.15-.56.15-.86 0-.18.08-.34.06-.52-.02-.24.04-.46.04-.69 0-.39.07-.78.16-1.15.07-.31.08-.65.19-.95.06-.16.1-.33.23-.47.05-.05-.05-.1-.26-.16l-.1-.03c-1.45-.43-2.13-.43-2.07.01.04.32-.1.59-.15.89-.03.17-.04.35-.11.51-.09.24.02.53-.17.76-.09.11-.17.23-.07.39.08.12.05.22 0 .32-.18.38-.1.81-.22 1.21-.08.27 0 .56-.25.79-.04.04-.04.08-.04.13 0 .15-.03.34-.04.69-.03.66-.35 1.49-.02 1.93.12.14.14.38.33.54.08.07-.03.27.09.27.23-.02.23.19.38.24.29.07.59.23 1.01.22.38-.02.78-.17 1.16-.18h.42c.09-.02.19-.02.28-.04.18-.03.37-.08.54-.14.05-.02.07-.11.06-.31-.05-.82-.2-1.6-.39-2.37zM252.26 143.17s-.02-.01 0 0zM255.16 140.24c-.29-.22-.36-.22-.31 0 .02.07 0 .11 0 .15-.1.34-.38.5-.59.73-.24.26-.53.46-.76.71-.3.33-.7.6-.94.93-.1.14-.3.16-.27.4v.02c-.14-.1-.15-.03-.19 0l-.3.21c-.09.06-.12.23-.26.15-.15-.1-.1.28-.26.05-.17.11-.41.12-.66.14-.26.02-.51-.1-.78-.12-.16-.01-.3-.11-.47-.12-.23-.02-.42-.14-.63-.22-.36-.13-.68-.38-.94-.67-.21-.24-.47-.47-.59-.77-.06-.16-.14-.32-.11-.5 0-.07-.1-.05-.31.01l-.1.03c-1.44.44-1.99.95-1.55 1.45.32.34.5.74.79 1.08.17.19.37.36.53.55.25.29.65.39.88.71.11.16.27.31.5.29.18-.02.31.06.44.15.51.35 1.15.37 1.73.49.41.08.81-.03 1.26.13.07.03.14 0 .22 0 .28-.06.57-.14.83-.28.59-.31 1.26-.47 1.58-.99.12-.19.33-.29.47-.44.06-.07.26.06.26-.04 0-.2.23-.16.31-.27.17-.22.43-.34.64-.51.19-.16.31-.39.51-.53.38-.27.7-.59.96-.98.04-.05 0-.15-.13-.3a10.42 10.42 0 0 0-1.74-1.65z"/><g><path d="M266.52 137.41s-.02 0 0 0zM267.12 132.22c-.36.05-.41.12-.23.29.06.05.08.11.1.16.15.44.05.87.05 1.31 0 .49-.08.96-.1 1.4-.03.57-.2 1.06-.28 1.5-.04.18-.21.29-.12.54v.02c-.17-.04-.16.03-.19.08-.09.12-.19.23-.28.33-.08.09-.11.29-.28.23-.16-.08-.11.31-.3.09-.2.13-.46.09-.75.05-.3-.05-.56-.29-.86-.47-.19-.11-.3-.3-.47-.43-.23-.19-.34-.41-.51-.7-.27-.46-.41-1.03-.46-1.63-.05-.5-.12-1.03-.07-1.57.02-.29.04-.58.14-.86.04-.11-.06-.15-.28-.16h-.11c-1.51-.1-2.19.16-2.04.88.11.52.03 1.05.08 1.6l.12.97c.04.5.32.94.37 1.47.03.26.08.54.34.73.2.15.3.34.4.54.43.77 1.19 1.24 1.95 1.66.53.29 1.14.35 1.79.56.1.04.22.02.32.01.43-.04.86-.16 1.24-.36.85-.47 1.71-1.03 1.98-1.91.1-.32.31-.61.4-.94.03-.14.28-.15.24-.29-.08-.26.15-.43.18-.66.04-.45.19-.86.24-1.27.05-.37-.02-.73.04-1.06.11-.63.13-1.27.07-1.9 0-.09-.1-.15-.3-.18-.81-.15-1.61-.13-2.4-.02z"/></g><g><path d="M238.36 139.82s-.02 0 0 0zM238.83 134.31c-.35.11-.39.2-.18.35.07.05.1.1.12.16.22.44.18.91.22 1.35.04.49-.02.96-.05 1.41-.03.59-.25 1.1-.39 1.62-.06.22-.26.35-.19.62v.02c-.17-.04-.17.05-.21.1-.11.15-.23.28-.35.41-.11.12-.17.34-.36.31-.2-.05-.18.36-.43.18-.31.19-.68.21-.99.21-.34-.02-.53-.18-.8-.35-.17-.11-.29-.31-.47-.49-.24-.24-.4-.59-.58-.91-.32-.55-.49-1.2-.58-1.87-.07-.56-.18-1.14-.15-1.73.02-.31.02-.63.12-.94.04-.12-.07-.16-.28-.17h-.11c-1.51-.1-2.19.23-2.03 1.03.12.58.07 1.17.16 1.76l.17 1.05c.07.53.37 1 .44 1.55.03.27.1.57.35.76.2.15.28.36.38.56.38.82 1.22 1.53 2.22 1.92.68.27 1.36.19 2.05.3.11.01.22 0 .32-.04.42-.11.82-.26 1.18-.49.83-.52 1.72-1.08 2.05-1.99.12-.34.35-.63.46-.97.05-.14.29-.15.27-.3-.05-.28.19-.46.23-.71.08-.49.25-.97.31-1.45.05-.44-.02-.87 0-1.28.05-.78-.03-1.53-.21-2.22-.02-.1-.12-.15-.32-.15-.83-.03-1.61.12-2.37.37z"/></g></g></g><path d="M272.8 116.6c2.58 3.15 5.19 6.36 6.74 10.12.31.76.57 1.63.23 2.37-.21.45-.62.78-1.03 1.06-1.35.93-2.88 1.57-4.22 2.51-1.34.94-2.55 2.27-2.77 3.89s.88 3.48 2.08 3.88c-1.94.49-3.8 1.45-5.15 2.94s-2.11 3.55-1.82 5.53c.29 1.98 1.74 3.81 3.9 5.31-2.45.94-3.17 4.7-1.23 6.47.85.78 2.01 1.14 3.13 1.4 3.67.87 7.55 1.04 11.21.09 3.65-.95 7.05-3.08 9.19-6.19 1.86-2.7 2.69-5.97 3.25-9.2.71-4.08 1.01-8.44-.67-12.22-1.39-3.14-4.04-5.59-6.97-7.38-3.05-1.87-6.7-3.36-8.24-6.59-.97-2.03-.89-4.38-.8-6.63-2.16.03-4.3.69-6.84 2.64z"/><path d="M278.67 163.6c-2.01 0-4.09-.25-6.2-.75-1.22-.29-2.49-.68-3.48-1.59-1.12-1.02-1.6-2.62-1.28-4.29.22-1.17.8-2.18 1.62-2.85-1.87-1.54-2.99-3.29-3.26-5.11-.31-2.12.44-4.43 2.02-6.18 1.04-1.15 2.41-2.07 4.02-2.69-.84-.98-1.33-2.41-1.16-3.7.29-2.08 1.85-3.56 3.11-4.43.72-.5 1.48-.92 2.22-1.32.68-.37 1.37-.75 2.01-1.19.31-.22.63-.46.76-.74.22-.47-.01-1.17-.25-1.73-1.51-3.68-4.11-6.85-6.62-9.92l-.52-.64.65-.5c2.47-1.9 4.72-2.76 7.31-2.8h.84l-.04.83c-.09 2.04-.19 4.35.72 6.25 1.13 2.37 3.53 3.72 6.07 5.16.63.36 1.26.71 1.87 1.09 3.46 2.12 5.97 4.79 7.28 7.74 1.86 4.2 1.37 8.98.72 12.68-.53 3.05-1.35 6.56-3.38 9.52-2.16 3.14-5.59 5.45-9.65 6.51-1.7.44-3.51.66-5.39.66zm-4.72-46.86c2.41 2.96 4.83 6.04 6.33 9.68.35.86.7 1.98.21 3.01-.3.62-.82 1.04-1.3 1.37-.69.47-1.41.87-2.14 1.27-.71.39-1.41.78-2.07 1.24-.82.57-2.22 1.76-2.44 3.34-.17 1.26.72 2.74 1.55 3.02l2.56.86-2.62.66c-1.37.35-3.31 1.1-4.75 2.7-1.26 1.4-1.87 3.22-1.62 4.88.25 1.67 1.48 3.32 3.56 4.77l1.24.86-1.41.54c-.88.34-1.55 1.23-1.76 2.33-.21 1.1.09 2.18.79 2.81.72.66 1.76.98 2.78 1.22 3.82.91 7.57.95 10.82.1 3.64-.95 6.82-3.09 8.74-5.87 1.86-2.7 2.62-6.01 3.12-8.89.6-3.47 1.08-7.95-.61-11.76-1.17-2.65-3.48-5.08-6.65-7.02-.59-.36-1.2-.71-1.82-1.06-2.64-1.5-5.38-3.05-6.72-5.87-.93-1.96-.97-4.19-.91-6.13-1.66.17-3.21.79-4.86 1.93z"/><g><path d="M231.15 119.29c-2.69 4.24-3.14 9.5-3.16 14.52-.03 5.02.28 10.15-1.13 14.97-1.63 5.53-5.59 10.34-10.71 13-1.89.98-4.07 1.69-6.14 1.18-2.64-.64-4.54-3.28-4.72-5.99s1.13-5.39 3.1-7.27c-2.25-.17-4.44-1.62-5.18-3.76-.74-2.13.26-4.81 2.35-5.68-2.13-.5-3.57-2.75-3.5-4.93.07-2.18 1.45-4.19 3.27-5.39 1.82-1.2 4.04-1.69 6.22-1.8 3.04-.15 6.46.28 8.78-1.7 2.04-1.75 2.39-4.72 2.61-7.39 2.53.12 5.06.25 8.23.24z"/><path d="M211.45 163.92c-.56 0-1.11-.06-1.63-.19-2.87-.7-5.11-3.52-5.33-6.71-.16-2.33.7-4.79 2.33-6.81-2.04-.61-3.71-2.1-4.37-4.01-.71-2.07-.06-4.41 1.44-5.8-1.62-1.04-2.71-3.03-2.64-5.1.07-2.29 1.46-4.6 3.63-6.03 1.74-1.15 3.97-1.8 6.62-1.93.6-.03 1.21-.04 1.82-.04 2.48-.03 4.83-.05 6.47-1.46 1.77-1.51 2.12-4.21 2.33-6.85l.06-.77.77.04c2.48.12 5.1.29 8.19.24h1.45l-.78 1.22c-2.64 4.16-3.02 9.46-3.04 14.1v2.46c.02 4.22.05 8.59-1.17 12.73-1.68 5.7-5.83 10.74-11.1 13.48-1.86.96-3.53 1.44-5.06 1.44zm12.2-44.04c-.25 2.72-.78 5.42-2.81 7.17-2.09 1.79-4.83 1.82-7.49 1.85-.6 0-1.19.01-1.77.04-2.36.12-4.32.68-5.82 1.67-1.74 1.15-2.85 2.97-2.91 4.75-.06 1.89 1.23 3.74 2.89 4.13l2.4.56-2.27.95c-1.64.68-2.53 2.87-1.9 4.69.6 1.74 2.45 3.07 4.49 3.22l1.79.14-1.3 1.24c-1.95 1.85-3.01 4.33-2.85 6.63.17 2.48 1.94 4.74 4.12 5.27 1.57.38 3.4.02 5.59-1.12 4.9-2.55 8.75-7.22 10.31-12.52 1.15-3.92 1.13-8.16 1.11-12.27v-2.47c.02-4.43.36-9.46 2.59-13.73-2.27-.02-4.24-.11-6.13-.2z"/></g><g><path class="cls-2" d="M280.03 51.06c-.08.13-.11.48.14.46.03 0 .1.03.13.03l.67.19c.45.13.88.32 1.31.48 1.69.73 3.2 1.77 4.49 3.04 2.58 2.52 4.22 6.14 4.1 9.83-.13 3.62-1.45 6.77-2.12 9.86-.72 3.09-.99 6.49-2.33 9.78-1.56 3.7-3.94 6.15-5.26 9.42-.49 1.1-1.45 2.45-1.98 2.74-.02.05-.02.08-.03.13.02 0 .03-.02.05-.02.05-.16.37-.48 1.16-.49 1.27 0 2.71.96 3.23 2.37.43 1.1.51 2.23.51 3.27s-.1 2.01-.16 3c-.27 4.06-.32 8.14-.94 12.35-.11.67-.1 1.34-.26 2.12-.13.75-.45 1.63-1.1 2.15-.14.16-.76.69-1.1.83-.89.51-1.75.56-2.42.65l-2.14.26c-1.42.16-2.85.24-4.3.32-2.88.11-5.78.24-8.64.35-4.88.21-9.61.73-14.53.56-2.71.45-5.91.32-8.64.14-4.83-.33-9.67-.56-14.5-.81l-4.13-.22-1.64-.1c-.14-.46-.14-1.07-.22-1.59l-.24-2.37c-.24-2.45-.33-4.91-.3-7.36.03-4.97.51-9.94 1.39-14.85.13-.62.35-1.63 1.08-2.41.72-.76 1.58-1.08 2.23-1.29.69-.21 1.27-.33 1.82-.49l.26-.08c.06 0 .06-.06.08-.13l.7-3.22.83-3.6c.4-1.63.51-3.09 1.2-4.96.65-1.74 1.18-4.08 1.88-6.14.62-1.9 1.26-3.89 2.09-5.59 3.38-7 7.57-13.94 13.78-19.01 1.34-1.12 2.8-2.1 4.32-3.01.76-.45 1.53-.88 2.33-1.24l.53-.25.19-.08.4-.18-.29-.46-.25-.46-.38-.75c-.49-.99-.96-2.01-1.32-3.09-.72-2.12-1.18-4.61-.33-7.06.43-1.31 1.37-2.55 2.22-3.36.83-.86 1.47-1.59 1.58-2.2.18-.62-.08-1.63-.19-3.01-.1-1.45.27-2.9.94-4.14 1.08-2.12 3-3.98 5.27-4.48.32-.06.96-.35 1.74-.57.78-.22 1.74-.37 2.52-.27.99.05 1.94.37 2.84.78.84.43 1.51.92 2.12 1.26.61.37 1.1.51 1.66.57.56.08 1.2-.02 1.85-.19 1.86-.46 3.82-1.66 6.36-2.22 1.26-.29 2.76-.27 4.14.25 1.35.54 2.42 1.53 3.2 2.6.96 1.29 1.56 2.8 1.93 4.22.37 1.43.56 2.82.78 4.1.37 2.61 1.37 5.21 1.94 8.22.37 1.88.46 4-.02 6.01-.45 2.01-1.53 4.08-3.39 5.42-1.94 1.35-4.06 1.69-5.7 2.22-.88.26-1.51.53-2.12.92-.29.19-.56.41-.76.62-.16.16-.14.14-.22.24z"/><g style="clip-path:url(#clippath-2)"><path d="M225.3 116.08s.03-.01 0 0zM225.77 124.92c.46-.12.52-.24.26-.47a.605.605 0 0 1-.15-.23c-.25-.64-.18-1.31-.23-1.96-.06-.73-.01-1.46-.06-2.19-.06-.94.01-1.89-.11-2.83-.05-.38.09-.78-.19-1.15l-.02-.03c.21-.11.15-.25.14-.38l-.02-1.05c-.02-.34-.2-.7-.04-1.01.19-.36-.31-.68.02-1.02-.1-.76-.09-1.53-.14-2.3-.06-.77.03-1.55-.06-2.32-.05-.46 0-.93-.08-1.39-.1-.61-.08-1.21-.16-1.82-.12-1.02-.16-2.05-.17-3.07-.01-.86-.11-1.71-.08-2.57.02-.45.02-.9.13-1.35.04-.17-.09-.22-.38-.22h-.14c-1.96 0-2.81.46-2.59 1.49.17.75.08 1.5.11 2.25.02.44.06.88.03 1.32-.04.65.19 1.3.02 1.95-.08.32-.15.67.03.99.14.26.12.53.09.79-.12 1.04.11 2.07.07 3.1-.03.7.15 1.39-.1 2.09a.74.74 0 0 0-.02.33c.03.44.05.88.11 1.32.14 1.02-.17 2.06.11 3.08.1.39.02.82.06 1.22.02.17-.28.28-.18.43.19.28-.04.57 0 .85.07.57-.04 1.16-.04 1.73 0 .52.12 1.04.09 1.56-.06.98 0 1.94.17 2.91.02.14.14.21.41.24 1.07.11 2.1-.02 3.1-.29zM227.65 106.76s-.03.01 0 0zM227.76 97.81c-.47.08-.53.19-.3.45.08.08.11.16.13.25.2.67.09 1.33.09 2l-.08 2.22c0 .96-.13 1.91-.06 2.87.03.39-.13.78.13 1.17v.03h.02c-.21.1-.16.24-.16.37l-.03 1.07c0 .34.17.71-.01 1.02-.21.36.28.7-.07 1.03.06.78.02 1.55.05 2.33.03.78-.09 1.56-.02 2.34.04.47-.03.94.03 1.4.08.61.05 1.23.11 1.84.1 1.03.11 2.07.1 3.1 0 .86.08 1.73.04 2.59-.02.46-.03.91-.14 1.37-.04.17.09.22.38.22h.14c1.96-.03 2.81-.51 2.6-1.53-.16-.75-.06-1.5-.08-2.25-.01-.43-.05-.88 0-1.31.05-.65-.17-1.29.02-1.95.09-.32.16-.66 0-.99-.14-.26-.11-.53-.07-.79.15-1.03-.05-2.06.03-3.09.05-.69-.1-1.39.18-2.08.04-.11.03-.22.03-.33-.01-.44-.01-.88-.05-1.32-.09-1.03.27-2.04.05-3.07-.08-.39.03-.81 0-1.22 0-.18.29-.26.2-.42-.18-.29.07-.56.05-.85-.03-.57.11-1.15.15-1.72.04-.52-.05-1.04.01-1.55.12-.96.14-1.93.04-2.9-.01-.14-.13-.22-.39-.28-1.06-.22-2.09-.19-3.11-.02zM233.22 106.8s-.03.01 0 0zM233.34 97.76c-.47.08-.53.19-.3.45.08.08.1.17.13.25.2.68.08 1.35.09 2.02l-.09 2.24c0 .97-.14 1.93-.07 2.89.03.39-.13.79.13 1.18v.03h.02c-.22.1-.16.24-.16.38l-.03 1.08c0 .35.17.72-.01 1.03-.21.36.28.71-.07 1.04.06.78.02 1.57.04 2.35.03.79-.09 1.58-.03 2.37.04.47-.03.95.03 1.42.08.62.05 1.24.11 1.86.1 1.04.11 2.09.1 3.13 0 .87.08 1.74.04 2.62-.02.46-.03.92-.14 1.38-.04.18.09.23.38.22h.14c1.96-.03 2.81-.51 2.6-1.54-.16-.75-.06-1.51-.07-2.27-.01-.44-.04-.88 0-1.33.05-.65-.16-1.31.02-1.97.09-.32.17-.67 0-1-.14-.26-.11-.54-.07-.8.15-1.04-.04-2.08.04-3.12.05-.7-.09-1.4.19-2.09.04-.11.04-.22.03-.33-.01-.44 0-.89-.05-1.33-.09-1.04.27-2.06.05-3.1-.08-.4.03-.82.01-1.23 0-.18.3-.27.2-.42-.18-.29.07-.56.05-.85-.03-.58.11-1.16.15-1.73.04-.52-.05-1.05.02-1.57.13-.97.14-1.95.05-2.92-.01-.14-.13-.23-.39-.28-1.06-.23-2.09-.2-3.11-.03zM238.35 106.91s-.03.01 0 0zM238.06 97.84c-.46.11-.52.23-.28.47.08.08.11.16.14.24.23.66.15 1.35.18 2.02.04.75-.02 1.5.01 2.25.05.97-.05 1.94.07 2.91.05.39-.1.8.18 1.18h-.01.01s0 .02.02.02c-.21.11-.15.25-.15.39 0 .36 0 .72.02 1.08.01.35.2.71.03 1.04-.19.37.31.7-.03 1.04.1.78.09 1.57.15 2.36.06.79-.02 1.59.08 2.38.06.47.01.95.1 1.42.11.62.11 1.24.19 1.86.14 1.04.2 2.09.24 3.14.03.88.16 1.75.16 2.63 0 .46.01.93-.08 1.39-.03.18.1.22.39.21h.14c1.96-.07 2.79-.58 2.53-1.61-.19-.76-.12-1.53-.18-2.29-.03-.44-.08-.89-.07-1.34.02-.66-.22-1.31-.07-1.99.07-.33.14-.68-.05-1.01-.15-.26-.13-.54-.11-.8.1-1.06-.14-2.1-.11-3.15.02-.71-.16-1.41.09-2.12.04-.11.03-.23.02-.34-.03-.45-.05-.89-.11-1.34-.14-1.04.18-2.09-.09-3.13-.1-.4 0-.83-.05-1.24-.02-.18.28-.28.18-.44-.19-.28.04-.57.01-.86-.06-.58.06-1.17.08-1.76.02-.53-.1-1.06-.06-1.59.08-.99.05-1.97-.09-2.96-.02-.14-.14-.22-.4-.26-1.07-.15-2.1-.05-3.1.19zM242.89 106.85s-.03.01 0 0zM243.13 97.73c-.47.08-.54.19-.31.45.08.09.1.17.12.25.18.68.05 1.36.04 2.04-.01.75-.11 1.5-.12 2.26 0 .97-.16 1.94-.09 2.92.03.4-.14.8.12 1.19v.03h.02c-.22.1-.16.25-.17.38l-.03 1.09c0 .35.17.73-.01 1.04-.21.36.28.71-.07 1.05.07.79.03 1.58.07 2.37.03.8-.07 1.59 0 2.39.05.48-.01.96.06 1.43.09.62.08 1.25.15 1.88.12 1.05.16 2.11.19 3.16.02.88.14 1.76.13 2.64 0 .47.01.93-.08 1.4-.03.18.1.23.38.22h.14c1.96-.07 2.79-.57 2.54-1.61-.19-.76-.11-1.52-.16-2.28-.03-.44-.07-.89-.05-1.34.03-.66-.2-1.31-.04-1.98.08-.32.15-.67-.03-1.01-.14-.26-.12-.54-.09-.8.13-1.05-.09-2.1-.02-3.15.04-.7-.11-1.41.16-2.11.04-.11.03-.22.03-.34-.01-.45-.02-.89-.06-1.34-.09-1.04.27-2.07.05-3.12-.08-.4.03-.83.02-1.24 0-.18.3-.27.2-.43-.18-.29.07-.57.06-.86-.03-.58.12-1.16.17-1.75.05-.53-.04-1.06.04-1.58.14-.98.18-1.96.11-2.94-.01-.14-.12-.23-.38-.28-1.05-.23-2.09-.2-3.11-.03zM252.14 116.64s.03-.01 0 0zM252.14 125.7c.46-.09.53-.21.29-.46a.467.467 0 0 1-.13-.25c-.21-.67-.1-1.35-.11-2.02-.01-.75.07-1.5.06-2.24-.02-.97.11-1.93.03-2.9-.03-.39.12-.79-.14-1.18h.01-.01s0-.02-.01-.02c.21-.11.16-.25.16-.38 0-.36.02-.72.02-1.08 0-.35-.18-.72 0-1.04.2-.36-.29-.71.06-1.04-.07-.78-.04-1.57-.07-2.35-.04-.79.07-1.58 0-2.37-.04-.47.02-.95-.05-1.42-.09-.62-.06-1.24-.13-1.87-.11-1.05-.13-2.1-.14-3.14 0-.87-.1-1.75-.07-2.62.02-.46.02-.92.12-1.38.04-.18-.1-.23-.38-.23h-.14c-1.96 0-2.81.48-2.58 1.52.17.76.07 1.53.1 2.29.02.44.05.89.02 1.34-.05.66.18 1.32 0 1.98-.08.32-.16.67.02 1.01.14.26.11.54.08.81-.14 1.05.07 2.1 0 3.15-.04.7.11 1.41-.16 2.11-.04.11-.03.22-.03.34.02.45.02.89.06 1.34.1 1.04-.25 2.08-.01 3.13.09.4-.02.83 0 1.24.01.18-.29.27-.2.43.18.29-.06.57-.04.86.04.58-.1 1.17-.13 1.75-.03.53.06 1.06 0 1.58-.11.99-.12 1.97-.01 2.95.02.14.13.22.39.27 1.06.19 2.09.12 3.11-.08zM257.42 116.69s.03-.01 0 0zM257.21 125.66c.47-.09.54-.21.3-.46-.08-.08-.1-.16-.13-.25-.19-.66-.07-1.33-.07-2l.11-2.22c0-.96.16-1.91.09-2.87-.03-.39.14-.78-.11-1.17v-.03h-.01c.22-.1.16-.24.17-.37l.04-1.07c0-.34-.16-.72.02-1.02.21-.35-.27-.7.08-1.03-.05-.78 0-1.55-.02-2.33s.11-1.56.05-2.35c-.03-.47.04-.94-.02-1.41-.08-.62-.04-1.23-.09-1.85-.09-1.04-.09-2.08-.07-3.12.02-.87-.06-1.73-.01-2.6.03-.46.04-.91.15-1.36.04-.17-.09-.23-.37-.24h-.14c-1.96-.09-2.82.35-2.61 1.4.15.77.04 1.52.05 2.28 0 .44.04.89 0 1.33-.06.65.15 1.32-.04 1.97-.09.32-.17.66 0 1 .13.27.1.54.06.8-.16 1.04.02 2.09-.07 3.13-.06.7.08 1.41-.21 2.1-.04.11-.04.22-.04.33 0 .44 0 .89.03 1.33.08 1.04-.29 2.06-.08 3.11.08.4-.04.82-.02 1.23 0 .18-.3.27-.21.42.17.29-.08.57-.06.86.03.58-.12 1.16-.17 1.74-.05.52.04 1.06-.03 1.57-.14.98-.16 1.96-.08 2.93.01.14.13.22.38.27 1.06.19 2.09.13 3.11-.07zM258.85 107.17s-.03.01 0 0zM258.5 98.28c-.46.11-.52.23-.27.46.08.08.11.15.14.24.24.65.15 1.32.19 1.98.04.73-.01 1.47.03 2.21.05.95-.04 1.9.09 2.85.05.39-.09.78.19 1.15h-.01.01s0 .02.02.02c-.21.11-.15.25-.15.38 0 .35 0 .71.02 1.06.02.34.2.7.04 1.02-.19.36.31.68-.02 1.02.1.77.1 1.54.17 2.31.07.78-.01 1.55.09 2.33.06.46.02.93.1 1.39.11.61.11 1.22.2 1.83.15 1.02.22 2.05.26 3.08.04.86.17 1.71.17 2.57 0 .46.02.91-.07 1.36-.03.17.1.22.39.21h.14c1.96-.08 2.79-.59 2.52-1.6-.2-.74-.13-1.5-.19-2.24-.03-.43-.09-.87-.08-1.31.02-.65-.23-1.29-.08-1.95.07-.32.13-.67-.06-.99-.15-.25-.14-.53-.11-.79.09-1.04-.15-2.06-.13-3.09.02-.69-.17-1.38.08-2.08.04-.11.02-.22.02-.33-.03-.44-.06-.88-.12-1.31-.14-1.02.16-2.05-.11-3.07-.1-.39-.01-.81-.05-1.21-.02-.17.28-.28.18-.43-.19-.28.04-.56 0-.85-.06-.57.05-1.15.06-1.73.01-.52-.11-1.04-.07-1.55.08-.97.04-1.94-.1-2.9-.02-.14-.14-.21-.4-.25-1.07-.14-2.1-.04-3.1.21zM263.49 107.22s-.03.01 0 0zM263.82 98.44c-.47.07-.54.18-.31.43.08.08.1.16.12.25.18.66.04 1.31.03 1.96-.02.73-.13 1.45-.14 2.17-.02.94-.18 1.87-.12 2.81.02.38-.15.77.11 1.15v.03h.01c-.22.1-.16.24-.17.37l-.04 1.05c0 .34.16.7-.02 1-.21.35.27.69-.08 1.01.06.76.01 1.52.04 2.29s-.09 1.53-.02 2.3c.04.46-.02.92.04 1.38.09.6.07 1.21.13 1.81.11 1.01.14 2.03.16 3.05.01.85.12 1.69.1 2.54 0 .45 0 .9-.1 1.34-.04.17.1.22.38.21h.14c1.96-.04 2.8-.52 2.56-1.52-.18-.73-.1-1.47-.13-2.2-.02-.43-.06-.86-.04-1.29.04-.64-.19-1.27-.01-1.91.08-.31.16-.65-.02-.97-.14-.25-.12-.52-.08-.77.14-1.01-.06-2.02.01-3.03.05-.68-.1-1.36.19-2.03a.7.7 0 0 0 .03-.32c0-.43 0-.86-.04-1.29-.08-1 .29-1.99.08-3.01-.08-.39.04-.8.03-1.19 0-.17.3-.26.21-.41-.17-.28.08-.55.07-.83-.02-.56.13-1.12.19-1.68.05-.51-.03-1.02.06-1.52.15-.94.2-1.88.14-2.83 0-.13-.12-.22-.38-.28-1.05-.23-2.09-.22-3.11-.07zM271.82 116.62s.03-.01 0 0zM271.59 125.15c.47-.09.54-.2.3-.43-.08-.08-.1-.15-.13-.23-.19-.63-.07-1.27-.06-1.9l.12-2.11c0-.91.16-1.82.1-2.73-.02-.37.14-.75-.11-1.11v-.03h-.01c.22-.1.16-.23.17-.36l.05-1.02c0-.33-.16-.68.03-.98.21-.34-.27-.67.09-.98-.05-.74 0-1.48-.02-2.22-.02-.75.11-1.49.06-2.23-.03-.45.04-.89-.01-1.34-.07-.59-.03-1.17-.08-1.76-.08-.99-.08-1.98-.06-2.97.02-.82-.06-1.65 0-2.48.03-.44.04-.87.16-1.3.04-.16-.09-.22-.37-.23h-.14c-1.96-.1-2.82.32-2.62 1.32.15.73.04 1.45.05 2.17 0 .42.03.85 0 1.27-.06.62.15 1.25-.04 1.88-.09.3-.17.63 0 .95.13.26.1.52.06.76-.16.99.02 1.99-.07 2.98-.06.67.08 1.34-.21 2-.05.1-.04.21-.04.32 0 .42 0 .85.03 1.27.08.99-.3 1.96-.09 2.96.08.38-.04.78-.03 1.17 0 .17-.3.26-.21.4.17.28-.08.54-.06.82.03.55-.12 1.11-.18 1.66-.05.5.04 1.01-.04 1.5-.14.93-.17 1.86-.08 2.8.01.13.13.21.38.26 1.06.18 2.09.13 3.11-.06z"/><g><path d="M273.87 107.59s-.03.01 0 0zM273.69 99.22c-.46.09-.53.2-.29.43.08.08.11.15.14.23.22.62.12 1.24.14 1.86.02.69-.04 1.38-.02 2.08.04.89-.07 1.79.05 2.68.05.36-.1.74.18 1.09l.02.03c-.21.11-.15.23-.15.36l.02 1c.02.32.2.66.04.96-.19.34.31.64-.02.96.1.72.1 1.45.18 2.17.07.73 0 1.46.12 2.19.07.43.03.88.13 1.31.12.57.14 1.14.24 1.71.17.96.27 1.92.34 2.89.06.81.23 1.6.26 2.41.02.43.06.85-.01 1.28-.03.17.11.2.39.18h.14c1.95-.19 2.76-.7 2.45-1.63-.22-.68-.19-1.39-.27-2.08-.05-.4-.12-.81-.12-1.22 0-.61-.26-1.19-.13-1.81.07-.3.12-.62-.08-.92-.15-.23-.15-.49-.13-.73.08-.97-.19-1.91-.17-2.88 0-.65-.18-1.29.06-1.94.04-.1.02-.21.01-.31-.03-.41-.06-.82-.12-1.22-.14-.95.17-1.91-.1-2.86-.1-.36 0-.76-.04-1.13-.02-.16.28-.26.18-.4-.19-.26.05-.52.02-.79-.05-.53.07-1.07.09-1.61.02-.48-.09-.97-.03-1.45.1-.9.09-1.8-.03-2.7-.02-.13-.13-.2-.39-.24-1.06-.16-2.1-.09-3.11.11z"/></g><g><path d="M282.01 116.45s.03-.01 0 0zM281.72 124.51c.47-.07.54-.17.31-.4-.08-.08-.1-.15-.13-.23-.19-.6-.06-1.2-.05-1.8.01-.67.12-1.33.13-2 .01-.86.17-1.72.12-2.58-.02-.35.15-.7-.1-1.06h.01-.01s0-.01-.01-.02c.22-.09.16-.22.17-.33.02-.32.04-.64.05-.96 0-.31-.15-.65.03-.92.21-.32-.27-.64.09-.92-.05-.7 0-1.4 0-2.1-.01-.71.12-1.4.07-2.11-.03-.42.05-.84 0-1.27-.07-.56-.03-1.11-.07-1.67-.08-.94-.07-1.87-.04-2.8.02-.78-.05-1.56 0-2.34.03-.41.04-.82.16-1.23.05-.15-.09-.21-.37-.21h-.14c-1.96-.07-2.82.33-2.63 1.27.14.68.03 1.36.03 2.04 0 .39.03.8-.02 1.19-.07.59.14 1.18-.06 1.77-.09.28-.18.59-.01.9.13.24.1.49.06.72-.17.93 0 1.87-.09 2.8-.07.63.07 1.26-.23 1.88-.05.1-.04.2-.04.3 0 .4 0 .8.02 1.19.07.93-.31 1.84-.11 2.78.08.36-.04.74-.03 1.1 0 .16-.3.23-.21.38.17.26-.08.51-.07.77.02.52-.13 1.04-.19 1.56-.05.47.03.95-.05 1.41-.14.87-.18 1.75-.1 2.63.01.12.12.2.38.25 1.05.2 2.09.18 3.11.03z"/></g><g><path d="M271.19 42.15s.04-.01 0 0zM264.65 55.92c.46.15.65.03.71-.45.02-.16.08-.29.14-.42.5-1.05 1.21-1.95 1.78-2.95.63-1.1 1.29-2.2 1.8-3.37.65-1.51 1.35-3.01 1.73-4.63.16-.66.48-1.28.37-1.95v-.05c.25-.12.25-.35.31-.55l.47-1.58c.15-.48.18-1.05.53-1.37.38-.34.19-.98.75-1.19.56-.96 1.43-1.87 2.24-2.96.81-1.12 1.66-2.25 2.22-3.51.34-.75.74-1.47.98-2.24.33-1.02.7-2 .95-3.02.42-1.71.82-3.41 1.18-5.09.31-1.41.49-2.82.81-4.21.17-.73.32-1.47.57-2.18.1-.27-.02-.38-.3-.43l-.14-.03c-1.92-.38-2.91.21-3.03 1.91-.09 1.25-.42 2.44-.65 3.64-.13.7-.25 1.41-.45 2.09-.28 1.01-.34 2.07-.8 3.02-.23.46-.46.95-.47 1.5 0 .44-.18.83-.35 1.2-.72 1.45-1.25 2.98-2.18 4.27-.62.86-1.17 1.77-2.13 2.5-.15.11-.26.27-.38.43-.46.61-.94 1.26-1.32 2.01-.9 1.75-1.67 3.47-1.85 5.17-.07.65-.34 1.26-.5 1.88-.07.27-.4.32-.38.58.03.48-.33.82-.47 1.24-.27.86-.74 1.64-1.15 2.44-.37.72-.65 1.5-1.1 2.16-.83 1.27-1.65 2.51-2.48 3.77-.12.18-.11.35.06.57.66.88 1.52 1.46 2.54 1.79z"/></g><g><path d="M280.41 30.25s-.04 0 0 0zM287.91 18.77c-.48-.08-.63.05-.59.5.01.15-.02.27-.06.4-.3 1.02-.89 1.9-1.39 2.8-.55 1.01-1.2 1.95-1.8 2.91-.78 1.24-1.72 2.33-2.58 3.47-.35.47-.86.8-1.07 1.39v.04h-.01c-.26-.03-.37.16-.51.3l-1.19 1.11c-.38.36-.69.87-1.18 1.06-.55.21-.63.93-1.26 1.01-.88.85-1.86 1.63-2.77 2.49-.93.87-1.94 1.68-2.78 2.64-.5.57-1.07 1.07-1.54 1.66-.61.77-1.3 1.47-1.92 2.22a35.826 35.826 0 0 1-3.32 3.52c-.97.9-1.92 1.84-3 2.58-.57.39-1.14.77-1.78 1.02-.24.1-.24.26-.1.5l.07.12c.95 1.69 2.13 2.05 3.44.85.93-.88 1.96-1.6 2.87-2.45.52-.5 1.03-1.02 1.56-1.5.79-.71 1.36-1.62 2.21-2.26.42-.31.85-.66 1.08-1.17.18-.4.5-.69.81-.97 1.22-1.1 2.2-2.4 3.41-3.44.81-.7 1.53-1.53 2.54-2.04.16-.08.29-.2.42-.32.52-.46 1.05-.92 1.56-1.42 1.18-1.16 2.68-2.02 3.7-3.44.39-.53.94-.99 1.36-1.53.18-.23.51-.17.6-.43.15-.49.63-.71.9-1.11.53-.8 1.18-1.52 1.72-2.31.49-.71.85-1.51 1.32-2.2.89-1.32 1.62-2.71 2.25-4.13.09-.2.05-.37-.15-.56-.8-.75-1.77-1.14-2.82-1.32z"/></g><g><path d="M279.88 36.93s-.03-.02 0 0zM290.91 28.21c-.44-.21-.62-.12-.73.33-.04.15-.11.26-.18.38-.61.92-1.45 1.61-2.22 2.35-.85.82-1.78 1.55-2.68 2.28-1.16.95-2.44 1.69-3.67 2.46-.5.32-1.12.44-1.55.93l-.03.03c-.24-.12-.42.02-.61.1l-1.59.66c-.52.22-1.01.61-1.57.65-.64.05-.97.73-1.63.66-1.12.64-2.25 1.18-3.37 1.78-1.13.61-2.3 1.13-3.37 1.57-.65.29-1.36.44-2.03.69-.89.33-1.83.48-2.76.67-1.57.32-3.19.39-4.8.26-1.34-.1-2.69-.23-3.98-.6-.68-.2-1.36-.41-1.99-.75-.24-.13-.36-.03-.46.24l-.05.13c-.71 1.8-.23 2.96 1.61 3.23 1.32.18 2.61.5 3.92.62l2.31.12c1.15.06 2.26-.21 3.42-.17.56.02 1.18 0 1.72-.28.42-.23.89-.28 1.34-.37 1.78-.29 3.5-1.1 5.05-1.83 1.05-.48 2.02-1.15 3.15-1.42.18-.04.34-.14.5-.22l1.9-.99c1.45-.76 3.18-1.04 4.7-2 .57-.36 1.29-.6 1.9-.97.26-.16.57.02.75-.21.34-.41.88-.47 1.29-.77.81-.6 1.69-1.1 2.49-1.71.72-.55 1.33-1.22 2.02-1.77 1.3-1.04 2.44-2.2 3.49-3.43.15-.17.16-.35.03-.59-.55-.96-1.36-1.6-2.33-2.07z"/></g><g><path d="M270.57 41.83s.03-.02 0 0zM272.53 55.24c.47-.13.54-.33.32-.73-.08-.13-.1-.26-.13-.4-.23-1.06-.19-2.12-.35-3.15-.16-1.14-.29-2.27-.53-3.36-.3-1.41-.5-2.81-.85-4.15-.14-.55-.09-1.13-.43-1.62l-.02-.04c.19-.18.1-.37.08-.55l-.15-1.48c-.03-.46-.25-.97-.06-1.39.19-.48-.28-.95.1-1.37-.01-1.03.23-2.05.46-3.12.23-1.07.67-2.13.93-3.27.16-.68.42-1.36.53-2.07.15-.95.37-1.89.46-2.84.15-1.6.25-3.19.32-4.76.05-1.31-.04-2.61-.01-3.91.01-.68 0-1.36.1-2.04.04-.26-.1-.33-.38-.33h-.14c-1.96.04-2.79.76-2.55 2.26.17 1.1.08 2.2.07 3.29 0 .63 0 1.27-.07 1.9-.11.92.02 1.87-.29 2.77-.15.43-.3.89-.22 1.38.06.39-.04.76-.16 1.11-.47 1.38-.75 2.88-1.25 4.38-.34 1.01-.45 2.09-.92 3.12-.08.16-.09.35-.11.52-.1.71-.13 1.43-.13 2.14.05 1.65-.13 3.31.36 4.86.19.58.19 1.24.34 1.84.06.26-.2.46-.06.67.26.39.11.84.22 1.26.22.83.27 1.69.4 2.51.11.74.34 1.47.4 2.19.09 1.33.17 2.62.25 3.95 0 .18.12.3.38.37 1.05.31 2.08.32 3.11.04z"/></g><g><path d="M269.37 41.31s.02-.03 0 0zM278.11 51.61c.25-.42.18-.61-.26-.75-.15-.04-.25-.12-.36-.2-.86-.65-1.51-1.48-2.24-2.21-.8-.82-1.53-1.69-2.29-2.5-.98-1.05-1.78-2.2-2.61-3.28-.35-.44-.5-1-.98-1.35l-.03-.03c.11-.24-.03-.38-.12-.55-.26-.43-.42-.93-.64-1.39-.22-.44-.56-.88-.55-1.37 0-.55-.62-.86-.43-1.44-.41-1.06-.66-2.2-.95-3.32-.29-1.14-.41-2.33-.7-3.49-.17-.7-.24-1.42-.43-2.12-.25-.92-.41-1.87-.66-2.81-.44-1.57-.8-3.17-1.29-4.76-.39-1.33-.96-2.61-1.52-3.91-.26-.7-.66-1.34-.91-2.05-.1-.27-.26-.28-.5-.13l-.12.07c-1.68 1.05-2.05 2.03-1.22 3.24.61.91.91 1.99 1.28 3.03.19.62.45 1.22.56 1.88.2.95.63 1.86.66 2.87.02.49.04 1.02.31 1.49.21.37.26.78.3 1.19.15 1.59.63 3.15.88 4.76.18 1.09.56 2.13.58 3.27 0 .18.06.35.1.52.21.68.43 1.36.68 2.03.66 1.53.95 3.26 2.05 4.64.38.53.67 1.19 1.07 1.72.17.23.02.54.25.69.42.27.51.78.82 1.14.63.7 1.14 1.49 1.74 2.2.54.63 1.19 1.17 1.7 1.78.97 1.17 1.99 2.22 3 3.23.14.14.31.16.55.04.99-.48 1.72-1.21 2.27-2.12z"/></g><g><path d="M264.46 42.91s0 .04 0 0zM251.28 36.48c-.09.48.04.63.51.62.15 0 .28.03.42.08 1.05.35 1.97.96 2.94 1.45 1.08.55 2.13 1.16 3.23 1.68 1.42.66 2.79 1.43 4.27 1.97.6.22 1.14.62 1.82.61h.05c.08.26.31.3.51.38l1.62.66c.53.2 1.15.25 1.57.6.48.4 1.18.13 1.59.63 1.26.35 2.56.76 3.94.94 1.38.18 2.72.34 4.03.28.78-.04 1.55.02 2.32-.07 1.01-.11 2.03-.13 3.05-.27 1.7-.23 3.41-.45 5.12-.76 1.42-.26 2.81-.68 4.21-1.06.74-.2 1.47-.45 2.22-.62.29-.06.32-.22.22-.48l-.05-.13c-.74-1.83-1.7-2.33-3.12-1.66-1.06.49-2.22.69-3.36.94-.66.14-1.34.3-2.02.36-1.01.09-2 .43-3.05.33-.51-.05-1.05-.08-1.56.12-.4.16-.84.15-1.25.13-1.64-.1-3.31.13-4.87-.05-1.05-.12-2.08-.14-3.03-.68-.14-.08-.31-.12-.48-.16l-1.96-.58c-1.57-.46-2.98-1.38-4.59-1.79-.62-.15-1.2-.52-1.8-.75-.26-.1-.28-.44-.54-.45-.49-.02-.8-.42-1.22-.59-.85-.34-1.63-.86-2.44-1.29-.73-.39-1.53-.68-2.23-1.11-1.33-.81-2.68-1.54-4.08-2.21-.2-.09-.37-.06-.56.13-.78.78-1.21 1.72-1.41 2.77z"/></g><g><path d="M260.31 36.18s-.02.03 0 0zM253.05 25.21c-.23.43-.18.58.23.65.14.02.23.08.33.16.77.54 1.28 1.36 1.84 2.13.62.87 1.13 1.82 1.69 2.76.73 1.21 1.32 2.54 2.13 3.77.33.5.51 1.11 1.04 1.49l.03.03c-.1.25.07.41.18.59.29.48.59.96.91 1.42.3.45.81.82.96 1.33.22.58.92.7 1.02 1.33.9.9 1.78 1.79 2.74 2.58.97.79 1.88 1.63 2.92 2.28.62.39 1.19.86 1.84 1.21.86.45 1.66.99 2.55 1.4 1.47.71 2.97 1.4 4.53 1.97 1.3.48 2.67.76 4.04 1.03.73.13 1.44.25 2.19.38.28.06.37-.07.38-.35v-.14c.06-1.98-.53-2.81-1.94-2.81-1.06-.01-2.08-.36-3.09-.68-.59-.19-1.2-.38-1.76-.65-.83-.41-1.78-.63-2.54-1.24-.36-.3-.76-.61-1.26-.71-.4-.07-.73-.31-1.03-.55-1.2-.93-2.57-1.66-3.72-2.65-.76-.66-1.64-1.22-2.16-2.11-.08-.14-.2-.24-.32-.35-.45-.44-.88-.89-1.3-1.35-1.01-1.06-1.55-2.49-2.54-3.66-.38-.45-.6-1.05-.93-1.56-.14-.22.05-.5-.15-.65-.37-.29-.37-.77-.6-1.14-.47-.74-.79-1.58-1.23-2.38-.39-.72-.92-1.37-1.33-2.09-.78-1.36-1.77-2.64-2.99-3.72-.17-.15-.35-.17-.59-.04-.95.55-1.56 1.4-2.07 2.32z"/></g></g></g></g></svg>