<svg version="1.1" id="spring-swing" xmlns="http://www.w3.org/2000/svg" xmlns:xlink="http://www.w3.org/1999/xlink" viewBox="0 0 486 486"><path d="M437.2 339.6c-1.4-6-2.8-12-4.1-18v.2L368 49.6c-2-8.3-3.5-12.7-4.2-12-.3.3-.7.7-.7 1.9l-.4-1.7h-.4c.5-.2.5-.5-.3-.7-3.3-1-11.3-1.4-26.8.4-9 1.1-18 1.9-27.4 2.7-30.3 2.7-60.6 5.2-90.9 7.7-30.9 2.5-61.8 5-92.7 7.6l-3 19.5-2.7 17.8c-7.5 50.8-14.6 101.7-21.2 152.8-3.3 25.5-6.5 51-9.5 76.6l-4.5 38.3-.5 4.8-.4 3.3c0 1.1-.9 3 .9 2.4l11-.6c6.4-.4 12.8-.8 19.3-1.4l3.5-.4 1.7-.3c.8-.2 1.7-.3 2.5-.7.3-.2.7-.4.8-.8.1-.4.2-.7.2-1.2v-5.8l-.1-13.8-.2-26 18.3-2.2.5-.1c.1.1 0 .3.1.4l.1 1.5.3 5.2.7 10.3 1.4 20.7.4 5.6.2 2.2v.8c0 .1.2 0 .2.1l1.1.1 3.7.3c3.5.2 6.9.4 10.4.6 3.5.1 7 .2 10.4.2 1.7 0 3.5-.1 5.3-.2.9-.1 1.8-.1 2.7-.2.4 0 .9-.1 1.4-.2.2 0 .5-.1.7-.1.2-.1.5-.1.9-.2.7-.2 1.4-.5 2-.9.5-.4 1.1-1 1.2-1.6.1-.7.1-1.4 0-2.2l-.1-1.4c-.1-1.7-.3-3.5-.5-5.2-.4-3.5-.9-6.9-1.4-10.4-2.2-13.7-5.8-27.1-8.5-40.6-12.9-62.1-13.5-126.2-23.5-189.1l-2-11.8c-.7-3.9-1.5-7.8-2.3-11.7l-.4-2.1v-.2c0-.1.1 0 .2 0h.5l1-.1 5.8-.3 11.9-.6c15.9-.8 31.8-1.7 47.7-2.7 31.8-2 63.5-4.4 95.3-6.9l41.2-3.4.9-.1-.1.8-.1 2-.4 5.2c-.2 3.5-.5 7-.6 10.5-.3 7-.5 14-.5 21-.2 28 1.4 56 2.2 83.9.8 27.9.4 55.9.1 83.8-.2 14-.3 28-.2 42 0 7 .1 14 .2 21l.3 10.5.2 5.2.2 5.8.1 3.5c11.3-1.8 22.5-3.5 33.8-5.3l-4.2-61.8v-1.2c.1 0 .3-.1.4-.1l2.6-.4 7.5-1.1 3-.4h.3c.1 0 .2-.1.2.1l.1.6 1.2 7.1c1.6 10 3.2 19.9 4.8 29.9 1.3 7.9 2.7 15.9 4 23.7h37.6c-2-6.7-3.7-13.5-5.3-20.2zm-316.6-43.4h.3-.3zm17.5-2.5H123.2c.2-.7.2-1.5 0-2.5-.3-1.7-.4-3.3-.4-5.1-.3-13.4.8-26.8.8-40.2 0-18.9.7-37.9 1.5-56.8.6-13.6 2.5-27 2.8-40.6.1-5.5.3-11 .5-16.4.6 7.8 1.2 15.5 1.6 23.3 1.2 20.6 1.9 41.2 3.7 61.8.8 9.4 1.2 18.9 1.6 28.4.3 5.7 1.5 11.3 1.4 17.1l1.9 31.1-.5-.1zm233.5-112.5c-.2-3.2-.4-6.4-.5-9.6-.1-2-.1-2.1 0-2.8 0-.5 0-.9.1-1.3.1-.7.1-1 .1-1.5s-.1-1.3-.4-3.6l-.2-1.3c-.9-7.3-2-17.8-2.9-27.9.5 2.1 1.7 8.7 2.9 16l.8 5.1c.6 3.8 1.1 7.5 1.5 10.7l.6 4.3 1 7c1.4 9.6 2.9 19.2 4.6 28.8 1.6 8.8 2.7 17.6 4 26.5.8 5.3 2.5 10.4 2.8 15.9l3.7 24 .9 6 .2 1.2v.2c0 .1.1.2 0 .2h-.3l-10.7.3c.1-.7.1-1.4-.2-2.4-.4-1.6-.6-3.1-.8-4.7-1.4-12.6-1.5-25.2-2.7-37.8-1.8-17.7-3.1-35.5-4.5-53.3zm5.7 100.8h.3-.3z" style="fill:#9fc9eb"/><g id="KEINU"><path d="M191.2 82.6c-.1-.6-.1-1.2-.2-1.8 0-.2.1-.5-.3-.7-.2-.1.2-.4.2-.6-.1-.5-.1-1.1-.2-1.7-.1-.5-.3-1.1-.4-1.6-.1-.5 0-1.1-.2-1.6-.2-.4.1-.9 0-1.3s-.2-.9-.1-1.4c.1-.3.2-.7.1-1-.1-.2-.3-.4-.3-.6 0-.2.2-.4-.3-.6 0 0 0-.1.1-.2.2-.2.2-.5 0-.7-.2-.2-.2-.3-.2-.5-.1-.5-.1-.9-.1-1.4 0-.3.1-.7.2-1 0-.4-.2-.7 0-1.1.2-.3.2-.7.1-1 0-.2.2-.4-.3-.5v-.1c.5-.6-.2-1-.1-1.6.1-.6 0-1.1 0-1.7 0-.1.1-.3-.2-.4-.1 0-.1-.2-.1-.3.4-.4.1-.9.2-1.3.1-.5-.1-1 .2-1.5.1-.2.2-.5-.2-.7-.2-.1 0-.3-.1-.5 0-.1-.2-.3-.2-.4 0-.1.1-.2.2-.4v-.1c-.5-.7.1-1.4 0-2.1-.1-.7-.1-1.4-.1-2.1 0-.4.1-.8.9-1.1.3-.1.7-.1.9 0 .2.1.3.3.4.4.1.2.2.4.2.7.1.5.5.9.3 1.4-.1.1.1.3-.2.4 0 0-.1.1 0 .1.5.6.2 1.3.3 1.9 0 .5.5 1.1.3 1.6.4.3.4.6.2 1-.4 1.1-.1 2.2-.1 3.2 0 1.1.1 2.2.1 3.3 0 .2.2.3.1.6-.2.2 0 .5 0 .7 0 .2.1.4 0 .6-.4.9-.1 1.7-.1 2.6 0 .9 0 1.7.2 2.5.1.5.4 1 .3 1.5 0 .2.2.4-.1.7-.1.1.2.3.2.4.1.4.1.7.1 1.1 0 .5.1 1 .1 1.5l.3.9c.1.3.1.6.1.9 0 .4-.1.8-.1 1.2 0 .4.2.8.1 1.2-.3.8 0 1.5 0 2.2 0 .7.1 1.5.3 2.2.1.4-.2.8-.1 1.2 0 .2-.9.6-1.2.5-.1 0-.1 0-.2-.1-.3-.4-.9-.7-.9-1.1.1-.3 0-1-.1-1.7zM342.6 264.5c-.2-.3-.4-.6-.5-.8-.2-.2-.3-.1-.3.2 0-.1 0-.1-.1-.2v-.1c.2.1.3-.3.1-1.1-.7-3.2-3.1-7.6-6.7-11-1.1-1-2.2-2-3.4-2.8 0-.6-.1-1.2-.1-1.9-.5-4.3-.9-8.7-1.3-13-.4-4.3-1-8.7-1.1-13.1-.1-2.4-.5-4.9-.7-7.4-.2-2.4-.3-4.7-.5-7.1-.1-1.9-.3-3.8-.5-5.6-.2-1.8-.5-3.5-.8-5.3-.3-2.9-.6-5.9-.9-8.8l-.6-6.3c-.1-.9-.5-2.1-.4-2.4.3-1.3-.1-2.7-.2-4-.2-3.1-.8-6.1-1.1-9.2-.6-5-1-10.1-1.5-15.1-.5-5.1-1.2-10.1-1.3-15.2 0-1.2-.2-2.6-.4-3.9-.1-1.4-.4-2.9-.4-4.2 0-1.3-.3-2.2-.4-3.3-.6-6.5-1.3-12.9-1.9-19.4-.6-6.3-1.5-12.7-1.7-19.1-.1-1.8-.2-3.9-.8-5.7-.2-3.3-.9-6.3-1.2-9.5-.2-1.7-.3-3.4-.4-5.1.3.5.7.9 1 1.4.3.3.2 1 .5 1.1.6.2.7.7 1 1.1l2.3 3.2c.9 1.2 1.8 2.3 2.7 3.6.6.8 1.4 1.2 2.2 1.7h.2c.4-.1.8-1.1.5-1.4-.5-.7-.8-1.5-1.4-2.2-1-1.2-2-2.5-2.9-3.8-.9-1.3-2-2.5-2.7-4-.4-.8-1.1-1.5-1.5-2.2-.5-.8-.9-1.5-1.3-2.3-.4-.6-.8-1.2-1.2-1.7-.1-.2-.3-.4-.5-.5 0-.2-.1-.5 0-.6.3-.8 0-1.7-.1-2.6-.1-2.8-.7-5.4-1.1-8.1l-.6-3.9c-.1-.8-.3-1.6-.6-2.4-.3-1-.7-.9-.9-.2-.6 1.6-.5 4.1-.3 6.4.2 2.4.4 4.9.7 7.3-.3-.5-.7-1-1-1.5-.2-.3-.7-.5-.7-.7.1-.6-.4-.9-.6-1.4-.5-1-1.3-1.8-2-2.7-.5-.8-1.1-1.5-1.5-2.3-.3-.4-1.5-2.6-2.1-3.3l-1.1-1.1c-.4-.3-.6-.9-1.1-.8-.5 0-1.2.4-1.2.7-.1.4-.3.9-.5 1.2-.1.2-.2.4-.2.7-.1.2.1.8.1 1.1.1.9.2 1.9.1 2.6-.1.5 0 .6 0 .8.1.2.1.4.1.6.1 2.4.4 4.8.6 7.2.2 2.4.8 4.7.7 7.1 0 .7 0 1.5.5 2.1 0 1.2.6 2.3.9 3.5.3 1.4.2 2.8 1 4.1v.2c-.3.3 0 .7 0 1 0 1.1.6 2 .9 2.9.2.4.3.9.5 1.4.1.3.3.6.5.8.3.3.7.2.9-.1.6-.7.5-1.6.4-2.5-.3-1.5-.5-3.1-.9-4.6-.4-1.5-.1-3.1-.8-4.5 0-.1-.1-.2 0-.2 0-.3.1-.6.1-.8-.1-.3-.3-.6-.3-.9-.1-.4 0-.9-.2-1.1-.4-.5-.5-1.1-.4-1.5.2-1.1-.2-2.1-.2-3.1 0-.9-.4-1.8-.1-2.7.1-.2 0-.5-.1-.6-.3-.3-.2-.6-.3-.9-.1-1.2-.3-2.4-.3-3.6 0-1.2-.8-2.2-.3-3.4v-.2c-.2-.1-.3-.4-.3-.5v-.3c0-.2-.1-.7.1-.5.2.2 0-.2.1-.3.1 0 .3.5.3.6v.1c.1.1.2.3.4.4.4.2.7.7.7 1.3 0 .1 0 .3.1.3.5.1.7.7.9 1 .2.4.7.6.9 1 .4.5.7 1.2 1 1.9.4.9 1 1.7 1.6 2.5.6.8.8 1.7 1.5 2.4.8.8 1.3 2 2 2.9.1.1.1.2.2.2.4 3.9.3 7.7 1.1 11.5 0 .2.1.5.1.7 0 .7-.1 1.5 0 2.2.1.8.3 1.6.5 2.5.1 1 .1 2.4.4 3.1.5 1.4.6 3.1.6 4.3 0 2.9.4 5.7.7 8.6.2 2.5.7 5 .5 7.5 0 .4.1 1.4.2 1.6.4.8.4 1.7.4 2.6.3 3.3.8 6.6 1 9.8.2 3.2 1.2 6.1 1 9.3 0 .2 0 .6.1.7.5.9.4 2.2.5 3.2.2 1.9.4 3.8.4 5.8s.4 4.2.6 6.3c.1 2 .2 4 .4 6.1.2 2.7.5 5.4.8 8.1.1 1 .2 1.9.4 2.9.3 1.1.5 2.6.3 4v.9c.5 1 .5 2.4.6 3.6.1 1.3.4 2.4.6 3.6.2 1.9.3 3.8.4 5.7.1 2.6.4 5.4.8 8.1.3 2.5.2 4.9.7 7.5 0 .2.1.3.1.5l-.3.9c-.2 1.3-.5 2.6-.8 3.9-.3 1.3-.5 2.6-1.1 3.9-.3.7-.3 1.5-.5 2.2-.2.7-.5 1.4-.7 2.1-.2.5-.3 1.1-.4 1.7-.1.5 0 1.1-.1 1.6-.2.9-.4 1.7-.6 2.6-.1.6-.3 1.3-.4 1.9 0 .3.1.7 0 .8-.5.3-.3.8-.5 1.2-.3.9-.3 1.8-.4 2.8-.3 1.5-.7 3-1.1 4.5-.4 1.5-.5 3.1-1.3 4.5-.2.3-.2.8-.3 1.1-.1.4-.1.9-.3 1.2-.3.3-.1.7-.2 1-.5 1.9-.9 3.9-1.5 5.8-.5 1.9-.7 3.8-1.6 5.6-.1.2-.2.5-.3.8-7.8-1.9-15.6-3.7-23.7-3.8-.4 0-1 0-1.4-.1-1.5-.1-2.9-.4-4.4-.4-1.7 0-3.4.1-5.1.2-2.1.1-4.9 0-6.2.3-2.9.6-6.2.8-8.6 1-5.7.4-11.3 1.5-16.9 2.5-4.9.8-9.8 2-14.7 2.7-.9.1-2.7.6-3.2.8-1.5.7-3.3 1.1-5 1.5-6.3 1.8-12.6 4.4-18.4 7.3-1.2.6-2.4 1.3-3.6 2-.2-.5-.4-1-.2-1.6 0-.1 0-.4-.2-.4-.3-.1-.3-.4-.4-.6-.2-.8-.6-1.6-.7-2.5-.1-.8-1-1.4-.7-2.3v-.2c-.5-.1-.4-.5-.5-.8-.1-.5-.3-1-.2-1.5.1-.5-.3-1.1-.4-1.6-.1-.5-.1-1.1-.2-1.6l-.6-2.1c-.1-.2-.1-.5-.4-.7-.2-.2-.4-.6-.2-1 0-.1.1-.2 0-.2-.5-.2-.4-.5-.5-.9-.1-.3-.4-.5-.5-.8-.2-.5-.2-1-.2-1.5-.1-.7-.3-1.4-.6-2-.3-.6-.1-1.3-.5-1.9-.4-.7-.5-1.6-.8-2.4-.3-.8-.7-1.6-.9-2.4-.3-.8-.5-1.7-.8-2.5-.1-.3.2-.7 0-.9-.4-.2-.4-.6-.5-1-.3-.9-.5-1.8-.8-2.7-.2-.9-.5-1.7-.7-2.5 0-.3 0-.6.1-.9.1-2.3.2-4.6.3-6.8.1-2.2 0-4.3.1-6.5.2-3.6.3-7.1.5-10.7.1-2.6.2-5.1.3-7.7 0-1-.2-2.5-.1-3 .5-1.6.3-3.3.4-4.9.3-3.8.2-7.5.3-11.2.2-6.1.5-12.2 1.1-18.3.5-6.1.9-12.3 2.1-18.3.3-1.4.4-3.1.7-4.6.2-1.7.4-3.6.8-5 .4-1.5.3-2.7.6-4 1.2-7.8 2.4-15.5 3.6-23.3 1.1-7.7 1.8-15.4 2.7-23.2.3-2.2.4-4.8.1-7 0-.6.1-1.3.1-1.9.5 1.6 1 3.1 1.6 4.6.1.2.2.6.2.7-.1.9.4 2.1.7 3.1.7 3.3 1.9 6.3 2.9 9.5.5 1.5 1 3 1.5 4.6.3 1 .7 1.9 1.1 2.7.5 1.1.9 1 1 .1.2-2-.5-4.9-1.2-7.6-1.3-5-2.7-10-4.2-14.9-.8-2.4-1.3-4.9-1.9-7.3-.3-1.2-.6-2.5-1-3.7l-.3-.9-.1-.4v-.1l-.3-.6c-.3-.4-1-.7-1.4-.6-.5 0-.9.3-1.2.6-.3.4-.4.9-.4 1.2 0 .6.1 1.3.2 1.9v.9c-.1.9-.2 1.7-.2 2.6 0 1 .2 2 .2 3 0 1.3-.2 2.9 0 3.7.3 1.8.2 3.8-.1 5.2-.5 3.4-.7 6.9-1.1 10.3-.4 3-.5 6.1-1.3 8.9-.1.5-.3 1.6-.2 2 .2 1-.1 2.1-.3 3.2-.5 3.9-1.1 7.9-1.8 11.8-.7 3.8-.6 7.5-1.7 11.2-.1.2-.2.7-.1.8.2 1.1-.2 2.6-.4 4-.3 2.3-.7 4.6-1.2 6.9-.5 2.3-.7 5.1-1 7.6-.3 2.4-.7 4.9-1 7.3-.3 3.3-.5 6.6-.8 9.9-.1 1.2-.1 2.3 0 3.6.1 1.3 0 3.3-.3 4.8-.1.3-.2 1-.1 1.1.3 1.3.1 2.9 0 4.4-.1 1.6.1 2.9 0 4.4 0 2.3-.3 4.6-.5 6.9-.3 3.2-.4 6.5-.5 9.8-.1 3.1-.5 5.9-.5 9.2 0 3.7-.3 7.7-.5 11.5-.1 3.9-.2 7.8-.3 11.6-.2 4-.4 8-.5 12-.1 1.5-.5 3-.4 3.8.3 1.7 0 3.3 0 4.9-.2 4.3-.4 8.6-.6 12.8-.2 4.8-.4 9.7-.7 14.5v.9c-.4.3-.7.6-1.1 1-2.8 2.7-5.4 5.4-7.6 9-.5.9-1 1.8-1.4 2.9s-.6 2.1-.9 3.2c-.3 1.1-.3 2.2-.5 3.4 0 .6-.1 1.1-.1 1.7 0 .6 0 1.1.1 1.7.2 4.2 1.2 8.4 3.1 12.2 2.5 5 6.1 9.4 10.1 13.1 1.5 1.3 2.9 2.6 4.7 3.8.9.6 2 1.4 3.2 2.2 1.1.9 2.3 1.7 3.4 2.5.4.3 1.3 1 1.5 1 1 .3 2.1.9 3.2 1.5s2.3 1.2 3.4 1.7c2.4 1.1 4.6 1.7 6.8 2.5 3.6 1.2 7.3 2.3 11 3.2 5.2 1.2 10.8 1.7 16.1 1.9 5.1.1 9.8.4 15.1-.2 6.1-.6 12.6-1.2 18.8-2.2 6.3-1.1 12.5-2.6 18.6-4.4 6.3-1.8 12.5-4.1 18.5-7 2.2-1.1 4.6-1.9 5.7-2.8 2.2-1.7 4.6-2.9 6.7-4.5 5.8-4 11.2-8.7 15.8-14.2 2.6-3.1 5-6.3 6.9-10 1.8-3.7 2.8-7.9 2.7-12.1-.6-6.1-2.6-10.2-4.7-14.4zm-154.8-1.4c-.3.2-1 .7-1.1.9-.3.4-.7.8-1.1 1.2v-.4c.2-5.3.4-10.5.7-15.8.3-5.3.3-10.6.9-15.9.3-2.8.3-5.9.4-8.9.1.4.3.9.4 1.3.1.6.2 1.3.3 1.9.1.5.2 1 .4 1.4.2.4.4.8.6 1.3.2.7.4 1.5.7 2.2.2.5.3 1.1.5 1.6.1.2.4.4.4.5-.3.4 0 .7.1 1.1.1.8.6 1.5.9 2.3.5 1.2.8 2.5 1.1 3.8.3 1.3 1 2.5.9 3.9 0 .3.2.7.3 1 .1.4.3.7.3 1.1-.1.4.2.5.3.8.4 1.6 1 3.2 1.4 4.9.3 1.1.7 2.2 1 3.3-3.2 2-6.2 4.3-9.4 6.5zm110 19.6c-.1-.1-.4-.1-.7.2-1.3 1-2.7 2.5-4.4 3.8-3 2.4-6.8 4.1-10.5 5.8-3.7 1.7-7.7 2.6-11.4 4.3-.2.1-.4.2-.6.2-.7.2-1.4.2-2.1.4-.8.3-1.5.7-2.3.9-1 .3-2.3.5-2.9.9-1.3.7-2.8 1.1-4 1.2-2.8.4-5.5 1.2-8.2 1.6-2.4.4-4.8 1.1-7.2 1-.4 0-1.3.1-1.6.3-.7.4-1.6.4-2.5.4-3.1.3-6.3.3-9.2-.4-2.8-.7-5.8-1.2-8.1-3.1-.1-.1-.5-.3-.6-.3-.9-.1-1.9-.9-2.7-1.5-1.5-1-3-2.1-4.3-3.4-1.3-1.3-3.2-2.6-4.5-4-1.3-1.3-1.6-2.7-1.6-4.3.1-1 .3-2.1.8-3.2s1.1-2 1.8-2.4c.8-.5 1.6-1 2.3-1.7.8-.7 2.1-1.5 3.3-1.9.3-.1.8-.3.8-.3.7-.9 1.9-1.4 3-1.8 1.1-.5 2-1.2 3-1.7 1.7-.8 3.4-1.4 5.2-2 2.4-.7 4.9-1.7 7.4-2.4 2.3-.8 4.7-.9 7.1-1.7 1.4-.4 2.9-.7 4.5-.9 1.5-.2 3.1-.4 4.6-.5 3.1-.3 6.2-.7 9.3-.7 3.2 0 6.4.2 9.6.5 1.2.1 2.4.6 3 .6 1.4-.1 2.6.2 3.9.4l5 1.1 4.9 1.4c3.5 1.1 6.6 3.4 8.5 6.5 1.2 2.1 1.9 3.7 1.3 5.9-.1.2-.1.4-.1.5 0 .2.1.3.2.3.1-.1.1 0 0 0zm26.1-37.9c-3.4-1.3-6.8-2.4-10.3-3.3 0-.3.1-.5.3-.7.5-.8.5-1.7.8-2.5.3-.7.2-1.5.8-2.2.1-.1.2-.4.1-.5-.2-.3 0-.6 0-.8.2-1 .4-2 .8-2.9.3-.9-.1-2 .7-2.8 0-.1.1-.2 0-.2-.3-.4-.1-.7 0-1 .1-.6.3-1.1.6-1.7.3-.5.3-1.3.5-1.9.2-.6.5-1.2.7-1.7l.6-2.4c.1-.3.1-.6 0-.9-.1-.4 0-.9.4-1.2.1-.1.2-.2.1-.2-.3-.4 0-.8 0-1.1.1-.4 0-.8 0-1.1.1-.6.3-1.1.6-1.6.3-.8.5-1.6.6-2.4.1-.8.6-1.4.6-2.2 0-1 .4-1.9.6-2.8.2-1 .2-2 .4-2.9.2-1 .5-2 .7-2.9.1-.4.5-.7.4-.9-.3-.5 0-.9.1-1.2v-.2c0 .5.1 1 .1 1.5l1.2 9.5c.3 3.3.7 6.6 1 9.9.1 1.2-.2 2.5.1 3.2.5 1.3.4 2.7.6 4l1 10.5c.3 3.5.7 6.9 1 10.4-1.6-1.3-3.3-2.1-5.1-2.8z"/></g><defs><path id="XMLID_38_" d="M326.5 154.7c-.2 2.1-1.7 4-3.5 5.1-1.5.9-3.2 1.4-4.8 1.8-.7.2-1.4.6-1.7 1.3-.3.6-.6 1.1-.9 1.7-7 12.9-16.3 24.5-27.3 34.2-.6.5-.9 1.2-.9 2 .1 7.6.2 15.1.4 22.6.2 8.7.5 17.4.9 26.2.1 1.3-.8 2.3-2 2.6-1.2.3-2.4.4-3.6.5-3.9.3-7.9.5-11.6.7-1.3.1-2.4 1.2-2.4 2.5-.1 3.8-.1 7.6-.1 11.4 0 2 2.3 3.2 4 2.1 3.4-2.1 7.1-3.6 11-3.3.9.1 1.7.3 2.4.8 1.5 1.1 1.7 3.2 1.6 5-.2 6.8-1.9 13.6-4.9 19.7-1.3 2.6-3.1 5.3-5.9 6.2-.7.2-1.6.3-2.2-.1-.8-.5-.9-1.5-1.1-2.3-.2-1.4-.3-2.8-.3-4.2-.1-2.4-3-3.5-4.6-1.6l-.1.1c-1.8 2.2-4.1 4.2-6.8 5.1-1.3.4-2.7.5-3.9 0-1-.4-1.7-1.2-2.4-2-4.1-5.1-4.9-12-5-19.4-.2-4.9-.2-9.8-.3-14.7v-.4c.1-.7.1-1.5.2-2.7-2.5.3-5 .5-7.6.5-1.6 0-2.8 1.4-2.5 3 2.9 18.1 5.2 36.4 6.7 54.7.1 1.2-.6 2.3-1.8 2.7-7.7 2.4-15.7 3.7-23.7 3.7-.8 0-1.8-.1-2.2-.8-.3-.4-.2-1-.1-1.5 1-5 5.4-8.4 9.4-11.9.8-.7 1.1-1.8.7-2.8-6.8-18.3-10.9-37.6-11.9-57.1v-.5l3.4-22.6 4-26.4c.2-1.2-.5-2.3-1.5-2.7-9.2-4-17.8-9.4-25.4-16-1.1-1-2.3-2-3.6-2.7-.4-.2-.9-.4-1.4-.7-2.6-1.1-5.6-1.6-7.5-3.6-1.9-2.1-2.1-5.4-1.2-8.1.8-2.4 2.3-4.6 4.6-5.5 2.3-.9 5.3-.1 6.3 1.8.6.2 1.2.3 1.8.5 15.6 4.4 31.5 8.2 47.4 11.2 1.5.3 3-.8 3.1-2.4 0-.3 0-.5.1-.8 0-.3 0-.7.1-1 .1-1.5-1.2-2.9-2.7-2.7-1.3.1-2.6.1-4 0-.8-.1-1.5-.1-2.2-.2-7.1-.9-14.1-2.6-20.3-5.4-1.3-.6-1.9-2.3-1.2-3.6 2.1-3.9 4.2-7.9 6.3-11.8 1.6-3 3.3-6.1 5.4-8.8 2.2-2.7 5-4.9 8.2-6 1.1-.3 2.2-.5 3.3-.6 1.9-.2 3.1-2.3 2-3.9-.3-.5-.6-1.1-.8-1.7-.8-2.5.1-5.4 1.9-7.4 1.8-2 4.3-3.2 6.8-4 3.5-1.1 7.3-1.6 10.9-.8 3.6.8 7 2.8 9 5.9.9 1.5 1.5 3.3 1.3 5.1-.2 1.7-1 3.1-2.2 4.3-1.3 1.4-.7 3.8 1.2 4.3 1.7.4 3.3 1.1 4.7 2.1 7.4 5 9.2 16 17 20.4.4.3 1 .7.9 1.2-.1.2-.3.4-.5.6-6.5 4.2-13.7 7.4-20.9 9.5-2.3.7-4.6 1.2-7 1.7-1.2.2-2 1.2-2.1 2.4 0 .5-.1.9-.1 1.4 0 .6 0 1.1.1 1.7.1 1.6 1.8 2.7 3.3 2.2 13.7-4.3 26.8-10.9 38.3-19.5 1.4-1.1 2.9-2.2 4.3-3.2 2.2-1.5 4.5-2.8 7.1-3.4 1.6-.4 3.3-.4 4.9-.2 1.1.1 2.2.4 3 1.1.9.8 1.4 1.9 1.8 3 .5 1.4 1.1 2.9.9 4.4z"/></defs><use xlink:href="#XMLID_38_" style="overflow:visible;fill:#fff"/><clipPath id="XMLID_00000131367029611892339920000003219576552081157296_"><use xlink:href="#XMLID_38_" style="overflow:visible"/></clipPath><g style="clip-path:url(#XMLID_00000131367029611892339920000003219576552081157296_)"><path d="M219.5 251.4c0-.6.1-1.2.1-1.7 0-.2.1-.4-.1-.7-.1-.1.2-.3.2-.5 0-.5.1-1.1.1-1.6v-1.6c0-.5.2-1 .1-1.6-.1-.4.2-.8.1-1.2 0-.4 0-.9.1-1.3.1-.3.2-.6.2-.9 0-.2-.1-.4-.1-.6 0-.2.2-.4-.1-.6 0 0 0-.1.1-.1.2-.2.2-.5.1-.6-.1-.2-.1-.3-.1-.5 0-.4 0-.9.1-1.3 0-.3.2-.6.2-1 .1-.3 0-.7.1-1 .2-.3.2-.6.2-.9 0-.2.2-.4-.1-.5v-.1c.4-.5 0-1 .1-1.5s.1-1.1.2-1.6c0-.1.1-.3-.1-.4-.1-.1-.1-.2 0-.3.3-.4.2-.8.3-1.2.1-.5 0-.9.3-1.4.1-.2.2-.5 0-.7-.1-.1 0-.3 0-.5 0-.1-.1-.3-.1-.4 0-.1.1-.2.2-.3v-.1c-.2-.7.2-1.3.2-2s.1-1.4.2-2.1c.1-.4.2-.8.7-1 .2-.1.5-.1.6.1.1.1.2.3.2.4 0 .2 0 .4.1.7 0 .4.2.9.1 1.3-.1.1.1.3-.2.4 0 0-.1.1 0 .1.3.6 0 1.2 0 1.9 0 .5.2 1.1 0 1.6.2.3.2.7.1.9-.4 1-.3 2.1-.4 3.1-.1 1-.2 2.1-.3 3.2 0 .2.1.3 0 .5s-.1.4-.1.7c0 .2 0 .4-.1.6-.4.8-.3 1.6-.4 2.5-.1.8-.2 1.6-.2 2.5 0 .5.1 1 0 1.5 0 .2.1.5-.2.6-.1.1.1.3.1.4 0 .3 0 .7-.1 1 0 .5-.1 1-.1 1.4 0 .3.1.6.1.9 0 .3 0 .6-.1.9-.1.4-.2.8-.2 1.1-.1.4 0 .8-.1 1.2-.3.7-.2 1.4-.3 2.1-.1.7-.1 1.4-.1 2.1 0 .4-.2.8-.3 1.1 0 .2-.7.4-.9.3 0 0-.1 0-.1-.1-.2-.4-.5-.8-.4-1.2 0-.7.1-1.4.1-2zM224.7 252.8c0-.6.1-1.2.1-1.8 0-.2.1-.4-.1-.7-.1-.1.2-.3.2-.5 0-.6.1-1.1.1-1.6s-.1-1.1 0-1.6c0-.5.2-1.1.1-1.6-.1-.4.2-.8.1-1.3 0-.5 0-.9.1-1.3.1-.3.2-.6.2-.9 0-.2-.1-.4-.1-.6 0-.2.2-.4-.1-.6 0 0 0-.1.1-.1.2-.2.2-.5.1-.7-.1-.2-.1-.3-.1-.5 0-.4 0-.9.1-1.3 0-.3.2-.7.2-1 .1-.3-.1-.7.1-1 .2-.3.2-.6.2-.9 0-.2.1-.4-.1-.5v-.1c.4-.5-.1-1 0-1.5s.1-1.1.1-1.6c0-.1.1-.3-.1-.4-.1 0-.1-.2 0-.3.3-.4.1-.8.2-1.2 0-.5-.1-.9.1-1.4.1-.2.1-.5-.1-.7-.1-.1 0-.3 0-.5 0-.1-.1-.3-.2-.4 0-.1.1-.2.1-.4v-.1c-.3-.7.1-1.4.1-2.1 0-.7.1-1.5.3-2.2.1-.4.3-.8.8-.9.2-.1.5 0 .6.2.1.1.1.3.1.4v.6c0 .4.2.9 0 1.3-.1.1.1.3-.2.4 0 0-.1.1 0 .1.3.6.1 1.2.1 1.8 0 .5.3 1 .2 1.6.3.3.2.6.2.9-.3 1.1-.1 2.1-.1 3.2-.1 1.1-.1 2.2-.1 3.3 0 .2.1.4 0 .6-.1.2 0 .5-.1.7v.6c-.3.8-.2 1.7-.3 2.5-.1.8-.2 1.7-.2 2.5 0 .5.1 1 0 1.5 0 .2.1.5-.2.7-.1.1.1.3.1.4 0 .4 0 .7-.1 1.1 0 .5-.1 1-.1 1.5 0 .3.1.6.1.9 0 .3 0 .6-.1.9-.1.4-.2.8-.2 1.2 0 .4 0 .8-.1 1.2-.3.7-.2 1.4-.2 2.2 0 .7-.1 1.4 0 2.2 0 .4-.2.8-.2 1.2 0 .2-.6.4-.9.4 0 0-.1 0-.1-.1-.2-.4-.5-.8-.5-1.2l-.2-2.5zM229.8 252.7c0-.6.1-1.1.1-1.7 0-.2.1-.4-.1-.7-.1-.1.2-.3.2-.5 0-.5.1-1.1 0-1.6 0-.5-.1-1-.1-1.6 0-.5.1-1 0-1.5-.1-.4.1-.8.1-1.2 0-.4-.1-.9.1-1.3.1-.3.2-.6.1-.9 0-.2-.2-.4-.1-.6 0-.2.1-.4-.1-.6 0 0 0-.1.1-.1.2-.2.2-.5.1-.6-.1-.2-.1-.3-.1-.5V238c0-.3.1-.7.2-1 0-.3-.1-.7.1-1 .1-.3.1-.6.1-.9 0-.2.1-.4-.1-.5v-.1c.4-.5-.1-1 0-1.5s0-1.1 0-1.6c0-.1.1-.3-.1-.4-.1 0-.1-.2 0-.3.3-.4.1-.8.2-1.2.1-.5-.1-.9.1-1.4.1-.2.1-.5-.1-.7-.1-.1 0-.3 0-.5 0-.1-.1-.3-.1-.4 0-.1.1-.2.1-.4v-.1c-.3-.7.1-1.3 0-2s0-1.4 0-2.1c0-.4.1-.8.6-1 .2-.1.5-.1.6 0 .1.1.2.3.2.4 0 .2.1.4.1.6.1.4.3.9.2 1.3 0 .1.1.3-.1.4v.1c.3.6.1 1.2.1 1.8 0 .5.3 1 .2 1.6.3.3.2.6.1.9-.3 1-.1 2.1-.2 3.1-.1 1.1 0 2.1-.1 3.2 0 .2.1.3 0 .5s0 .5 0 .7c0 .2.1.4 0 .6-.3.8-.1 1.6-.2 2.5-.1.8-.1 1.6 0 2.5 0 .5.2 1 .1 1.5 0 .2.1.4-.2.6-.1.1.1.3.1.4v1c0 .5-.1 1 0 1.4 0 .3.1.6.1.9v.9c0 .4-.2.8-.2 1.2 0 .4.1.8-.1 1.2-.3.7-.2 1.4-.2 2.1-.1.7-.1 1.4-.1 2.1 0 .4-.2.8-.2 1.1 0 .2-.7.4-.9.3 0 0-.1 0-.1-.1-.2-.4-.5-.8-.4-1.2-.2-.5-.2-1.1-.1-1.8zM235.7 225c0 .6-.1 1.1 0 1.7 0 .2-.1.4.1.6.1.1-.2.3-.2.5v1.5c0 .5.1 1 .1 1.5s-.1 1 0 1.5c.1.4-.1.8-.1 1.2 0 .4.1.9 0 1.3-.1.3-.2.6-.1.9 0 .2.2.4.1.6 0 .2-.1.4.1.6 0 0 0 .1-.1.1-.2.2-.2.4-.1.6.1.2.1.3.1.5v1.3c0 .3-.1.6-.2.9 0 .3.1.7 0 1-.1.3-.1.6-.1.9 0 .2-.1.4.1.5v.1c-.4.5.1 1 0 1.5s0 1 0 1.5c0 .1-.1.3.1.4.1 0 .1.2 0 .3-.3.4-.1.8-.2 1.2-.1.4.1.9-.1 1.3-.1.2-.1.4.1.7.1.1 0 .3 0 .5 0 .1.1.3.1.4 0 .1-.1.2-.1.3v.1c.3.6-.1 1.3 0 1.9.1.7.1 1.3 0 2 0 .4-.1.7-.6 1-.2.1-.5.1-.6 0-.1-.1-.2-.2-.2-.4s-.1-.4-.1-.6c-.1-.4-.3-.8-.2-1.3 0-.1-.1-.3.1-.4v-.1c-.3-.6-.1-1.2-.2-1.8 0-.5-.3-1-.2-1.5-.3-.3-.2-.6-.1-.9.3-1 .1-2 .1-3v-3c0-.2-.2-.3 0-.5.1-.2 0-.4 0-.7 0-.2-.1-.4 0-.6.3-.8.1-1.6.2-2.4 0-.8.1-1.6 0-2.4 0-.5-.2-1-.1-1.4 0-.2-.1-.4.1-.6.1-.1-.1-.3-.1-.4v-2.4c0-.3-.1-.6-.1-.8v-.9c0-.4.1-.7.2-1.1 0-.4-.1-.8.1-1.2.2-.7.1-1.4.2-2 0-.7.1-1.4.1-2 0-.4.2-.7.2-1.1 0-.2.7-.4.9-.3 0 0 .1 0 .1.1.2.4.5.7.5 1.1.1.5.1 1.1.1 1.7zM238.6 253.2c0-.6.1-1.1.1-1.7 0-.2.1-.4-.1-.6-.1-.1.2-.3.2-.5v-1.6c0-.5-.1-1-.1-1.5s.1-1 0-1.5c-.1-.4.1-.8.1-1.2 0-.4-.1-.9 0-1.3.1-.3.2-.6.1-.9 0-.2-.2-.4-.2-.6 0-.2.1-.4-.1-.6 0 0 0-.1.1-.1.2-.2.2-.5 0-.6-.1-.2-.1-.3-.1-.5v-1.3c0-.3.1-.6.1-1 0-.3-.1-.7 0-1 .1-.3.1-.6.1-.9 0-.2.1-.4-.2-.5v-.1c.4-.5-.1-1-.1-1.5.1-.5 0-1 0-1.6 0-.1.1-.3-.1-.4-.1 0-.1-.2 0-.3.3-.4.1-.8.1-1.2 0-.5-.1-.9.1-1.4.1-.2.1-.5-.2-.7-.1-.1 0-.3-.1-.5 0-.1-.2-.3-.2-.4 0-.1.1-.2.1-.4v-.1c-.3-.6 0-1.3-.1-2s-.1-1.3-.2-2c0-.4 0-.8.5-1 .2-.1.5-.2.6 0 .1.1.2.2.3.4.1.2.1.4.2.6.1.4.4.8.3 1.3 0 .1.1.3-.1.4v.1c.4.6.2 1.2.3 1.8.1.5.4 1 .3 1.5.3.3.3.6.2.9-.2 1 0 2 0 3s.1 2.1.1 3.1c0 .2.2.3 0 .5-.1.2 0 .4 0 .7 0 .2.1.4 0 .6-.3.8-.1 1.6-.1 2.4v2.4c0 .5.2 1 .1 1.5 0 .2.1.4-.1.6-.1.1.1.3.1.4v2.4c0 .3.1.6.1.9v.9c0 .4-.1.8-.2 1.1 0 .4.1.8-.1 1.2-.3.7-.2 1.4-.2 2.1-.1.7-.1 1.4-.1 2.1 0 .4-.2.7-.3 1.1 0 .2-.7.4-.9.3 0 0-.1 0-.1-.1-.2-.4-.5-.7-.4-1.2.2-.3.2-.9.2-1.5zM244.8 224.5v1.7c0 .2-.1.4.1.7.1.1-.2.3-.2.5v1.6c0 .5.1 1.1.1 1.6s-.1 1.1 0 1.6c.1.4-.1.8-.1 1.2 0 .4.1.9 0 1.3-.1.3-.2.6-.1.9 0 .2.2.4.2.6 0 .2-.1.4.1.6 0 0 0 .1-.1.1-.2.2-.2.5 0 .7.1.2.1.3.1.5v1.3c0 .3-.1.7-.2 1 0 .3.1.7 0 1-.1.3-.1.6-.1.9 0 .2-.1.4.2.5v.1c-.4.5.1 1 0 1.5s0 1.1 0 1.6c0 .1-.1.3.1.4.1 0 .1.2 0 .3-.3.4-.1.8-.1 1.2 0 .5.1.9-.1 1.4-.1.2-.1.5.1.7.1.1 0 .3 0 .5 0 .1.1.3.2.4 0 .1-.1.2-.1.4v.1c.3.7-.1 1.4 0 2.1.1.7.1 1.4 0 2.1 0 .4-.1.8-.6 1.1-.2.1-.5.1-.6 0-.1-.1-.2-.3-.2-.4-.1-.2-.1-.4-.2-.6-.1-.4-.3-.9-.2-1.3 0-.1-.1-.3.1-.4v-.1c-.4-.6-.1-1.2-.2-1.9 0-.5-.3-1-.2-1.6-.3-.3-.2-.6-.2-.9.3-1.1.1-2.1.1-3.2v-3.2c0-.2-.2-.3 0-.6.1-.2 0-.5 0-.7 0-.2-.1-.4 0-.6.3-.8.1-1.7.1-2.5s.1-1.7 0-2.5c0-.5-.2-1-.1-1.5 0-.2-.1-.4.1-.7.1-.1-.1-.3-.1-.4v-2.5c0-.3-.1-.6-.1-.9v-.9c0-.4.1-.8.2-1.2 0-.4-.1-.8.1-1.2.2-.7.1-1.4.2-2.2 0-.7.1-1.4 0-2.2 0-.4.2-.8.2-1.2 0-.2.7-.4.9-.3 0 0 .1 0 .1.1.2.4.5.8.5 1.2 0 .9.1 1.5 0 2.2zM247.4 253.6v-1.7c0-.2.1-.4-.1-.7-.1-.1.2-.3.2-.5v-1.6c0-.5-.1-1-.1-1.6 0-.5.1-1 0-1.5-.1-.4.1-.8 0-1.2-.1-.4-.1-.9 0-1.3.1-.3.2-.6.1-.9 0-.2-.2-.4-.2-.6 0-.2.1-.4-.1-.6 0 0 0-.1.1-.1.2-.2.2-.5 0-.6-.1-.2-.1-.3-.1-.5v-1.3c0-.3.1-.7.1-1 0-.3-.1-.7 0-1 .1-.3.1-.6.1-.9 0-.2.1-.4-.2-.5v-.1c.3-.5-.1-1-.1-1.5.1-.5 0-1.1 0-1.6 0-.1.1-.3-.1-.4-.1 0-.1-.2 0-.3.3-.4.1-.8.1-1.2 0-.5-.1-.9.1-1.4.1-.2.1-.5-.1-.7-.1-.1 0-.3 0-.5 0-.1-.2-.3-.2-.4 0-.1.1-.2.1-.4v-.1c-.3-.7 0-1.3-.1-2s-.1-1.4-.1-2.1c0-.4.1-.8.5-1.1.2-.1.5-.1.6 0 .1.1.2.2.2.4.1.2.1.4.2.6.1.4.4.9.3 1.3 0 .1.1.3-.1.4v.1c.4.6.2 1.2.2 1.8 0 .5.3 1 .2 1.6.3.3.3.6.2.9-.3 1 0 2.1 0 3.1 0 1.1.1 2.1.1 3.2 0 .2.2.3 0 .5-.1.2 0 .5 0 .7 0 .2.1.4 0 .6-.3.8-.1 1.7-.1 2.5v2.5c0 .5.2 1 .1 1.5 0 .2.1.4-.1.7-.1.1.1.3.1.4v2.4c0 .3.1.6.1.9v.9c0 .4-.1.8-.2 1.2 0 .4.1.8 0 1.2-.2.7-.1 1.4-.2 2.1 0 .7-.1 1.4 0 2.1 0 .4-.2.8-.2 1.2 0 .2-.7.4-.9.3 0 0-.1 0-.1-.1-.2-.4-.5-.7-.5-1.2.2-.6.2-1.3.2-1.9zM253.4 224.8c0 .6-.1 1.1-.1 1.7 0 .2-.1.4.1.6.1.1-.2.3-.2.5v1.6c0 .5.1 1 .1 1.5s-.1 1 0 1.5c.1.4-.1.8-.1 1.2 0 .4.1.9 0 1.3-.1.3-.2.6-.1.9 0 .2.2.4.2.6 0 .2-.1.4.1.6 0 0 0 .1-.1.1-.2.2-.2.5-.1.6.1.2.1.3.1.5v1.3c0 .3-.1.6-.2 1 0 .3.1.7 0 1-.1.3-.1.6-.1.9 0 .2-.1.4.2.5v.1c-.4.5.1 1 0 1.5s0 1 0 1.6c0 .1-.1.3.1.4.1 0 .1.2 0 .3-.3.4-.1.8-.1 1.2 0 .5.1.9-.1 1.4-.1.2-.1.5.1.7.1.1 0 .3 0 .5 0 .1.1.3.2.4 0 .1-.1.2-.1.3v.1c.3.7-.1 1.3 0 2s.1 1.3.1 2c0 .4-.1.8-.6 1-.2.1-.5.1-.6 0-.1-.1-.2-.2-.2-.4-.1-.2-.1-.4-.2-.6-.1-.4-.3-.8-.2-1.3 0-.1-.1-.3.1-.4v-.1c-.4-.6-.2-1.2-.2-1.8 0-.5-.3-1-.2-1.5-.3-.3-.2-.6-.2-.9.3-1 .1-2 .1-3v-3.1c0-.2-.2-.3 0-.5.1-.2 0-.4 0-.7 0-.2-.1-.4 0-.6.3-.8.1-1.6.2-2.4 0-.8.1-1.6 0-2.4 0-.5-.2-1-.1-1.5 0-.2-.1-.4.1-.6.1-.1-.1-.3-.1-.4v-2.4c0-.3-.1-.6-.1-.9v-.9c0-.4.1-.7.2-1.1 0-.4-.1-.8.1-1.2.2-.7.2-1.4.2-2.1.1-.7.1-1.4.1-2.1 0-.4.2-.7.2-1.1 0-.2.7-.4.9-.3 0 0 .1 0 .1.1.2.4.5.7.4 1.2v1.6zM256.9 224.3v1.7c0 .2-.1.4.1.6.1.1-.2.3-.2.5v1.6c0 .5.1 1 .1 1.5s-.1 1 0 1.5c.1.4-.1.8-.1 1.2.1.4.1.9 0 1.3-.1.3-.2.6-.1.9 0 .2.2.4.2.6 0 .2-.1.4.1.6 0 0 0 .1-.1.1-.2.2-.2.5 0 .6.1.2.1.3.1.5v1.3c0 .3-.1.6-.1 1 0 .3.1.7 0 1-.1.3-.1.6-.1.9 0 .2-.1.4.2.5v.1c-.4.5.1 1 0 1.5s0 1 0 1.6c0 .1-.1.3.1.4.1 0 .1.2 0 .3-.3.4-.1.8-.1 1.2 0 .5.1.9-.1 1.4-.1.2-.1.5.1.7.1.1 0 .3 0 .5 0 .1.1.3.2.4 0 .1-.1.2-.1.3v.1c.3.7-.1 1.3 0 2s.1 1.3.1 2c0 .4-.1.8-.6 1-.2.1-.5.1-.6 0-.1-.1-.2-.2-.2-.4-.1-.2-.1-.4-.2-.6-.1-.4-.3-.8-.2-1.3 0-.1-.1-.3.1-.4v-.1c-.4-.6-.1-1.2-.2-1.8 0-.5-.3-1-.2-1.5-.3-.3-.2-.6-.2-.9.3-1 .1-2 .1-3v-3.1c0-.2-.2-.3 0-.5.1-.2 0-.4 0-.7 0-.2-.1-.4 0-.6.3-.8.1-1.6.1-2.4 0-.8.1-1.6 0-2.4 0-.5-.2-1-.1-1.5 0-.2-.1-.4.1-.6.1-.1-.1-.3-.1-.4v-2.4c0-.3-.1-.6-.1-.9v-.9c0-.4.1-.8.2-1.1 0-.4-.1-.8.1-1.2.2-.7.1-1.4.2-2.1 0-.7.1-1.4 0-2.1 0-.4.2-.7.2-1.1 0-.2.7-.4.9-.3 0 0 .1 0 .1.1.2.4.5.7.5 1.2-.2.3-.2.9-.2 1.6zM260.5 224v1.6c0 .2-.1.4.1.6.1.1-.2.3-.2.5v1.5c0 .5.1 1 .1 1.5s-.1 1 0 1.5c.1.4-.1.8 0 1.2.1.4.1.8 0 1.2-.1.3-.2.6-.1.9 0 .2.2.4.2.6 0 .2-.1.4.2.6 0 0 0 .1-.1.1-.2.2-.2.4 0 .6.1.2.1.3.1.5v1.3c0 .3-.1.6-.1.9 0 .3.1.7 0 1-.1.3-.1.6-.1.9 0 .2-.1.4.2.5v.1c-.3.5.1.9.1 1.4-.1.5 0 1 0 1.5 0 .1-.1.3.1.4.1 0 .1.2 0 .3-.3.4-.1.8-.1 1.2 0 .4.1.9-.1 1.3-.1.2-.1.4.1.7.1.1 0 .3.1.5 0 .1.2.3.2.4 0 .1-.1.2-.1.3v.1c.3.6 0 1.3.1 1.9.1.6.1 1.3.1 2 0 .4-.1.7-.5 1-.2.1-.5.1-.6 0-.1-.1-.2-.2-.3-.4-.1-.2-.1-.4-.2-.6-.1-.4-.4-.8-.3-1.3 0-.1-.1-.3.1-.4v-.1c-.4-.6-.2-1.2-.2-1.8 0-.5-.3-1-.3-1.5-.3-.3-.3-.6-.2-.9.2-1 0-2 0-3s-.1-2-.1-3c0-.2-.2-.3 0-.5.1-.2 0-.4 0-.7 0-.2-.1-.4 0-.6.3-.8.1-1.6.1-2.4V235c0-.5-.2-1-.1-1.4 0-.2-.1-.4.1-.6.1-.1-.1-.2-.1-.4v-2.4c0-.3-.1-.6-.1-.8v-.9c0-.4.1-.7.2-1.1 0-.4-.1-.8 0-1.1.2-.7.1-1.4.2-2 0-.7.1-1.4 0-2 0-.4.2-.7.2-1.1 0-.2.7-.4.9-.3 0 0 .1 0 .1.1.2.4.5.7.5 1.1-.2.7-.2 1.3-.2 1.9zM263.7 251.2v-1.6c0-.2.1-.4-.1-.6-.1-.1.2-.3.1-.5 0-.5 0-1-.1-1.5 0-.5-.1-1-.2-1.4 0-.5.1-1-.1-1.4-.1-.4.1-.8 0-1.1-.1-.4-.1-.8 0-1.2.1-.3.1-.6.1-.9 0-.2-.2-.3-.2-.5s.1-.4-.2-.5c0 0 0-.1.1-.1.2-.2.1-.4 0-.6-.1-.2-.1-.3-.1-.4 0-.4-.1-.8-.1-1.2 0-.3.1-.6.1-.9 0-.3-.1-.6 0-.9.1-.3.1-.6.1-.9 0-.2.1-.4-.2-.5v-.1c.3-.5-.2-.9-.1-1.4.1-.5 0-1-.1-1.5 0-.1.1-.3-.1-.4-.1 0-.1-.2 0-.2.3-.4.1-.8.1-1.1 0-.4-.1-.8.1-1.3.1-.2.1-.4-.2-.6-.1-.1 0-.3-.1-.5 0-.1-.2-.2-.2-.4 0-.1.1-.2.1-.3v-.1c-.3-.6 0-1.2-.1-1.9-.1-.6-.1-1.3-.1-1.9 0-.3.1-.7.5-1 .2-.1.5-.1.6 0l.3.3c.1.2.1.4.2.6.1.4.4.8.3 1.2 0 .1.1.3-.1.4v.1c.4.5.2 1.1.3 1.7.1.5.4.9.3 1.4.3.3.3.6.2.8-.2 1 0 1.9 0 2.9s.1 1.9.1 2.9c0 .2.2.3.1.5s0 .4 0 .6c0 .2.1.4 0 .6-.3.8 0 1.5 0 2.3 0 .8 0 1.5.1 2.3.1.5.2.9.2 1.4 0 .2.1.4-.1.6-.1.1.1.2.1.4v2.3c0 .3.1.5.2.8v.8c0 .4-.1.7-.1 1.1 0 .4.1.8 0 1.1-.2.7-.1 1.3-.1 2v2c0 .4-.2.7-.2 1.1 0 .2-.6.4-.9.3 0 0-.1 0-.1-.1-.2-.4-.5-.7-.5-1.1.1-.7.1-1.3.1-1.9zM269.2 223.5v1.6c0 .2-.1.4.1.6.1.1-.2.3-.2.5v1.5c0 .5.1 1 .1 1.5s-.1 1 0 1.5c.1.4-.1.8-.1 1.2.1.4.1.9 0 1.3-.1.3-.2.6-.1.9 0 .2.2.4.2.6 0 .2-.1.4.1.6 0 0 0 .1-.1.1-.2.2-.2.4 0 .6.1.2.1.3.1.5v1.3c0 .3-.1.6-.1.9 0 .3.1.7 0 1-.1.3-.1.6-.1.9 0 .2-.1.4.2.5v.1c-.4.5.1 1 0 1.4-.1.5 0 1 0 1.5 0 .1-.1.3.1.4.1 0 .1.2 0 .3-.3.4-.1.8-.1 1.2 0 .4.1.9-.1 1.3-.1.2-.1.4.1.7.1.1 0 .3 0 .5 0 .1.1.3.1.4 0 .1-.1.2-.1.3v.1c.3.6-.1 1.3 0 1.9.1.7.1 1.3 0 2 0 .4-.1.7-.6 1-.2.1-.5.1-.6 0-.1-.1-.2-.2-.2-.4-.1-.2-.1-.4-.2-.6-.1-.4-.3-.8-.2-1.3 0-.1-.1-.3.1-.4v-.1c-.4-.6-.1-1.2-.2-1.8 0-.5-.3-1-.2-1.5-.3-.3-.2-.6-.2-.9.3-1 .1-2 .1-3v-3c0-.2-.2-.3 0-.5.1-.2 0-.4 0-.7 0-.2-.1-.4 0-.6.3-.8.1-1.6.1-2.4 0-.8.1-1.6 0-2.4 0-.5-.2-1-.1-1.4 0-.2-.1-.4.1-.6.1-.1-.1-.3-.1-.4v-2.4c0-.3-.1-.6-.1-.8v-.9c0-.4.1-.7.2-1.1 0-.4-.1-.8 0-1.2.2-.7.1-1.4.2-2 0-.7.1-1.4 0-2 0-.4.2-.7.2-1.1 0-.2.6-.4.9-.3 0 0 .1 0 .1.1.2.4.5.7.5 1.1.1.6.1 1.2.1 1.9zM271.6 250.3v-1.5c0-.2.1-.4-.1-.6-.1-.1.2-.3.1-.5v-1.4c0-.5-.1-.9-.2-1.4 0-.5.1-.9-.1-1.4-.1-.4.1-.7 0-1.1-.1-.4-.1-.8 0-1.2.1-.3.2-.6.1-.8 0-.2-.2-.3-.2-.5s.1-.4-.2-.5c0 0 0-.1.1-.1.2-.2.2-.4 0-.6-.1-.2-.1-.3-.1-.4v-1.2c0-.3.1-.6.1-.9 0-.3-.1-.6 0-.9.1-.3.1-.6.1-.8 0-.2.1-.3-.2-.5v-.1c.4-.5-.1-.9 0-1.4.1-.5 0-1 0-1.4 0-.1.1-.3-.1-.4-.1 0-.1-.2 0-.2.3-.4.1-.7.1-1.1 0-.4-.1-.8.1-1.3.1-.2.1-.4-.1-.6-.1-.1 0-.3 0-.5 0-.1-.1-.2-.1-.4 0-.1.1-.2.1-.3v-.1c-.3-.6.1-1.2 0-1.8-.1-.6-.1-1.2 0-1.8 0-.3.1-.7.6-.9.2-.1.5-.1.6 0 .1.1.2.2.2.3 0 .2.1.4.1.6.1.4.3.8.2 1.2 0 .1.1.3-.1.4v.1c.4.5.1 1.1.2 1.7 0 .5.3.9.2 1.4.3.3.2.6.2.8-.3.9-.1 1.9-.1 2.8v2.8c0 .2.2.3 0 .5-.1.2 0 .4 0 .6 0 .2.1.4 0 .6-.3.7-.1 1.5-.1 2.2v2.2c0 .4.2.9.2 1.3 0 .2.1.4-.1.6-.1.1.1.2.1.4v2.2c0 .3.1.5.2.8v.8c0 .3-.1.7-.1 1 0 .4.1.7 0 1.1-.2.6-.1 1.3-.1 1.9v1.9c0 .4-.2.7-.2 1 0 .2-.6.4-.9.3 0 0-.1 0-.1-.1-.2-.3-.5-.7-.5-1.1.1-.5.1-1.1.1-1.7zM277.3 223.4c0 .6-.1 1.1 0 1.7 0 .2-.1.4.1.6.1.1-.2.3-.2.5v1.6c0 .5.1 1 .1 1.5s-.1 1 0 1.5c.1.4-.1.8-.1 1.2.1.4.1.9 0 1.3-.1.3-.2.6-.1.9 0 .2.2.4.2.6 0 .2-.1.4.1.6 0 0 0 .1-.1.1-.2.2-.2.5 0 .6.1.2.1.3.1.5v1.3c0 .3-.1.6-.1 1 0 .3.1.7 0 1-.1.3-.1.6-.1.9 0 .2-.1.4.2.5v.1c-.4.5.1 1 .1 1.5-.1.5 0 1 0 1.6 0 .1-.1.3.1.4.1 0 .1.2 0 .3-.3.4-.1.8-.1 1.2 0 .5.1.9-.1 1.4-.1.2-.1.5.1.7.1.1 0 .3 0 .5 0 .1.2.3.2.4 0 .1-.1.2-.1.4v.1c.3.6 0 1.3.1 2s.1 1.3.1 2c0 .4-.1.8-.5 1-.2.1-.5.1-.6 0-.1-.1-.2-.2-.2-.4-.1-.2-.1-.4-.2-.6-.1-.4-.4-.8-.3-1.3 0-.1-.1-.3.1-.4v-.1c-.4-.6-.2-1.2-.2-1.8 0-.5-.3-1-.2-1.5-.3-.3-.2-.6-.2-.9.3-1 0-2 0-3s-.1-2.1-.1-3.1c0-.2-.2-.3 0-.5.1-.2 0-.4 0-.7 0-.2-.1-.4 0-.6.3-.8.1-1.6.1-2.4v-2.4c0-.5-.2-1-.1-1.5 0-.2-.1-.4.1-.6.1-.1-.1-.3-.1-.4v-2.4c0-.3-.1-.6-.1-.9v-.9c0-.4.1-.8.2-1.1 0-.4-.1-.8.1-1.2.2-.7.1-1.4.2-2.1 0-.7.1-1.4.1-2.1 0-.4.2-.7.2-1.1 0-.2.7-.4.9-.3 0 0 .1 0 .1.1.2.4.5.7.5 1.2-.3.2-.3.9-.3 1.5zM279.3 250.8v-1.6c0-.2.1-.4-.1-.6-.1-.1.2-.3.1-.5v-1.5c0-.5-.1-1-.2-1.5 0-.5.1-1-.1-1.5-.1-.4.1-.8 0-1.2-.1-.4-.1-.8 0-1.2.1-.3.2-.6.1-.9 0-.2-.2-.4-.2-.6 0-.2.1-.4-.2-.6 0 0 0-.1.1-.1.2-.2.2-.4 0-.6-.1-.2-.1-.3-.1-.5v-1.3c0-.3.1-.6.1-.9 0-.3-.1-.7 0-1 .1-.3.1-.6.1-.9 0-.2.1-.4-.2-.5v-.1c.4-.5-.1-.9 0-1.4.1-.5 0-1 0-1.5 0-.1.1-.3-.1-.4-.1 0-.1-.2 0-.3.3-.4.1-.8.1-1.2 0-.4-.1-.9.1-1.3.1-.2.1-.4-.1-.7-.1-.1 0-.3 0-.5 0-.1-.1-.3-.1-.4 0-.1.1-.2.1-.3v-.1c-.3-.6.1-1.3 0-1.9-.1-.6-.1-1.3 0-2 0-.4.1-.7.6-1 .2-.1.5-.1.6 0 .1.1.2.2.2.4s.1.4.1.6c.1.4.3.8.2 1.3 0 .1.1.3-.1.4v.1c.4.6.1 1.2.2 1.7 0 .5.3 1 .2 1.5.3.3.2.6.2.9-.3 1-.1 2-.1 2.9v3c0 .2.2.3 0 .5-.1.2 0 .4 0 .6 0 .2.1.4 0 .6-.3.8-.1 1.6-.1 2.4v2.3c0 .5.2.9.2 1.4 0 .2.1.4-.1.6-.1.1.1.2.1.4v2.4c0 .3.1.5.2.8v.9c0 .4-.1.7-.1 1.1 0 .4.1.8 0 1.1-.2.7-.1 1.4-.1 2v2c0 .4-.2.7-.2 1.1 0 .2-.6.4-.9.3 0 0-.1 0-.1-.1-.2-.4-.5-.7-.5-1.1.1-.3.1-.9.1-1.5zM284.9 223.8v1.6c0 .2-.1.4.1.6.1.1-.2.3-.2.5v1.5c0 .5.1 1 .1 1.4 0 .5-.1 1 0 1.4.1.4-.1.8 0 1.1.1.4.1.8 0 1.2-.1.3-.2.6-.1.9 0 .2.2.3.2.5s-.1.4.2.5c0 0 0 .1-.1.1-.2.2-.2.4 0 .6.1.2.1.3.1.4v1.2c0 .3-.1.6-.1.9 0 .3.1.7 0 .9-.1.3-.1.6-.1.9 0 .2-.1.4.2.5v.1c-.3.5.2.9.1 1.4-.1.5 0 1 .1 1.5 0 .1-.1.3.1.4.1 0 .1.2 0 .2-.3.4-.1.8-.1 1.1 0 .4.1.8-.1 1.3-.1.2-.1.4.2.6.1.1 0 .3.1.5 0 .1.2.2.2.4 0 .1-.1.2-.1.3v.1c.3.6 0 1.2.1 1.9.1.6.2 1.3.2 1.9 0 .4 0 .7-.5 1-.2.1-.5.2-.6 0l-.3-.3c-.1-.2-.1-.4-.2-.6-.1-.4-.4-.8-.3-1.2 0-.1-.1-.3.1-.4v-.1c-.4-.5-.2-1.1-.3-1.7-.1-.5-.4-.9-.3-1.4-.3-.2-.3-.6-.2-.8.2-1 0-1.9 0-2.9s-.1-2-.1-2.9c0-.2-.2-.3-.1-.5s0-.4 0-.6c0-.2-.1-.4 0-.6.3-.8.1-1.5.1-2.3 0-.8 0-1.5-.1-2.3-.1-.5-.2-.9-.2-1.4 0-.2-.1-.4.1-.6.1-.1-.1-.2-.1-.4v-2.3c0-.3-.1-.5-.1-.8v-.9c0-.4.1-.7.2-1.1 0-.4-.1-.8 0-1.1.2-.7.1-1.3.2-2 0-.7.1-1.3 0-2 0-.4.2-.7.2-1.1 0-.2.7-.4.9-.3 0 0 .1 0 .1.1.2.4.5.7.5 1.1-.1.8-.1 1.4-.1 2z"/></g><path d="m317 164.7-.4.7-1 1.8-.9 1.6c-.6 1.1-1.2 2.1-1.9 3.1-4.6 7.4-10.1 14.2-16 20.6-.8.8-1.5 1.5-2.2 2.4-2.2 2.4-3.3 3.4-4.5 3.9-.9.4-2 .7-2 .7 0 .3.4.6.4 2.9.1 5.9.1 11.8.2 17.7v4.3h-31.4c-12.6 0-25.2-.1-37.8-.1.2-1.7.5-3.4.8-5.2 1.1-7.8 2.3-15.6 3.4-23.4v-.2l-1-.4-2-.9c-1.3-.6-2.6-1.3-3.9-1.9-2.6-1.3-5.1-2.8-7.5-4.3-4.3-2.7-8.5-5.8-12.4-9.1-1-.8-1.9-1.6-2.8-2.2-.1-.1-.2-.1-.4-.2l-.7-.5-1.4-.7c-.1-.5.2-1.1.3-1.6l.3-1.2c.5-2.5 1.1-5 1.8-7.5.3-1.2.7-2.4 1.1-3.7l.9-2.7.1-.4c.1-.1 0-.4.2-.3l.8.2 1.7.5 7.3 2c4.8 1.3 9.7 2.5 14.6 3.6 4.1 1.3 8.5 1.8 12.9 2.9 2 .5 4.1.9 6.3 1.4 2 .4 4 .7 5.9 1.1.1 0 .2 0 .1-.1l.1-1.1.1-1.6v-.4c0-.1 0-.3.2-.2h.8l2.7.1 6.9.4c.9.1 1.7.1 2.6.2.4 0 .8.1 1.2.1.5.1 1 .1 1.5.2H263.8v1.6c0 .5.1 1.1.1 1.3l.1.8.1.2v.1c0 .1 0 .2.1.1l.8-.2c2.3-.7 4.6-1.5 6.8-2.3 11.5-4.3 22.3-10.2 32.2-17.5l3.5-2.6 1.3-1c.1 0 .2-.2.3-.1l.2.4.3.8 1.2 2.6 3 6.5 1.5 3.3.8 1.6.5 1.1c.2.3.4.6.4.8z"/><path d="M293.2 153s0-.1 0 0c.2 0 .4-.2.4-.6-.1-.6-.7-1.1-1.2-1.4-.3-.3-.6-.6-1.1-.8-.3-.1-.7-.7-1.1-1.1-.3-.3-.6-.5-.9-.8l-.2-.2c-.5-.9-1.3-1.6-1.9-2.5l-1.6-2.7c-1.2-2.1-2.5-4.2-3.9-6.3-.5-.7-.9-1.4-1.6-1.9-.3-.2-.9-.9-1-1.2-.2-.5-.6-.8-1-1.2-.8-.8-1.7-1.5-2.7-2.1-1-.6-2-1.1-3.1-1.4-1.1.1-1.9-.7-3-.7h-.4s-.1 0-.2.1-.3.1-.3 0c.2-.2 0-.1-.2-.1h-.2c-.5.1 0-.1.2-.2s.3-.2.4-.5c0-.1.4-.4.6-.6l.8-.8c.5-.5 1-1.1 1.4-1.7.9-1.3 1.1-2.8 1-4.3 0-.9-.2-1.7-.3-2.5-1-2.5-2.6-4.8-4.8-6.3-.6-.4-1.2-.5-1.8-.8-.7-.3-1.2-.7-1.9-1-.1 0-.3-.1-.4-.1-.5.1-1.2-.2-1.7-.3-.8-.2-1.6-.2-2.3-.5-1.9.2-3.9.1-5.8.5-.5.1-1.1.1-1.4.3-1.1.6-2.4.8-3.5 1.4-1.1.7-2.6 1.2-3.7 2.1-.3.2-.7.7-.9.8-.6.2-.9.8-1.3 1.2-.4.4-.8.9-1.1 1.4-.7 1.3-1.2 2.9-1.1 4.5.1 1.6.8 3.2 1.7 4.5.1.1.2.3.3.4l.2.2.2.2c.1.1.3.2 0 .2h-.2l.1.1c.2.1.2.2-.2 0 .3.3-.1.2-.2.2h-1.6c-.7 0-1.4.1-2.1.2-1.4.2-2.8.5-4.1 1.2-1.3.7-2.3 1.8-3.6 2.4-.1 0-.3.3-.4.4-.4.7-1.2 1.4-1.6 1.7-.7.4-1.1 1-1.5 1.5-1.5 2-2.7 4.2-3.8 6.3l-5.1 9.6c-.2.5-.5.9-.7 1.5-.3.9-1.1 1.9-1.3 2.9-.2.2-.5.5-.7.8l-.3.5-.4.8c-.2.5-.6 1.1-.7 1.5.5.2 1 .5 1.6.8l.9.4.6.3c.4.2.8.3 1.2.5.8.3 1.6.6 2.3.9 1.6.6 3.2 1.1 4.7 1.8.6.2 1.3.4 1.9.5.6.2 1.5.3 1.8.5.7.4 1.1.1 1.7.3 1 .3 2.1.4 3.2.6.6.1 3.1.6 4.3.6 1.5 0 2.3 0 4.4-.8-.9-.3-.7-.2-.8-.3-.6-.5-1.2-1-1.9-1.4-.9-.5-1.5-1-2.1-1.5l-.9-.7-.7-.5c-.4-.3-.7-.7-1.1-1.1-.4-.4-.8-.9-1.2-1.2-.9-.7-1.6-1.7-2.3-2.6-.5-.6-.8-1.3-1.4-1.9-.3-.2-.5-1-.7-1.4-.2-.7-.7-1.5-.6-2.2-.3-.4-.4-.9-.5-1.4-.1-.8-.2-1.6-.2-2.4 0-.7 0-1.5.3-2 .2-.1 0-.3.2-.4s.2-.2.7-.2c.2 0 .6-.2.8-.2.9.1 1.8-.3 2.7-.7 1.5-.6 2.9-1.4 4.1-2.3l.5-.3.2-.2.3-.3c.2-.2.4-.4.6-.5l.1-.1c0 .2-.1.7-.2.9l-.1.4-.2 1v.2c-.2.4-.3.8-.4 1.2-.1.6-.2 1.6-.3 2.4l-.1.6 1.9.4c.7.1 1.5.3 1.7.3 1.2.2 2.4.3 3.5.5 1.1.1 2.2.3 3.4.3 1.1 0 2.4.3 3.5.4.5 0 1-.1 1.4 0 .5.1 1.1.2 1.6.3.5.1 1.1.1 1.6 0 .3 0 1 .3 1.6.3 1.2-.2 2.4.1 3.6.1l3.2.2c.3 0 .8.1 1 .1.7-.3 2.8 0 4.4.1h.1c-.3-.9-.5-1.8-.8-2.7l-.1-.6-.1-.4-.1-.8c0-.3.1-.6 0-.6-.2-.6-.2-1 .1-1.1 0 0 0-.1 0 0l.1.4c.2.5.2.1 1.2 1.2 1 1.1 2.2 1.8 3.4 2.4 1.1.6 2.3 1.2 3.4 1.7.6.2 1.2.5 1.8.7l.5.2v.1l-.3 1.1-.9 2.4c-1.1 2.2-2.4 4.4-4.1 6.3-1.3 1.4-2.6 2.8-4 4.1l-5.7 2.6 6.9-.3.9-.3c.1 0 .3-.1.4-.1.8-.6 1.8-.7 2.7-1.1.9-.4 1.7-.8 2.6-1.1 1.8-.7 3.6-1.4 5.3-2.3 1.7-.9 3.5-1.3 4.9-2.3.9-.5 1.8-.9 2.4-1.4.6-.4 1-.9 1.4-1.4.2-.2.8-.8.7-1 .5-.7.4-.8.3-.8zm-.5-.2h.2c-.1.1-.1.1-.2 0z"/><path d="M243.7 152c.1-.2.1-.5.2-.7 0-.1.2-.1-.1-.3-.1-.1.2-.1.2-.2 0-.2.1-.4.1-.7 0-.2-.1-.4-.1-.6 0-.2.2-.3 0-.5-.1-.1.1-.2 0-.3-.1-.1-.1-.2-.1-.3.1-.1.1-.2.1-.2l-.2.1s0-.1-.1.1v-.1c.1-.2.1-.2 0-.1l-.1.1h-.2c-.1 0-.2-.1-.2-.2-.1 0-.1.2-.3 0-.1-.1-.2-.1-.3 0 0 0-.2-.1-.1.2-.4-.3-.2.3-.4.3s-.3.2-.4.4c0 0-.1 0 0 .2v.1c-.3-.1-.3.1-.4.2-.2.1-.2.3-.5.3-.1 0-.2 0-.1.3.1.1-.1.1-.1.2s.1.2 0 .2h-.2c.1.4-.4.4-.5.7-.1.3-.2.5-.4.7-.1.1-.3.2-.8 0-.3-.1-.5-.2-.6-.4-.1-.1-.2-.2-.2-.3v-.3c0-.2-.1-.5.1-.6.1 0 0-.2.2-.1h.1c-.2-.4.2-.5.3-.8.1-.2 0-.6.2-.7-.2-.3 0-.4.1-.5.6-.2.7-.7 1.1-1 .4-.3.8-.7 1.3-1 .1 0 .1-.3.2-.2.2.1.2-.1.4-.1.1 0 .2-.2.3-.1.5.2 1-.1 1.5 0s1 .3 1.5.6c.3.2.7.4.8.8 0 .1.3.2 0 .5-.1.1.2.1.2.2.1.2.1.4.1.6v.8c0 .2.1.3.1.5s0 .3-.1.4c-.1.2-.2.3-.3.5-.1.2 0 .4-.2.5-.3.2-.3.6-.4.9-.1.3-.2.6-.2.9 0 .2-.3.3-.3.4 0 .1-.8 0-1-.1 0 0-.1 0-.1-.1-.2-.2-.5-.5-.5-.6.2 0 .3-.3.4-.6zM266.6 155.6c.1-.2.2-.5.2-.7 0-.1.2-.1-.1-.3-.1-.1.2-.1.2-.2 0-.2.1-.4.2-.7v-.7c0-.2.2-.4.1-.6-.1-.2.2-.2.1-.3-.1-.1-.1-.1 0-.2s.2-.2.1-.2l-.2.1s0-.2-.2.1v-.1c.1-.2 0-.2-.1-.1l-.1.1h-.2c-.1 0-.1-.2-.2-.2s-.1.1-.2 0-.2-.1-.3 0c0 0-.2-.1-.1.2-.4-.3-.2.3-.4.3s-.3.2-.4.4c0 0-.1 0 0 .2.1.1 0 .1 0 .1-.4-.1-.3.2-.5.3-.2.1-.2.4-.5.4-.1 0-.3.1-.1.3.1.1-.1.1-.1.2s.1.2 0 .2h-.2c.1.4-.4.4-.5.7-.1.3-.2.5-.4.8-.1.1-.2.2-.8.1-.3-.1-.5-.2-.7-.3-.1-.1-.2-.2-.2-.3v-.3c0-.2-.2-.5.1-.7.1 0 0-.2.2-.1h.1c-.2-.5.2-.6.3-.8.1-.2 0-.6.2-.7-.2-.3 0-.4.1-.5.6-.2.7-.7 1.1-1.1.4-.4.8-.8 1.3-1.1.1-.1.1-.3.3-.2.2.1.3-.1.4-.2.1-.1.2-.2.4-.1.6.2 1.1-.1 1.6.1.5.1 1 .4 1.5.7.3.2.7.4.8.9 0 .2.3.3 0 .5-.1.1.2.2.2.3v.7c0 .3-.1.5-.1.8 0 .1.1.3.1.4 0 .1 0 .3-.1.4-.1.2-.2.3-.3.5-.1.2 0 .4-.2.5-.4.2-.3.6-.5.9-.1.3-.3.6-.3.9 0 .2-.3.3-.4.4 0 .1-.8-.1-1-.2l-.1-.1c-.2-.3-.5-.5-.4-.7.1-.2.2-.5.3-.8zM252.8 155.1l-.2-.1c-.1 0-.2-.1-.3-.1-.1 0-.1-.2-.3 0-.1.1 0-.2-.1-.2-.2 0-.3-.2-.5-.3-.2-.1-.4-.1-.5-.3-.1-.2 0-.4-.2-.5-.2-.1.1-.3.1-.5-.1-.1 0-.3.1-.5.1-.1.3-.2.3-.3 0-.1-.2-.2-.1-.2 0-.1.2-.1-.1-.3h.1c.2 0 .2 0 .1-.1s-.1-.1-.1-.2 0-.2.1-.3c0-.1.2-.1.2-.2.1-.1 0-.2.1-.2.2 0 .2-.1.2-.1s.2 0-.1-.2c.4.1 0-.3.1-.3.2-.1.1-.2.2-.3 0 0 .1 0-.1-.1-.1 0-.1-.1 0-.1.3 0 .2-.1.3-.2.1-.1 0-.2.3-.2.1 0 .2 0-.1-.2-.1-.1 0-.1 0-.1s-.1-.1-.1-.2h.2c-.2-.3.2-.2.2-.4s.1-.3.2-.4c.1-.1.2-.1.7.1.2.1.5.2.6.4l.2.2c0 .1.1.1.1.2s.2.3.1.4c-.1 0 .1.1-.2 0 0 0-.1 0 0 0 .3.3 0 .3 0 .4 0 .1.2.4 0 .4.3.2.2.2.1.3-.4.1-.3.4-.4.5l-.3.6s.1.1 0 .1-.1.1-.1.1 0 .1-.1.1c-.4 0-.3.3-.4.4 0 .1-.1.2-.1.2v.2c0 .1.2.1.1.1h-.2.2v.1l.2-.1-.1.1s.1-.1 0 0c-.1.2 0 .1 0 .2.1.1.3.2.4.2.1 0 .1.3.2.3 0 0-.2.8-.3 1 0 0 0 .1-.1.1-.2.2-.4.5-.5.5h-.1zM257.7 159.1c-.2.1-.4.2-.5.4-.1 0-.2 0-.1.3 0 .1-.2-.1-.2-.1-.2.1-.4.1-.5.2-.2.1-.3.3-.5.3-.2.1-.4 0-.5.2-.1.2-.3-.1-.5 0s-.3.1-.5 0c-.1-.1-.2-.2-.3-.2-.1 0-.1.2-.2.2s-.1-.2-.2.2v-.1c-.1-.2-.1-.2-.2-.1s-.1.1-.2.1c-.2 0-.3 0-.5-.1l-.3-.3c-.1-.1-.3 0-.3-.1-.1-.2-.2-.2-.2-.2-.1 0-.1-.2-.2.1 0-.5-.4 0-.5-.2-.1-.2-.3-.2-.5-.3 0 0 0-.1-.2.1-.1.1-.1 0-.1 0 0-.4-.2-.3-.3-.4-.1-.1-.3-.1-.3-.4 0-.1 0-.2-.3 0-.1.1-.1-.1-.2-.1s-.2.1-.2 0v-.2c-.4.1-.3-.4-.5-.6-.2-.2-.4-.4-.5-.7 0-.1 0-.3.5-.7.2-.1.5-.2.7-.3h.3c.1 0 .2 0 .2.1.1 0 .4 0 .3.1 0 .1.1 0-.1.2.4-.1.3.1.4.2.1.1.4-.1.4.1.3-.2.3-.1.3 0 0 .4.3.4.5.5.2.2.5.2.7.4 0 0 .1-.1.1 0s.1.1.1.1.1 0 .1.1c.1.4.4.2.6.3.2.1.4.1.6.1.1 0 .2-.2.4-.2.1 0 .1-.2.2.2 0 .1.1-.2.1-.2h.2c.1 0 .2 0 .3-.1.1 0 .1-.2.1-.2.1 0 .1-.1.2-.1s.2.1.3.1c.1 0 .1-.2.3-.1.3.2.3 0 .5-.1.1-.1.3-.2.4-.3 0-.1.3 0 .3 0s.7.4.9.6l.1.1c.1.2.3.6.2.7-.4.1-.5.3-.7.4z"/><path d="M192.6 159.2c.1.5.1.9 0 1.3 0 .2-.1.3 0 .5.1.1-.2.2-.2.4-.1.3-.3.5-.5.7-.1.1-.2.1-.4.2l-.2.1c-.1 0-.1.1-.1.1h-.1s.1 0 .1.1c.2 0-.1 0 0 .1h.1l.2.4c.1.2.1.5.2.7.1.1.2.3.2.5s-.1.3.1.5c0 0 0 .1-.1.1-.2.2-.2.4-.1.5 0 .2 0 .3-.1.4-.2.4-.4.7-.7.9-.2.2-.5.3-.8.4-.1 0 0 .1-.2 0-.1 0-.1-.1-.2-.1h-.2s.1.1.3.1c-.2-.1-.1 0-.1 0 .1 0 .2 0 .2.1-.1-.1.2.4.4.8 0 .1 0 .2.2.3.1 0 .1.1.1.2-.1.3 0 .6 0 1s0 .8-.3 1.1c-.1.1-.3.3-.2.6 0 .1-.2.2-.3.3-.1.1-.1.2-.2.3-.1.1-.2.1-.3.1h-.1c-.4.5-1.1.3-1.6.4-.6.1-1.1-.1-1.5-.4-.2-.1-.5-.4-.4-.8 0-.2.2-.3.3-.4.1 0 .2-.1.3 0 .1 0 .2 0 .4.1.2 0 .5-.1.7.1.1 0 .1-.1.2.1.3-.3.6-.1.8-.3.2-.1.2-.4.4-.5-.1-.2 0-.3.1-.3.4-.3.2-.8 0-1.3 0-.1-.1-.2-.1-.4l-.1-.2c0-.1-.1-.2-.2-.3-.3-.5-.8-1-1.1-1.5-.1-.1-.5-.4-.4-.5.2 0-.1-.2-.3-.5.6.1 1.1.2 1.6.3 1.1.4 1.3.1 1.4.1.2-.1.3-.2.4-.4.2-.3.4-.7.3-1l-.3-.6c0-.1-.2-.1-.1-.3 0-.1-.2-.2-.4-.3l-.9-.9-.9-.9c.1 0 .3 0 .4-.1.3-.1.5-.2.8-.2.3-.1.7-.1 1.1-.1H191.1v-.1l.1-.1c.3-.3.2-.7.2-1 0-.3-.1-.6-.3-.7-.1-.1-.1-.3-.3-.3-.1 0-.1-.5 0-.7 0 0 0-.1.1-.1.3-.1.7-.3 1 0 .3.4.6.9.7 1.4zM321.5 159.7c-.5-.2-.9-.5-1.3-1-.1-.2-.1-.4-.3-.6-.1-.1.1-.4.1-.5 0-.5.2-1 .5-1.4.1-.1.1-.2.2-.3l.2.2c.2.1.3.2.4.2l-.7.1v-.1s.2-.1 0 0 0-.1-.1 0h-.2c-.3-.1-.5-.3-.8-.4-.2-.1-.4 0-.5-.2-.1-.1-.2-.3-.5-.3l-.1-.1c0-.2-.2-.4-.4-.5-.2-.1-.2-.3-.3-.4-.1-.4-.3-.9-.1-1.4.1-.2.2-.4.2-.5l.1-.1c.1 0-.1 0 .1-.1s.2-.1.3-.2c0 0 .3-.2-.2.1.1 0 .1-.1.2-.1.1-.1-.1 0-.2.1s-.2.1-.2.1c0-.1-.1 0-.2 0 0 0-.2-.1-.3.1-.1.1-.2 0-.2 0-.3-.3-.7-.3-1-.5-.3-.2-.8-.5-.9-1 0-.2-.1-.4-.4-.6-.1-.1-.1-.3-.1-.5 0-.1-.1-.3-.1-.4 0-.1.1-.2.1-.3v-.1c-.1-.7.4-1.2.7-1.7.3-.5.8-.9 1.3-1.2.3-.1.7-.2 1 .1.1.1.2.3.1.5-.1.1-.1.2-.2.3l-.3.3c-.2.2-.3.5-.5.6-.1 0-.1.2-.2.1h-.1c0 .4-.3.6-.3 1 0 .3.2.6.1.8.2.1.2.2.2.3 0 .5.7.7 1.2.7.5.1 1.3 0 2.1-.2l2.3-.4-.1.1c-.2.2 0 .2-.5.5-.4.3-.5.5-.7.7-.2.2-.3.4-.6.6-.6.4-1 .8-1.3 1.2-.1.2-.1.3-.1.5 0 .4.2.8.6 1 .2.1.5.1.7.2h.2c.1 0 .3 0 .4.1 0 .1.4-.1.6-.1.5-.1.9 0 1.2 0 .5 0 .9.1 1.1.1h.3c-.2.2-.3.4-.6.6l-.6.5-.3.2-.1.1h-.7v.5c-.1.1 0 .1-.1.1 0 0 0 .1-.1.1l-.3.3-.2.2c-.1.2 0 .3-.1.5-.2.3.1.5.4.7.3.2.7.3 1.1.2.2 0 .5.1.7 0 .1 0 .4.4.4.6v.1c-.2.2-.4.6-.8.6-.1-.5-.7-.5-1.2-.7z"/></svg>
