<svg id="Layer_1" xmlns="http://www.w3.org/2000/svg" viewBox="0 0 486 486"><defs><clipPath id="clippath"><path class="cls-3" d="M419.51 158.56c-.57 15.46-1.28 30.97-2.05 46.48-.97 19.13-2.05 38.28-3.14 57.44-1.02 17.78-2.01 35.57-4.33 53.24-1.39 10.74-3.29 21.41-5.21 32.05-.11.62-.22 1.22-.33 1.83-3.62 19.97-7.31 39.9-8.22 60.16-4.77 1.37-7.86 1.68-10.96 1.97-33.51 3.25-67.09 6.49-100.76 6.49-21.87 0-43.74-1.37-65.59-.86-48.8 1.17-97.34 11.75-146.03 8.53-7.36-25.74-7.2-52.45-7.18-79.07v-9.54c-.18-45.62-3.31-91.9 4.06-136.7 1.15-7.11 2.58-14.18 4.35-21.21 13.28-2.08 28.63-4.9 43.56-8.13 9.68-2.1 19.4-4.37 28.37-8.62 9.7-4.57 18.23-11.33 26.18-18.56 37.25-33.78 63.84-79.09 75.16-128.06 9.41 23.51 24.79 47.43 41.24 70.18 8.24 11.4 16.88 22.69 27.79 31.55 9.94 8.09 21.5 13.94 33.07 19.46 22.18 10.58 45.44 20.39 70.01 21.36z"/></clipPath><clipPath id="clippath-1"><path class="cls-2" d="M375.32 323.84c.02 1.1.02 2.23-.04 3.36-.04.55-.07 1.1-.13 1.66l-.11.99-.2 1.44-.2 1.46c-.04.09 0 .29-.11.29l-.33-.09-.66-.15-2.67-.6-3.18-.8c-4.22-1.06-8.44-2.23-12.61-3.49-9.52-2.87-14.43-5.46-15.44-7.16-.15-.04-.31-.11-.46-.18-.02 0-.04.02-.07.02.4.31.29.86-.44 1.75-.38.44-1.19.95-2.61 1.63-10.03 4.88-20.28 9.92-31.55 12.31-5.94 1.28-12.15 1.86-18.25 1.83-6.76-.11-13.45-.64-20.15-1.92-3.34-.64-6.45-1.77-9.65-2.94-1.72-.64-2.63-1.39-4.46-2.43-2.1-1.24-4.11-2.74-5.88-4.53a26.245 26.245 0 0 1-4.37-5.92c-3.03-5.43-4.22-12.26-1.79-18.34 1.17-3 3.27-5.66 5.85-7.51 2.56-1.9 5.5-3.14 8.53-3.87 5.24-1.28 10.56-.95 15.64-.35 1.28.15 2.61.31 3.82.53 7.86 1.33 15.88 2.54 23.73 4.4 11.66 2.72 23.26 6.16 34.09 11.51 2.78 1.28 5.48 3.05 8.04 3.07 1.59.04 3.36-.44 5.26-.88 1.88-.42 3.73-.84 5.52-1.24 3.71-.8 7.38-1.68 11-2.58l2.74-.66c.91-.2 1.75-.53 3.07-.57.62-.02 1.39.11 2.03.49.66.38 1.13.88 1.48 1.37.71 1.02.99 1.92 1.37 2.81 1.97 4.86 3.07 10.1 3.2 15.31z"/></clipPath><clipPath id="clippath-2"><path class="cls-2" d="M228.63 330.21v.29c-.02.07-.15-.04-.24-.07l-1.1-.49-2.21-.95-5.35-2.32a375.33 375.33 0 0 0-9.79-4.09c-.84-.35-1.61-.66-2.43-.93-2.47-.84-3.58-1.39-4.35-2.17-.86-.86-1.37-1.59-1.37-2.12-.02 0-.02-.02-.04-.02-.15.04-.29.09-.44.11.33.13.55.35.64.64l.02.13c.09.24-.4.49-2.21.93-4.75 1.15-9.54 2.16-14.4 2.92-9.17 1.46-18.45 2.21-27.72 2.05-11.13-.15-22.22-1.5-33.09-3.91-3.25-.77-6.49-1.77-9.54-3.45-3.05-1.63-5.85-4.11-7.49-7.38-2.5-4.99-1.97-10.96.4-15.75 2.01-4.11 5.52-7.22 9.43-9.23 3.93-2.03 8.33-3.03 12.68-3.18 8.68-.29 16.9 2.54 24.61 5.63 3.18 1.66 6.65 2.83 10.03 4.68 2.94 1.61 6.47 3.27 9.74 4.93 3.38 1.7 6.74 3.38 10.16 4.95 1.26.55 2.63 1.13 3.58 1.7l.24.09h.02l.02.02c3.76 1.26 7.73 2.94 11.51 3.76 2.21.42 4.11.27 6.19-.57 2.1-.82 4.35-1.81 6.54-2.72l15.15-6.41.11 3.67.57 24.15.11 4.51.02.6z"/></clipPath><clipPath id="clippath-3"><path class="cls-2" d="M350.04 158.72c-3.05 7.53-10.41 13.14-18.38 14.8 1.9.38 3.82.62 6.12 1.81.6.29 1.22.64 1.88 1.08-1.13 3.49-.88 7.25-.91 10.91-.04 8.99-1.79 17.89-3.98 26.6-2.58 10.23-5.9 20.52-12.17 28.98-6.25 8.48-15.97 14.98-26.53 15.07l-1.52 36.94-115.94.73c-.29-12.75-.6-25.47-1.33-38.15-14.47-9.28-26.09-22.91-32.94-38.66-6.85-15.75-8.93-33.56-5.85-50.46 0 0 .66-.13 1.61-.35 1.22-.27 2.94-.64 4.44-.99 1.72-.42 3.16-.8 3.2-.93-8.99-3.16-15.64-11.22-19.07-20.13-.8-2.08-1.39-4.6-.07-6.41.18-.24.38-.46.6-.64 1.24-1.04 3.14-1.24 4.73-.77.51.15.97.35 1.44.6 1.26.66 2.36 1.63 3.42 2.61 3.76 3.45 7.44 7.33 12.31 8.86 2.76.86 5.7.91 8.48 1.66 2.78.75 5.59 2.52 6.3 5.3.64 2.61-.71 5.24-2.01 7.58 0 0 2.14-.4 3.84-.71.99-.22 1.86-.4 2.03-.49-.31 4.64.82 9.23 1.94 13.74 1.55 6.21 3.09 12.42 5.04 18.51 1.55 4.84 3.4 9.68 6.49 13.72 7 9.12 19.55 12.7 30.53 10.87-1.15-6.21-2.3-12.44-3.47-18.65.18-.04.38-.11.55-.13 2.34-.66 4.77-1.04 7.29-1.46.42-.07.84-.13 1.26-.2-.44-.09-.91-.2-1.33-.33-7.18-1.92-13.17-7.86-15.07-15.07-.04-.15-.09-.33-.13-.49-.66-2.78-.73-5.81.35-8.46 1.48-3.58 4.79-6.01 8.11-8.02a79.94 79.94 0 0 1 26.2-9.99c6.94-1.3 14.2-1.66 20.94.44 6.45 2.03 12.37 6.58 14.87 12.84.11.27.22.55.31.82 1.77 5.08 1.15 10.94-1.66 15.53-2.72 4.44-7.4 7.64-12.53 8.53-.18.04-.33.07-.51.09h.49l9.48.2v.04c.15 1.13 2.92 21.27 3.34 20.83 3.71-.62 7.42-1.26 10.94-2.56 8.2-3.03 14.8-9.52 19.15-17.08 4.35-7.58 6.63-16.17 8-24.79 1.04-.2 2.08-.38 3.73.13 0-3.18.11-6.65 2.21-9.01 2.5-2.78 6.72-2.89 10.29-3.95 5.52-1.66 9.94-5.92 13.12-10.71.6-.86 1.15-1.79 1.97-2.43.93-.75 2.08-1.06 3.23-.97 1.44.07 2.92.71 4.02 1.72.53.46.97 1.02 1.3 1.63 1.61 2.98 1.1 6.67-.18 9.81z"/></clipPath><clipPath id="clippath-4"><path class="cls-2" d="M348.81 137.88c-.18-.57-.51-1.35-.64-1.75-.44-1.33-1.5-2.5-2.58-3.38-1.04-.93-2.14-1.68-3.31-2.3-3.51-1.81-7.14-3-10.47-4.84-.22-.11-.57-.22-.86-.31-.57-.22-1.15-.38-1.72-.6-3.84-1.57-7.67-3.36-11.58-4.57-1.97-.93-4.11-1.35-6.03-2.39-.24-.11-.73-.31-.93-.35-1.37-.22-2.78-.93-4.2-1.41-1.9-.66-3.76-1.52-5.79-2.01-1.1-.27-2.54-.95-3.89-1.24-.44-.09-1.28-.62-2.16-.93l-5.06-1.79-2.54-.86c-.49-.04-1.19-.82-1.88-1.33-2.72-2.25-5.3-4.71-7.78-7.29-1.68-1.66-3.34-3.71-6.08-4.84-2.76-.99-5.32-.68-7.78-.86-.8-.04-1.81.15-2.72.18-4.95.07-9.81.42-14.76.4-1.66.02-3.36.04-5.01.07-.55 0-1.15.13-1.63.11-2.01-.09-3.93-.11-5.92.15-.55.07-1.52.09-2.1.04-.09-.02-.13-.02-.18-.02-1.57-.22-3.18-.09-4.77-.07l-5.68.09c-1.81-.38-3.62.11-5.48.09-1.9-.04-3.82.07-5.74.2-2.36.15-4.88.13-7.33.13-2.5.02-4.97.15-7.4.27-1.75.09-3.47.04-5.24.09l-2.67.15c-.91.11-1.79.33-2.63.73-.27.11-.77.33-.93.38-.44.09-.91.33-1.33.68-.42.31-.97.95-1.1 1.52-.04.18-.04.33-.04.51.02.6.42 1.08.86 1.5l.97.93 1.88 1.81c1.26 1.19 2.54 2.36 3.87 3.45.62.51 1.28 1.22 1.94 1.81l1.92 1.86c.64.62 1.33 1.48 1.83 1.86.73.53 1.28 1.13 1.88 1.68.27.24.53.62.64.75.22.24.42.46.66.68.22.2.6.44.95.71-.24.09-.57.15-1.02.13-.51-.02-.77.02-1.1.11-.24.07-.91.2-1.41.22-1.04.09-2.19.29-3.29.46-.8.13-1.57.27-2.32.4-.82.11-1.63.15-2.41.33-1.37.31-2.72.62-4.09 1.17-1.1.44-2.54.82-3.78 1.3-.44.18-.86.44-1.3.64-.24.13-.66.31-.8.33-1.06.09-2.19.68-3.27.88-.51.11-1.15.22-1.52.27-.15 0-.38.13-.49 0l-.35-.4c-.75-.86-1.48-1.75-2.05-2.7-.13-.2-.53-.6-.66-.71-.99-.62-1.81-1.77-2.74-2.63-2.72-2.54-5.37-5.28-8.48-7.25-.38-.24-.82-.68-1.22-1.02-.38-.33-.77-.64-1.17-.95-1.86-1.52-4.09-2.5-5.96-4.02-.13-.09-.42-.24-.53-.27-.71-.15-1.48-.75-2.21-1.13-1.77-.95-3.29-1.94-5.01-2.87a99.414 99.414 0 0 0-20.21-7.31c-.62-.18-1.39-.35-1.86-.38-.71-.02-.99-.13-1.66-.35-3.09-.97-6.58-1.5-9.9-1.7-2.5-.15-4.77-.15-7.2-.42-.68-.09-1.7-.11-2.34-.02-1.37.18-2.81.24-4.22.31-.71.04-1.97.07-2.81.2-.51.04-.75.2-.97.38-.09.07.02.27.09.44l.22.51c.04.15.09.29.22.51.33.57.68 1.28.84 1.44 1.02.97 1.55 2.12 2.36 3.16.75.95 1.5 1.94 2.25 2.92.75.95 1.72 2.01 2.19 2.76.77 1.24 1.59 1.57 2.3 2.41.07.09.2.2.22.24.66 1.24 1.72 1.83 2.65 2.63.31.27.75.55.88.73.88 1.17 1.88 2.25 3.29 3.18 1.04 1.37 2.7 2.45 4.13 3.56l1.3.99c.07.04.11.09.2.13 3.38 2.5 6.98 4.73 10.71 6.67 2.19 1.15 4.42 2.21 6.69 3.14-4.09.15-8.15.64-12.15 1.46-.6.11-1.17.33-1.77.44l-3.73.91c-.71.18-1.66.31-2.1.51-1.63.77-3.47 1.22-5.15 1.92-1.37.55-2.87 1.06-4.04 1.88-.31.2-1.15.6-1.46.68-.44.11-.91.29-1.35.51l-.07.02h-.02c-.68.35-1.35.73-2.01 1.08-1.57.86-3.09 1.81-4.62 2.7-1.59.93-2.92 1.94-4.62 2.81l-1.15.55-1.41.6-2.85 1.19c1.41.71 3.8 1.55 5.37 2.16 3.2 1.17 6.45 2.16 9.76 3.03l.46.11.11.02s.02.02.04.02h.04l.09.02c2.5.6 5.06 1.02 7.44 1.72.31.09.82.11 1.22.15.38.04.99.07 1.1.11.88.4 2.05.44 3.09.57 1.35.18 2.7.33 4.04.46h.04c2.87.24 5.74.42 8.64.46 1.48.04 3.03-.07 4.46.15.42.04 1.48 0 1.86-.09.71-.18 1.46-.15 2.19-.22 1.22-.09 2.45-.15 3.67-.24 1.26-.07 2.52-.07 3.76-.22 3.69-.46 7.36-.99 11-1.88 4.71-1.15 9.54-2.36 14.23-3.89.18-.02.33-.2.51-.09.2.09.38.15.55.24.49.18.95.31 1.44.4.27.02.93.22 1.06.29.68.4 1.61.53 2.43.73 1.72.44 3.45.68 5.15.95l2.28.38c.66.13 1.35.27 2.01.46l.33.11s-.18.09-.24.13c-1.33.64-2.28 1.19-3.87 2.36-.73.53-1.41 1.08-2.08 1.68-.64.6-1.35 1.19-1.86 2.03-.24.4-.44.91-.4 1.46.02.53.33 1.04.71 1.35.75.62 1.48 1.04 2.21 1.57 1.44 1.02 3.03 1.86 4.53 2.78 1.1.6 2.21 1.13 3.31 1.92.57.4 1.41.84 2.36 1.24.42.18.86.31 1.19.4 1.15.27 2.21.42 3.29.33.75-.07 1.48-.2 2.14-.4.04 0 .09 0 .13-.02l.07-.02c.6-.18 1.15-.42 1.7-.73.11-.09.49-.22.6-.22 1.13-.11 2.39-.73 3.58-1.15l5.99-2.14 1.61-.6c.27-.09.55-.2.8-.27.18-.04.4-.07.55.07.53.31 2.25.84 2.98.93.99.15 1.83.44 2.74.66 10.36 2.87 21.03 4.6 31.75 5.06.82.04 1.66.13 2.5.2 1.61.13 3.4.04 5.13.04.4 0 .93-.09 1.13-.04 1.33.2 2.81-.02 4.18 0 1.37 0 2.72-.02 4.09-.09 1.81-.09 3.73-.22 5.39-.64 3.45-.38 6.89-.88 10.29-1.5.8-.15 1.46-.24 2.1-.24.27 0 1.06-.18 1.24-.27.64-.38 1.57-.46 2.39-.66 1.5-.35 3-.73 4.51-1.08l.35-.09c.13-.04.09.18.13.27.04.24.09.49.13.73.09.68.13 1.57.18 2.34.02.31-.11.75-.18 1.15-.04.35-.13.86-.13 1.1.11 1.22-.24 2.81-.2 3.87 0 .68.35 1.59 1.06 1.99.73.44 1.57.35 2.14.2 3.4-1.06 6.34-2.67 9.19-4.62 1.5-1.04 2.98-2.14 4.48-3.25.73-.55 1.48-1.1 2.25-1.68l1.13-.82.44-.31.51-.02c3.47-.2 7.11-.95 10.6-1.75.88-.2 1.63-.53 2.32-.71 4.42-1.24 8.84-2.52 14.01-4.79 2.03-.99 4.26-2.19 6.36-3.87 2.05-1.7 3.95-3.89 5.06-6.47.62-1.55.82-2.47.71-2.98v-.02c.07-.11.09-.24.11-.35 0-.04.02-.07.02-.11.02.09.07.15.13.15.64.18 1.88-2.16.91-5.43zm-249.37-1.92v-.02h.02l-.02.02z"/></clipPath><style>.cls-2{fill:#fff}.cls-3{fill:#9fc9eb}</style></defs><g id="TELTTA"><path class="cls-3" d="M419.51 158.56c-.57 15.46-1.28 30.97-2.05 46.48-.97 19.13-2.05 38.28-3.14 57.44-1.02 17.78-2.01 35.57-4.33 53.24-1.39 10.74-3.29 21.41-5.21 32.05-.11.62-.22 1.22-.33 1.83-3.62 19.97-7.31 39.9-8.22 60.16-4.77 1.37-7.86 1.68-10.96 1.97-33.51 3.25-67.09 6.49-100.76 6.49-21.87 0-43.74-1.37-65.59-.86-48.8 1.17-97.34 11.75-146.03 8.53-7.36-25.74-7.2-52.45-7.18-79.07v-9.54c-.18-45.62-3.31-91.9 4.06-136.7 1.15-7.11 2.58-14.18 4.35-21.21 13.28-2.08 28.63-4.9 43.56-8.13 9.68-2.1 19.4-4.37 28.37-8.62 9.7-4.57 18.23-11.33 26.18-18.56 37.25-33.78 63.84-79.09 75.16-128.06 9.41 23.51 24.79 47.43 41.24 70.18 8.24 11.4 16.88 22.69 27.79 31.55 9.94 8.09 21.5 13.94 33.07 19.46 22.18 10.58 45.44 20.39 70.01 21.36z"/><g style="clip-path:url(#clippath)"><path d="M182.91 197.91c.05.01.18 0 0 0z"/><path d="M64.74 194.26c1.13.72 2.62 1.19 5.86 1.62 1.07.14 2.1.33 3.21.53 8.68 1.55 17.44 3.03 26.24 4 9.77 1.07 19.6 1.76 29.44 1.85 12.71.16 25.43-.47 38.06-2.03 5.14-.68 10.38-1.27 15.31-2.33h.06-.01l.31-.06c1.41 0 3.23-.33 4.94-.57 4.63-.64 9.24-1.13 13.85-1.25 4.44-.13 9.18.08 13.12 1.02 4.52 1.05 8.91 1.75 13.08 3.21 4.97 1.29 10.04 2.57 15.28 3.22 5.26.6 10.57.5 15.76-.15 10.48-1.29 20.49-4.23 30.46-6.6 5.96-1.44 12.02-2.5 18.03-2.93 7.95-.55 15.98.28 23.93 1.56 13.4 2.14 26.68 5.86 40.41 7.64 11.47 1.51 23.1 1.31 34.55-.13 6.06-.74 12.04-1.92 17.94-3.27 2.25-.54 2.88-.85 2.78-1.11-.02-.04-.01-.09-.02-.14-.31-.95-2.02-1.18-5.29-.84-3.27.34-8.1 1.24-14.75 2.28-9.75 1.47-19.68 1.7-29.47.88-5.69-.5-11.44-1.37-17.12-2.52-8.46-1.75-16.86-3.49-25.41-5.26-4.16-.85-8.73-1.64-13.16-1.89-3.5-.2-7.15-.43-10.67-.41-7-.04-13.95 1.15-20.67 2.65-6.73 1.53-13.34 3.41-19.98 4.86-8.89 2-18.06 3.43-26.89 2.08-1.37-.21-2.83-.43-4.24-.7-5.63-1.05-11.21-2.72-16.92-4.11-6.62-1.69-13.63-2.86-20.58-2.68-6.95.09-13.79 1.1-20.54 2.25-5.13.9-10.66 1.59-15.96 2.22-2.3.26-3.59.11-5.58.4-3.73.51-7.4.58-11.18.79-7.56.45-15.18.47-22.77.26-6.85-.22-13.79-.49-20.52-1.19-12.74-1.33-25.34-3.3-37.81-6.06-1.76-.39-2.86-.53-3.5-.41-2.6.48-2 1.69.45 3.3zM302.7 340.4s-.18-.03 0 0zM418.16 335.53c-1.28-.22-2.77-.06-5.86.63-1.03.22-2.03.36-3.11.53-8.44 1.35-17.06 2.05-25.62 2.7-9.52.73-19.08 1.04-28.63 1.26-12.35.29-24.7.12-37.07-.02-5.04-.06-10.16-.31-15.1-.22h-.06.01-.31c-1.36-.22-3.18-.22-4.88-.27l-13.81-.44c-4.44-.14-9.21-.14-13.25-.43-4.64-.33-9.03-.04-13.32-.49-10.04-.3-20.09-.61-30.13-.91-10.12-.33-20.23-.66-30.35-.98-6.05-.18-12.14-.37-18.17-.55l-23.87-.66c-13.39-.39-26.81-.79-40.23-1.18l-33.59-1.02c-5.92-.21-11.83-.4-17.7-.68-2.25-.11-2.91 0-2.9.24 0 .04-.02.08-.02.12.03 1.74 6.17 2.69 19.5 2.92 9.76.17 19.53.56 29.27.85 5.66.18 11.41.36 17.11.53 8.45.31 16.85.39 25.38.82 4.13.21 8.61.42 12.89.4 3.39-.01 6.92.12 10.3.26 13.43.56 26.86.81 40.27 1.3 9.01.33 18.09.49 27.05 1.02 1.39.08 2.87.12 4.31.17 5.71.17 11.43.33 17.14.5 13.33.34 26.6 1.1 40.02 1.25 5.1.11 10.6.23 15.86.35 2.28.03 3.53.32 5.51.26 3.72-.14 7.32.15 11.06.11 7.47 0 14.99 0 22.5-.15 6.78-.15 13.63-.54 20.31-.9 12.65-.69 25.22-1.94 37.71-3.93 1.77-.28 2.83-.55 3.37-.86 2.21-1.29 1.19-2.06-1.59-2.54zM134.07 250.63s-.05.07 0 0z"/><path d="M147.57 201.02c-.51.43-.61.94-.85 2.21-.08.42-.22.81-.41 1.23-1.42 3.33-4.29 6.17-6.5 9.64-2.58 3.9-3.74 8.64-4 13.11-.39 5.81.08 11.47-.5 16.88-.23 2.21-.82 4.38-1.23 6.53v.02l-.02.13c-.37.51-.57 1.29-.83 1.99-.7 1.9-1.58 3.74-2.55 5.51-.93 1.72-1.98 3.56-3.19 4.87-1.37 1.51-2.34 3.24-3.94 4.32-3.13 3.1-6.94 5.52-10.83 7.84-3.94 2.35-8.1 4.43-12.01 7.11-2.34 1.57-4.67 3.32-6.67 5.39-.67.67-1.31 1.38-1.9 2.14-.63.72-1.18 1.51-1.7 2.32-.57.78-1 1.64-1.43 2.51l-.33.64-.05.11-.18.25-.78 1.12c-3.5 5.06-6.89 10.21-10.12 15.45-2.7 4.38-5.2 8.86-7.68 13.37-1.3 2.39-2.59 4.77-3.88 7.14-.5.9-.53 1.23-.3 1.33l.11.06c1.59.75 3.48-1.44 6.18-6.86 1.99-3.97 4.27-7.79 6.54-11.6 1.33-2.21 2.67-4.45 4.11-6.61 2.12-3.21 4.09-6.49 6.45-9.57.57-.75 1.16-1.53 1.75-2.32.49-.72.6-1.08.82-1.49l.58-1.27c.36-.64.75-1.27 1.16-1.9.46-.59.96-1.16 1.44-1.71 4.03-4.27 9.19-7.51 14.52-10.48 3.6-2 7.18-4.15 10.75-6.35.55-.35 1.13-.73 1.66-1.16 2.15-1.61 4.18-3.46 5.95-5.49 4.11-4.74 7.55-10.21 9.13-16.39.6-2.33 1.22-4.86 1.44-7.35.07-1.07.41-1.64.35-2.57-.07-1.74.14-3.41.12-5.12-.05-3.42 0-6.81.38-10.07.32-2.93.94-5.81 2.25-8.29 1.24-2.33 3.02-4.48 4.77-6.83 1.72-2.34 3.55-4.96 4.28-8.23.19-.92.15-1.51-.07-1.83-.85-1.29-1.82-.69-2.8.23zM325.22 251.99s.05.08 0 0zM313.59 193.07c-.4.66-.45 1.43-.28 3.09.06.55.07 1.08.07 1.66.01 4.5-.54 9.07-.86 13.66-.36 5.09-.62 10.31-.05 15.51.73 6.66 2.62 13.56 6.99 19.05 1.74 2.21 3.64 4.29 5.73 5.93v.03h.01l.13.09c.4.64 1.15 1.26 1.81 1.88 1.79 1.67 3.54 3.32 5.12 5.06 1.53 1.67 3.09 3.54 3.86 5.4.88 2.08 1.9 4.05 1.92 6.26.83 5 .19 10.32.33 15.78.07 2.75.31 5.59 1.09 8.35.76 2.76 2.02 5.37 3.62 7.7 1.9 2.8 4.25 5.27 6.8 7.38 3.4 2.73 7.1 5.07 10.97 6.93 6.49 3.17 13.24 5.56 19.59 8.62 2.65 1.28 5.22 2.65 7.67 4.24 2.46 1.58 4.86 3.34 7.32 5.06 2.6 1.82 5.28 3.58 8.16 5.05 1.11.55 1.5.58 1.58.34l.05-.11c.59-1.7-2.01-3.34-7.83-7.16-4.28-2.79-8.48-6.11-13.23-8.49-2.72-1.41-5.55-2.66-8.34-3.89-4.13-1.82-8.34-3.3-12.3-5.39-1.9-1.01-3.94-2.11-5.92-3.16-1.57-.81-3.07-1.87-4.44-2.94-5.4-4.26-10.1-9.79-11.38-16.5-.89-4.48-.69-9.26-.37-14.05.06-.74.04-1.55.04-2.33-.04-3.09-.32-6.3-1.27-9.39-1.14-3.63-3.22-6.86-5.64-9.61-2.43-2.75-5.12-5.13-7.75-7.46-2-1.78-3.92-3.89-5.51-6.01-.68-.94-.8-1.59-1.37-2.41-1.08-1.54-1.65-3.3-2.3-5.06-1.3-3.56-1.86-7.41-2.13-11.26-.24-3.48-.28-7.03-.01-10.53.47-6.61 1.31-13.28 1.23-20.12-.01-.96-.13-1.54-.37-1.85-.95-1.24-1.88-.78-2.76.65zM171.5 298.12s.13.02 0 0z"/><path d="M89.96 300.81c.88.38 1.95.4 4.17.1.74-.1 1.45-.15 2.22-.21 6.03-.42 12.12-.57 18.18-.8l20.21-.67c8.7-.25 17.4-.49 26.11-.74 3.55-.13 7.16-.06 10.62-.36h.03l.22-.02c.97.17 2.24.09 3.44.07l9.72-.13c3.13-.06 6.47-.22 9.32-.1 3.27.14 6.34-.3 9.37 0 7.06-.09 14.13-.02 21.19.05 7.12.05 14.22.31 21.34.46 4.25.14 8.53.29 12.77.43 5.59.15 11.18.46 16.77.71 9.42.47 18.86.95 28.3 1.42 7.89.35 15.77.52 23.69.59l12.51-.06c1.59-.01 2.05-.15 2.03-.4v-.12c-.13-1.77-4.47-2.28-13.8-2.07-6.85.14-13.71-.13-20.55-.39-3.98-.16-8.02-.31-12.02-.56-5.93-.36-11.85-.51-17.84-1-2.9-.24-6.05-.48-9.07-.48-2.39 0-4.87-.14-7.26-.27-9.46-.57-18.92-.65-28.37-.92-6.35-.15-12.75-.11-19.06-.37-.98-.04-2.02-.04-3.04-.04-4.03.02-8.06.04-12.08.07-9.39.16-18.75-.05-28.19.36-3.58.15-7.46.14-11.16.26-1.61.05-2.49-.2-3.88-.08-2.61.22-5.15.09-7.77.18-5.25.13-10.53.25-15.8.38-4.76.17-9.57.35-14.26.52-8.89.23-17.72.57-26.57 1.02-1.25.06-2.01.2-2.41.44-1.63 1.01-.99 1.91.94 2.74z"/><g><path d="M117.3 229.69s-.03.03 0 0zM122.81 208.97c-.47-.13-.75.06-1.02.69-.09.21-.21.38-.32.57-.93 1.48-1.82 2.95-2.39 4.53-.64 1.75-1.11 3.54-1.35 5.34-.31 2.33-.48 4.63-.46 6.87 0 .91-.15 1.83.05 2.71v.06h.01c-.2.23-.17.56-.18.86-.06.81-.12 1.61-.21 2.4-.08.76-.05 1.6-.33 2.25-.32.73-.08 1.56-.59 2.16-.48 1.61-1.18 3.16-2.05 4.65-.82 1.53-1.98 2.9-3 4.35-.63.87-1.36 1.67-2.01 2.54-.85 1.15-1.81 2.23-2.69 3.39-1.49 1.93-3.01 3.92-4.33 6.06-1.13 1.77-1.96 3.77-2.6 5.82l-.44 1.65c-.09.57-.18 1.13-.3 1.69-.09.43.02.57.27.58h.12c.87.05 1.53-.2 1.98-.69.44-.5.65-1.25.87-2.33.26-1.61 1.06-3.09 1.84-4.55.5-.84.97-1.71 1.59-2.5.87-1.19 1.65-2.48 2.74-3.56.52-.52 1.09-1.1 1.47-1.79.3-.55.73-1.02 1.15-1.48 1.66-1.79 3.1-3.81 4.54-5.86.99-1.37 1.71-2.92 2.66-4.37.16-.22.26-.49.35-.75.38-1.03.79-2.07 1-3.15.53-2.5 1.04-4.98.92-7.46-.04-.94.08-1.93.08-2.88 0-.41.28-.63.2-.98-.14-.67.1-1.3.11-1.96.03-1.31.27-2.59.5-3.85.21-1.13.38-2.28.77-3.32.73-1.96 1.67-3.74 2.96-5.2.19-.2.24-.39.15-.62-.36-.96-1.03-1.6-2.05-1.87z"/></g><g><path d="M373.6 278.98s.03-.05 0 0zM383.1 304.53c-.13-.49-.41-.63-1.13-.79-.24-.05-.47-.12-.69-.25-1.78-.92-3.17-2.55-4.22-4.36-1.19-2.02-1.96-4.32-2.49-6.67-.74-3.04-.7-6.19-.82-9.45-.04-1.33.09-2.69-.16-4v-.1h-.01c.18-.37.12-.86.11-1.31-.03-1.24-.07-2.49-.19-3.74-.1-1.21-.44-2.49-.48-3.62-.07-1.32-.79-2.4-.89-3.63-.95-2.69-2.42-5.21-4.13-7.37-1.73-2.18-3.53-4.21-5.34-6.14-1.08-1.15-2.06-2.38-3.02-3.57-1.25-1.58-2.27-3.33-3.2-5.12a30.206 30.206 0 0 1-3.02-9.76c-.39-2.83-.52-5.72-.12-8.56.22-1.5.48-2.99.99-4.4.18-.54.11-.74-.13-.81l-.12-.04c-1.62-.51-3 .92-3.33 4.63-.21 2.69-.33 5.39-.06 8.07.15 1.56.46 3.11.76 4.65.49 2.28 1.41 4.41 2.22 6.62.38 1.07.91 2.21 1.62 3.16.59.74 1.06 1.58 1.59 2.35 2.02 3.14 4.73 5.57 6.97 8.24 1.51 1.79 3.09 3.54 3.97 5.61.16.31.32.63.48.95a22.71 22.71 0 0 1 1.52 3.95c.92 3.23.78 6.68 1.04 10.18.1 1.33 0 2.79.04 4.19.02.61-.25.95-.15 1.48.19.99 0 1.97.09 2.99.18 2.06.37 4.14.86 6.18.44 1.84 1.16 3.64 1.98 5.37 1.51 3.24 4.12 6.33 7.73 7.77.51.18.86.2 1.09.04.96-.65.9-1.65.64-2.72z"/></g><g><path d="M226.43 95.11s-.06.05 0 0zM243.96 50.86c-.54.37-.78.95-.94 2.26-.05.43-.15.84-.26 1.28-.77 3.45-2.02 6.79-3.17 10.14-1.19 3.76-2.83 7.35-4.2 11.04-1.98 4.69-4.06 9.32-6.27 13.91-.87 1.88-1.89 3.73-2.67 5.61v.02l-.05.12c-.43.41-.74 1.09-1.07 1.71-.91 1.66-1.76 3.35-2.71 4.99-.92 1.58-1.77 3.35-2.74 4.71-1.1 1.57-1.65 3.34-2.89 4.65l-3.29 5.25-3.49 5.11c-2.28 3.49-4.96 6.67-7.38 10.06-1.56 1.94-3.12 3.89-4.67 5.83-1.97 2.62-4.25 4.98-6.34 7.49-3.65 4.12-7.44 8.15-11.46 11.94-1.64 1.62-3.3 3.22-5.03 4.74-1.72 1.54-3.4 3.12-5.17 4.59-1.89 1.54-3.77 3.08-5.7 4.54-.74.56-.87.83-.71 1.02l.07.1c1.1 1.35 3.56.31 7.72-3.37 2.98-2.76 6.09-5.4 9.03-8.19 1.69-1.64 3.41-3.31 5.11-4.97 2.5-2.48 4.75-5.16 7.3-7.63 1.19-1.24 2.48-2.59 3.54-4.03.83-1.15 1.85-2.21 2.76-3.28 1.81-2.13 3.57-4.3 5.31-6.48l5.02-6.7c2.24-3.01 4.24-6.21 6.55-9.15.34-.47.67-.99.98-1.5l3.78-6.05c1.36-2.42 2.8-4.78 4.23-7.16 1.4-2.39 2.68-4.86 3.91-7.36.96-1.89 1.99-3.93 2.93-5.9.4-.86.87-1.21 1.15-1.99.54-1.45 1.37-2.72 1.96-4.16 1.17-2.88 2.63-5.65 3.76-8.56 1-2.63 2.02-5.29 3.01-7.89.88-2.48 1.75-4.96 2.62-7.43.79-2.5 1.49-5.03 2.2-7.55.2-.71.23-1.18.07-1.47-.63-1.2-1.62-1.09-2.81-.28z"/></g><g><path d="M249.26 112.67s-.04.05 0 0zM251.36 76.36c-.41.4-.46.87-.23 1.86.08.33.11.65.13.99.26 2.69.12 5.41.07 8.11 0 3.01-.32 6.01-.44 9.01-.29 3.88-.7 7.74-1.13 11.6-.16 1.58-.47 3.16-.49 4.72V112.77c-.25.4-.29.97-.37 1.5l-.69 4.28c-.25 1.37-.37 2.87-.76 4.09-.43 1.4-.27 2.84-.88 4.09-.59 3.1-1.32 6.17-2.1 9.22-.7 3.1-1.76 6.1-2.56 9.18l-1.71 5.44c-.67 2.41-1.62 4.73-2.39 7.11-1.4 3.97-2.94 7.9-4.67 11.75-1.37 3.24-2.88 6.42-4.44 9.58-.87 1.65-1.73 3.29-2.67 4.89-.36.61-.35.85-.12.97l.11.06c1.54.81 3.12-.57 4.9-4.43l3.94-8.45c.71-1.66 1.41-3.35 2.17-5 1.07-2.47 1.86-5.03 3-7.5.52-1.21 1.07-2.53 1.38-3.86.24-1.06.67-2.1 1.03-3.11.72-2.01 1.36-4.05 2-6.09l1.76-6.16c.8-2.76 1.35-5.59 2.28-8.3.13-.42.22-.89.32-1.33l1.11-5.34c.34-2.09.78-4.16 1.21-6.24.41-2.08.72-4.18.94-6.31.21-1.61.43-3.34.64-5 .08-.72.39-1.08.38-1.72-.01-1.19.33-2.31.4-3.49.14-2.37.54-4.74.67-7.12.1-2.15.2-4.33.3-6.45.09-2.01.15-4.02.19-6.02 0-2.01-.08-4.01-.15-6.02-.02-.57-.13-.91-.37-1.09-.96-.73-1.87-.42-2.76.45z"/></g><g><path d="M317.08 146.47s-.04-.06 0 0zM356.58 166.55c-.35-.53-.88-.74-2.11-.87-.41-.04-.79-.12-1.2-.22-3.19-.83-6.31-2.01-9.36-3.3-3.42-1.37-6.69-3.08-9.95-4.78-4.19-2.26-8.18-4.86-12.12-7.53-1.6-1.11-3.12-2.36-4.75-3.36v-.02h-.01l-.1-.05c-.3-.47-.88-.86-1.4-1.26-1.36-1.14-2.74-2.25-4.07-3.42-1.28-1.14-2.78-2.22-3.78-3.42-1.18-1.35-2.7-2.21-3.64-3.62-2.78-2.69-5.34-5.6-7.86-8.54-2.54-2.97-4.83-6.13-7.18-9.25-1.37-1.89-2.69-3.84-3.99-5.77-1.76-2.52-3.35-5.16-4.94-7.79-2.69-4.43-5.13-9.02-7.38-13.7-1.89-3.9-3.69-7.85-5.32-11.87-.85-2.13-1.69-4.26-2.39-6.43-.27-.83-.48-1.03-.71-.93l-.12.04c-1.6.62-1.54 3.18.62 7.95 1.57 3.49 3.02 7.04 4.67 10.49.98 2 1.97 4.02 2.95 6.03 1.46 2.98 3.21 5.78 4.73 8.76.76 1.43 1.57 3 2.59 4.34.81 1.06 1.5 2.26 2.2 3.39 2.74 4.51 5.95 8.7 9.17 12.88 2.15 2.82 4.57 5.44 6.75 8.21.34.43.75.85 1.14 1.26 1.52 1.66 3.14 3.23 4.74 4.8 3.82 3.59 7.57 7.26 11.89 10.32l5.02 3.69c.74.5 1.01.99 1.7 1.35 1.3.68 2.36 1.65 3.64 2.39 2.51 1.53 5.02 3.11 7.64 4.5 2.34 1.28 4.83 2.35 7.22 3.47 4.52 2.12 9.23 3.78 14.06 5.03.68.18 1.12.2 1.4.04 1.14-.66 1.03-1.65.28-2.8z"/></g></g></g><path class="cls-2" d="M375.32 323.84c.02 1.1.02 2.23-.04 3.36-.04.55-.07 1.1-.13 1.66l-.11.99-.2 1.44-.2 1.46c-.04.09 0 .29-.11.29l-.33-.09-.66-.15-2.67-.6-3.18-.8c-4.22-1.06-8.44-2.23-12.61-3.49-9.52-2.87-14.43-5.46-15.44-7.16-.15-.04-.31-.11-.46-.18-.02 0-.04.02-.07.02.4.31.29.86-.44 1.75-.38.44-1.19.95-2.61 1.63-10.03 4.88-20.28 9.92-31.55 12.31-5.94 1.28-12.15 1.86-18.25 1.83-6.76-.11-13.45-.64-20.15-1.92-3.34-.64-6.45-1.77-9.65-2.94-1.72-.64-2.63-1.39-4.46-2.43-2.1-1.24-4.11-2.74-5.88-4.53a26.245 26.245 0 0 1-4.37-5.92c-3.03-5.43-4.22-12.26-1.79-18.34 1.17-3 3.27-5.66 5.85-7.51 2.56-1.9 5.5-3.14 8.53-3.87 5.24-1.28 10.56-.95 15.64-.35 1.28.15 2.61.31 3.82.53 7.86 1.33 15.88 2.54 23.73 4.4 11.66 2.72 23.26 6.16 34.09 11.51 2.78 1.28 5.48 3.05 8.04 3.07 1.59.04 3.36-.44 5.26-.88 1.88-.42 3.73-.84 5.52-1.24 3.71-.8 7.38-1.68 11-2.58l2.74-.66c.91-.2 1.75-.53 3.07-.57.62-.02 1.39.11 2.03.49.66.38 1.13.88 1.48 1.37.71 1.02.99 1.92 1.37 2.81 1.97 4.86 3.07 10.1 3.2 15.31z"/><g style="clip-path:url(#clippath-1)"><path d="M270.91 323.63c.23-.1.46-.21.68-.36 2.03-1.38 3.39-3.83 3.22-6.31-.15-2.27-1.81-3.94-3.48-5.36.8-.4 1.54-.9 2.09-1.6 1.51-1.93.86-4.28-.52-6.09-.42-.55-.88-1.03-1.37-1.46 1.55-.67 3.06-2.07 3.03-3.85-.04-1.82-1.6-3.3-3.22-3.85-1.03-.35-2.09-.58-3.11-.96-.93-.35-1.88-.7-2.88-.69-1.99.02-1.99 3.1 0 3.09 1.05 0 2.18.65 3.17.95.77.23 2.43.36 2.8 1.23.18.42.16.43-.26.79a2.8 2.8 0 0 1-1.25.63c-1.28.3-2.59-.03-3.79-.47-1.62-.59-2.75 2.12-1.15 2.83 1.4.63 2.9 1.12 4.09 2.1.83.68 2.53 2.16 2.27 3.4-.19.9-1.54 1.42-2.32 1.58-.23.05-.46.03-.69.04-1.29-.76-2.69-1.26-4.22-1.04-.72.1-1.09.86-1.15 1.49-.2 2.1 3.03 2.58 4.6 2.66.56.42 1.06.85 1.4 1.14.99.84 2.64 2.06 2.85 3.42.21 1.42-.66 3-1.85 3.75-.72.45-1.54.36-2.35.36h-1.11c-1.05-.38-2.15-.56-2.89 0-.98.74-1.09 2.51.37 2.83.54.12 1.09.18 1.63.21.11.03.24.05.31.08.47.18.93.4 1.38.63 1.22.62 2.31 1.36 2.96 2.6.31.6.7 1.42.65 2.11-.06.85-.98 1.14-1.68 1.39-2.11.73-4.35.41-6.48-.02-1.94-.39-2.74 2.59-.78 2.99 3.09.62 6.26.91 9.21-.43 2.76-1.26 3.32-3.77 2.27-6.45-.54-1.38-1.39-2.48-2.43-3.39zM290.89 319.32c.58-2.14-1.3-4.48-2.86-5.75-.1-.08-.21-.14-.31-.22 1.68-.68 3.13-2.01 3.07-3.96-.08-2.27-1.78-4.25-3.6-5.54 1.53-.41 3.08-1.15 3.19-2.94.13-2.06-1.74-3.95-3.45-4.75-1.88-.87-4.38-1.97-6.5-1.87-1.98.1-1.99 3.18 0 3.09 1.09-.05 2.45.5 3.45.86 1.23.44 2.34.82 3.11 1.89.35.48.32.48-.22.66-.47.16-.98.22-1.46.32-.78.17-1.57.4-2.35.38-.88-.49-1.71-.72-2.72-.27-1.07.49-.99 2.17 0 2.68.57.29 1.12.46 1.67.55.05.04.1.07.16.1.72.42 1.51.74 2.25 1.14 1.35.73 2.61 1.67 3.2 3.14.46 1.15-.48 1.58-1.5 1.83-.8.2-1.62.17-2.44.14-.11 0-.27 0-.46.01-.66-.23-1.34-.43-2.01-.57-1.47-.3-2.59 1.45-1.48 2.58.74.75 1.66.93 2.64 1 .88.33 1.74.73 2.55 1.22.7.43 1.38.9 1.93 1.52.35.39 1.11 1.24 1.14 1.76.09 1.62-4.63 1.53-5.94 1.17-.07-.03-.15-.04-.22-.08-1.78-.83-3.33 1.82-1.52 2.68.24.11.51.21.79.3 1.14.4 2.35.62 3.41 1.25 1.26.75 2.2 2.1 2.81 3.41 1.65 3.51-4.87 2.93-6.63 2.62-1.94-.34-2.75 2.64-.78 2.99 3.7.65 10.6.82 10.78-4.51.07-2.05-1.4-4.16-2.73-5.6-.08-.08-.17-.15-.25-.23 1.59-.54 2.89-1.51 3.3-3.04zM305.04 319.96c.14-.05.31-.07.44-.13 1.55-.66 3.23-2.39 3-4.19-.22-1.71-1.7-3.02-2.99-4.01 1.79-.6 3.15-1.8 3.1-3.83-.05-2.06-1.83-3.66-3.41-4.72-1.74-1.17-4.09-2.54-6.24-2.14-1.45.27-1.26 2.34 0 2.71 2.04.61 5.3 1.66 6.38 3.75.96 1.85-4.34 1.77-5.21 1.41-1.79-.74-3.36 1.83-1.52 2.68 2.27 1.05 4.79 1.82 6.42 3.85.16.2.43.56.39.7-.05.24-.87.84-1.12.96-1.42.68-3.72.48-5.19.13-1.98-.46-2.59 2.27-.78 2.99 2.45.97 6 2.23 7.3 4.74.62 1.2-.06 1.91-1.16 2.45-1.48.73-3.19.52-4.76.26-1.94-.32-2.75 2.66-.78 2.99 2.34.39 4.72.58 6.92-.48 1.77-.86 3.32-2.5 3.14-4.58-.2-2.42-1.87-4.18-3.93-5.53zM326.57 315.01c1.44-2.44-.12-5.51-2.08-7.14-1.04-.87-2.19-1.5-3.45-2-1.18-.46-2.65-.98-3.91-.64-1.11.3-1.48 2.03-.34 2.57.8.38 1.65.45 2.49.7.82.25 1.6.6 2.33 1.05 1.06.65 2.78 2.18 2.42 3.61-.31 1.24-2.34 1.73-3.4 1.88-.52.07-1.04.06-1.57.04-.73-.38-1.5-.66-2.29-.69-.95-.04-1.79 1.01-1.49 1.93.39 1.19 1.58 1.65 2.83 1.81a46.633 46.633 0 0 0 1.62 1.01c1.11.68 2.44 1.38 3.27 2.42.63.8-.02 1.5-.73 1.97-1.11.75-2.52.88-3.83.86-1.99-.02-1.99 3.06 0 3.09 2.03.02 4.13-.34 5.79-1.58 1.54-1.14 2.62-2.99 1.94-4.93-.51-1.44-1.8-2.5-3.1-3.37 1.44-.5 2.75-1.33 3.51-2.61zM370.63 325.99c-.92-.67-2.15-.83-3.24-1.12l-3.47-.93c-2.21-.6-4.42-1.21-6.63-1.81-4.42-1.19-8.85-2.33-13.19-3.78-1.88-.63-2.66 2.36-.78 2.99 4.34 1.45 8.77 2.59 13.19 3.78 2.21.6 4.42 1.21 6.63 1.81l3.47.93c1.09.29 2.23.76 3.36.63 1.36-.16 1.77-1.68.66-2.49zM368.69 317.07c-.63.23-1.26.06-1.91 0-.99-.1-1.99-.17-2.98-.24-1.9-.13-3.79-.21-5.68-.42-3.98-.43-7.92-1.14-11.9-1.54-1.98-.2-1.96 2.89 0 3.09 4.27.44 8.51 1.22 12.78 1.64 2.02.19 4.05.26 6.08.42 1.43.11 3.96.85 5-.51.76-.99.14-2.98-1.39-2.43zM367.45 309.07c-1.25-.78-3.28-.02-4.64.19-1.66.26-3.31.52-4.97.77-1.62.24-3.24.52-4.87.75-1.71.23-3.42.22-5.14.21-1.99 0-1.99 3.08 0 3.09 1.74 0 3.47.01 5.19-.21 1.63-.21 3.25-.49 4.88-.74 1.65-.25 3.3-.5 4.96-.76 1.46-.23 3.27-.27 4.6-.93.97-.48.83-1.85 0-2.37z"/></g><path class="cls-2" d="M228.63 330.21v.29c-.02.07-.15-.04-.24-.07l-1.1-.49-2.21-.95-5.35-2.32a375.33 375.33 0 0 0-9.79-4.09c-.84-.35-1.61-.66-2.43-.93-2.47-.84-3.58-1.39-4.35-2.17-.86-.86-1.37-1.59-1.37-2.12-.02 0-.02-.02-.04-.02-.15.04-.29.09-.44.11.33.13.55.35.64.64l.02.13c.09.24-.4.49-2.21.93-4.75 1.15-9.54 2.16-14.4 2.92-9.17 1.46-18.45 2.21-27.72 2.05-11.13-.15-22.22-1.5-33.09-3.91-3.25-.77-6.49-1.77-9.54-3.45-3.05-1.63-5.85-4.11-7.49-7.38-2.5-4.99-1.97-10.96.4-15.75 2.01-4.11 5.52-7.22 9.43-9.23 3.93-2.03 8.33-3.03 12.68-3.18 8.68-.29 16.9 2.54 24.61 5.63 3.18 1.66 6.65 2.83 10.03 4.68 2.94 1.61 6.47 3.27 9.74 4.93 3.38 1.7 6.74 3.38 10.16 4.95 1.26.55 2.63 1.13 3.58 1.7l.24.09h.02l.02.02c3.76 1.26 7.73 2.94 11.51 3.76 2.21.42 4.11.27 6.19-.57 2.1-.82 4.35-1.81 6.54-2.72l15.15-6.41.11 3.67.57 24.15.11 4.51.02.6z"/><g style="clip-path:url(#clippath-2)"><path d="M142.45 293.25c.42-1.92-.31-3.92-1.63-5.31-1.29-1.35-3.08-3.53-5.13-2.96-1.35.37-1.36 2.34 0 2.71.99.27 1.87 1.39 2.6 2.09.74.72 1.39 1.6 1.18 2.71-.26 1.38-3.12 2.93-4.44 2.16-1.75-.92-3.25 1.67-1.52 2.68 1.16.61 2.05 1.5 3.02 2.36.95.84 1.91 1.69 1.98 3.05.06 1.12-.74 1.88-1.71 2.31-1.32.59-2.57.31-3.93.2-.91-.07-1.85 1.04-1.49 1.93.45 1.12 1.08 1.23 1.97 1.86.93.65 1.82 1.66 2.03 2.79.21 1.12.15 2.4-.81 3.16-1 .79-3.1.19-4.24-.08-1.93-.45-2.72 2.53-.78 2.99 1.72.4 3.97.89 5.67.25 1.71-.64 3-2.36 3.27-4.15.25-1.62 0-3.55-.9-4.95-.19-.3-.43-.57-.67-.84.58-.14 1.16-.32 1.75-.65 1.51-.84 2.67-2.26 2.89-4 .23-1.85-.51-3.71-1.76-5.07-.36-.4-.77-.8-1.19-1.19 1.87-.81 3.47-2.31 3.85-4.06zM158.92 298.01c.97-4.51-4.35-6.65-7.31-8.55-1.67-1.07-3.2 1.61-1.52 2.68 1.84 1.18 4.54 2.01 5.62 4.11.52 1.01 0 1.8-.95 2.27-.48.24-1.36.31-2.16.22-.73-.52-1.53-.89-2.47-.89-1.24 0-2.17 1.75-1.09 2.63.66.54 1.49.9 2.38 1.13.53.48 1.03 1.09 1.42 1.41 1.02.86 2.38 1.8 2.85 3.12.48 1.34-.99 2.22-2.09 2.65-1.56.61-3.4.08-4.9-.5-1.91-.64-2.6 2.29-.78 2.99.5.17.92.54 1.36.81.64.39 1.35.69 1.98 1.09.88.56 2.11 1.68 1.92 2.84-.14.87-1.04 1.25-1.79 1.48-1.56.47-3.07.15-4.6-.24-1.92-.49-2.71 2.49-.78 2.99 3.48.89 9.04.99 10.16-3.44.47-1.87-.49-3.75-1.79-5.06.24-.08.48-.16.72-.26 2.04-.9 3.98-2.66 3.81-5.06-.15-2.08-1.67-3.7-3.19-5.02 1.56-.56 2.85-1.66 3.23-3.41zM172.89 306.86c-.31-.39-.65-.76-.98-1.14.14-.05.29-.07.42-.13 1.33-.68 1.86-2.08 1.39-3.49-.49-1.45-1.56-2.62-2.62-3.69-1.13-1.14-2.35-2.18-4.05-2.08-1.95.11-1.98 3.01 0 3.05.83.02 1.32.66 1.87 1.21.59.6 1.21 1.2 1.63 1.94.06.1.11.21.16.32-.15.03-.3.05-.5.05-.9 0-1.66-.3-2.57-.18-1.18.17-1.48 1.84-.7 2.58.42.4.93.67 1.38 1.04.48.4.89.94 1.3 1.41.38.43 1.71 1.62 1.59 2.28-.08.44-1.5.66-1.97.73-.76.11-1.54.03-2.28-.18-.5-.21-.99-.38-1.47-.39-1.48-.05-2.18 2.23-.76 2.88.29.13.62.25.96.36.2.13.5.31.6.37.45.26.92.51 1.34.82.74.56 1.47 1.32 1.82 2.19.06.15.15.74.22.63-.11.19-.69.31-.87.36-1.13.32-2.34.13-3.48-.07-1.94-.34-2.74 2.64-.78 2.99 2.79.49 8.77.63 8.11-3.78-.18-1.22-.81-2.35-1.61-3.29 1.23-.33 2.3-.98 2.89-2.09.88-1.64-.01-3.4-1.05-4.71zM189.54 309.78c-.13-1.7-1.4-2.94-2.69-3.92-1.49-1.14-3.25-2.02-5.11-2.29-1.19-.17-2.07.88-1.54 2.01.49 1.05 1.59 1 2.5 1.41.78.35 1.51.78 2.22 1.25.06.04.08.05.09.06.01.01.03.03.09.08.15.12.3.25.45.38.25.23.51.48.71.75.02.04.1.19.16.28 0 0 0 .02.01.05-.04.01-.07.03-.1.04-.07.02-.15.03-.22.05-.05.01-.13.02-.17.03-.27.01-.53.02-.8 0-.16 0-.31-.02-.47-.03-.03 0-.09 0-.14-.02-.23-.04-.46-.07-.68-.12-.22-.05-.44-.1-.66-.17-.08-.02-.16-.05-.24-.08-.12-.04-.12-.04-.1-.02-.66-.24-1.38-.14-1.83.46-.49.67-.36 1.39.13 2.02.45.58 1.06 1.02 1.67 1.44.3.21.61.4.92.61.02.02.19.14.25.18.06.05.18.14.19.15.26.21.51.43.75.67.18.19.21.2.28.35-.14.04-.27.08-.42.12-.06.01-.07.02-.1.02-.09 0-.18.02-.28.02-.22.01-.45.02-.67.02-.43 0-.86-.03-1.28-.08-.09 0-.17-.02-.26-.03h.02c-.14-.02-.29-.04-.43-.07-.82-.13-1.66.24-1.88 1.1-.2.75.27 1.75 1.1 1.88 2.05.34 5.01.76 6.59-.95 1.32-1.42.65-3.39-.55-4.62.25-.07.52-.1.76-.21 1.1-.49 1.83-1.6 1.74-2.82z"/><path d="M182.26 315.47c.1.01.25.02 0 0zM199.64 311.22c-.77-.57-1.63-1.06-2.52-1.41-.31-.12-.62-.21-.95-.28-.23-.05-.47-.09-.7-.09-.68-.02-1.32.5-1.48 1.14-.16.59.09 1.22.57 1.59.25.19.53.28.83.35.26.06.52.14.77.23.61.27 1.19.62 1.73 1.01.05.04.09.08.13.12l-.06.03c-.23.08-.45.13-.69.17-.8.07-1.61.01-2.41.01-.81 0-1.58.71-1.54 1.54.04.84.68 1.54 1.54 1.54 1.26 0 2.61.17 3.83-.24 1.14-.38 2.36-1.12 2.69-2.36.39-1.45-.69-2.57-1.74-3.36zM224.15 320.43c-.82-1.08-2.37-1.26-3.6-1.71-1.18-.43-2.35-.88-3.54-1.31-2.33-.84-4.64-1.71-6.82-2.88-1.75-.93-3.28 1.75-1.52 2.68 2.34 1.25 4.83 2.19 7.33 3.09 1.18.43 2.36.86 3.54 1.3 1.18.44 2.95 1.27 4.15.52.52-.33.9-1.15.47-1.71zM223.72 311.94c-.49-.68-1.03-.86-1.82-.93-.53-.05-1.06-.09-1.59-.14-1.04-.09-2.07-.06-3.11-.1-1.04-.04-2.08-.11-3.12-.16-1.03-.05-2.06-.04-3.08-.23-.82-.15-1.66.25-1.88 1.1-.2.76.28 1.73 1.1 1.88 2.16.4 4.44.39 6.64.48 1.08.05 2.15 0 3.23.09 1.06.08 2.66.53 3.43-.44.33-.41.57-1.07.21-1.57zM222.46 304.31c-.19-.47-.73-.93-1.28-.87-.45.05-.84.11-1.26.27-.34.13-.69.24-1.03.36-.73.23-1.47.43-2.2.66-1.46.47-2.88 1.03-4.36 1.43-.78.21-1.35 1.08-1.1 1.88.25.79 1.05 1.33 1.88 1.1 1.5-.41 2.95-.99 4.43-1.46.7-.22 1.42-.41 2.12-.64.35-.11.69-.23 1.03-.36.26-.1.56-.19.81-.33.24-.13.46-.36.66-.54.4-.38.5-1.01.29-1.51z"/></g><g><path class="cls-2" d="M350.04 158.72c-3.05 7.53-10.41 13.14-18.38 14.8 1.9.38 3.82.62 6.12 1.81.6.29 1.22.64 1.88 1.08-1.13 3.49-.88 7.25-.91 10.91-.04 8.99-1.79 17.89-3.98 26.6-2.58 10.23-5.9 20.52-12.17 28.98-6.25 8.48-15.97 14.98-26.53 15.07l-1.52 36.94-115.94.73c-.29-12.75-.6-25.47-1.33-38.15-14.47-9.28-26.09-22.91-32.94-38.66-6.85-15.75-8.93-33.56-5.85-50.46 0 0 .66-.13 1.61-.35 1.22-.27 2.94-.64 4.44-.99 1.72-.42 3.16-.8 3.2-.93-8.99-3.16-15.64-11.22-19.07-20.13-.8-2.08-1.39-4.6-.07-6.41.18-.24.38-.46.6-.64 1.24-1.04 3.14-1.24 4.73-.77.51.15.97.35 1.44.6 1.26.66 2.36 1.63 3.42 2.61 3.76 3.45 7.44 7.33 12.31 8.86 2.76.86 5.7.91 8.48 1.66 2.78.75 5.59 2.52 6.3 5.3.64 2.61-.71 5.24-2.01 7.58 0 0 2.14-.4 3.84-.71.99-.22 1.86-.4 2.03-.49-.31 4.64.82 9.23 1.94 13.74 1.55 6.21 3.09 12.42 5.04 18.51 1.55 4.84 3.4 9.68 6.49 13.72 7 9.12 19.55 12.7 30.53 10.87-1.15-6.21-2.3-12.44-3.47-18.65.18-.04.38-.11.55-.13 2.34-.66 4.77-1.04 7.29-1.46.42-.07.84-.13 1.26-.2-.44-.09-.91-.2-1.33-.33-7.18-1.92-13.17-7.86-15.07-15.07-.04-.15-.09-.33-.13-.49-.66-2.78-.73-5.81.35-8.46 1.48-3.58 4.79-6.01 8.11-8.02a79.94 79.94 0 0 1 26.2-9.99c6.94-1.3 14.2-1.66 20.94.44 6.45 2.03 12.37 6.58 14.87 12.84.11.27.22.55.31.82 1.77 5.08 1.15 10.94-1.66 15.53-2.72 4.44-7.4 7.64-12.53 8.53-.18.04-.33.07-.51.09h.49l9.48.2v.04c.15 1.13 2.92 21.27 3.34 20.83 3.71-.62 7.42-1.26 10.94-2.56 8.2-3.03 14.8-9.52 19.15-17.08 4.35-7.58 6.63-16.17 8-24.79 1.04-.2 2.08-.38 3.73.13 0-3.18.11-6.65 2.21-9.01 2.5-2.78 6.72-2.89 10.29-3.95 5.52-1.66 9.94-5.92 13.12-10.71.6-.86 1.15-1.79 1.97-2.43.93-.75 2.08-1.06 3.23-.97 1.44.07 2.92.71 4.02 1.72.53.46.97 1.02 1.3 1.63 1.61 2.98 1.1 6.67-.18 9.81z"/><g style="clip-path:url(#clippath-3)"><path d="M141.75 153.5s0-.03 0 0zM148.58 159.4c.17-.39.11-.51-.21-.48-.11 0-.19-.02-.27-.05-.65-.24-1.12-.74-1.65-1.16-.6-.45-1.1-1.01-1.68-1.48-.73-.63-1.37-1.36-2.1-1.98-.3-.25-.49-.62-.92-.74h-.03c.06-.22-.07-.28-.16-.38l-.73-.79c-.23-.25-.6-.42-.69-.76-.11-.38-.67-.35-.65-.81-.56-.55-1.04-1.16-1.55-1.76-.53-.59-.91-1.29-1.44-1.87-.31-.36-.53-.78-.86-1.13-.43-.46-.74-1-1.14-1.48-.65-.83-1.22-1.71-1.74-2.62-.45-.75-.92-1.49-1.31-2.28-.19-.42-.4-.84-.52-1.29-.05-.17-.18-.17-.4-.06l-.11.05c-1.58.75-2.03 1.53-1.36 2.43.5.64.8 1.39 1.22 2.07.24.39.51.78.72 1.2.32.61.86 1.09 1.1 1.76.12.32.27.66.6.87.26.16.39.42.53.66.53.97 1.32 1.75 1.94 2.65.42.61 1 1.09 1.27 1.81.04.11.13.2.21.28.32.35.62.7.96 1.03.8.75 1.31 1.76 2.23 2.39.34.25.6.62.93.91.14.12.03.39.2.44.33.1.39.46.63.65.48.38.84.9 1.29 1.32.41.38.88.69 1.27 1.08.74.73 1.56 1.38 2.45 1.91.13.08.26.05.43-.11.71-.65 1.19-1.44 1.56-2.29zM146.73 151.72s.01-.03 0 0zM152.69 157.19c.19-.38.15-.49-.16-.46-.1 0-.17-.02-.25-.05-.59-.23-.98-.69-1.44-1.08-.52-.42-.95-.94-1.46-1.37-.63-.58-1.18-1.26-1.83-1.82-.27-.23-.42-.58-.82-.67h-.03c.07-.21-.05-.27-.13-.35l-.64-.72c-.21-.23-.54-.38-.61-.69-.08-.36-.61-.31-.56-.74-.5-.49-.92-1.05-1.37-1.59-.47-.53-.8-1.16-1.28-1.68-.28-.32-.47-.7-.77-1.01-.39-.4-.67-.89-1.03-1.32-.59-.73-1.11-1.52-1.58-2.33-.41-.67-.85-1.32-1.2-2.02-.18-.38-.37-.74-.47-1.15-.04-.16-.17-.14-.39-.03l-.11.05c-1.56.78-2.03 1.52-1.4 2.3.47.56.74 1.23 1.12 1.83.22.35.47.7.65 1.07.29.55.79.96.99 1.57.1.29.23.6.54.78.24.14.36.37.48.59.46.88 1.18 1.57 1.73 2.38.37.55.89.98 1.11 1.64.04.1.11.18.18.26.28.31.55.63.85.93.71.67 1.13 1.61 1.96 2.18.31.22.53.57.81.83.12.11 0 .37.16.41.3.08.34.42.55.6.42.35.73.83 1.12 1.22.35.36.78.63 1.11 1 .63.69 1.34 1.29 2.13 1.79.11.07.24.04.41-.11.72-.63 1.24-1.4 1.66-2.22zM139.62 171.6s-.03 0 0 0zM139.19 167.96c-.41.07-.46.12-.24.21.07.03.1.06.13.09.22.25.16.53.2.8.05.3 0 .61.06.91.06.39 0 .79.12 1.17.05.16-.07.33.18.46h.02c-.18.07-.13.12-.12.18l.04.44c.02.14.19.27.05.42-.16.17.29.26 0 .42.1.31.11.63.18.94.07.31.01.64.12.95.06.18.03.38.11.56.11.24.12.49.21.73.15.41.22.82.27 1.24.05.35.17.69.19 1.04 0 .19.03.37-.04.57-.03.08.1.08.34.04l.12-.02c1.72-.27 2.45-.58 2.2-.95-.18-.28-.14-.59-.2-.89-.04-.17-.09-.34-.08-.52 0-.27-.22-.5-.1-.78.06-.14.11-.28-.06-.39-.14-.09-.13-.2-.11-.31.07-.43-.16-.82-.15-1.24 0-.28-.17-.55.04-.85.03-.05.02-.09 0-.14-.04-.17-.06-.35-.12-.52-.14-.4.12-.84-.14-1.23-.1-.15-.02-.33-.06-.49-.02-.07.25-.13.15-.19-.17-.1.03-.23 0-.34-.06-.23.03-.47.03-.7 0-.21-.11-.41-.08-.62.05-.4.01-.78-.13-1.16-.02-.05-.13-.08-.36-.08-.95 0-1.87.1-2.76.25zM144.4 170.88s-.03.01 0 0zM143.65 167.09c-.4.11-.45.17-.22.24.08.02.11.05.14.08.24.25.2.55.27.83.07.31.06.64.14.95.09.4.06.83.22 1.22.06.16-.04.35.22.47h.02c-.18.09-.12.14-.11.19l.07.46c.03.15.21.27.09.43-.15.19.31.25.03.45.13.32.17.65.26.97.1.33.07.67.2.99.08.19.06.4.16.59.13.24.16.51.27.76.18.42.29.85.38 1.29.08.37.23.71.28 1.08.02.2.06.39.01.6-.02.08.1.08.35.02l.12-.03c1.7-.39 2.4-.76 2.12-1.14-.21-.28-.19-.61-.28-.92-.05-.18-.12-.36-.13-.55-.01-.28-.27-.51-.17-.82.05-.15.08-.31-.1-.41-.14-.08-.15-.2-.14-.32.03-.46-.23-.85-.26-1.3-.02-.3-.22-.56-.03-.9.03-.05 0-.1 0-.14-.05-.18-.09-.37-.17-.54-.18-.41.04-.9-.25-1.29-.11-.15-.05-.34-.11-.51-.02-.07.23-.16.14-.21-.18-.09 0-.25-.03-.36-.08-.23-.01-.5-.03-.74-.01-.22-.14-.43-.13-.65.02-.42-.06-.83-.23-1.22-.02-.06-.13-.07-.37-.05-.95.08-1.85.25-2.73.48zM153.11 173.8s.03-.01 0 0zM154.11 177.75c.39-.15.43-.22.2-.27-.08-.02-.11-.05-.14-.08-.26-.24-.25-.56-.33-.85-.1-.32-.1-.67-.2-.99-.12-.42-.11-.87-.28-1.27-.07-.17.02-.37-.24-.49h-.02c.18-.1.11-.15.1-.21l-.09-.48c-.04-.15-.22-.28-.1-.45.14-.2-.32-.26-.04-.47-.14-.33-.18-.68-.28-1.02-.1-.34-.07-.71-.2-1.05-.08-.2-.06-.42-.16-.62-.13-.26-.15-.54-.26-.81-.17-.45-.27-.91-.35-1.38-.07-.39-.21-.77-.24-1.16-.01-.21-.04-.41.02-.63.02-.08-.1-.09-.35-.06l-.12.02c-1.73.23-2.45.55-2.19 1 .2.33.17.69.24 1.04.05.2.11.4.12.61 0 .31.26.58.15.91-.05.16-.08.33.1.46.14.1.14.23.14.35-.03.5.24.94.27 1.43.02.33.23.62.05.99-.03.06 0 .11 0 .16.06.2.1.4.18.6.19.45 0 .99.3 1.42.12.16.07.38.13.56.03.08-.22.18-.12.23.19.09 0 .27.06.4.1.25.05.55.08.82.03.25.18.46.18.71.02.47.13.91.35 1.33.03.06.14.07.37.03.93-.17 1.81-.44 2.66-.77zM159.08 173.31s.03-.01 0 0zM160 177.03c.39-.15.44-.21.2-.25-.08-.02-.11-.04-.14-.07-.25-.23-.23-.53-.31-.8-.09-.3-.09-.63-.18-.93-.11-.39-.1-.81-.26-1.2-.07-.16.03-.35-.23-.46h-.02c.18-.09.11-.14.1-.2l-.08-.45c-.03-.14-.22-.26-.09-.43.14-.19-.31-.24-.04-.44-.13-.31-.17-.64-.27-.96-.1-.32-.07-.67-.2-.98-.08-.19-.06-.4-.15-.58-.13-.24-.15-.51-.26-.75-.17-.42-.27-.85-.35-1.29-.07-.36-.21-.72-.24-1.09-.01-.2-.04-.39.02-.59.02-.08-.1-.08-.35-.05l-.12.02c-1.73.25-2.45.56-2.18.98.2.31.17.64.25.97.05.19.11.37.12.57 0 .29.25.54.15.85-.05.15-.09.31.09.43.14.09.14.21.13.33-.03.47.23.88.26 1.34.02.31.22.58.04.93-.03.05 0 .1 0 .15.05.19.1.38.18.56.19.42-.02.93.28 1.33.12.15.06.35.13.52.03.07-.23.18-.13.22.19.09 0 .25.05.37.1.24.04.51.07.77.03.23.17.43.17.67 0 .44.11.86.32 1.24.03.06.14.06.37.02.93-.16 1.82-.43 2.67-.75zM164.99 171.69s.02-.01 0 0zM166.04 175.2c.38-.17.42-.23.19-.26-.08 0-.11-.03-.14-.06-.26-.2-.25-.49-.34-.75-.1-.29-.12-.6-.21-.88-.12-.37-.12-.78-.3-1.13-.07-.15.02-.34-.25-.43h-.02c.17-.1.11-.14.1-.19l-.1-.43c-.04-.13-.22-.24-.1-.41.14-.19-.32-.21-.05-.42-.14-.29-.19-.61-.29-.91-.11-.3-.08-.64-.21-.93-.08-.18-.06-.38-.16-.55-.13-.23-.16-.48-.27-.72-.18-.4-.28-.81-.36-1.23-.07-.35-.21-.68-.24-1.04-.02-.19-.04-.37.02-.57.02-.08-.1-.08-.35-.04l-.12.02c-1.73.26-2.44.58-2.17.98.2.29.17.62.25.94.05.18.12.36.12.55.01.28.26.51.16.82-.05.15-.08.31.1.41.14.08.15.2.14.32-.03.46.25.85.29 1.29.03.3.23.56.06.9-.03.05 0 .1 0 .14.06.18.11.36.19.53.2.4 0 .9.32 1.28.12.14.08.34.14.5.03.07-.22.18-.12.22.19.07.01.25.06.36.1.23.06.5.1.74.04.22.18.41.2.64.03.43.15.83.37 1.19.03.05.14.05.37 0 .92-.22 1.79-.53 2.62-.9zM167.17 167.24s-.03 0 0 0zM166.8 163.96c-.41.06-.46.11-.24.18.07.02.1.05.13.08.21.23.15.48.18.72.04.27 0 .55.04.82.05.35-.02.71.09 1.05.05.14-.08.3.17.42h.02c-.19.07-.13.11-.13.16l.03.39c.02.13.19.24.04.37-.16.15.28.23-.01.38.1.28.1.56.16.84.06.28 0 .58.1.86.06.17.02.35.1.51.11.21.11.44.19.66.14.36.2.74.25 1.12.04.32.16.62.17.94 0 .17.02.34-.05.52-.03.07.09.07.34.03l.12-.02c1.72-.28 2.45-.56 2.21-.9-.18-.25-.13-.53-.18-.79-.03-.15-.08-.31-.08-.47.01-.24-.21-.44-.08-.7.06-.12.11-.26-.06-.35-.13-.08-.12-.18-.1-.27.08-.39-.15-.73-.13-1.11.01-.25-.16-.49.06-.76.03-.04.02-.08.01-.12-.03-.16-.05-.31-.11-.47-.13-.36.13-.75-.12-1.1-.1-.13-.02-.29-.05-.44-.02-.06.25-.12.16-.17-.17-.09.03-.21 0-.31-.06-.2.04-.42.05-.63 0-.19-.1-.37-.07-.56.06-.35.03-.7-.11-1.04-.02-.05-.13-.07-.36-.07-.95 0-1.87.08-2.76.21zM273.81 170.64c-23.44 4.77-47.7 6.21-70.34 13.67-.04-.15-.09-.33-.13-.49-.66-2.78-.73-5.81.35-8.46 1.48-3.58 4.79-6.01 8.11-8.02a79.94 79.94 0 0 1 26.2-9.99c6.94-1.3 14.2-1.66 20.94.44 6.45 2.03 12.37 6.58 14.87 12.84zM226.2 159.09s-.09 0 0 0z"/><path d="M274.62 168.99c.11-.7-.17-1.44-1.18-2.62-.36-.37-.65-.77-.99-1.18-2.68-3.15-5.96-5.74-9.68-7.44-4.13-1.91-8.63-2.78-13.07-2.91-5.76-.14-11.43.69-16.89 2.13-2.23.6-4.52 1.15-6.57 2.11h-.02l-.13.07c-.66.02-1.41.37-2.15.63a76.11 76.11 0 0 0-5.81 2.47c-1.84.87-3.7 2.01-5.38 2.79-1.94.9-3.43 2.31-5.23 3.31-1.87 1.47-3.67 3.29-4.83 5.59-1.18 2.34-1.48 4.96-1.25 7.4l.11.92c.03.26.14.92.24 1.36.11.5.23.99.37 1.47l.2.73c.06.08.02.33.15.28l.36-.09c.95-.23 1.94-.53 2.95-.85l1.61-.49c2.16-.62 4.32-1.25 6.5-1.82 2.6-.72 5.26-1.26 7.87-1.89 3.46-.81 6.95-1.47 10.45-2.12 5.88-1.13 11.83-2.04 17.79-2.95 4.97-.81 9.93-1.62 14.9-2.44 2.63-.45 5.25-.9 7.87-1.35 1-.16 1.27-.33 1.21-.58l-.02-.12c-.4-1.72-3.23-1.87-9.05-.64-4.28.88-8.61 1.49-12.93 2.17-2.51.39-5.06.78-7.59 1.18-3.76.53-7.46 1.32-11.28 1.81-1.84.25-3.85.52-5.71 1.04-1.48.4-3.05.68-4.55.97-5.97 1.11-11.82 2.73-17.64 4.49l-.59.18c-.06.01-.14.06-.19.05l-.05-.2c-.04-.18-.05-.16-.1-.58-.07-.46-.11-.93-.13-1.39-.08-1.85.26-3.7 1.15-5.19.28-.46.57-.97.91-1.43 1.34-1.85 3.28-3.35 5.34-4.71 4.92-3.17 10.39-5.43 15.9-7.54 2.1-.81 4.46-1.4 6.7-1.98.97-.26 1.57-.1 2.4-.38 1.57-.49 3.16-.57 4.77-.81 3.23-.49 6.51-.57 9.71-.33 2.88.23 5.8.68 8.42 1.68 4.93 1.92 9.37 5.24 11.92 9.72.36.63.63.99.93 1.12 1.27.53 2.02-.05 2.31-1.64zM240.22 188.4s-.03 0 0 0zM238.99 181.08c-.39.15-.44.27-.19.45.08.06.12.13.15.2.28.56.29 1.17.4 1.75l.28 1.98c.16.85.19 1.71.4 2.55.02.08.04.19.04.24v.04s.02.05.15.11h.02c-.2-.03-.14 0-.14.02.02.05-.05.08-.09.08-.02.01-.03.17-.13.03-.07-.17-.46.36-.74.1-.63.19-1.32.28-1.93.39-.12.04-.21 0-.3 0-.04-.04 0-.14-.05-.17a.102.102 0 0 1-.05-.06l-.04-.4-.09-.84c-.14-.94-.21-1.88-.26-2.82-.04-.79-.17-1.56-.18-2.35 0-.42-.03-.83.05-1.25.03-.16-.09-.2-.35-.17h-.12c-1.74.18-2.47.66-2.23 1.56.18.66.13 1.33.19 2 .03.39.09.78.08 1.17-.01.58.22 1.15.09 1.74-.06.29-.11.59.06.88.07.11.1.23.11.35.01.09 0 .25 0 .49-.02.84.04 1.68.12 2.43.04.17-.01.44.11.51l.61-.06 1.18-.09c.5-.03 1.12-.12 1.55-.18.32-.04.65-.07.99 0 .11.02.21 0 .31-.03.41-.09.81-.17 1.21-.3l.38-.1.6-.13c.38-.1.85-.15 1.14-.34.35-.15.61-.36.77-.71.13-.31.17-.66.08-1.08-.16-.58-.22-1.43-.27-1.66-.04-.15.22-.28.11-.41-.2-.23-.03-.51-.09-.76-.12-.5-.09-1.04-.14-1.56-.05-.47-.21-.92-.24-1.39-.04-.88-.19-1.74-.42-2.59-.03-.12-.15-.18-.38-.18-.96 0-1.86.2-2.72.53zM257.11 179.07s-.02-.02 0 0zM259.63 176.17c-.4-.12-.48-.09-.34.12.05.07.05.12.06.17.03.39-.21.65-.35.91-.16.3-.4.51-.58.72-.24.27-.59.4-.9.65-.13.11-.34.05-.4.33v.02c-.12-.16-.15-.09-.21-.07l-.47.14c-.15.05-.29.25-.48.13-.21-.13-.28.33-.52.06-.37.14-.79.18-1.2.28-.41.1-.82.06-1.19.15-.22.06-.44 0-.65.06-.28.08-.54.03-.79.03-.44.01-.8-.12-1.12-.36-.26-.19-.53-.38-.63-.64-.05-.13-.08-.27 0-.39.03-.05-.09-.05-.34-.03h-.12c-1.73.03-2.53.65-1.95 1.5.41.55.74 1.07 1.21 1.45.27.22.57.38.85.57.42.28.98.28 1.39.53.21.12.45.23.7.1.2-.1.38-.07.55-.03.7.15 1.35-.09 1.97-.12.42-.02.79-.22 1.23-.05.07.03.13 0 .2 0 .26-.06.52-.12.77-.21.59-.23 1.32-.11 1.9-.58.21-.17.51-.21.75-.37.1-.06.3.13.35 0 .09-.24.38-.18.54-.32.32-.29.73-.5 1.05-.82.29-.28.44-.65.67-.92.45-.53.72-1.1.87-1.67.02-.08-.05-.17-.26-.28-.82-.48-1.68-.81-2.55-1.07zM223.15 184.98s-.02-.02 0 0zM225.37 182.83c-.4-.1-.46-.11-.29.04.06.05.07.08.08.11.09.27-.11.42-.23.61-.14.21-.37.35-.55.53-.25.24-.58.33-.86.56-.12.1-.31.03-.35.3v.02c-.11-.16-.14-.09-.19-.08l-.4.12c-.13.04-.23.23-.39.11-.18-.14-.22.32-.42.04-.3.13-.63.14-.94.2-.32.06-.63-.03-.93.02-.18.03-.35-.05-.53-.02-.24.04-.45-.03-.68-.05-.37-.02-.72-.19-1-.41-.23-.18-.5-.35-.63-.6-.07-.13-.13-.27-.09-.42.02-.06-.1-.03-.34.04l-.12.04c-1.66.49-2.3 1.13-1.73 1.7.4.37.67.8 1.06 1.11l.7.5c.34.27.79.27 1.12.56.16.14.35.27.59.17.19-.08.34-.02.49.04.6.24 1.22.09 1.8.13.4.03.77-.15 1.17.04.06.03.13.01.19 0 .24-.05.48-.1.71-.19.53-.21 1.2-.09 1.68-.52.18-.16.44-.18.65-.32.09-.06.27.15.31.03.07-.23.32-.13.47-.25.28-.23.64-.36.93-.59.27-.21.44-.52.69-.75.48-.44.83-1.04.97-1.71.02-.1-.06-.18-.27-.28-.86-.41-1.77-.61-2.64-.84zM226.03 193.54c1.24-.52 2.67-.58 3.95-.16.52.17 1.04.43 1.38.87s.45 1.07.17 1.55c-.33.55-1.05.69-1.69.78l-1.5.21c-.53.07-1.08.15-1.58-.02-1.04-.35-1.48-1.85-.72-3.22z"/><path d="M226.54 194.94c0 .17 0 .34.08.47.03.04-.06.16.19.08.12-.05-.13.15-.08.18.09.07.14.18.23.19.08 0 .22-.06.35-.08.13-.02.32.11.49-.06.15-.15.35.06.53-.02.19-.09.39-.15.6-.07.15.06.31.14.44.07.08-.04.14-.21.24-.21.09 0 .2.11.22-.19 0-.03.04.02.07.06.11.18.21.15.23 0 .03-.14.07-.13.11-.15.11-.05.2-.11.19-.07.01.02.1.09.14.09.04-.01-.08-.08.07-.06.15 0 .15-.05.14-.09 0-.02.12-.09-.17-.03-.03 0-.03 0 0-.02.33-.24-.17-.09-.14-.19 0-.15-.16-.19-.29-.25-.03-.02-.04-.12-.17.06-.05.06-.09.05-.08 0 0-.32-.2-.21-.32-.3-.15-.11-.34-.01-.47-.27-.05-.11-.16-.18-.28.08-.06.12-.12-.01-.19 0-.05.02-.11.15-.16.15-.04 0-.08-.11-.12-.17-.01-.02-.03-.02-.04 0-.24.31-.5-.1-.75.02-.24.12-.49.14-.75.17-.14.02-.3-.02-.6-.47-.14-.21-.24-.45-.23-.62 0-.13.03-.25.09-.3l.26-.25c.18-.15.35-.46.61-.37.08.03.14-.13.24.1.01.03.05.04.06.03.26-.42.63-.2.94-.23.27-.02.56-.31.84-.15.19-.28.38-.2.52-.08.49.42 1.06.36 1.62.71.53.33 1.17.83 1.42 1.62.04.12.24.21.14.41-.09.18.02.37 0 .57 0 .17.02.37-.1.51-.46.51-.81 1.05-1.39 1.28-.5.18-.94.21-1.31.34-.22.08-.42.27-.66.24-.1-.01-.18.16-.32-.1-.04-.07-.1.15-.16.17-.15.05-.31.05-.47.07-.26.03-.5.05-.77.08-.17.02-.36.13-.57.13-.22 0-.45-.05-.67-.16-.3-.15-.52-.4-.73-.61-.21-.22-.52-.4-.54-.71-.03-.54-.25-.92-.26-1.38 0-.44.07-.85.13-1.26.03-.24.34-.35.43-.54.05-.1.71.13.9.28.04.03.07.06.08.08.12.25.39.49.32.61-.1.19-.11.4-.11.59zM222.14 214.87s.02-.02 0 0zM223.34 222.1c.38-.14.42-.24.19-.41-.08-.05-.11-.11-.15-.18-.27-.51-.26-1.06-.36-1.6-.11-.6-.14-1.2-.25-1.8-.14-.77-.16-1.56-.36-2.32-.08-.31 0-.65-.28-.92l-.02-.02c.17-.11.1-.22.08-.33-.04-.29-.08-.58-.13-.86s-.24-.55-.14-.83c.12-.32-.34-.52-.09-.84-.17-.62-.24-1.25-.38-1.87-.14-.63-.15-1.27-.32-1.89-.1-.37-.11-.76-.23-1.13-.16-.48-.22-.98-.36-1.47-.23-.82-.39-1.65-.53-2.49-.12-.7-.32-1.38-.41-2.08-.05-.37-.11-.74-.08-1.12.01-.15-.11-.17-.35-.13-.04 0-.08.01-.12.02-1.65.28-2.31.78-1.98 1.58.24.59.27 1.21.39 1.81.07.35.17.7.2 1.06.05.53.33 1.03.27 1.58-.03.27-.04.56.15.8.15.19.17.42.18.63.03.86.34 1.67.42 2.51.06.57.28 1.11.14 1.71-.02.09 0 .18.02.27.07.35.14.71.23 1.06.23.82.07 1.69.41 2.5.13.3.09.66.17.99.03.14-.21.26-.11.37.19.21.02.46.08.69.11.46.08.95.12 1.42.04.43.19.84.21 1.26.03.8.16 1.59.38 2.36.03.11.14.16.37.16.92 0 1.79-.2 2.61-.51zM211.93 208.43s-.02.02 0 0zM210.01 201.91c-.38.19-.41.29-.15.41.09.04.13.09.17.14.32.43.37.94.53 1.42.17.54.26 1.09.43 1.63.22.69.32 1.42.59 2.09.11.28.07.6.37.81l.02.02c-.16.13-.08.22-.06.31.07.26.13.52.21.78.08.25.3.47.22.75-.1.31.4.43.17.76.23.55.37 1.12.56 1.67.2.56.28 1.16.51 1.71.14.33.19.69.34 1.01.21.42.32.88.51 1.31.32.72.56 1.47.79 2.23.19.63.46 1.23.62 1.87.08.34.18.67.19 1.03 0 .14.13.14.37.07l.12-.03c1.67-.5 2.3-1.06 1.88-1.75-.3-.51-.39-1.08-.58-1.62-.11-.31-.24-.63-.31-.96-.1-.49-.43-.9-.43-1.43 0-.25 0-.52-.23-.72-.18-.16-.21-.36-.24-.56-.11-.79-.51-1.49-.67-2.26-.11-.52-.4-.99-.31-1.56a.534.534 0 0 0-.05-.25c-.11-.32-.21-.64-.34-.95-.31-.72-.23-1.56-.66-2.25-.16-.26-.16-.6-.27-.89-.05-.13.19-.27.08-.36-.22-.16-.07-.43-.15-.63-.16-.41-.17-.86-.26-1.29-.08-.39-.28-.75-.34-1.14a8.39 8.39 0 0 0-.62-2.13c-.04-.1-.16-.13-.39-.1-.95.13-1.82.44-2.64.85zM227.5 216s.02-.02 0 0zM229.03 223.52c.39-.17.43-.29.18-.44a.455.455 0 0 1-.16-.18c-.3-.51-.32-1.1-.44-1.65l-.33-1.87c-.18-.8-.23-1.62-.47-2.41-.1-.32-.03-.68-.32-.95l-.02-.02c.17-.13.09-.23.07-.35l-.17-.9c-.06-.29-.27-.56-.17-.86.12-.34-.37-.53-.12-.87-.2-.64-.3-1.29-.46-1.94-.17-.65-.2-1.32-.4-1.97-.12-.38-.14-.79-.28-1.17-.18-.5-.27-1.02-.43-1.53-.27-.85-.47-1.72-.65-2.59-.15-.73-.39-1.44-.51-2.17-.06-.39-.14-.77-.13-1.17 0-.15-.12-.17-.37-.13l-.12.02c-1.72.3-2.38.82-2.01 1.66.28.61.33 1.26.48 1.9.09.37.2.74.25 1.11.07.56.38 1.07.34 1.66-.02.28-.02.59.19.84.17.2.19.43.21.66.06.9.42 1.74.54 2.63.08.6.34 1.16.22 1.79-.02.1 0 .19.03.29.09.37.17.74.28 1.11.27.85.14 1.78.52 2.61.15.32.12.69.22 1.03.04.15-.21.29-.1.4.21.21.04.49.11.73.14.48.12 1 .18 1.49.06.45.24.88.27 1.32.07.85.23 1.67.49 2.47.04.11.15.16.38.15.95-.06 1.84-.33 2.68-.71z"/><g><path d="M229.44 209.14s-.03.01 0 0zM228.88 202.1c-.41.1-.46.19-.23.37.08.06.11.12.13.19.23.51.18 1.04.23 1.57l.09 1.75c.07.75.02 1.51.16 2.26.06.3-.06.63.2.91v.02h.02c-.18.1-.12.2-.12.31l.05.84c.02.27.2.55.06.81-.16.3.3.53.01.81.11.61.13 1.22.21 1.83.08.61.04 1.24.15 1.84.07.36.04.74.13 1.1.12.48.14.96.23 1.44.16.8.25 1.62.32 2.43.06.68.2 1.35.23 2.03.01.36.04.72-.02 1.09-.02.14.1.17.35.14h.12c1.74-.21 2.46-.66 2.19-1.44-.19-.57-.16-1.17-.23-1.76-.04-.34-.1-.68-.11-1.03 0-.51-.24-1-.13-1.53.05-.26.1-.53-.08-.78-.14-.19-.14-.41-.12-.61.05-.82-.19-1.62-.2-2.43 0-.55-.19-1.08.01-1.64.03-.09.01-.18 0-.26-.04-.34-.07-.69-.14-1.03-.16-.8.09-1.62-.19-2.41-.1-.3-.03-.64-.08-.96-.02-.14.24-.23.15-.34-.18-.21.02-.44-.02-.67-.07-.45.01-.91 0-1.36 0-.41-.12-.82-.1-1.22.04-.77-.02-1.52-.18-2.28-.02-.11-.13-.17-.36-.19-.96-.1-1.87 0-2.76.21z"/></g><g><path d="M234.46 208.82s-.03.01 0 0zM234.06 201.18c-.41.11-.47.22-.24.41.07.06.1.13.13.2.22.55.15 1.13.19 1.69l.05 1.89c.06.81-.01 1.63.11 2.44.05.33-.07.68.18.99v.02h.01c-.19.1-.13.22-.13.33l.03.91c.02.29.19.6.05.87-.16.32.29.58 0 .88.1.66.11 1.32.17 1.98.07.67 0 1.33.11 2 .06.4.03.8.11 1.19.11.52.11 1.05.2 1.57.15.88.21 1.76.27 2.64.04.74.17 1.47.18 2.21 0 .39.03.78-.05 1.17-.03.15.1.19.35.18h.12c1.76-.05 2.5-.48 2.25-1.36-.18-.64-.14-1.29-.2-1.94-.03-.37-.09-.75-.08-1.13.01-.56-.22-1.11-.09-1.68.06-.28.11-.58-.06-.85-.14-.22-.13-.45-.11-.68.07-.9-.16-1.78-.15-2.67 0-.6-.16-1.19.05-1.8.03-.09.02-.19.01-.29-.03-.38-.06-.76-.12-1.13-.14-.88.13-1.78-.13-2.65-.1-.33-.02-.7-.06-1.05-.02-.15.25-.25.16-.38-.17-.24.03-.49 0-.73-.06-.49.03-1 .04-1.5 0-.45-.11-.9-.08-1.34.06-.84.02-1.68-.12-2.5-.02-.12-.13-.18-.36-.2-.96-.08-1.88.05-2.77.3z"/></g><g><path d="M243.3 216.76s.03-.01 0 0zM243.84 224.89c.41-.11.46-.22.23-.43-.08-.07-.1-.14-.13-.21-.23-.59-.17-1.2-.22-1.81-.06-.67-.03-1.35-.08-2.02-.07-.87-.02-1.74-.15-2.61-.05-.35.06-.72-.19-1.05s0-.02-.01-.02c.18-.11.12-.23.12-.35-.01-.32-.02-.65-.05-.97-.02-.31-.2-.64-.06-.93.16-.34-.3-.62 0-.94-.11-.7-.13-1.41-.21-2.11-.08-.71-.03-1.42-.14-2.13-.07-.42-.04-.85-.13-1.27-.12-.55-.13-1.11-.23-1.67-.16-.93-.24-1.87-.31-2.81-.06-.79-.19-1.56-.22-2.35-.01-.42-.04-.83.03-1.25.03-.16-.1-.2-.35-.18h-.12c-1.74.12-2.47.6-2.21 1.52.19.67.16 1.37.23 2.05.04.4.1.8.1 1.2 0 .6.24 1.17.12 1.78-.06.29-.1.61.08.9.14.23.13.48.12.72-.06.95.19 1.88.19 2.83 0 .64.18 1.26-.02 1.91-.03.1-.02.2 0 .3.04.4.07.8.14 1.2.15.93-.1 1.88.18 2.81.1.35.03.74.08 1.11.02.16-.24.26-.15.4.18.25-.02.52.01.78.07.52-.01 1.05-.01 1.58 0 .48.12.95.1 1.42-.04.89.01 1.77.17 2.65.02.12.13.19.36.22.95.11 1.87-.01 2.76-.26z"/></g><g><path d="M246.22 207.33s-.03.01 0 0zM246.83 199.57c-.42.04-.49.13-.3.37.06.08.08.15.1.22.13.59-.02 1.16-.06 1.74-.05.64-.17 1.28-.21 1.92-.05.83-.22 1.65-.19 2.48 0 .34-.15.68.07 1.02v.02h.01c-.2.08-.15.21-.16.32l-.06.93c0 .3.13.62-.04.89-.19.3.23.61-.09.89.04.68 0 1.35 0 2.02.01.68-.09 1.36-.03 2.04.04.41-.02.82.04 1.22.08.53.06 1.07.12 1.6.11.9.14 1.8.17 2.69.02.75.14 1.5.14 2.25 0 .4.02.79-.06 1.19-.03.15.09.19.35.18h.12c1.74-.09 2.48-.53 2.24-1.4-.17-.64-.11-1.28-.16-1.92-.02-.37-.07-.75-.05-1.13.03-.56-.18-1.11-.03-1.67.07-.27.14-.57-.02-.85-.12-.22-.11-.46-.08-.68.12-.89-.05-1.77.02-2.66.05-.59-.07-1.2.18-1.78a.54.54 0 0 0 .03-.28c0-.38 0-.75-.02-1.13-.06-.88.29-1.74.13-2.63-.06-.34.06-.7.06-1.04 0-.15.27-.22.2-.35-.15-.25.09-.48.08-.72 0-.49.15-.98.22-1.46.07-.44.01-.9.11-1.33.17-.82.25-1.64.24-2.47 0-.12-.1-.2-.32-.26-.92-.26-1.85-.3-2.76-.21z"/></g><g><path d="M255.09 214.92s.03-.01 0 0zM254.88 222.61c.42-.08.48-.18.27-.39-.07-.07-.09-.14-.11-.21-.17-.57-.06-1.14-.05-1.71l.1-1.91c0-.82.14-1.64.09-2.46-.02-.34.13-.67-.1-1v-.02h-.01c.19-.09.15-.21.15-.32l.04-.92c0-.29-.14-.61.02-.88.19-.3-.24-.6.08-.88-.05-.67 0-1.33-.01-2-.01-.67.1-1.34.05-2.01-.03-.4.04-.8-.01-1.21-.07-.53-.03-1.06-.07-1.59-.07-.89-.07-1.79-.05-2.68.02-.74-.05-1.49 0-2.23.02-.39.04-.78.14-1.17.04-.15-.08-.2-.33-.21h-.12c-1.74-.11-2.51.26-2.33 1.17.13.66.03 1.31.04 1.96 0 .38.03.77 0 1.14-.06.56.13 1.13-.04 1.7-.08.27-.16.57 0 .86.12.23.09.47.05.69-.14.89.01 1.8-.07 2.69-.06.6.07 1.21-.19 1.8-.04.09-.03.19-.03.29 0 .38 0 .76.03 1.15.07.89-.27 1.77-.08 2.67.07.34-.04.71-.02 1.06 0 .15-.27.23-.18.37.15.25-.07.49-.06.74.02.5-.11 1-.16 1.5-.04.45.03.91-.03 1.35-.12.84-.15 1.68-.08 2.53.01.12.11.19.34.23.94.16 1.86.1 2.77-.08z"/></g><g><path d="M258.31 203.75s-.02.01 0 0zM258.47 195.92c-.3.08-.34.18-.19.4.05.07.06.14.08.22.12.58.04 1.17.04 1.75 0 .65-.07 1.29-.07 1.94 0 .84-.1 1.67-.07 2.51.02.34-.09.69.07 1.02v.02c-.14.09-.1.21-.11.33-.01.31-.03.62-.03.93 0 .3.1.62-.02.9-.13.31.17.61-.06.9.03.68 0 1.36 0 2.04 0 .68-.07 1.37-.04 2.05.02.41-.03.82 0 1.23.05.54.02 1.08.05 1.61.05.91.05 1.81.04 2.72-.01.76.04 1.51 0 2.27-.02.4-.03.8-.1 1.2-.03.15.06.2.24.2h.09c1.24.02 1.78-.39 1.66-1.29-.09-.66-.02-1.32-.03-1.98 0-.38-.02-.77 0-1.16.04-.57-.09-1.14.03-1.72.06-.28.11-.58 0-.87-.08-.23-.06-.47-.04-.7.1-.91 0-1.82.05-2.72.04-.61-.05-1.22.14-1.83.03-.09.02-.19.02-.29 0-.39 0-.77-.02-1.16-.05-.9.19-1.8.06-2.7-.05-.35.03-.72.02-1.07 0-.15.19-.23.13-.37-.11-.25.05-.49.04-.75-.02-.5.08-1.01.11-1.52.03-.46-.02-.92.02-1.37.09-.85.11-1.7.06-2.55 0-.12-.08-.2-.24-.24-.67-.17-1.32-.13-1.97.04z"/></g><g><path d="M265.32 210.15s.03-.01 0 0zM265.47 217.57c.44-.1.51-.19.27-.39a.433.433 0 0 1-.14-.2c-.22-.54-.14-1.1-.16-1.65-.03-.61.04-1.23.01-1.84-.03-.79.08-1.58 0-2.38-.04-.32.11-.65-.14-.97v-.02h-.01c.21-.09.15-.2.15-.31l.02-.88c0-.28-.17-.59 0-.85.2-.3-.27-.58.07-.85-.06-.64-.02-1.29-.04-1.93-.02-.65.1-1.29.05-1.94-.03-.39.04-.78 0-1.16-.07-.51-.02-1.02-.06-1.53-.07-.86-.05-1.72 0-2.58.03-.72-.01-1.44.06-2.15.04-.38.07-.76.2-1.12.05-.14-.08-.19-.35-.21h-.13c-1.88-.15-2.73.19-2.57 1.07.12.64-.01 1.27-.02 1.91 0 .37.01.74-.04 1.11-.07.55.12 1.1-.08 1.65-.09.26-.17.55-.02.84.13.23.09.45.05.67-.16.87 0 1.75-.08 2.61-.06.58.08 1.18-.19 1.75-.04.09-.03.19-.03.28.01.37 0 .74.05 1.11.09.87-.25 1.73-.02 2.6.09.33-.01.69.01 1.03.01.15-.28.23-.19.36.18.24-.06.48-.03.72.05.48-.08.97-.1 1.46-.02.44.08.88.03 1.32-.09.82-.07 1.64.07 2.46.02.12.13.18.38.21 1.03.12 2.02.02 2.99-.19z"/></g><g><path d="M269.85 210.25s.03 0 0 0zM269.41 217.11c.42-.05.48-.13.28-.33a.402.402 0 0 1-.11-.2c-.15-.52-.03-1.03 0-1.54l.16-1.7c.03-.73.19-1.46.16-2.2-.01-.3.15-.59-.07-.9v-.02h-.01c.2-.07.15-.18.16-.28l.07-.82c.01-.26-.12-.55.05-.78.2-.26-.22-.55.1-.78-.03-.6.04-1.19.05-1.79 0-.6.14-1.19.11-1.8-.02-.36.06-.72.02-1.08-.05-.48 0-.95-.03-1.42-.05-.8-.02-1.59.03-2.39.04-.66 0-1.33.06-1.99.04-.35.06-.7.17-1.04.01-.04.01-.11-.01-.15-.05-.08-.15-.11-.32-.11h-.12c-.41 0-.77.03-1.07.06-.99.05-1.41.39-1.3 1 .11.59 0 1.16-.02 1.74 0 .34 0 .68-.04 1.01-.07.5.1 1.01-.09 1.5-.09.24-.17.5-.03.76.11.21.08.42.03.61-.17.79-.04 1.59-.15 2.38-.07.53.03 1.08-.24 1.59-.04.08-.04.17-.04.25 0 .34-.02.68 0 1.02.04.79-.32 1.56-.16 2.37.06.31-.06.63-.05.94 0 .14-.27.19-.19.31.15.23-.08.43-.08.65 0 .44-.14.88-.2 1.32-.06.4 0 .81-.07 1.2-.15.74-.2 1.48-.15 2.23 0 .11.11.18.33.23.93.2 1.86.21 2.77.11z"/></g><g><path d="M311.91 176.48s-.03 0 0 0zM312.04 172.27c-.41.01-.48.06-.27.19.07.04.09.08.12.12.18.33.07.63.07.95 0 .35-.08.69-.08 1.04 0 .45-.13.89-.06 1.35.03.19-.12.36.11.56h.02c-.19.05-.14.12-.15.18l-.03.5c0 .16.15.34-.01.48-.19.16.25.34-.07.48.05.37.01.73.03 1.1.02.37-.09.73-.03 1.1.03.22-.03.44.02.66.07.29.04.58.09.87.08.49.09.97.08 1.46 0 .41.07.81.03 1.22-.02.22-.03.43-.13.64-.04.08.08.1.33.1h.12c1.75-.03 2.51-.26 2.32-.73-.14-.35-.05-.69-.06-1.04 0-.2-.04-.41 0-.61.05-.3-.14-.6.02-.9.08-.15.15-.3 0-.46-.12-.12-.1-.25-.06-.37.13-.48-.03-.96.04-1.44.05-.32-.08-.65.17-.96.04-.05.03-.1.03-.15 0-.2 0-.41-.04-.61-.08-.48.25-.94.05-1.42-.07-.19.03-.38.01-.56 0-.08.26-.11.18-.19-.16-.14.06-.26.05-.39-.03-.27.1-.53.14-.79.04-.24-.04-.49.02-.72.11-.44.13-.89.05-1.34-.01-.06-.11-.11-.34-.15-.94-.16-1.86-.2-2.76-.18z"/></g><g><path d="M317.23 175.49s-.03 0 0 0zM317.34 170.64c-.42.04-.48.1-.27.24.07.05.09.09.12.14.18.36.08.72.08 1.08 0 .4-.08.8-.08 1.2 0 .52-.12 1.03-.06 1.55.03.21-.12.42.11.64s0 0 .01 0h.01c-.19.07-.14.14-.15.21-.01.19-.03.39-.03.58 0 .19.15.39-.01.55-.18.19.25.38-.07.56.06.42.02.84.04 1.26.02.42-.08.85-.02 1.27.03.25-.03.51.03.76.07.33.04.67.1 1 .09.56.1 1.13.09 1.69 0 .47.07.94.03 1.41-.02.25-.02.5-.12.74-.04.09.08.12.33.13h.12c1.75.04 2.51-.2 2.32-.76-.14-.41-.05-.82-.07-1.23 0-.24-.04-.48 0-.72.05-.35-.15-.71.02-1.06.08-.17.15-.36 0-.54-.12-.14-.1-.29-.06-.43.13-.56-.04-1.13.03-1.69.05-.38-.08-.76.17-1.13.04-.06.03-.12.03-.18 0-.24 0-.48-.04-.72-.08-.56.24-1.11.04-1.68-.08-.22.03-.44 0-.66 0-.1.26-.14.18-.23-.16-.16.06-.3.05-.46-.03-.31.1-.62.14-.94.04-.28-.04-.57.01-.85.11-.53.13-1.05.04-1.58-.01-.07-.11-.12-.35-.15-.94-.12-1.86-.11-2.77-.02z"/></g><g><path d="M321.45 176.47s-.03 0 0 0zM321.89 172.08c-.42 0-.48.05-.28.19.07.05.09.09.1.13.15.35.01.66-.01.99-.03.36-.14.72-.16 1.08-.03.47-.19.93-.15 1.41.01.19-.14.38.08.58h.01c-.19.05-.15.12-.16.19l-.05.52c0 .17.13.36-.03.5-.19.17.23.36-.08.5.04.39 0 .77 0 1.15.01.39-.1.77-.05 1.16.03.23-.03.46.02.69.07.31.04.61.09.91.09.51.1 1.02.11 1.53 0 .43.09.85.07 1.28-.01.23 0 .45-.1.67-.03.09.09.11.34.1h.12c1.75-.03 2.5-.27 2.29-.76-.15-.36-.07-.72-.1-1.08-.01-.21-.05-.42-.02-.63.04-.31-.15-.63 0-.94.08-.15.15-.32 0-.48-.12-.13-.1-.26-.06-.38.13-.49-.03-1 .05-1.49.05-.33-.07-.68.19-.99.04-.05.03-.1.03-.16 0-.21 0-.42-.02-.64-.06-.5.28-.97.11-1.48-.07-.19.05-.39.04-.58 0-.09.27-.11.19-.19-.15-.15.08-.26.07-.4-.01-.28.13-.54.19-.81.06-.24 0-.5.07-.74.15-.45.21-.91.17-1.38 0-.07-.1-.12-.33-.17-.93-.2-1.85-.29-2.75-.3z"/></g><g><path d="M327.25 176.81s-.03 0 0 0zM327.63 172.6c-.41-.01-.48.03-.28.18.07.05.09.09.11.13.16.34.03.64.01.95-.02.35-.13.69-.15 1.04-.03.45-.18.89-.15 1.35.01.19-.14.36.07.56h.01c-.19.04-.15.12-.16.18l-.06.5c-.01.16.13.35-.04.48-.19.15.23.35-.1.48.03.37-.03.73-.03 1.1 0 .37-.13.73-.1 1.1.02.22-.06.44-.02.66.05.29 0 .58.04.87.05.49.03.98 0 1.47-.03.41.02.82-.05 1.22-.03.21-.05.43-.17.64-.04.08.08.11.33.12h.12c1.74.09 2.52-.1 2.36-.58-.12-.35 0-.7 0-1.05 0-.2-.01-.41.03-.61.07-.3-.11-.61.08-.9.09-.14.17-.3.02-.46-.11-.13-.08-.25-.04-.37.16-.47.02-.96.13-1.43.07-.32-.04-.65.23-.95.04-.05.04-.1.04-.15 0-.2.02-.41 0-.62-.05-.48.3-.92.14-1.42-.06-.19.05-.38.05-.56 0-.08.27-.1.19-.18-.15-.15.08-.25.07-.39-.01-.27.13-.52.19-.78.05-.24-.01-.49.06-.72.14-.44.18-.88.13-1.34 0-.06-.11-.12-.33-.17-.93-.21-1.84-.31-2.75-.34z"/></g><g><path d="M331.39 177.21s-.03 0 0 0zM331.85 173.76c-.41-.03-.48 0-.28.13.07.04.08.08.1.11.14.28.01.53-.02.78-.03.29-.14.56-.17.85-.03.37-.19.73-.16 1.1.01.15-.14.29.07.47h.01c-.19.03-.15.09-.16.14-.02.14-.05.27-.06.41 0 .13.13.29-.04.4-.19.12.23.29-.09.39.04.31-.02.61 0 .91 0 .31-.1.6-.06.91.03.18-.04.36.02.55.07.24.04.48.09.72.08.41.09.81.09 1.21 0 .34.08.67.05 1.01-.01.18-.01.35-.11.53-.04.07.09.09.34.08h.12c1.75-.01 2.5-.19 2.3-.57-.15-.28-.06-.56-.09-.84-.01-.16-.04-.33-.01-.49.05-.24-.15-.49.02-.73.08-.12.15-.24 0-.37-.12-.1-.1-.2-.06-.3.14-.38-.02-.77.06-1.16.06-.26-.06-.53.2-.76.04-.04.04-.08.04-.12 0-.16 0-.33-.02-.5-.06-.39.29-.74.12-1.14-.06-.15.05-.3.05-.45 0-.07.27-.07.19-.14-.15-.13.08-.2.07-.31 0-.22.14-.41.2-.62.06-.19 0-.39.08-.57.15-.34.21-.69.17-1.06 0-.05-.1-.1-.33-.15-.92-.22-1.83-.35-2.74-.42z"/></g><g><path d="M338.17 182.35s.03 0 0 0zM337.8 185.7c.42 0 .48-.04.27-.15-.07-.04-.09-.07-.11-.1-.17-.26-.05-.51-.03-.76.01-.28.12-.55.14-.82.03-.36.18-.7.15-1.07-.01-.15.14-.28-.07-.45h-.01c.19-.02.15-.08.16-.13l.07-.39c.02-.13-.11-.29.06-.38.2-.1-.21-.3.11-.37-.02-.3.06-.58.08-.87.02-.3.17-.57.16-.87 0-.18.09-.34.06-.53-.03-.24.04-.46.03-.7-.01-.4.05-.79.14-1.17.07-.32.07-.66.17-.97.06-.16.1-.33.24-.47.05-.05-.06-.1-.3-.17l-.12-.03c-1.68-.46-2.46-.48-2.37-.03.07.33-.08.6-.13.89-.03.17-.03.35-.1.51-.1.24.04.54-.17.76-.1.11-.19.23-.07.39.1.13.06.23 0 .32-.2.38-.1.81-.23 1.21-.09.26 0 .56-.29.79-.04.04-.04.08-.05.13-.01.17-.04.35-.03.53.03.42-.34.77-.19 1.21.06.16-.06.32-.06.48 0 .07-.27.07-.19.14.14.13-.08.21-.08.33.01.23-.14.44-.2.67-.05.2.01.42-.06.62-.14.38-.18.76-.11 1.15 0 .06.11.1.34.13.94.15 1.86.19 2.76.19z"/></g><g><path d="M340.45 152.77s-.03 0 0 0zM343.96 145.1c-.42-.03-.51.05-.37.33.05.09.05.17.04.25 0 .65-.32 1.21-.54 1.8-.25.65-.6 1.26-.89 1.89-.38.82-.9 1.57-1.29 2.39-.16.34-.47.58-.46 1.02v.03c-.22-.02-.24.12-.31.23l-.57.84c-.18.27-.25.65-.56.8-.35.17-.18.7-.62.77-.39.64-.86 1.21-1.31 1.81-.44.61-1 1.12-1.45 1.74-.27.37-.61.67-.87 1.05-.34.5-.76.92-1.12 1.4-.62.8-1.31 1.55-2.01 2.28-.59.61-1.13 1.27-1.75 1.86-.33.31-.65.63-1.03.88-.15.1-.1.22.08.39l.09.09c1.24 1.23 2.1 1.44 2.68.57.42-.63 1.01-1.11 1.52-1.66.3-.32.58-.66.9-.96.48-.44.78-1.05 1.35-1.42.27-.18.56-.39.67-.74.09-.28.28-.47.48-.64.79-.69 1.34-1.6 2.04-2.37.48-.52.81-1.15 1.43-1.56.1-.06.16-.16.23-.25.26-.37.52-.73.75-1.12.53-.9 1.38-1.6 1.76-2.61.14-.38.45-.71.64-1.08.08-.16.36-.11.37-.29 0-.33.33-.48.45-.75.25-.54.62-1.02.91-1.55.26-.48.4-1.02.65-1.49.48-.9.83-1.87 1.03-2.87.03-.14-.05-.26-.25-.36-.85-.44-1.76-.62-2.68-.69z"/></g><g><path d="M344.8 154.86s-.03 0 0 0zM347.97 146.94c-.42 0-.5.1-.35.37.05.09.06.17.06.25.04.66-.23 1.25-.41 1.86-.2.68-.52 1.31-.78 1.96-.36.85-.85 1.62-1.23 2.45-.15.34-.47.59-.46 1.03v.03c-.21-.01-.24.13-.31.24l-.58.85c-.17.28-.27.65-.57.81-.35.17-.19.7-.64.76-.41.63-.92 1.19-1.39 1.78-.49.59-1.07 1.09-1.56 1.67-.29.36-.66.64-.95 1-.38.48-.85.87-1.26 1.32-.7.75-1.47 1.44-2.27 2.09-.67.54-1.29 1.14-2 1.65-.37.27-.74.54-1.16.74-.16.08-.13.2.02.41l.07.1c1.04 1.4 1.88 1.72 2.61.92.52-.59 1.19-1 1.78-1.5.35-.29.67-.61 1.04-.88.55-.39.92-.99 1.54-1.32.3-.16.61-.36.75-.71.12-.27.34-.45.55-.61.86-.66 1.5-1.54 2.27-2.3.53-.5.89-1.15 1.55-1.55.1-.06.17-.16.24-.26.28-.37.57-.74.82-1.13.57-.92 1.45-1.64 1.84-2.7.14-.4.47-.73.65-1.12.08-.17.36-.13.37-.32 0-.35.34-.5.45-.79.22-.58.61-1.08.87-1.64.24-.51.36-1.08.59-1.59.43-.97.72-1.99.84-3.03.02-.15-.07-.26-.28-.35-.89-.38-1.81-.48-2.73-.47z"/></g></g></g><g><path class="cls-2" d="M348.81 137.88c-.18-.57-.51-1.35-.64-1.75-.44-1.33-1.5-2.5-2.58-3.38-1.04-.93-2.14-1.68-3.31-2.3-3.51-1.81-7.14-3-10.47-4.84-.22-.11-.57-.22-.86-.31-.57-.22-1.15-.38-1.72-.6-3.84-1.57-7.67-3.36-11.58-4.57-1.97-.93-4.11-1.35-6.03-2.39-.24-.11-.73-.31-.93-.35-1.37-.22-2.78-.93-4.2-1.41-1.9-.66-3.76-1.52-5.79-2.01-1.1-.27-2.54-.95-3.89-1.24-.44-.09-1.28-.62-2.16-.93l-5.06-1.79-2.54-.86c-.49-.04-1.19-.82-1.88-1.33-2.72-2.25-5.3-4.71-7.78-7.29-1.68-1.66-3.34-3.71-6.08-4.84-2.76-.99-5.32-.68-7.78-.86-.8-.04-1.81.15-2.72.18-4.95.07-9.81.42-14.76.4-1.66.02-3.36.04-5.01.07-.55 0-1.15.13-1.63.11-2.01-.09-3.93-.11-5.92.15-.55.07-1.52.09-2.1.04-.09-.02-.13-.02-.18-.02-1.57-.22-3.18-.09-4.77-.07l-5.68.09c-1.81-.38-3.62.11-5.48.09-1.9-.04-3.82.07-5.74.2-2.36.15-4.88.13-7.33.13-2.5.02-4.97.15-7.4.27-1.75.09-3.47.04-5.24.09l-2.67.15c-.91.11-1.79.33-2.63.73-.27.11-.77.33-.93.38-.44.09-.91.33-1.33.68-.42.31-.97.95-1.1 1.52-.04.18-.04.33-.04.51.02.6.42 1.08.86 1.5l.97.93 1.88 1.81c1.26 1.19 2.54 2.36 3.87 3.45.62.51 1.28 1.22 1.94 1.81l1.92 1.86c.64.62 1.33 1.48 1.83 1.86.73.53 1.28 1.13 1.88 1.68.27.24.53.62.64.75.22.24.42.46.66.68.22.2.6.44.95.71-.24.09-.57.15-1.02.13-.51-.02-.77.02-1.1.11-.24.07-.91.2-1.41.22-1.04.09-2.19.29-3.29.46-.8.13-1.57.27-2.32.4-.82.11-1.63.15-2.41.33-1.37.31-2.72.62-4.09 1.17-1.1.44-2.54.82-3.78 1.3-.44.18-.86.44-1.3.64-.24.13-.66.31-.8.33-1.06.09-2.19.68-3.27.88-.51.11-1.15.22-1.52.27-.15 0-.38.13-.49 0l-.35-.4c-.75-.86-1.48-1.75-2.05-2.7-.13-.2-.53-.6-.66-.71-.99-.62-1.81-1.77-2.74-2.63-2.72-2.54-5.37-5.28-8.48-7.25-.38-.24-.82-.68-1.22-1.02-.38-.33-.77-.64-1.17-.95-1.86-1.52-4.09-2.5-5.96-4.02-.13-.09-.42-.24-.53-.27-.71-.15-1.48-.75-2.21-1.13-1.77-.95-3.29-1.94-5.01-2.87a99.414 99.414 0 0 0-20.21-7.31c-.62-.18-1.39-.35-1.86-.38-.71-.02-.99-.13-1.66-.35-3.09-.97-6.58-1.5-9.9-1.7-2.5-.15-4.77-.15-7.2-.42-.68-.09-1.7-.11-2.34-.02-1.37.18-2.81.24-4.22.31-.71.04-1.97.07-2.81.2-.51.04-.75.2-.97.38-.09.07.02.27.09.44l.22.51c.04.15.09.29.22.51.33.57.68 1.28.84 1.44 1.02.97 1.55 2.12 2.36 3.16.75.95 1.5 1.94 2.25 2.92.75.95 1.72 2.01 2.19 2.76.77 1.24 1.59 1.57 2.3 2.41.07.09.2.2.22.24.66 1.24 1.72 1.83 2.65 2.63.31.27.75.55.88.73.88 1.17 1.88 2.25 3.29 3.18 1.04 1.37 2.7 2.45 4.13 3.56l1.3.99c.07.04.11.09.2.13 3.38 2.5 6.98 4.73 10.71 6.67 2.19 1.15 4.42 2.21 6.69 3.14-4.09.15-8.15.64-12.15 1.46-.6.11-1.17.33-1.77.44l-3.73.91c-.71.18-1.66.31-2.1.51-1.63.77-3.47 1.22-5.15 1.92-1.37.55-2.87 1.06-4.04 1.88-.31.2-1.15.6-1.46.68-.44.11-.91.29-1.35.51l-.07.02h-.02c-.68.35-1.35.73-2.01 1.08-1.57.86-3.09 1.81-4.62 2.7-1.59.93-2.92 1.94-4.62 2.81l-1.15.55-1.41.6-2.85 1.19c1.41.71 3.8 1.55 5.37 2.16 3.2 1.17 6.45 2.16 9.76 3.03l.46.11.11.02s.02.02.04.02h.04l.09.02c2.5.6 5.06 1.02 7.44 1.72.31.09.82.11 1.22.15.38.04.99.07 1.1.11.88.4 2.05.44 3.09.57 1.35.18 2.7.33 4.04.46h.04c2.87.24 5.74.42 8.64.46 1.48.04 3.03-.07 4.46.15.42.04 1.48 0 1.86-.09.71-.18 1.46-.15 2.19-.22 1.22-.09 2.45-.15 3.67-.24 1.26-.07 2.52-.07 3.76-.22 3.69-.46 7.36-.99 11-1.88 4.71-1.15 9.54-2.36 14.23-3.89.18-.02.33-.2.51-.09.2.09.38.15.55.24.49.18.95.31 1.44.4.27.02.93.22 1.06.29.68.4 1.61.53 2.43.73 1.72.44 3.45.68 5.15.95l2.28.38c.66.13 1.35.27 2.01.46l.33.11s-.18.09-.24.13c-1.33.64-2.28 1.19-3.87 2.36-.73.53-1.41 1.08-2.08 1.68-.64.6-1.35 1.19-1.86 2.03-.24.4-.44.91-.4 1.46.02.53.33 1.04.71 1.35.75.62 1.48 1.04 2.21 1.57 1.44 1.02 3.03 1.86 4.53 2.78 1.1.6 2.21 1.13 3.31 1.92.57.4 1.41.84 2.36 1.24.42.18.86.31 1.19.4 1.15.27 2.21.42 3.29.33.75-.07 1.48-.2 2.14-.4.04 0 .09 0 .13-.02l.07-.02c.6-.18 1.15-.42 1.7-.73.11-.09.49-.22.6-.22 1.13-.11 2.39-.73 3.58-1.15l5.99-2.14 1.61-.6c.27-.09.55-.2.8-.27.18-.04.4-.07.55.07.53.31 2.25.84 2.98.93.99.15 1.83.44 2.74.66 10.36 2.87 21.03 4.6 31.75 5.06.82.04 1.66.13 2.5.2 1.61.13 3.4.04 5.13.04.4 0 .93-.09 1.13-.04 1.33.2 2.81-.02 4.18 0 1.37 0 2.72-.02 4.09-.09 1.81-.09 3.73-.22 5.39-.64 3.45-.38 6.89-.88 10.29-1.5.8-.15 1.46-.24 2.1-.24.27 0 1.06-.18 1.24-.27.64-.38 1.57-.46 2.39-.66 1.5-.35 3-.73 4.51-1.08l.35-.09c.13-.04.09.18.13.27.04.24.09.49.13.73.09.68.13 1.57.18 2.34.02.31-.11.75-.18 1.15-.04.35-.13.86-.13 1.1.11 1.22-.24 2.81-.2 3.87 0 .68.35 1.59 1.06 1.99.73.44 1.57.35 2.14.2 3.4-1.06 6.34-2.67 9.19-4.62 1.5-1.04 2.98-2.14 4.48-3.25.73-.55 1.48-1.1 2.25-1.68l1.13-.82.44-.31.51-.02c3.47-.2 7.11-.95 10.6-1.75.88-.2 1.63-.53 2.32-.71 4.42-1.24 8.84-2.52 14.01-4.79 2.03-.99 4.26-2.19 6.36-3.87 2.05-1.7 3.95-3.89 5.06-6.47.62-1.55.82-2.47.71-2.98v-.02c.07-.11.09-.24.11-.35 0-.04.02-.07.02-.11.02.09.07.15.13.15.64.18 1.88-2.16.91-5.43zm-249.37-1.92v-.02h.02l-.02.02z"/><g style="clip-path:url(#clippath-4)"><path d="M160.85 128.92c-5.28-3.23-10.58-6.48-16.13-9.29-4.95-2.52-9.98-4.83-14.88-7.44-4.88-2.58-9.6-5.41-14.48-7.98-4.9-2.54-10.07-4.7-15.11-7-2.21-.98-4.46-1.8-6.68-2.63-1.05-1.45-2.07-2.94-3.05-4.46 1.31.51 2.63 1 3.97 1.49 2.96 1.09 5.88 2.25 8.76 3.57 5.01 2.29 10.2 4.37 15.02 7.06 4.9 2.74 9.8 5.53 14.79 8.11 4.99 2.58 10.12 4.9 15.08 7.53 4.88 2.56 9.56 5.46 14.26 8.33 1.72 1.05.18 3.74-1.54 2.7zM163.6 125.4c-1.98-1.98-4.28-3.59-6.48-5.3-2.21-1.72-4.39-3.39-6.82-4.81-4.5-2.65-9.18-5.06-13.64-7.82-4.26-2.67-8.49-5.28-12.92-7.64-4.63-2.47-9.38-4.81-14.24-6.8-2.36-.96-4.68-1.94-7.02-2.92-.38-.16-.78-.31-1.2-.45 3.43.09 6.84.38 10.23.87.45.18.87.36 1.31.56 4.86 2.09 9.67 4.46 14.28 7.02 4.57 2.54 8.89 5.39 13.39 8.02 4.55 2.67 9.34 5.01 13.75 7.93 2.07 1.36 3.94 2.99 5.93 4.48 1.94 1.49 3.9 2.94 5.64 4.68 1.43 1.4-.78 3.61-2.21 2.18zM162.01 142.16c-1.02.62-2.18.85-3.32 1.18-1.23.38-2.41.82-3.61 1.18-2.43.74-4.92 1.31-7.42 1.89-4.48 1.02-8.98 1.76-13.52 2.54-4.63.8-9.25 1.14-13.93 1.45-1.74.11-3.5.25-5.24.36h-.04a118.85 118.85 0 0 1-17-2.9c3.1.13 6.17.25 9.29.16 4.79-.13 9.58-.51 14.35-.82 2.32-.16 4.68-.22 7-.51 2.3-.27 4.57-.71 6.86-1.09 4.46-.71 8.85-1.56 13.23-2.61 2.14-.51 4.26-1.02 6.35-1.69 1.94-.62 3.99-1.11 5.88-1.89 1.63-.65 2.52 1.94 1.11 2.76z"/><path d="M160.25 135.9c1.18.49 1.45 2.54-.16 2.94-5.93 1.49-12.01 2.01-18.09 2.54-5.48.47-10.92 1.05-16.42 1.23-5.5.16-10.96.47-16.47.78-5.55.31-11.12.67-16.69.89-1.92.07-3.81.13-5.73.13-1.36-.49-2.72-1.02-4.06-1.58 1.27-.45 2.52-.96 3.72-1.56 2.92 0 5.84-.09 8.73-.25 10.9-.58 21.77-1.18 32.66-1.63 5.3-.2 10.56-.82 15.84-1.27 5.19-.45 10.38-.98 15.44-2.25-2.38-.11-4.79-.53-7.15-.78-2.5-.25-4.99-.74-7.51-1.02-9.71-1.16-19.72-1.56-29.48-1.11-4.88.22-9.78.53-14.64 1.11-.45.04-.91.11-1.38.18 3.1-1.58 6.26-2.94 9.56-4.06 7.93-.58 15.91-.6 23.82-.16 4.75.27 9.49.62 14.22 1.16 3.48.42 6.95 1 10.43 1.38 0 0-.02 0-.04-.02-1.31-.33-2.61-.76-3.92-1.14-2.45-.74-4.9-1.58-7.29-2.5-9.14-3.56-17.94-7.69-26.87-11.68-1.74-.78-3.43-1.58-5.12-2.43a.18.18 0 0 1-.09-.04 89.017 89.017 0 0 1-11.7-10.25c2.25 1.47 4.55 2.87 6.91 4.21 4.08 2.34 8.27 4.32 12.52 6.24 4.39 1.96 8.69 4.08 13.08 6.02 4.34 1.89 8.73 3.81 13.21 5.35 2.12.74 4.23 1.49 6.39 2.14 1.14.33 2.27.71 3.43 1 .94.27 2.03.82 2.99.87 1.72.09 1.94 2.34.62 2.92.89.78.67 2.52-.78 2.63zM175.43 138.45c.64-.18 1.28-.29 1.93-.33.34-.02.75-.08 1.08-.03.34.04.7.17 1.06.21.92.11 1.86-1.08 1.51-1.95-.58-1.43-1.8-1.63-3.16-1.95-1.23-.29-3.03-.86-3.62-2.1-.4-.85-.67-2.59-.09-3.41.41-.59 1.29-.81 1.93-.99.94-.27 1.68-.09 2.63-.04 2 .11 2-3.01 0-3.11-1.22-.06-2.21-.2-3.42.14-1.04.29-2.08.69-2.91 1.39-1.52 1.27-1.75 3.22-1.54 5.08.22 1.96 1.14 3.46 2.73 4.53-1.58.82-2.67 2.49-2.76 4.29-.2 4.37 4.37 6.31 7.9 7.16 1.94.47 2.74-2.54.79-3.01-1.97-.48-5.29-1.26-5.58-3.73-.12-1.03.57-1.9 1.51-2.16zM189.44 154.03c-.49.49-1.14.6-1.74.91-.62.33-1.27.67-1.94 1-1.31.65-2.65 1.29-3.99 1.94a54.2 54.2 0 0 1-4.9 2.09c-.96-.62-1.89-1.25-2.81-1.89-.13-.09-.27-.2-.38-.29 4.86-1.63 9.29-4.08 13.93-6.17.71-.31 1.47-.22 1.96.42.45.56.42 1.47-.13 1.98zM195.46 157.24c0 .65-.38 1.31-1.07 1.49-2.54.8-4.86 2.38-7.24 3.54-1.11.56-2.25 1.07-3.39 1.58-1.2-.58-2.36-1.2-3.52-1.87 1.94-.8 3.88-1.65 5.77-2.61 1.31-.67 2.58-1.38 3.9-2.05.65-.31 1.31-.62 1.98-.94.67-.33 1.36-.69 2.12-.62 1 .07 1.45.76 1.45 1.47zM202.23 158.87c0 1.74-2.18 2.23-3.41 2.92-1.47.82-2.9 1.69-4.39 2.5-.65.33-1.27.67-1.92 1-.02 0-.04.02-.07.02-.98.31-1.98.6-3.03.56-1.2-.02-2.34-.42-3.45-.94.89-.4 1.76-.82 2.65-1.23 1.47-.65 2.87-1.38 4.28-2.14 1.45-.76 2.83-1.6 4.26-2.41.6-.33 1.2-.62 1.83-.91.65-.29 1.09-.69 1.83-.78.76-.09 1.4.71 1.43 1.4zM206.84 113.86c-3.81-2.63-7.26-5.9-10.63-9.05-1.78-1.63-3.54-3.28-5.28-4.95-.87-.85-1.76-1.67-2.61-2.56-.25-.25-.49-.51-.74-.78 1-.11 2.03-.13 3.03-.16.38 0 .78-.02 1.16-.02.49.49.98.96 1.49 1.45 1.65 1.58 3.32 3.14 4.99 4.7 1.69 1.58 3.41 3.14 5.17 4.63 1.63 1.36 3.19 2.81 4.95 4.03 1.63 1.11.11 3.83-1.54 2.7zM215.87 111.3c-.38.67-1.45 1.09-2.12.6-3.45-2.54-6.57-5.44-9.54-8.53-1.45-1.52-2.83-3.05-4.21-4.63-.69-.8-1.4-1.63-2.14-2.41l-.07-.07c1.38-.02 2.74-.04 4.12-.04h.02c.04.07.11.13.16.2 1.34 1.54 2.7 3.03 4.1 4.5 2.81 2.99 5.77 5.84 9.09 8.27.67.49 1.02 1.31.58 2.12zM219.14 109.27c-1.43-1.43-2.92-2.76-4.26-4.26-1.31-1.45-2.61-2.94-3.83-4.48-1.16-1.45-2.23-2.96-3.36-4.41 1.27-.02 2.56-.04 3.83-.07.56.78 1.14 1.54 1.74 2.3 1.27 1.56 2.58 3.1 3.94 4.59 1.31 1.45 2.76 2.74 4.12 4.12 1.43 1.43-.78 3.63-2.18 2.21zM225.65 107.89c-2.58-2.52-4.77-5.37-6.84-8.29-.87-1.2-1.72-2.43-2.58-3.61 1.25-.02 2.52-.04 3.77-.04.45.62.89 1.25 1.34 1.87 1.98 2.79 4.08 5.48 6.53 7.87 1.43 1.4-.78 3.61-2.21 2.21zM236.52 107.49c-.62.65-1.56.53-2.21 0-2.54-2.12-4.57-4.81-6.64-7.35a80.044 80.044 0 0 1-3.19-4.26c1.25-.02 2.52-.04 3.77-.07.51.69 1 1.36 1.54 2.01 2.09 2.58 4.14 5.33 6.73 7.46.65.56.56 1.65 0 2.21zM244.61 107.09c-.53.56-1.67.67-2.18 0-1.14-1.47-2.5-2.74-3.77-4.08a82.129 82.129 0 0 1-3.63-4.06c-.87-1.05-1.69-2.12-2.5-3.21 1.29 0 2.56-.02 3.85-.04.31.38.62.78.94 1.16 1.16 1.4 2.38 2.74 3.63 4.06 1.25 1.29 2.56 2.54 3.65 3.99.51.67.67 1.54 0 2.18zM251.72 105.7c-.56.58-1.65.65-2.21 0-1.02-1.2-2.18-2.34-3.23-3.54-1-1.18-1.96-2.43-2.85-3.7-.67-.94-1.31-1.89-1.96-2.85 1.25 0 2.47-.02 3.72-.04.22.33.47.69.71 1.02.87 1.23 1.76 2.43 2.76 3.57 1 1.14 2.07 2.21 3.05 3.36.56.65.65 1.56 0 2.18zM257.6 105.7c-1.18-1.18-2.38-2.32-3.56-3.52-1.07-1.09-1.98-2.32-2.85-3.56-.71-1.02-1.43-2.07-2.12-3.12 1.23 0 2.47-.02 3.7-.04.36.51.71 1 1.05 1.52 1.72 2.45 3.9 4.43 5.99 6.55 1.43 1.4-.78 3.61-2.21 2.18zM264.91 105.53c-1.98-2.07-3.79-4.32-5.46-6.64-.85-1.16-1.65-2.3-2.36-3.5 1.23-.02 2.43-.02 3.65-.04.42.6.85 1.2 1.27 1.8 1.56 2.16 3.23 4.23 5.1 6.17 1.38 1.45-.8 3.63-2.21 2.21zM275.98 106.51c-.56.56-1.65.65-2.18 0-2.14-2.56-4.21-5.17-6.26-7.8-.89-1.14-1.78-2.29-2.65-3.43.49 0 1-.02 1.49-.02.8 0 1.6-.02 2.41.02.29.38.58.76.87 1.11 2.07 2.67 4.19 5.3 6.33 7.91.56.65.65 1.56 0 2.21zM196.36 147.26c-1.65-.08-3.44-.2-4.84-1.17-1.24-.87-2.34-2.6-2.48-4.12-.34-3.68 5.38-3.49 7.65-3.42 1.73.05 2.16-2.76.39-3.06-2.88-.49-7.04-1.27-7.43-4.87-.14-1.32 0-2.77.83-3.86 1.09-1.43 2.98-1.1 4.49-1.71 1.78-.72 1.15-3.6-.78-2.98-1.07.34-2.2.36-3.27.72a5.804 5.804 0 0 0-2.74 1.91c-1.35 1.67-1.82 3.81-1.64 5.92.19 2.2 1.23 3.98 2.93 5.39.15.12.32.2.47.31-.28.11-.56.19-.83.34-1.98 1.04-3.32 3.03-3.19 5.31.14 2.31 1.49 4.74 3.25 6.22 2.04 1.71 4.61 2.06 7.18 2.19 2 .1 2-3.01 0-3.11zM211.55 155.6c-1.69-.36-3.54-.71-4.95-1.78-1.49-1.13-2.21-3.25-2.18-5.08.06-3.81 5.64-3.25 7.82-4.93.66-.51.54-1.67 0-2.2-.9-.87-1.97-.93-3.13-1.18-1.08-.24-3.3-.93-3.88-1.99-.49-.89.03-3.05.56-3.84.77-1.13 2.64-1.61 3.96-1.58 1.78.04 2.09-2.6.39-3.06-2.76-.75-6.59-1.34-6.52-5.07.03-1.56 1.51-2.16 2.72-2.74.86-.41 1.72-.81 2.66-.99.7-.13 1.34-.14 1.93-.59 1.58-1.18.06-3.89-1.53-2.7-.34.25-.78.21-1.18.28-.61.12-1.19.33-1.77.56-1.02.4-2.05.87-2.99 1.43-1.89 1.13-3.07 2.91-2.93 5.17.14 2.15 1.28 4.34 3.05 5.58.33.23.68.4 1.03.58-.22.16-.46.3-.65.48-1.44 1.42-1.85 3.39-1.93 5.34-.09 2.13.74 3.49 2.54 4.57.51.31 1.05.57 1.59.82-.71.29-1.41.62-2.03 1.07-2.04 1.45-3.06 3.47-2.75 5.98.28 2.31 1.06 4.6 2.87 6.16 1.84 1.6 4.18 2.22 6.5 2.72 1.95.42 2.76-2.59.79-3.01zM231.28 156.53c-2.74 0-6.09-1.07-7.37-3.72-.63-1.3-.72-3.06.47-4.08 1.28-1.1 3.97-1.72 5.62-1.72 1.99-.11 2.02-3.11 0-3.11-1.69.1-3.47-.59-4.96-1.36-1.1-.57-3.01-1.47-3.13-2.86-.26-3.2 3.8-4.4 6.35-4.3 2.06.09 1.93-2.87 0-3.11-1.41-.18-3.1-.46-4.39-1.09-.92-.45-2.58-1.97-1.98-3.13.46-.88 1.86-1.28 2.75-1.49.73-.18 1.47-.26 2.21-.39.25-.04.49-.08.73-.14.15-.04.77-.09.48-.16.11 0 .23.02.33.03 1.74.11 2.16-2.82.39-3.06-.14-.02-.27-.01-.4-.02v-.03c-2.26-.15-5.89-.64-7.01-2.99-.7-1.47.68-2.46 1.82-3.06.74-.39 1.44-.44 2.26-.51.69-.05 1.21-.26 1.86-.45 1.93-.54 1.14-3.55-.79-3.01-1.13.32-2.27.33-3.4.63-.9.24-1.73.75-2.51 1.26-1.82 1.2-2.96 3.31-2.42 5.53.48 1.95 1.88 3.23 3.6 4.11-1.47.72-2.78 1.83-3.1 3.51-.39 2.06.98 4.14 2.53 5.38.31.25.67.42 1.01.61-2.05 1.25-3.52 3.22-3.46 5.88.05 2.37 1.77 3.8 3.65 4.97.42.26.89.51 1.36.75-.62.32-1.18.7-1.64 1.12-1.78 1.64-2.2 4.24-1.51 6.5 1.37 4.44 6.26 6.62 10.61 6.62 2.01 0 2.01-3.12 0-3.11zM251.5 161.05c-2.98-.41-8.04-.8-7.84-4.94.07-1.45 1.18-2.3 2.41-2.85.75-.34 1.57-.53 2.38-.7.97-.2 2.05-.51 3.03-.49 2.01 0 2-3.08 0-3.11-1.94 0-4.29-.35-6.05-1.23-1.27-.63-3.01-2.14-3.28-3.61-.3-1.65 1.44-3.26 2.79-3.86.9-.4 1.82-.6 2.79-.72.89-.11 1.85-.39 2.74-.37 2.01.04 2-3.07 0-3.11-.14 0-.29.01-.44.02-.13-.07-.26-.15-.43-.18-2.38-.46-4.88-1.07-6.75-2.72-1.12-.99-1.75-2.65-.51-3.81 1.4-1.32 3.75-1.56 5.88-1.52.84.09 1.64.13 2.37.12 2.03-.03 1.98-2.96 0-3.11-.58-.04-1.21-.07-1.85-.09-1.4-.13-2.78-.43-4.08-.97-1.6-.66-3.57-1.68-3.79-3.58-.1-.85.02-1.79.23-2.61.2-.79 1.09-1.02 1.82-1.27 1.05-.36 2.14-.53 3.25-.59.96-.05 1.69-.03 2.46-.71 1.39-1.23-.4-3.17-1.86-2.4h-.48c-.29.01-.58.05-.87.08-.78.08-1.57.13-2.33.32-1.1.27-2.28.7-3.24 1.31-2.09 1.32-2.36 4.5-1.96 6.75.4 2.23 1.96 3.8 3.95 4.89-1 .51-1.86 1.2-2.48 2.17-1.38 2.18-.84 4.97.86 6.8 1.01 1.08 2.25 1.86 3.58 2.46-.35.15-.71.28-1.04.47-2.09 1.21-3.93 3.8-3.72 6.29.21 2.42 2.13 4.37 4 5.72.41.29.88.51 1.36.74-.05.03-.11.04-.16.07-2.01 1.02-3.49 2.79-3.67 5.09-.16 2.07.7 4.36 2.3 5.71 2.21 1.86 5.11 2.19 7.85 2.57 1.96.27 2.78-2.74.79-3.01zM274.14 160.37c-3.33.03-8.61-.67-8.96-4.98-.36-4.4 5.5-4.12 8.28-4.9 1.23-.34 1.64-2.25.37-2.86-1.92-.92-4.2-.84-6.19-1.68-1.46-.61-3.23-1.63-3.7-3.25-.56-1.91.98-2.96 2.54-3.57 1.04-.41 2.19-.64 3.3-.8 1.01-.14 1.9-.15 2.61-.99.68-.8.3-2.16-.64-2.39a1.35 1.35 0 0 0-1.21-.59c-1.91.05-3.86-1.11-5.4-2.15-1.05-.71-2.37-2.02-2.36-3.39 0-1.28 1.54-2.57 2.67-2.9 1.85-.53 3.78.37 5.63.06 1.29-.22 1.59-2.32.37-2.86-1.92-.86-4.06-.75-5.99-1.59-1.54-.67-3.47-1.65-4.35-3.14-.77-1.31-.25-3.51 1.23-4.13.73-.31 1.57-.26 2.34-.26h3.74c2.01 0 2.01-3.11 0-3.11-2.47 0-5.46-.47-7.74.72-2.12 1.1-3.29 3.85-3.01 6.17.32 2.57 2.41 4.32 4.52 5.54.24.14.49.25.73.38-1.8 1.17-3.41 3.18-3.24 5.42.17 2.27 1.76 4.25 3.55 5.53.73.52 1.53 1.03 2.37 1.47-.6.22-1.18.48-1.73.79-2.19 1.24-3.47 3.34-3.08 5.89.35 2.28 2.03 4 3.94 5.14.58.34 1.19.63 1.82.88-.62.24-1.22.55-1.79.98-1.88 1.41-2.92 3.6-2.68 5.96.27 2.54 1.97 4.69 4.08 6.03 2.34 1.49 5.26 1.69 7.96 1.67 2-.02 2.01-3.13 0-3.11zM296.57 157.25c-2.13.41-4.32 0-6.27-.92-1.69-.81-3.72-2.08-4.18-4.04-.6-2.54 2.53-4.02 5.35-4.54.27.03.53.08.8.11 1.24.12 2.54.25 3.67-.38 1.15-.63.97-2.58-.37-2.86-1.2-.25-2.68-.24-4.2 0-1.23-.18-2.44-.47-3.61-.89-1.24-.44-3.85-1.31-3.77-2.97.05-1 .26-2.69.9-3.5.67-.85 2.18-.87 3.17-1.03 1.62-.27 5 .04 4.96-2.4 0-.34-.11-.6-.26-.83-.23-.89-1.07-1.21-1.9-1.1-1.66.22-3.38-.71-4.7-1.6-.88-.59-2.64-1.84-2.49-3.08.15-1.25 1.92-1.73 2.91-1.93.71-.14 1.43-.2 2.15-.23 1.1.22 2.14.3 3.23-.18 1.15-.5.91-2.14 0-2.71-.8-.5-1.87-.28-2.76-.26-.08 0-.17.01-.25.02-.13-.03-.26-.07-.36-.09-.96-.21-1.93-.35-2.88-.59-1.41-.36-3.37-.91-4.02-2.39-.58-1.34.15-2.72 1.35-3.38.88-.48 1.87-.51 2.84-.56 1.07-.06 2.17-.15 3.2-.44 1.43-.4 1.3-2.29 0-2.73-.76-.26-1.41-.11-2.18-.02-.76.09-1.53.08-2.29.16-1.32.13-2.6.47-3.7 1.25-2.04 1.45-3.09 4.07-2.24 6.5.68 1.95 2.27 3.13 4.07 3.9-1.12.78-1.98 1.86-2.16 3.28-.32 2.54 1.76 4.54 3.63 5.9.42.31.87.57 1.33.83-.92.21-1.8.53-2.53 1.17-1.19 1.06-1.59 2.61-1.84 4.12-.23 1.38-.52 2.67.14 3.99.93 1.86 2.93 2.92 4.88 3.65-2.1 1.32-3.54 3.28-3.22 5.86.36 2.94 2.73 5.1 5.22 6.43 2.84 1.51 5.99 2.12 9.17 1.51 1.97-.38 1.17-3.39-.79-3.01zM324.5 126.25c-.97-.57-1.88 0-2.48.77-.1.13-.19.27-.3.4-.02.01-.14.12-.17.15-.35.33-.66.69-.99 1.04-.89.96-1.9 1.88-3.25 2.03-1.49.17-3.09-.61-4.32-1.38-1.16-.73-1.84-2.1-2.62-3.18-.49-.68-1.33-1.03-2.12-.59-.67.38-1.08 1.44-.59 2.12 1.08 1.49 1.99 3.09 3.53 4.17 1.53 1.07 3.65 1.95 5.53 1.99 1.91.04 3.58-.72 5-1.94.77-.65 1.45-1.43 2.14-2.16.54-.56 1.02-1.09 1.32-1.85.23-.58-.18-1.3-.67-1.59z"/></g></g></svg>