<svg id="Layer_1" xmlns="http://www.w3.org/2000/svg" viewBox="0 0 486 486"><defs><clipPath id="clippath"><path class="cls-2" d="m259.13 277.58-3.01-2.42c-2.02-1.59-4.08-3.15-6.17-4.65-2.09-1.5-4.22-2.97-6.36-4.37l-3.27-2.08-1.61-.99c-.21-.14-.55-.28-.67-.45.1-.21.14-.09.26-1.07.07-.74 0-1.47-.17-2.16-.36-1.45-1.31-2.63-2.25-3.49-.97-.88-1.95-1.54-2.87-2.23l-2.8-2.08c-3.72-2.78-7.44-5.55-11.15-8.32-6.29-4.72-13.44-9.8-20.18-14.73-1.85-1.33-3.73-2.71-5.65-4.08l-1.11-.81c-.05-.07-.31-.78-.47-1.19-.43-1.11-.85-2.2-1.26-3.29-1.68-4.34-3.27-8.52-4.57-12.21-.88-2.47-1.73-4.72-2.54-6.85-.41-1.07-.81-2.09-1.21-3.11l-.29-.76-.16-.38-.02-.05-.1-.22.26-.09 1.8-.57c1.25-.4 2.47-.85 3.74-1.33 1.5-.59 2.99-1.23 4.46-1.9l2.2-1.05c.78-.4 1.57-.88 2.32-1.57.73-.74 1.44-1.61 1.54-3.18.03-.31-.17-.78-.19-.93l-.17-.57-.33-1.14-1.35-4.58c-1.82-6.1-3.73-12.16-5.74-18.19-2.02-6.03-4.12-12.03-6.33-18l-3.39-8.92-2.35-5.95.57.17 2.44.67 5.95 1.57 2.54.69c.24.1.03-.03.41.57l.76 1.33 3.04 5.34c2.04 3.56 4.15 7.11 6.38 10.58 1.11 1.73 2.27 3.44 3.44 5.14 1.21 1.66 2.33 3.46 4.12 5.03.61.52 1.28.99 2.02 1.35.78.38 1.66.61 2.52.67.88.07 1.76-.03 2.65-.35.21-.07.43-.19.55-.24l.07-.03c.05-.03.09-.07.14-.12.03-.1.05.03.09.09l.07.19.26.47c.12.19.26.4.38.59.24.4.54.76.83 1.14 1.19 1.44 2.66 2.68 4.43 3.48 1.73.83 3.73 1.21 5.71.92 1.97-.26 3.79-1.16 5.26-2.39a11.64 11.64 0 0 0 3.32-4.63c.71-1.8.86-3.87.5-5.72-.35-1.88-1.14-3.6-2.06-5.12-.47-.76-.97-1.49-1.49-2.2l-.76-.97c-.03-.05-.12-.12-.12-.17l.05-.1.03-.05.12-.36c.16-.52.24-1.02.26-1.52.05-1-.12-1.97-.4-2.84-.59-1.76-1.49-3.13-2.25-4.48-1.59-2.73-3.22-5.43-4.89-8.09-3.37-5.34-6.92-10.57-10.63-15.65-3.72-5.07-7.57-10.17-12.33-14.56-4.74-4.34-10.51-7.95-17.14-9.22-3.29-.62-6.81-.55-10.22 0-.29.05-.61.1-.9.16 2.06-1.8 3.93-3.7 5.64-5.59 7.5-7.56 13.54-15.91 20.87-22.84 3.65-3.44 7.59-6.61 12.02-8.89 1.11-.55 2.21-1.09 3.37-1.54l.88-.35 1.04-.35c.54-.14.99-.35 1.42-.57.09-.09.29-.07.28-.22l.03-.36.02-.78c.02-1.23-.12-1.71-.16-2.39l-.62-5.81c-.35-3.03-.69-6.07-1.04-9.13l-.69-5.9c-.02-.07-.02-.16-.03-.22l-.22.07-.47.12-.93.26-1.83.5c-.74.22-1.5.4-2.25.66a83.597 83.597 0 0 0-17.08 7.57c-10.79 6.26-20.02 15.03-26.77 25.09-.62.92-1.9 2.87-2.3 3.39-2.85 3.77-5.67 9.77-8.47 14.56-1.54 2.61-3.13 5.14-4.89 7.5-.43.61-.9 1.18-1.35 1.75-.19.24-.29.36-.45.52-.17-.17-.24-.26-.47-.54l-2.04-2.54c-.45.22-.88.45-1.31.67.4-1.54.5-3.15.38-4.67-.24-2.75-1.04-5.26-2.04-7.68-1.04-2.42-2.47-4.76-4.53-6.55-1.99-1.8-4.63-3.1-7.44-3.16-2.28-.07-4.44.5-6.48 1.21-2.02.73-4.06 1.57-5.93 2.82-1.87 1.21-3.53 2.92-4.57 4.95-1.07 2.02-1.63 4.22-1.87 6.42-.29 2.75-.09 5.57.66 8.16.76 2.58 2.09 4.89 3.77 6.62 1.99 2.01 3.53 2.61 4.06 2.73h.02c.05.03.1.05.16.09.07.16.14.31.21.47.09.4.24 1 .47 1.75.28.99.64 2.23 1.02 3.61.1.35.21.69.31 1.05.12.41.12.48.19.74l.14.59.05.26.03.14.02.07-.07-.03a7.29 7.29 0 0 0-1.02-.26 1.05 1.05 0 0 0-.24-.03l-.38-.02c-.35-.02-.69-.05-1.04-.02-4.18.14-8.04 1.99-11.01 4.62-3.04 2.65-5.1 6.17-6.47 9.82-2.75 7.38-2.82 15.29-3.32 23.12-.14 2.33-.36 4.65-.71 6.93-.1.59-.19 1.14-.31 1.71l-.17.85-.14.64-.07.28-.03.14-.14-.02-.95-.12c-4.65-.66-9.29-1.57-13.85-2.68-4.58-1.12-9.11-2.44-13.59-3.94l-3.34-1.16-4.12-1.52c-.41-.14-.86-.33-1.26-.45l-.42 1.42-.69 2.42-.55 1.9-.48-.28-.47-.24-.81-.38c-1.09-.5-2.27-.93-3.53-1.16-1.25-.22-2.58-.24-3.87.05-1.3.28-2.56.95-3.54 1.85-1.97 1.78-2.99 4.27-3.39 6.69-.41 2.44-.29 4.79-.16 7.11.12 1.63.35 3.3.97 4.96.61 1.66 1.78 3.25 3.29 4.27 1.52 1.04 3.23 1.57 4.88 1.87.41.07.81.14 1.23.19l1.04.12.36.02.19.02c.07-.02.14 0 .07.07-.05.09-.1.19-.14.29a.29.29 0 0 0-.03.14l-.02.09-.03.29c-.09.83-.02 1.69.19 2.47.4 1.59 1.3 3.01 2.46 4.08 2.32 2.14 5.19 3.03 7.75 3.91 5.22 1.8 10.51 3.41 15.86 4.81a227.31 227.31 0 0 0 16.15 3.68c2.71.52 5.45.99 8.18 1.42l1.02.16.57.09c.26.09.66-.02.83-.02.81-.1 1.61-.33 2.35-.64.73-.31 1.44-.71 2.08-1.18.16-.1.31-.22.47-.35l.14-.12.16-.14c.07-.07.14-.14.19-.21l.1-.21v.26l.02.5c.05.73.1 1.47.16 2.21.07.95.16 1.9.24 2.85.17 1.92.36 3.84.61 5.76l.36 2.89.5 3.58.19 1.33c.43.02.9 0 1.33.02l2.11.02h2.96l2.51.02c.07 0 .19-.02.22.02v.24c-.16 3.8-.31 7.59-.47 11.33-.62 15.36-1.09 30.71.31 46.13 1.11 12.16 3.41 24.4 7.47 35.98 1.64 4.7 3.58 9.29 5.84 13.71a97.83 97.83 0 0 0 3.61 6.5l.66 1.09c.16.22.26.54.48.67l.83.16c.26.05.61.12.78.14l.5.07c.33.03.66.07.99.09l.99.03H149l-.03.36c.02.09-.03.12-.12.12l-.83.26c-4.31 1.21-9.37 1.4-13.97 4.01-4.5 2.58-7.75 7.16-8.75 12.21-.26 1.26-.4 2.54-.4 3.84-.02.31.02.64.02.95.05.5.07 1.02.14 1.54l.22 1.57.07.4c-.02.09.03.09.12.07l.19-.02.78-.09 8.04-1.09 14.11-1.94 10.17-1.4c1.68-.22 3.41-.47 5.17-.88.88-.19 1.76-.45 2.65-.78.43-.16.86-.35 1.3-.54.22-.1.38-.19.67-.35l1-.59c.35-.61.61-1.57.66-1.97.1-.5.14-1 .16-1.47.03-.97-.02-1.87-.09-2.75l-.48-5.12-.95-9.99c-.02-.09-.02-.17-.03-.26l.1-.03c.78-.19 1.57-.38 2.37-.57-.17-2.8-.35-5.72-.48-8.21-.14-2.13-.21-3.87-.21-4.81.1-8.42-.38-17.4-.48-25.92-.07-8.01-.16-15.96-.22-23.88l4.05 3.18c2.16 1.68 4.32 3.34 6.52 4.96 4.37 3.27 8.8 6.47 13.28 9.58 7.71 5.36 15.6 10.5 23.69 15.34 2.02 1.19 4.05 2.4 6.1 3.56l3.08 1.73 4.18 2.3c.1.03.24.17.31.12l.12-.33.26-.69.52-1.37.74-2.01c.4-1.11.78-2.23 1.14-3.37.1-.29.19-.59.28-.88.16 1.12.33 2.27.52 3.39.26 1.57.55 3.16.86 4.74l.48 2.35.1.5.05.19s.02.07.02.09c-.03 0-.07-.02-.1-.02-.09 0-.16.02-.22.03-.12.03-.07 0-.4.16-.55.24-1.04.59-1.47.97-.86.76-1.47 1.76-1.87 2.73-.41.99-.64 1.99-.83 2.94-.09.45-.21.95-.24 1.54-.03.5 0 1.4.36 2.09a2.63 2.63 0 0 0 1.78 1.35c.35.09.86.1 1.11.09l.76-.05 2.8-.24 5.59-.5 4.95-.43c.83-.07 1.78-.12 2.8-.54 1.07-.38 1.97-1.37 2.4-2.23.47-.88.73-1.66 1.04-2.44l.88-2.35c.59-1.56 1.14-3.13 1.68-4.72 1.07-3.16 2.06-6.36 2.96-9.58.45-1.61.86-3.23 1.28-4.84l.59-2.44.73-3.16-3.53-2.96zm-90.9 41.64-.1.02c.05 0 .09-.02.12-.03h.05s-.05 0-.07.02z"/></clipPath><style>.cls-2{fill:#9fc9eb}</style></defs><path class="cls-2" d="M481.91 189.49c-.72.2-2.23.03-2.85-.34-1.01-.6-2.04-.53-3.06-.68l-5.66-.7c-1.12-.16-2.4.03-3.31-.73-.09-.07-.44-.11-.57-.07-1.31.48-2.46-.17-3.7-.39-.9-.16-1.81-.25-2.83-.05-.99.19-2.6.08-3.46-.33-1.15-.55-2.25-.52-3.37-.64-6.57-.69-13.15-1.29-19.74-1.76-3.12-.22-6.23.13-9.36-.3-.74-.1-1.58.08-2.22-.41-.13-.1-.74-.08-.98.02-.88.35-1.73.15-2.7.07-4.38-.34-8.84-.77-13.16-.54-3.37.2-6.65-.02-9.97.04-1.1 0-2.22-.29-3.34-.36-1.09-.06-2.2-.05-3.29 0-.65.02-1.31-.1-1.95.27-.34.2-1.28.27-1.66.11-1.29-.53-2.65-.26-3.98-.24-3.79.07-7.57.33-11.35.56-.93.07-1.93.43-2.82-.05-.12-.07-.64.16-.97.24-.36.09-.79.29-1.06.25-1.25-.22-2.52-.15-3.77 0-1.25.19-2.5.47-3.74.63-5.99.91-11.95 2.32-17.44 4.7-1.56.66-2.57 1.81-3.92 2.63-1.31.82-2.47 1.85-3.63 2.85-.83.72-1.42 1.73-2.52 2.12-.31.1-.81.74-.9 1.08-.31 1.31-1.32 2.22-1.94 3.37-.75 1.38-1.85 2.66-2.02 4.33-.04.45-.68 1.05-.98 1.63-.49 1-.99 2-1.32 3.05-.17.5-.17 1.05-.29 1.56-1.12 3.87-1.41 7.9-.43 11.53.97 3.73 3.33 6.87 6.59 9.37 3.29 2.69 6.74 5.11 10.31 7.33 1.33.87 3.05 1.25 3.97 2.64 1.53.22 2.52 1.07 3.47 2.07.14.14.65.13.99.21 1.07.25 2.28-.04 3.07 1.16.03.05.18.07.27.11.88.47 1.81-.06 2.81.86.63.56 1.87.86 2.85 1.24 1.01.4 2.06.74 3.11 1.01 1.08.28 2.13 1.03 3.33.7.19-.05.86.61 1.33.72 2.43.58 4.78 1.78 7.36 1.71.59-.03 1.45.22 2 .51 1.96 1.08 4 1.3 6.22 1.63 2.9.45 5.99 1.07 8.6 2.51.56.31.79.5 1.46.36.44-.09 1.12.11 1.68.24 3.1.72 6.26 1.4 9.43 2.36 3.15.92 6.22 2.17 9.18 3.64 1.63.8 2.76 2.18 4.42 2.98.68.36 1.24 1.09 2.06 1.05.11 0 .39.16.48.28 1.41 1.79 3.59 2.67 4.96 4.49.29.38.48.83.74 1.23.25.42.52.92.82 1.21 2.66 2.33 3.92 5.89 4.9 9.27.15.59.23 1.23.33 1.84.07.62.22 1.21.58 1.74.1.16.1.72.02.96-.72 2.1-.49 4.46-1.47 6.52-.48 1.01-.72 2.37-1.79 2.91-.14.06-.34.46-.47.72-.21.45-.33.96-.67 1.3-.44.49-.97.94-1.52 1.31-.52.41-1.03.78-1.44 1.18-.48.54-1.05.94-1.65 1.27-.58.37-1.2.62-1.82.9-.7.35-1.53.3-2.28.48-.7.2-1.43.35-2.15.53-1.03.23-2.02.44-3 .46-1 0-1.68.77-2.83.5-.88-.21-1.74.53-2.67.74-.46.1-.96.11-1.43.11-.36 0-.73-.18-1.05-.12-.74.12-1.48.08-2.25.45-.53.25-1.55.01-2.36.06-.8.04-1.6.17-2.4.26-.8.09-1.68.06-2.38.29-3.12.99-6.42.82-9.64 1.2-.83.09-1.77.39-2.53-.09-.14-.09-.61-.05-.85.03-3 1.04-6.25.6-9.34 1.04-2.21.31-4.37.75-6.64.83-2.2.07-4.48.03-6.59.42-1.73.32-3.44.61-5.16.56-1.68-.05-3.23 1.15-4.92.3-1.7.08-3.41.19-5.11.22-1.43.03-2.89.34-4.31-.14-.52-.17-1.5-.11-2.05.09-1.76.66-3.5.58-5.32.36-.43-.05-.96.24-1.45.27-1.5.09-3.01.19-4.51.17-4.47-.07-8.83.76-13.27.89-.82.03-1.71.5-2.43.4-4.43-.57-8.92.32-13.3.02-6.46-.44-12.88.19-19.32.19-.84 0-1.73-.44-2.12-.3-1.22.45-2.64.12-3.66.46-1.84.61-3.68.27-5.5.44-1.32.13-2.76-.22-3.97.44-.18.1-.63.09-.88.02-1.96-.56-3.88.36-5.83.12-3.66.79-7.45.35-11.17.57-.55.03-1.08.2-1.62.29-.27.05-.6.15-.83.1-3.39-.72-6.87-.07-10.29-.24-1.13-.06-2.24-.26-3.37-.32-1.14-.07-2.31.14-3.39-.33-.33-.15-.99-.06-1.48 0-2.62.34-4.59-.66-4.64-2.28-.02-.59.52-.63 1.09-.85 1.09-.43 2.17-.71 3.49-.68 1.03.02 2.16.2 3.07-.38.15-.1.62-.08.87-.01 1.77.48 3.76.06 5.43.38 1.29.25 2.48.16 3.7.25 1.03.08 2.09-.24 3.13.26.35.17 1.36-.29 2.08-.32 1.7-.07 3.41-.13 5.11-.08 5.16.15 10.22-.77 15.37-.66 3.66-.8 7.49-.21 11.15-.65 4.42-.54 8.86-.39 13.26-.7.91-.06 1.64-.07 2.44.1.53.11 1.09.22 1.63.21 2.1-.03 4.21-.15 6.31-.14 1.12 0 2.37-.4 3.39.25.14.09.65.06.87-.03 1.82-.74 3.84-.39 5.76-.54.73-.06 1.44-.05 2.25.17.87.24 2.23.17 3.13-.11.68-.21 1.28-.23 1.93-.31 2.7-.31 5.54.26 8.16-.66 1.42.67 3.14.37 4.54.14 5.39-.85 10.85-.63 16.26-1.01 1.31-.09 2.64.16 3.97.16 1.4 0 2.8-.1 4.2-.21.75-.06 1.63.13 2.18-.43a.39.39 0 0 1 .25-.07c.8.04 1.62.2 2.4.12.7-.07 1.32-.47 2.03-.6.84-.16 1.73-.22 2.6-.28.84-.06 1.74-.23 2.45.2.62-.62 1.61-.38 2.45-.49.79-.1 1.59-.12 2.39-.17l2.69-.18c.9-.06 1.81-.08 2.69-.19 1.22-.16 2.4-.46 3.62-.6a62.7 62.7 0 0 1 3.88-.3c1.62-.06 3.24-.02 4.86-.05.67-.01 1.23-.21 1.86-.47.84-.35 1.88-1.04 3.07-.35.24.14 1.02.03 1.44-.11 3.35-1.18 6.96-.9 10.4-1.51 2 .42 3.76-.3 5.7-.74 1.42-.34 2.88-.65 4.35-.88 1.46-.23 2.59-.49 3.85-.74 2.6-.58 4.62-2.27 6.22-4.13.45-.55.67-1.28 1.41-1.57.19-.06.41-.57.43-.89.28-2.13.76-3.96 1.05-6.18.1-.58-.03-1.2-.14-1.83-.19-.62-.4-1.24-.68-1.83-.78-1.77-1.43-3.78-2.55-5.56.13-1.15-.93-1.33-1.4-1.53-.64-.28-1.1-.64-1.55-1.2-.58-.72-1.2-1.43-2.13-1.79-.51-.15-1.24-.89-1.47-1.41-.34-.67-.64-.72-1.26-.94-.71-.28-1-1.2-1.81-1.72-.84-.58-2.07-.83-2.49-1.92-.04-.1-.32-.25-.48-.26-2.01-.26-3.29-2-5.22-2.43-2.54-1.44-5.38-2.31-8.26-2.99-2.97-.68-6.01-1.26-8.96-2.11-2.43-.7-4.8-1.78-7.29-2.08-5.25-.58-10.25-2.39-15.35-3.7-1.08-.29-2.41-.36-3.18-1.3-.11-.13-.6-.26-.84-.25-1.78.08-3.3-.6-4.76-1.54-.35-.23-1.08-.48-1.37-.41-.82.2-1.53-.25-2.24-.51-.85-.34-1.83-1.18-2.43-1.16-1.28.04-1.68-.73-2.45-1.18-.48-.27-1.09-.4-1.64-.56-.26-.08-.66-.03-.78-.14-1.37-1.33-3.36-1.31-4.82-2.42-.31-.23-.68-.42-.97-.66-3.28-2.8-3.26-2.75-7.84-5.48-.67-1.53-2.79-1.55-3.62-3.05-.31-.54-1.19-1.16-1.86-1.51-3.03-1.62-5.02-4.84-6.46-8.01-.32-.68 0-1.36-.66-2.13-.29-.3-.06-1.58-.2-2.34-.19-1.13.02-2.31-.49-3.43-.24-.47.01-1.48.04-2.23.04-1.04.42-2 .2-3.1-.11-.6.18-1.89.6-2.43 1.59-2.21 1.79-4.67 2.53-6.9.22-.67.37-1.16.83-1.76.66-.84 1.55-1.95 1.76-2.78.36-1.49 1.31-2.58 2.17-3.74 1.46-2.03 3.29-3.82 5.17-5.5 2.14-1.93 4.74-3.31 7.18-4.91 1.3-.93 3.15-1.83 4.94-1.69.2.02.7-.57 1.12-.71 3.32-1.09 6.68-1.88 10.04-2.42.78-.13 1.74.44 2.36-.26.66-.73 1.66.36 2.18-.46.08-.12.78-.21 1.15-.19 4.03.26 7.98-.75 11.97-.8.95-.01 2.02-.39 2.81.2 2.38-.81 5.11.49 7.42-.67 1.73.12 3.57-.48 5.24.25.27.12.86-.07 1.17.04 1.05.35 1.7-.77 2.98-.18.73.34 2.11.14 3.19.16l3.02.05 3.33.06c1.11.03 2.22.11 3.32.08 2.24-.05 4.44-.4 6.71-.14.24.03.67-.04.77-.15.81-.92 1.93-.33 2.68-.02.63.27 1.18.4 1.88.43 1.91.08 3.83.17 5.73.34 1.13.1 2.35-.12 3.39.55.32.21 1.23.23 1.75.13 2.43-.48 4.88.1 7.31.18 1.1.04 2.21.16 3.31.27.84.08 1.71-.26 2.51.2 4.14-.43 8.27.47 12.4.78 4.11.32 8.2.79 12.3 1.28 1.02.12 2.2-.06 3.04.69.16.14.9.22 1.13.12.64-.28 1.11-.41 1.72.13.11.1.69.06 1 0 .87-.16 1.61-.04 2.45.3.65.26 1.55.48 2.23.43 1.82-.15 3.54-.25 5.23.64.21.11.86-.25 1.26-.17"/><path class="cls-2" d="M484.87 203.2c-6.71-.91-13.43-1.75-20.15-2.53-.86-.09-1.68-.26-2.64.01-.75.21-2.31.05-2.97-.32-1.06-.59-2.12-.52-3.18-.66-1.96-.25-3.94-.36-5.89-.61-1.16-.15-2.49.05-3.45-.69-.09-.07-.46-.11-.6-.06-1.35.5-2.56-.11-3.85-.31-.94-.14-1.88-.21-2.94.02-1.03.22-2.7.13-3.6-.27-1.21-.51-2.36-.44-3.52-.53-3.42-.25-6.84-.49-10.27-.62l-5.14-.22-5.14-.09c-3.25-.09-6.44.54-9.7.33-.78-.05-1.62.19-2.33-.24-.15-.09-.77 0-1.01.12-.88.44-1.76.32-2.77.34-2.28.03-4.57.06-6.84.26-2.27.16-4.54.37-6.71.91-3.4.69-6.71 1.26-9.97 2.13-1.05.36-2.22.4-3.34.68-1.09.24-2.13.67-3.14 1.14-.6.27-1.27.44-1.71 1.04-.24.33-1.07.79-1.48.83-1.41.11-2.55.97-3.73 1.65-1.68.97-3.31 2.03-4.83 3.19-1.5 1.16-2.97 2.44-3.96 3.86-.51.78-.49 1.33-1 2.02-.07.13.19.45.34.8.15.35.43.75.42 1.04 0 2.6 1.25 5.07 2.77 6.88 1.89 2.22 4.94 3.27 7.9 4.26 2.99.96 6.06 1.91 9.05 2.96 1.68.58 3.31.64 4.93 1.21 1.57.56 3.17 1.07 4.73 1.65 1.11.41 2.37.6 3.21 1.5.23.25 1.04.53 1.42.51 1.43-.09 2.69.68 4.02 1.08 1.62.49 3.14 1.42 4.9 1.45.48 0 1.18.61 1.81.88 1.09.47 2.21.9 3.32 1.3.54.19 1.13.2 1.67.39 4.16 1.45 8.3 2.93 12.4 4.56 4.18 1.64 8.29 3.46 12.41 5.25 4.12 1.8 8.23 3.62 12.27 5.57 1.52.73 3.35 1.13 4.43 2.5 1.6.26 2.72 1.08 3.69 2.16.14.15.68.17 1.03.28 1.11.33 2.42.11 3.17 1.43.03.05.19.09.27.14.88.58 1.92.12 2.86 1.2.59.67 1.84 1.17 2.81 1.7 1.01.56 2.01 1.11 3.06 1.59 1.14.55 2.05 1.59 3.35 1.76.21.04.69.91 1.11 1.23 2.25 1.6 3.81 3.95 6.12 5.48.54.35 1.15 1.12 1.42 1.74 1 2.2 2.44 3.84 3.79 5.9 1.75 2.68 3.12 6.11 2.81 9.42-.04.69-.19 1 .16 1.66.25.44.2 1.24.19 1.89 0 3.63-1.33 7.27-3.46 10.2-2.17 2.93-5.08 5.1-8.12 6.79-.85.43-1.72.74-2.6 1-.89.24-1.76.51-2.6.98-.71.35-1.68.35-2.13 1.06-.06.1-.36.24-.51.26-2.35.11-4.32 1.53-6.59 1.69-.48.04-.96.02-1.44.06-.49.03-1.08 0-1.46.17-3.24 1.48-6.83 1.41-10.22 2.12-1.16.24-2.48.11-3.43.89-.14.12-.66.19-.9.14-2.1-.42-4.22.39-6.32.48-1.08.04-2.22.6-3.25.11-.13-.06-.55.06-.81.13-.45.14-.87.4-1.32.44-1.24.13-2.62-.04-3.68.3-1.31.43-2.59.47-3.88.63-.74.09-1.51-.1-2.27-.08-.72.02-1.45.15-2.17.24-1.04.12-2.1.35-3.1.33-1.03-.03-1.77.71-2.94.4-.9-.24-1.82.47-2.78.65-.48.09-1 .08-1.48.06-.37 0-.75-.18-1.09-.13-.77.12-1.53.08-2.33.44-.55.25-1.61 0-2.44.05-.83.04-1.66.16-2.49.25-.83.09-1.74.06-2.47.28-3.23.99-6.65.96-9.98 1.38-.85.11-1.83.42-2.62-.05-.14-.08-.63-.04-.88.04-3.1 1.08-6.47.79-9.66 1.32-2.28.38-4.51.9-6.86 1.06-2.28.14-4.65.21-6.82.68-1.79.39-3.55.75-5.33.77-1.74.02-3.31 1.28-5.09.51-1.76.16-3.53.36-5.29.47-1.49.1-2.98.47-4.47.06-.54-.15-1.56-.05-2.12.18-1.8.74-3.61.73-5.51.61-.45-.03-.98.29-1.5.35-1.55.17-3.11.35-4.67.41-4.64.17-9.12 1.18-13.72 1.58-.85.07-1.75.59-2.5.54-4.62-.31-9.23.81-13.79.76-6.72-.06-13.35.93-20.02 1.32-.87.05-1.82-.34-2.21-.17-1.24.52-2.73.28-3.77.68-1.87.72-3.8.49-5.67.78-1.37.21-2.88-.05-4.09.69-.18.11-.65.13-.91.07-2.07-.44-4 .6-6.03.48-3.75 1.03-7.7.83-11.55 1.28-.57.07-1.1.27-1.66.4-.28.07-.61.19-.85.15-3.55-.5-7.13.37-10.68.43-1.17.02-2.34-.11-3.51-.1-1.19.01-2.39.29-3.53-.11-.36-.12-1.03 0-1.53.1-2.7.52-4.8-.35-4.95-1.96-.06-.58.5-.66 1.07-.92 1.1-.5 2.2-.86 3.58-.92 1.07-.05 2.25.05 3.16-.58.15-.11.64-.12.91-.07 1.87.37 3.9-.19 5.66.02 1.35.16 2.58 0 3.85.02 1.08.01 2.16-.37 3.27.06.37.14 1.39-.38 2.14-.46 1.76-.18 3.53-.35 5.29-.41 5.36-.17 10.56-1.42 15.91-1.63 3.75-1.02 7.76-.68 11.53-1.34 4.56-.8 9.17-.93 13.72-1.49.94-.12 1.69-.16 2.54-.05.55.08 1.14.16 1.71.12 2.18-.15 4.36-.39 6.54-.51 1.17-.06 2.44-.54 3.53.06.15.08.68.03.9-.07 1.85-.83 3.96-.59 5.95-.85.76-.1 1.49-.13 2.34.04.92.19 2.32.04 3.24-.28.69-.25 1.32-.3 1.99-.42 2.79-.47 5.77-.02 8.44-1.08 1.51.6 3.28.2 4.72-.1 5.56-1.16 11.24-1.17 16.84-1.79 1.35-.15 2.75.03 4.13-.03 1.45-.07 2.91-.23 4.35-.4.77-.09 1.69.07 2.25-.52.04-.04.18-.08.26-.08.83.01 1.69.13 2.49.02.72-.1 1.36-.52 2.09-.68.87-.19 1.79-.29 2.7-.38.87-.09 1.8-.3 2.55.1.63-.65 1.67-.44 2.53-.57.82-.12 1.65-.17 2.48-.25l2.8-.27c.93-.09 1.88-.14 2.79-.28 1.26-.2 2.49-.54 3.75-.72 1.33-.19 2.69-.33 4.03-.4 1.69-.09 3.37-.07 5.06-.14.7-.03 1.28-.24 1.93-.51.87-.37 1.95-1.09 3.19-.42.25.13 1.06 0 1.5-.15 3.5-1.19 7.28-.9 10.88-1.51 2.07.39 3.96-.21 6.01-.62 3.02-.6 6.23-1.06 9.25-1.05 3.21.03 6.27-.6 9.39-.86.88-.07 1.79-.42 2.61.02.19.1.84-.02 1.19-.15 2.44-.91 4.93-1.01 7.53-1.06 1.38-.02 2.86-.48 4.32-.92 2.18-.68 4.68-.75 6.99-1.21 1.12.46 1.77-.37 2.22-.76.6-.52 1.22-.71 2.02-.88 1.03-.22 2.08-.31 3-.94.46-.34 1.56-.61 2.17-.53.8.09 1.05-.09 1.62-.51.67-.49 1.65-.17 2.6-.53.97-.44 1.97-1.21 3.11-.97.1.02.38-.14.49-.25.71-.76 1.6-1.11 2.45-1.53.9-.36 1.75-.79 2.38-1.49 2.41-1.42 4.27-3.61 5.14-6.13.93-2.51.99-5.25.6-8.03-.29-2.27-.67-4.81-2.05-6.84-2.86-4.17-5.78-8.49-9.74-11.74-.85-.68-1.98-1.16-2.38-2.26-.06-.15-.47-.41-.69-.46-.86-.19-1.48-.41-2.24-.84-.74-.41-1.42-.94-2.08-1.52-.32-.28-1.02-.63-1.32-.6-.85.08-1.5-.47-2.17-.83-.81-.45-1.73-1.35-2.33-1.39-1.29-.08-1.62-.88-2.39-1.36-.47-.3-1.08-.45-1.63-.64-.26-.09-.66-.06-.78-.17-1.38-1.32-3.36-1.33-4.88-2.32-.33-.21-.7-.38-1.01-.6-3.52-2.51-3.54-2.49-8.58-4.38-1-1.35-3.09-.94-4.29-2.17-.44-.45-1.49-.86-2.22-1-3.24-.58-6.02-2.44-9.09-3.46-.64-.22-.9-.93-1.87-.84-.36.03-1.2-.84-1.88-1.11-1-.38-1.93-1.07-3.11-.97-.48.04-1.3-.48-1.98-.7-.93-.3-1.75-.86-2.83-.8-.59.03-1.75-.41-2.24-.83-2.03-1.75-4.48-1.83-6.78-2.36-.69-.16-1.18-.26-1.82-.64-.9-.54-2.11-1.25-2.95-1.28-1.49-.05-2.7-.71-4-1.14-2.26-.75-4.48-1.65-6.75-2.36-2.59-.83-5.07-1.91-7.82-2.36-1.48-.23-3.39-.64-4.69-1.81-.14-.13-.88.06-1.3-.06-1.62-.5-3.32-1-5.03-1.62-1.71-.62-3.53-1.32-5.36-2.56-.86-.58-1.26-1.84-2.31-2.14-1.22-.37-.86-2.01-1.88-2.28-.18-.05-.59-.85-.71-1.28-.69-2.36-1.22-4.43-1.8-6.48-.22-.72-.39-1.73-.27-2.6.05-.45.16-.89.3-1.32.06-.21.16-.44.26-.67.09-.2.17-.37.26-.53.71-1.32 1.54-2.26 2.41-3.07.83-.77 1.58-1.81 2.63-1.84 1.71-2.25 4.91-2.6 6.53-4.79 1.7-.75 3.22-2.19 5.16-2.27.31-.01.82-.44 1.17-.47 1.17-.09 1.42-1.47 2.96-1.33.87.08 2.23-.55 3.37-.88 1.05-.34 2.1-.58 3.16-.79l3.48-.73c1.16-.27 2.34-.31 3.48-.55 2.32-.45 4.58-1.21 6.99-1.18.26 0 .7-.12.78-.25.73-1.03 1.98-.59 2.81-.38.7.17 1.28.26 2.02.23 2-.09 4.01-.21 6.01-.23 1.19-.02 2.44-.3 3.58.29.35.19 1.3.14 1.83 0 2.5-.67 5.1-.27 7.64-.29 1.15-.02 2.31.03 3.46.07.88.03 1.77-.36 2.63.08 4.29-.58 8.65.1 12.95.32 4.29.16 8.57.58 12.84.97 1.07.1 2.29-.11 3.18.63.17.14.94.21 1.18.1.66-.29 1.14-.42 1.8.11.12.1.72.06 1.04 0 .9-.17 1.67-.06 2.56.26.69.25 1.63.46 2.33.39 1.89-.16 3.67-.27 5.45.61.22.11.9-.25 1.3-.18 1.58.27 3.25.08 4.78.8.62.29 1.6.25 2.4.4 1.38.27 2.74.08 4.17.46 1.45.38 3.09.42 4.64.63l4.66.62 1.53.21"/><g id="SUKSET"><path d="M344.97 291.72c-.07.03-.14.03-.21-.02l-.09-.21v-.02c0-.07-.02-.16-.03-.22a.772.772 0 0 0-.24-.41c-.1-.1-.24-.16-.41-.17.09.14.19.26.28.4.16.21.28.43.4.55-.02.1-.07.17-.14.26-.26.31-.88.59-1.95.99-3.7 1.42-7.57 2.3-10.62 3.27-3.89 1.11-7.06 2.02-10.22 2.92-.48.14-1 .45-1.63.62-2.47.67-4.98 1.52-7.42 2.01-2.65.52-5.27 1.21-7.73 2.01-2.33.74-4.69 1.33-7 1.99-.8.22-1.56.45-2.46.52-.66.03-1.82.33-2.61.76-.14.09-.52.14-.78.17-.29.05-.64.05-.83.14-2.23.93-4.69 1.3-7 1.97-.59.17-1.24.24-1.69.59-.1.09-.67.24-.86.24-.48-.03-.93.05-1.5.21l-7.23 1.82c-1.12.57-2.49.78-3.75 1.09-.95.22-1.92.36-2.89.54-.97.17-1.95.61-2.94.57-.16 0-.5.17-.76.24-1.21.29-2.44.69-3.6.86-.59.09-1.18.19-1.76.33-7.5 1.76-15.01 3.48-22.55 5.14-.64.14-1.28.24-1.94.57-.52.24-1.71.5-2.27.48-.88-.03-1.66.22-2.47.38l-4.48.93c-.88.17-1.83.52-2.68.38-.07 0-.36.05-.45.1-.92.48-1.92.43-2.92.61-.73.12-1.44.26-2.2.55-.73.29-1.99.57-2.73.55-.97 0-1.83.24-2.71.4l-15.63 2.9c-2.46.43-4.86 1.11-7.37 1.44-.61.07-1.23.28-1.8.16-.12-.02-.59.09-.78.17-.64.29-1.33.33-2.11.45-3.49.5-7.06.93-10.46 1.59-2.65.54-5.29.81-7.92 1.19-.88.12-1.8.1-2.7.17-.86.09-1.75.21-2.63.33-.52.05-1.05.05-1.54.28-.28.12-1.02.24-1.33.19-1.05-.12-2.14.1-3.2.19-3.04.29-6.09.59-9.13.81-.74.07-1.57.24-2.27.03-.09-.03-.52.09-.8.12-.28.05-.64.16-.86.12-1.99-.17-4.05.09-6.07.19-4.91.17-9.8.33-14.72.17-1.37-.05-2.58.12-3.91.07l-3.86-.26c-.92-.07-1.88-.07-2.7-.4-.22-.1-.88-.16-1.16-.12-1.04.17-2.14-.14-3.2-.24-1.31-.09-2.61-.54-3.93-.48-.36.02-1-.24-1.5-.38-.9-.24-1.8-.45-2.7-.66-.43-.1-.88-.14-1.31-.26-3.3-.88-6.61-2.02-9.58-3.91-.73-.5-1.57-1.19-2.35-1.8l-.61-.47-.47-.5-.93-1c-.62-.64-1.23-1.45-1.83-2.2l-.45-.57-.22-.28c-.09-.1 0-.05 0-.1.03-.1.03-.26.05-.42l2.99.92c1.37.35 2.84.81 4.1 1.05 1.49.29 2.09.41 2.97.55 1.69.28 3.37.55 5.08.76 1.26.17 2.66.1 3.82.55 1.19-.1 2.21.14 3.25.43.14.03.52-.05.8-.07.88-.03 1.71-.35 2.66.09.03.02.16.02.22.02.8.12 1.37-.29 2.37-.03.64.17 1.66.12 2.51.16.88.03 1.76.05 2.65 0 .9-.05 1.88.12 2.71-.19.14-.03.8.16 1.19.14 2.01-.1 4.08.02 6.05-.41.43-.1 1.16-.12 1.64-.09 1.75.14 3.35-.14 5.14-.38 2.32-.29 4.81-.66 7.12-.55.5.02.73.05 1.19-.14.31-.12.88-.17 1.33-.22 5.08-.71 10.15-1.47 15.16-2.47 1.38-.26 2.71-.21 4.1-.59.57-.16 1.28-.16 1.71-.48.05-.05.29-.12.41-.12 1.73-.07 3.34-.8 5.03-1.02.36-.05.73-.09 1.07-.12.38-.05.81-.07 1.12-.17 2.51-.85 5.2-1.14 7.8-1.76.88-.21 1.88-.24 2.61-.69.12-.07.5-.16.69-.14 1.59.03 3.2-.57 4.79-.81.83-.12 1.69-.48 2.47-.35.1.02.41-.09.62-.16.35-.1.66-.26 1-.33.93-.17 1.99-.22 2.8-.48.99-.33 1.97-.47 2.94-.67.57-.12 1.14-.1 1.73-.19.54-.09 1.11-.22 1.64-.35.8-.16 1.61-.36 2.35-.45.8-.1 1.35-.52 2.25-.5.67.03 1.38-.4 2.11-.57.35-.1.74-.14 1.12-.19.28-.03.57 0 .83-.05.57-.14 1.16-.21 1.76-.45.42-.17 1.23-.17 1.85-.29.64-.1 1.26-.24 1.88-.38.64-.12 1.33-.21 1.88-.38 2.44-.81 5.05-1.16 7.57-1.71.64-.14 1.37-.4 1.99-.26.1.02.48-.05.67-.12 2.32-.83 4.89-1.07 7.31-1.66 1.73-.43 3.41-.92 5.2-1.24 1.73-.33 3.53-.62 5.15-1.07 1.35-.38 2.7-.76 4.05-.97 1.31-.19 2.49-.95 3.86-.8l4.01-.81c1.12-.21 2.25-.55 3.39-.54.43 0 1.19-.16 1.63-.33 1.35-.55 2.71-.74 4.17-.9.35-.05.74-.26 1.12-.35 1.18-.24 2.35-.52 3.54-.71 3.51-.61 6.9-1.61 10.38-2.32.64-.14 1.31-.48 1.88-.54 3.53-.38 7-1.44 10.46-1.95 5.12-.76 10.12-1.99 15.18-2.96.66-.12 1.38-.05 1.68-.17.93-.38 2.07-.45 2.85-.76 1.4-.55 2.87-.67 4.29-1.02 1.02-.26 2.18-.31 3.08-.81.14-.07.48-.12.69-.14 1.59-.03 3.03-.74 4.56-.93 2.82-.92 5.83-1.3 8.73-1.97.43-.09.83-.24 1.24-.38.21-.05.47-.16.64-.17 2.73-.19 5.41-1.02 8.11-1.47l1.42-.21c.78-.14 1.56-.26 2.33-.4l.05.1c.31.78.62 1.54.93 2.3.19.47.31.86.38 1.31.03.28.28.74.45 1.09.93 1.88 1.11 3.51.43 3.82zM255.5 339.5a.156.156 0 0 1-.17-.07l-.02-.02s-.07-.1-.1-.19a.46.46 0 0 0 0-.26c-.03-.24-.12-.41-.26-.52.02.09.05.19.09.28.07.19.12.36.17.5 0 .14-.05.26-.17.36-.28.28-.86.48-1.92.76-3.63 1-7.38 1.47-10.36 2.09-3.77.69-6.85 1.24-9.93 1.82-.48.09-.99.33-1.59.43-2.42.41-4.88.99-7.21 1.21-2.58.24-5.12.64-7.52 1.16-2.28.5-4.55.85-6.81 1.24-.76.14-1.5.29-2.37.24-.62-.02-1.75.14-2.52.5-.16.07-.52.07-.76.09-.28.03-.61-.02-.81.05-2.18.69-4.55.8-6.81 1.23-.55.1-1.19.1-1.64.4-.1.09-.66.17-.83.16-.47-.09-.92-.03-1.45.03l-7.02 1.05c-1.11.47-2.42.52-3.63.71-.93.12-1.87.16-2.78.22-.95.07-1.92.41-2.84.28-.16-.02-.5.1-.76.14-1.16.19-2.35.45-3.48.5-.57.03-1.14.07-1.69.14-7.26.99-14.53 1.94-21.8 2.82-.64.07-1.25.1-1.9.36-.5.19-1.64.33-2.18.26-.83-.12-1.59.05-2.37.12l-4.32.48c-.86.09-1.8.33-2.58.12-.07-.03-.35 0-.43.03-.92.4-1.87.26-2.82.33-.69.03-1.38.1-2.13.33-.73.22-1.95.36-2.65.29-.92-.1-1.75.03-2.59.1l-15.06 1.37c-2.37.19-4.7.64-7.11.71-.57.02-1.19.17-1.71 0-.12-.03-.57.02-.74.09-.66.22-1.31.21-2.04.24-3.35.17-6.78.26-10.05.61-2.56.24-5.08.33-7.61.45-.85.03-1.71-.07-2.58-.07s-1.68.03-2.51.07c-.5.02-1-.03-1.5.14-.26.1-.97.14-1.26.07-.99-.21-2.04-.12-3.04-.1-2.9.03-5.81.05-8.71.02-.71-.02-1.5.09-2.14-.17-.09-.03-.5.03-.76.05-.28.02-.62.1-.83.05-1.88-.38-3.86-.24-5.78-.33-4.65-.22-9.32-.5-13.95-1.04-1.3-.16-2.46-.03-3.7-.22-1.23-.19-2.44-.31-3.65-.54-.85-.16-1.78-.19-2.52-.59-.21-.1-.83-.21-1.09-.19-1 .05-2.02-.29-3.03-.45-1.21-.26-2.42-.71-3.68-.76-.33-.02-.92-.33-1.4-.48-.83-.26-1.68-.52-2.51-.81-.4-.14-.81-.19-1.23-.31-.78-.24-1.52-.57-2.28-.86-.78-.29-1.52-.62-2.27-1-.74-.35-1.49-.71-2.18-1.16-.33-.21-1-.59-1.42-.9-.5-.33-.86-.69-1.3-1.04l-1-.86-.5-.41-.38-.43c-.5-.59-.99-1.12-1.49-1.76L0 346.69c.16-.05.29-.17.22-.55l1.99.74 1.8.64c.69.22 1.47.52 2.09.71l1.71.45 1.69.43.43.12.29.05.61.14c1.57.35 3.18.66 4.79.93 1.19.22 2.52.22 3.6.71 1.16-.07 2.11.21 3.06.57.14.03.5-.03.78-.03.83 0 1.64-.29 2.51.19.03.02.16.02.22.02.76.12 1.31-.19 2.25.1.59.19 1.57.17 2.39.24.83.07 1.66.14 2.49.16.86.02 1.78.21 2.59-.07.14-.03.76.17 1.14.17 1.9-.02 3.87.31 5.76-.09.41-.09 1.11-.07 1.56-.02 1.66.22 3.22.14 4.89-.05 2.23-.22 4.6-.4 6.81-.12.47.05.67.09 1.14-.07.29-.12.83-.14 1.28-.17 2.42-.21 4.84-.38 7.28-.62l7.25-.83c1.33-.14 2.59-.03 3.93-.35.54-.14 1.21-.09 1.64-.4.05-.03.29-.09.4-.09 1.66.03 3.2-.59 4.82-.73.35-.02.67-.03 1.02-.03.36-.03.78-.03 1.07-.12 2.42-.71 5.01-.85 7.49-1.33.85-.16 1.82-.16 2.52-.55.1-.07.48-.1.66-.09 1.52.14 3.08-.35 4.62-.47.78-.07 1.63-.38 2.37-.19.09.03.4-.05.59-.09.33-.09.66-.22.99-.26.9-.12 1.9-.09 2.68-.29.97-.26 1.9-.31 2.84-.45.55-.07 1.11 0 1.66-.05.52-.03 1.05-.12 1.59-.19.76-.09 1.54-.24 2.27-.26.74-.03 1.31-.41 2.16-.31.64.07 1.33-.29 2.04-.41.35-.05.73-.07 1.07-.09.28 0 .55.07.8.03.57-.09 1.12-.1 1.71-.29.41-.14 1.18-.07 1.78-.12.61-.05 1.21-.14 1.82-.21.61-.07 1.28-.09 1.82-.21 2.39-.59 4.88-.69 7.31-1 .62-.07 1.33-.26 1.9-.07.1.03.47 0 .66-.03 2.28-.62 4.72-.59 7.07-.95 1.68-.26 3.32-.57 5.03-.71 1.68-.14 3.41-.24 5-.54 1.31-.22 2.61-.45 3.91-.52 1.28-.07 2.44-.71 3.74-.4l3.87-.36c1.09-.1 2.18-.31 3.27-.17.4.05 1.14-.02 1.56-.14 1.33-.4 2.65-.45 4.03-.45.33 0 .73-.17 1.11-.21 1.14-.12 2.28-.24 3.42-.31 3.39-.21 6.67-.81 10.05-1.12.62-.05 1.3-.31 1.85-.31 3.37.03 6.76-.61 10.08-.71 4.93-.14 9.79-.76 14.68-1.11.62-.03 1.31.12 1.61.03.92-.28 2.01-.19 2.77-.4 1.38-.38 2.78-.33 4.17-.5 1-.12 2.09-.03 3.01-.42.12-.05.47-.07.66-.05 1.5.16 2.94-.36 4.43-.35 2.77-.57 5.65-.55 8.47-.85.41-.05.81-.16 1.23-.22.21-.03.45-.1.62-.09 2.59.16 5.22-.31 7.82-.41l1.99-.05 1.14-.03.28-.02c.09.02.24-.07.21.09l.03.59c.09.78.16 1.57.22 2.35.03.52.05.88-.02 1.31-.05.26.03.76.1 1.12.35 1.97.02 3.49-.73 3.6zM36.8 145.05c.97.67 1.48 1.91 2.49 2.75 1.01.85 1.92 1.8 2.85 2.74.47.47.98.85 1.55 1.18.55.32.84 1.07 1.56 1.16.06 0 .13.12.2.18 1.15 1.1 2.45 2.1 3.41 3.33 1.11 1.44 2.52 2.53 3.73 3.84 2.44 1.64 4.31 3.93 6.48 5.89.68.61 1.41 1.17 1.87 2.04.4.74 1.43 1.07 1.71 1.99.02.07.21.11.32.18.25.17.56.3.73.52q1.03 1.34 2.2 2.13c.14.09.15.38.29.51.54.55 1.08 1.1 1.67 1.6.53.45.88 1.14 1.66 1.28.17.03.33.29.5.45.53.5 1.04 1.02 1.59 1.5.63.54 1.11 1.27 1.95 1.56.37.13.45.79.66.87.4.14.7.36.95.65.25.28.4.66.67.92.23.23.61.3.85.52.62.54 1.13 1.27 1.81 1.64.73.4 1.25.96 1.84 1.48.61.54 1.17 1.15 1.8 1.67.49.41.78.93 1.14 1.41.36.48 1.06.72 1.15 1.41 0 .03.06.06.1.09.85.9 1.66 1.84 2.55 2.7l4.66 4.4c.44.42 1 .74 1.17 1.39.03.14.3.23.38.38.29.55 1.1.37 1.3.99.18.55.68.8 1.04 1.18.41.43.87.8 1.29 1.22.29.29.6.5.98.58.05.61.7.84.96 1.34.17.33.47.79.76.86.63.16.93.65 1.37 1 .64.53 1.16 1.2 1.97 1.54.34.14.63.52.9.82.25.28.41.65.67.92.49.5 1.01.95 1.66 1.26.57.27.85 1.05 1.59 1.13.1.01.23.16.3.27.36.58.72 1.06 1.42 1.37.57.25 1.01.89 1.51 1.35.53.49 1.14.94 1.57 1.5.28.36.84.09.98.72.08.34.56.65.88.96.32.32.73.58.99.94 1.35 1.88 3.31 3.16 4.87 4.81.66.7 1.65 1.13 1.97 2.12.76.18 1.15.99 1.8 1.24.41.16.67.42.95.67l5.54 5.06c1.23 1.09 2.54 2.1 3.78 3.18.35.3.71.57.92 1.09.15.38.64.84 1.21.95.11.02.29.12.31.2.32 1.04 1.39 1.24 2.08 1.84 1.36 1.18 2.42 2.62 3.77 3.8.29.25.51.67.97.6 0 .43.27.47.63.6.37.14.84.55.96.9.17.48.53.69.83 1 .32.32.68.6 1 .92l4.1 4.04c.27.27.44.62.68.92.24.3.66.44.71.92.02.18.36.37.56.55.71.64 1.34 1.48 2.14 1.87.8.38 1.26 1.22 2.15 1.41.25.05.46.42.71.61 1.02.77 1.75 1.94 3.01 2.4.13.54.58.86.98 1.19.29.24.5.67.97.61.06 0 .16.08.21.15.29.37.44.81.87 1.11.35.25.76.32 1.11.64 1.25 1.15 2.22 2.56 3.6 3.58.16.52.59.84.98 1.19.68.63 1.57.95 2.22 1.65.62.66 1.27 1.37 2.03 1.8 1.32.74 2.27 1.87 3.4 2.79.29.24.69.43.72.91 0 .11.34.36.49.36.32 0 .44.29.67.38.64.27.55 1.35 1.46 1.31l1.63 1.45 1.63 1.46c.25.23.54.4.65.8.07.27.47.66.74.72.63.12.97.6 1.39.97 1.27 1.1 2.54 2.21 3.77 3.35.54.5 1 1.09 1.5 1.63.51.55 1.24.89 1.58 1.6.02.05.09.09.14.13.25.16.55.28.75.48.27.27.45.81.69.86.48.1.51.48.74.72.64.68.65 1.53.06 2.04a.94.94 0 0 1-.52.19c-1.18.07-1.16.03-2.19-.82-1.31-1.09-2.24-2.55-3.63-3.55-.55-1.06-1.62-1.63-2.41-2.46-.83-.86-1.5-1.93-2.53-2.51-1.03-.58-1.85-1.38-2.7-2.15-.65-.59-1.19-1.29-1.81-1.9-.65-.63-1.42-1.17-2.01-1.84-.37-.42-.62-1.01-1.11-1.24-1.09-.49-1.76-1.51-2.72-2.11-1.33-.84-2.39-2.02-3.64-2.92-.68-.49-1.36-.96-1.97-1.52-.28-.26-.56-.49-.75-.89-.2-.41-.65-.82-1.19-.98-.23-.07-.54-.25-.62-.44-.33-.78-1.03-1.21-1.62-1.72-.37-.33-.56-.95-.88-1.04-.53-.16-.8-.54-1.17-.84-.26-.21-.62-.38-.63-.81 0-.11-.23-.35-.35-.36-.68-.08-1.03-.66-1.49-1.05-1.1-.95-2.18-1.93-3.24-2.92-.88-.82-2.03-1.28-2.81-2.21-.82-.2-1.31-.88-1.88-1.41-.44-.41-.79-.91-1.18-1.37s-.87-.8-1.22-1.36c-.43-.69-1.25-1.17-1.86-1.78-.33-.33-.87-.52-.93-1.08 0-.08-.17-.22-.27-.23-.73-.12-1.23-.72-1.53-1.21-.49-.79-1.21-1.28-1.83-1.91-.51-.51-1.09-.97-1.6-1.48-.37-.37-.8-.65-1.09-1.15-.22-.38-.78-.59-1.16-.91-.39-.32-.74-.67-1.11-1.01l-1.21-1.1-1.21-1.1c-.44-.4-.9-.78-1.3-1.2-.39-.4-.68-.89-1.08-1.28-1.12-1.09-2.54-1.81-3.59-2.99-.51-.07-.67-.51-.96-.85-.27-.31-.54-.73-1.04-.78-.14-.02-.29-.17-.43-.27-.31-.22-.36-.65-.83-.8-.33-.11-.59-.54-.92-.79-.34-.26-.55-.75-1.07-.72-.18-.91-1.28-.78-1.66-1.47-.12-.22-.29-.42-.43-.62-.07-.1-.13-.25-.22-.3-1.8-.98-3.02-2.66-4.59-3.92-.19-.16-.44-.24-.66-.37a.918.918 0 0 1-.28-.24c-.67-.89-.68-.89-1.57-1.43-.22-.14-.4-.36-.61-.52-.55-.43-.98-.96-1.67-1.27-.69-.32-.98-1.15-1.4-1.79-.38-.57-.74-1.14-1.28-1.62-1.36-1.2-2.68-2.46-4.01-3.7-.17-.15-.34-.43-.5-.44-.66-.06-1.18-.17-1.08-1.02 0-.04-.13-.17-.19-.17-.62.01-.91-.54-1.27-.89-1.38-1.35-3.09-2.3-4.38-3.74-.21-.23-.59-.44-.63-.67-.08-.48-.54-.26-.72-.57-.15-.26-.57-.42-.66-.66-.33-.9-1.12-1.45-1.8-1.9-.64-.42-1.32-.83-1.71-1.4-.78-1.12-1.83-1.94-2.78-2.87-.97-.96-1.97-1.89-2.99-2.8-.41-.37-.73-.91-1.37-.99-.13-.02-.28-.22-.39-.36-.26-.33-.46-.73-.77-1.01-.3-.29-.71-.46-1.06-.7-.28-.2-.48-.45-.87-.54-.29-.07-.53-.46-.68-.88-.31-.84-.63-1.71-1.42-2.35-.7-.57-1.32-1.25-2-1.86-.28-.25-.52-.52-.95-.67-.39-.13-.78-.6-1.02-1-.38-.63-.83-1.09-1.48-1.39-.23-.1-.43-.3-.62-.48l-3.47-3.28c-.28-.26-.62-.49-.66-.91-.41.07-.63-.29-.86-.53-.35-.38-.61-.83-.96-1.21-.42-.44-.87-.83-1.45-1.1-.54-.25-.81-.94-1.44-1.15-.12-.04-.16-.34-.29-.45-.55-.43-.88-1.16-1.66-1.27-.07 0-.17-.11-.19-.18-.26-.89-1.07-1.17-1.72-1.63-.71-.49-1.02-1.31-1.63-1.89-.7-.65-1.52-1.24-2.05-1.99-.92-1.3-2.15-2.27-3.25-3.37-1.13-1.13-2.28-2.22-3.46-3.3-.51-.47-1.12-.82-1.64-1.28-.58-.51-1.12-1.06-1.68-1.6l-1.57-1.52c-.24-.24-.61-.41-.62-.82 0-.09-.14-.24-.23-.27-.67-.2-1.09-.64-1.35-1.28-.07-.18-.32-.31-.44-.49-.35-.5-.91-.65-1.37-.98-.42-.3-.64-.9-1.26-.9-.09 0-.27-.17-.28-.27-.23-1.23-1.91-1.17-2.17-2.36-.58.02-.55-.62-.83-.79-.4-.26-.8-.49-1.14-.83-.32-.32-.64-.65-.98-.94-.63-.54-1.11-1.26-1.94-1.59-.28-.11-.7-.42-.72-.89 0-.08-.14-.2-.24-.27-.74-.54-1.29-1.57-1.03-2.16.15-.35.46-.65.79-.84.16-.09.53.1.8.18.47.14.99.2 1.4.46.48.31.86.8 1.39 1.31zM202.22 158.75c.9-.12 1.78.5 2.78.49 1 0 2 .13 3 .24.5.05.99.01 1.49-.1.48-.11 1 .28 1.49-.12.04-.04.13 0 .2.01 1.21.1 2.46.03 3.61.36 1.34.38 2.7.31 4.04.53 2.24-.32 4.43.24 6.65.35.69.03 1.4 0 2.08.36.58.32 1.36-.09 1.95.42.05.04.18-.05.28-.06.23-.03.48-.13.68-.07 1.25.36 1.24.37 2.32.23.13-.02.27.19.41.21.58.08 1.17.16 1.75.16.53 0 1.06.32 1.6-.07.12-.09.34.01.51.03.55.05 1.1.12 1.65.13.63.01 1.26.26 1.9-.05.28-.14.64.32.8.25.31-.14.59-.16.88-.11.28.06.55.25.83.28.25.02.51-.15.76-.14.62.02 1.27.25 1.85.1.63-.16 1.2-.06 1.8-.03.62.03 1.24.14 1.86.14.48 0 .9.22 1.34.36.44.14.97-.12 1.34.35.02.02.07 0 .1.01.93.16 1.85.36 2.79.46l4.86.43c.46.04.95-.06 1.35.33.08.08.29-.01.4.05.43.24.84-.41 1.25-.06.36.31.78.19 1.17.25.44.07.9.07 1.34.13.31.04.59 0 .87-.17.3.44.81.21 1.2.43.25.15.65.31.85.18.45-.27.87-.09 1.29-.09.63 0 1.26.19 1.9-.06.27-.1.62 0 .92.07.28.06.54.25.83.29.53.08 1.05.1 1.59-.07.47-.15 1 .28 1.49-.12.06-.05.21-.02.3.02.48.22.92.36 1.49.16.46-.16 1.02.05 1.54.09.55.05 1.12.01 1.65.17.34.1.56-.46.93-.06.2.21.64.15.97.19.34.04.71-.01 1.03.1 1.68.61 3.46.37 5.17.67.72.13 1.52-.16 2.17.41.55-.34 1.15.04 1.67-.17.33-.14.6-.1.89-.07l5.69.47c1.25.08 2.51.05 3.76.11.35.02.7 0 1.06.27.26.2.77.26 1.17-.01.08-.05.23-.09.28-.04.66.61 1.41.1 2.11.13 1.37.07 2.67.53 4.03.61.29.02.61.21.87-.14.2.33.38.19.66.08.29-.12.76-.1 1 .1.32.27.64.21.96.26.34.06.69.05 1.03.1l4.34.61c.28.04.55.21.83.29.28.09.6-.06.85.28.09.13.39.06.6.08.72.06 1.49.33 2.16.13.66-.19 1.32.17 1.96-.23.18-.11.47.04.71.04.98-.03 1.95.44 2.93.02.32.34.74.31 1.14.32.29 0 .61.21.88-.12.03-.04.13-.03.19-.01.34.11.64.36 1.03.33.33-.02.61-.22.97-.19 1.28.12 2.51.64 3.82.58.33.31.74.29 1.14.34.7.08 1.39-.22 2.11-.08.68.14 1.4.29 2.06.16 1.14-.23 2.23.06 3.35.09.29 0 .62-.09.85.27.05.09.37.08.46-.02.2-.2.4-.05.58-.11.52-.18.94.73 1.48.13l1.65.14c.55.05 1.1.08 1.65.15.26.03.51-.02.76.23.17.17.59.23.78.11.45-.29.87-.12 1.29-.09 1.28.08 2.55.19 3.82.33.56.06 1.1.24 1.65.37.56.13 1.16-.06 1.69.3.04.03.1.02.14.01.23-.03.46-.12.68-.08.28.05.64.37.81.26.34-.22.53.07.77.12.7.14 1.08.81.94 1.57-.03.17-.13.35-.24.47-.7.78-.7.74-1.73.7-1.3-.05-2.52-.64-3.82-.57-.81-.5-1.72-.3-2.58-.46-.89-.17-1.78-.6-2.68-.43-.9.17-1.76.05-2.62-.03-.66-.06-1.31-.29-1.96-.38-.68-.1-1.39-.05-2.06-.21-.41-.1-.83-.42-1.24-.29-.89.28-1.76-.1-2.62.01-1.2.16-2.37-.11-3.55-.05-.64.04-1.27.09-1.9.02-.29-.03-.56-.04-.86-.24-.3-.2-.76-.24-1.17-.03-.17.09-.45.14-.58.04-.55-.41-1.17-.31-1.77-.35-.38-.03-.77-.4-1.01-.28-.4.2-.74.07-1.09.07-.25 0-.55.08-.75-.24-.05-.09-.3-.13-.38-.07-.46.36-.93.12-1.39.1-1.1-.07-2.21-.16-3.31-.28-.91-.1-1.82.26-2.73 0-.59.35-1.2.12-1.79.07-.45-.04-.9-.22-1.34-.34-.45-.12-.9-.08-1.36-.3-.57-.27-1.29-.13-1.94-.23-.35-.05-.77.14-1.06-.27-.04-.05-.2-.06-.27-.01-.5.36-1.08.2-1.48 0-.66-.31-1.32-.25-1.98-.35-.55-.08-1.11-.07-1.65-.16-.39-.06-.79 0-1.19-.21-.31-.16-.75.03-1.12.02-.38 0-.76-.06-1.14-.09l-1.24-.11-1.24-.11c-.45-.04-.9-.05-1.34-.12-.42-.07-.82-.27-1.24-.32-1.18-.15-2.37.18-3.55-.08-.35.26-.64.03-.97-.06-.3-.08-.66-.23-.99.04-.09.08-.26.04-.39.05-.29.02-.52-.28-.87-.1-.25.13-.61-.05-.92-.04-.33 0-.67-.23-.98.11-.52-.6-1.14.2-1.68-.1-.17-.09-.36-.14-.55-.21-.09-.03-.19-.11-.27-.09-1.55.37-3.06-.16-4.59-.16-.19 0-.38.09-.57.13a.66.66 0 0 1-.28 0c-.82-.27-.81-.26-1.61-.13-.2.03-.41-.03-.61-.02-.53.01-1.03-.13-1.6.06-.56.18-1.12-.28-1.67-.5-.49-.2-.97-.42-1.52-.45-1.38-.07-2.76-.22-4.14-.34-.17-.01-.4-.12-.51-.03-.43.37-.8.61-1.12-.11-.02-.03-.16-.05-.19 0-.38.4-.8.15-1.18.11-1.46-.17-2.93.18-4.38-.12-.23-.05-.56.03-.69-.12-.27-.32-.45.14-.7.02-.21-.11-.54.04-.71-.1-.61-.49-1.34-.42-1.97-.33-.58.08-1.19.19-1.69 0-.99-.37-2-.33-3.01-.45-1.03-.12-2.07-.2-3.1-.26-.42-.03-.86-.24-1.29.11-.09.07-.27.01-.4-.03-.31-.09-.61-.27-.93-.29s-.64.1-.97.13c-.26.03-.5-.04-.78.14-.21.13-.53-.02-.82-.25-.57-.45-1.16-.91-1.94-.91-.69 0-1.38-.12-2.07-.16-.29-.02-.56-.07-.89.1-.29.15-.75.03-1.08-.12-.51-.24-1-.31-1.54-.13-.19.06-.4.04-.6.03l-3.62-.31c-.29-.03-.61.02-.82-.28-.22.32-.52.18-.77.14-.38-.07-.75-.25-1.14-.31-.46-.07-.91-.08-1.39.08-.44.15-.92-.2-1.41.04-.09.04-.25-.16-.38-.16-.53.02-1.07-.33-1.59.09-.04.03-.16.02-.2-.02-.56-.52-1.19-.22-1.8-.15-.66.08-1.22-.35-1.86-.4-.72-.05-1.49.02-2.16-.21-1.16-.41-2.35-.36-3.52-.49-1.2-.14-2.41-.24-3.62-.31-.53-.03-1.06.09-1.59.08-.59-.01-1.17-.09-1.76-.14l-1.65-.15c-.26-.03-.56.08-.76-.23-.04-.06-.2-.1-.27-.06-.5.27-.95.21-1.41-.11-.13-.09-.34-.03-.5-.09-.44-.15-.85.08-1.28.13-.39.05-.8-.28-1.18.12-.05.05-.24.04-.3-.02-.71-.79-1.7.34-2.41-.39-.34.39-.62-.11-.87-.07-.36.06-.71.14-1.08.1-.34-.04-.69-.08-1.03-.08-.63 0-1.25-.24-1.91.04-.22.09-.62.14-.85-.21-.04-.06-.18-.07-.27-.06-.7.07-1.51-.36-1.62-.98-.07-.36-.02-.79.09-1.15.06-.18.37-.27.57-.38.35-.2.69-.49 1.06-.55.44-.07.89.05 1.45.1z"/></g><g id="HIIHTÄJÄ"><path class="cls-2" d="m259.13 277.58-3.01-2.42c-2.02-1.59-4.08-3.15-6.17-4.65-2.09-1.5-4.22-2.97-6.36-4.37l-3.27-2.08-1.61-.99c-.21-.14-.55-.28-.67-.45.1-.21.14-.09.26-1.07.07-.74 0-1.47-.17-2.16-.36-1.45-1.31-2.63-2.25-3.49-.97-.88-1.95-1.54-2.87-2.23l-2.8-2.08c-3.72-2.78-7.44-5.55-11.15-8.32-6.29-4.72-13.44-9.8-20.18-14.73-1.85-1.33-3.73-2.71-5.65-4.08l-1.11-.81c-.05-.07-.31-.78-.47-1.19-.43-1.11-.85-2.2-1.26-3.29-1.68-4.34-3.27-8.52-4.57-12.21-.88-2.47-1.73-4.72-2.54-6.85-.41-1.07-.81-2.09-1.21-3.11l-.29-.76-.16-.38-.02-.05-.1-.22.26-.09 1.8-.57c1.25-.4 2.47-.85 3.74-1.33 1.5-.59 2.99-1.23 4.46-1.9l2.2-1.05c.78-.4 1.57-.88 2.32-1.57.73-.74 1.44-1.61 1.54-3.18.03-.31-.17-.78-.19-.93l-.17-.57-.33-1.14-1.35-4.58c-1.82-6.1-3.73-12.16-5.74-18.19-2.02-6.03-4.12-12.03-6.33-18l-3.39-8.92-2.35-5.95.57.17 2.44.67 5.95 1.57 2.54.69c.24.1.03-.03.41.57l.76 1.33 3.04 5.34c2.04 3.56 4.15 7.11 6.38 10.58 1.11 1.73 2.27 3.44 3.44 5.14 1.21 1.66 2.33 3.46 4.12 5.03.61.52 1.28.99 2.02 1.35.78.38 1.66.61 2.52.67.88.07 1.76-.03 2.65-.35.21-.07.43-.19.55-.24l.07-.03c.05-.03.09-.07.14-.12.03-.1.05.03.09.09l.07.19.26.47c.12.19.26.4.38.59.24.4.54.76.83 1.14 1.19 1.44 2.66 2.68 4.43 3.48 1.73.83 3.73 1.21 5.71.92 1.97-.26 3.79-1.16 5.26-2.39a11.64 11.64 0 0 0 3.32-4.63c.71-1.8.86-3.87.5-5.72-.35-1.88-1.14-3.6-2.06-5.12-.47-.76-.97-1.49-1.49-2.2l-.76-.97c-.03-.05-.12-.12-.12-.17l.05-.1.03-.05.12-.36c.16-.52.24-1.02.26-1.52.05-1-.12-1.97-.4-2.84-.59-1.76-1.49-3.13-2.25-4.48-1.59-2.73-3.22-5.43-4.89-8.09-3.37-5.34-6.92-10.57-10.63-15.65-3.72-5.07-7.57-10.17-12.33-14.56-4.74-4.34-10.51-7.95-17.14-9.22-3.29-.62-6.81-.55-10.22 0-.29.05-.61.1-.9.16 2.06-1.8 3.93-3.7 5.64-5.59 7.5-7.56 13.54-15.91 20.87-22.84 3.65-3.44 7.59-6.61 12.02-8.89 1.11-.55 2.21-1.09 3.37-1.54l.88-.35 1.04-.35c.54-.14.99-.35 1.42-.57.09-.09.29-.07.28-.22l.03-.36.02-.78c.02-1.23-.12-1.71-.16-2.39l-.62-5.81c-.35-3.03-.69-6.07-1.04-9.13l-.69-5.9c-.02-.07-.02-.16-.03-.22l-.22.07-.47.12-.93.26-1.83.5c-.74.22-1.5.4-2.25.66a83.597 83.597 0 0 0-17.08 7.57c-10.79 6.26-20.02 15.03-26.77 25.09-.62.92-1.9 2.87-2.3 3.39-2.85 3.77-5.67 9.77-8.47 14.56-1.54 2.61-3.13 5.14-4.89 7.5-.43.61-.9 1.18-1.35 1.75-.19.24-.29.36-.45.52-.17-.17-.24-.26-.47-.54l-2.04-2.54c-.45.22-.88.45-1.31.67.4-1.54.5-3.15.38-4.67-.24-2.75-1.04-5.26-2.04-7.68-1.04-2.42-2.47-4.76-4.53-6.55-1.99-1.8-4.63-3.1-7.44-3.16-2.28-.07-4.44.5-6.48 1.21-2.02.73-4.06 1.57-5.93 2.82-1.87 1.21-3.53 2.92-4.57 4.95-1.07 2.02-1.63 4.22-1.87 6.42-.29 2.75-.09 5.57.66 8.16.76 2.58 2.09 4.89 3.77 6.62 1.99 2.01 3.53 2.61 4.06 2.73h.02c.05.03.1.05.16.09.07.16.14.31.21.47.09.4.24 1 .47 1.75.28.99.64 2.23 1.02 3.61.1.35.21.69.31 1.05.12.41.12.48.19.74l.14.59.05.26.03.14.02.07-.07-.03a7.29 7.29 0 0 0-1.02-.26 1.05 1.05 0 0 0-.24-.03l-.38-.02c-.35-.02-.69-.05-1.04-.02-4.18.14-8.04 1.99-11.01 4.62-3.04 2.65-5.1 6.17-6.47 9.82-2.75 7.38-2.82 15.29-3.32 23.12-.14 2.33-.36 4.65-.71 6.93-.1.59-.19 1.14-.31 1.71l-.17.85-.14.64-.07.28-.03.14-.14-.02-.95-.12c-4.65-.66-9.29-1.57-13.85-2.68-4.58-1.12-9.11-2.44-13.59-3.94l-3.34-1.16-4.12-1.52c-.41-.14-.86-.33-1.26-.45l-.42 1.42-.69 2.42-.55 1.9-.48-.28-.47-.24-.81-.38c-1.09-.5-2.27-.93-3.53-1.16-1.25-.22-2.58-.24-3.87.05-1.3.28-2.56.95-3.54 1.85-1.97 1.78-2.99 4.27-3.39 6.69-.41 2.44-.29 4.79-.16 7.11.12 1.63.35 3.3.97 4.96.61 1.66 1.78 3.25 3.29 4.27 1.52 1.04 3.23 1.57 4.88 1.87.41.07.81.14 1.23.19l1.04.12.36.02.19.02c.07-.02.14 0 .07.07-.05.09-.1.19-.14.29a.29.29 0 0 0-.03.14l-.02.09-.03.29c-.09.83-.02 1.69.19 2.47.4 1.59 1.3 3.01 2.46 4.08 2.32 2.14 5.19 3.03 7.75 3.91 5.22 1.8 10.51 3.41 15.86 4.81a227.31 227.31 0 0 0 16.15 3.68c2.71.52 5.45.99 8.18 1.42l1.02.16.57.09c.26.09.66-.02.83-.02.81-.1 1.61-.33 2.35-.64.73-.31 1.44-.71 2.08-1.18.16-.1.31-.22.47-.35l.14-.12.16-.14c.07-.07.14-.14.19-.21l.1-.21v.26l.02.5c.05.73.1 1.47.16 2.21.07.95.16 1.9.24 2.85.17 1.92.36 3.84.61 5.76l.36 2.89.5 3.58.19 1.33c.43.02.9 0 1.33.02l2.11.02h2.96l2.51.02c.07 0 .19-.02.22.02v.24c-.16 3.8-.31 7.59-.47 11.33-.62 15.36-1.09 30.71.31 46.13 1.11 12.16 3.41 24.4 7.47 35.98 1.64 4.7 3.58 9.29 5.84 13.71a97.83 97.83 0 0 0 3.61 6.5l.66 1.09c.16.22.26.54.48.67l.83.16c.26.05.61.12.78.14l.5.07c.33.03.66.07.99.09l.99.03H149l-.03.36c.02.09-.03.12-.12.12l-.83.26c-4.31 1.21-9.37 1.4-13.97 4.01-4.5 2.58-7.75 7.16-8.75 12.21-.26 1.26-.4 2.54-.4 3.84-.02.31.02.64.02.95.05.5.07 1.02.14 1.54l.22 1.57.07.4c-.02.09.03.09.12.07l.19-.02.78-.09 8.04-1.09 14.11-1.94 10.17-1.4c1.68-.22 3.41-.47 5.17-.88.88-.19 1.76-.45 2.65-.78.43-.16.86-.35 1.3-.54.22-.1.38-.19.67-.35l1-.59c.35-.61.61-1.57.66-1.97.1-.5.14-1 .16-1.47.03-.97-.02-1.87-.09-2.75l-.48-5.12-.95-9.99c-.02-.09-.02-.17-.03-.26l.1-.03c.78-.19 1.57-.38 2.37-.57-.17-2.8-.35-5.72-.48-8.21-.14-2.13-.21-3.87-.21-4.81.1-8.42-.38-17.4-.48-25.92-.07-8.01-.16-15.96-.22-23.88l4.05 3.18c2.16 1.68 4.32 3.34 6.52 4.96 4.37 3.27 8.8 6.47 13.28 9.58 7.71 5.36 15.6 10.5 23.69 15.34 2.02 1.19 4.05 2.4 6.1 3.56l3.08 1.73 4.18 2.3c.1.03.24.17.31.12l.12-.33.26-.69.52-1.37.74-2.01c.4-1.11.78-2.23 1.14-3.37.1-.29.19-.59.28-.88.16 1.12.33 2.27.52 3.39.26 1.57.55 3.16.86 4.74l.48 2.35.1.5.05.19s.02.07.02.09c-.03 0-.07-.02-.1-.02-.09 0-.16.02-.22.03-.12.03-.07 0-.4.16-.55.24-1.04.59-1.47.97-.86.76-1.47 1.76-1.87 2.73-.41.99-.64 1.99-.83 2.94-.09.45-.21.95-.24 1.54-.03.5 0 1.4.36 2.09a2.63 2.63 0 0 0 1.78 1.35c.35.09.86.1 1.11.09l.76-.05 2.8-.24 5.59-.5 4.95-.43c.83-.07 1.78-.12 2.8-.54 1.07-.38 1.97-1.37 2.4-2.23.47-.88.73-1.66 1.04-2.44l.88-2.35c.59-1.56 1.14-3.13 1.68-4.72 1.07-3.16 2.06-6.36 2.96-9.58.45-1.61.86-3.23 1.28-4.84l.59-2.44.73-3.16-3.53-2.96zm-90.9 41.64-.1.02c.05 0 .09-.02.12-.03h.05s-.05 0-.07.02z"/><g style="clip-path:url(#clippath)"><path d="M145.43 81.84c-.73.18-1.47.24-2.21.35-.28.03-.56-.17-.85.29-.15.23-.42-.31-.67-.3-.7.04-1.39-.12-2.09-.19-.67-.08-1.39-.06-2.07-.24-.68-.17-1.22-.7-1.94-.75-.63-.06-.86-.71-1.36-.92-.54-.24-1.07-.56-1.36-1.08-.22-.38-.37-.79-.72-1.01-.22-.13-.58-.13-.75-.35-.17-.2-.16-.58-.73-.41-.05.01-.05-.14-.03-.23.11-.44-.1-.69-.44-.75-.32-.06-.41-.25-.54-.42-.17-.24-.33-.5-.48-.75-.06-.09-.18-.34-.16-.32 0-.02 0-.02.01-.03a.81.81 0 0 0 .17-.35c0-.02 0-.03-.01-.04-.07.04-.12.18-.12-.04-.03-.26-.25-.19-.38-.16-.02 0-.41-.16-.43.41 0 .05-.08.07-.13.03-.75-.55-1.13.49-1.77.44-.66-.06-1.27.19-1.9.31-.17.03-.37-.09-.47.32-.03.15-.21.19-.31.1-.55-.47-.99-.07-1.49-.11-.56-.03-1.08.27-1.68-.09-.25-.16-.57-.23-.81.3-.11.24-.4.03-.59.1-.16.06-.31.3-.47.32-.14.02-.29-.18-.44-.27-.04-.03-.1-.02-.14 0-.78.62-1.61-.12-2.41.06-.81.17-1.63.12-2.44.03-.45-.05-.91-.22-1.19-1.21-.12-.45-.11-.93.08-1.21.14-.21.3-.4.45-.45.24-.09.5-.18.74-.27.5-.17.99-.62 1.5-.39.16.07.34-.19.48.25.02.06.09.09.12.06.67-.7 1.38-.27 2.08-.36.59-.07 1.12-.66 1.73-.46.28-.57.66-.51 1-.37 1.21.47 2.32-.07 3.47-.17 1.17-.1 2.3-.41 3.43-.65.19-.04.28-.38.57-.2.36.13.82-.18 1.25-.3.37-.1.84-.36 1.22-.34.38.04.76 0 1.12-.03.18.65.39 1.19.64 1.74.12.28.24.55.38.82l.2.38.1.21c.35.76.8 1.49 1.46 2.03.41.32.96.47 1.26.87.13.18.48.09.33.62-.04.15.36-.03.48.03.3.17.57.37.85.55.41.23.8.49 1.25.61.27.09.61-.03.88.01.29.03.56.12.83.23.34.15.67.39 1.04.48.39.1.8-.11 1.17.13.71.45 1.44.16 2.14.07.71-.09 1.42-.26 2.04-.62.34-.2.86.03 1.22-.17.15-.09 1.04.88 1.18 1.3.03.08.04.17.02.22-.2.58-.33 1.35-.88 1.55-.8.28-1.6.58-2.42.78z"/><path d="m120.05 88.22-1.2.3c-.15.03-.19-.14-.5.22-.16.18-.06-.27-.16-.26-.3 0-.49-.1-.79-.26-.29-.18-.5-.33-.63-.53-.14-.22 0-.65-.21-.89-.19-.24.24-.69.2-.97-.03-.31-.02-.7.18-1.01.16-.27.3-.28.26-.45-.03-.09-.22-.2-.19-.28.03-.08.21-.15-.17-.28-.03-.01.05-.04.1-.05.28-.05.28-.16.11-.26-.16-.1-.13-.16-.13-.23 0-.19.02-.38.09-.56.05-.13.23-.25.29-.38.06-.14-.09-.32.12-.42.22-.1.23-.23.25-.36.01-.07.21-.13-.19-.26-.04-.01-.03-.04 0-.05.56-.13-.1-.45.07-.64.17-.2.11-.44.13-.67 0-.06.13-.11-.15-.21-.1-.04-.1-.1-.02-.12.43-.1.21-.32.31-.48.11-.18-.05-.41.3-.55.15-.06.24-.16-.12-.32-.17-.07.02-.14 0-.22-.02-.06-.19-.15-.18-.21 0-.05.16-.08.24-.11.02-.01.03-.03 0-.05-.38-.35.24-.54.17-.85-.07-.31.03-.59.13-.87.06-.15.2-.3.95-.29.34 0 .69.06.89.16.15.07.28.16.31.22.05.1.11.21.17.3.09.2.41.44.19.6-.07.05.12.15-.22.15-.05 0-.07.02-.05.04.47.34.09.55.08.81 0 .23.37.5.15.7.38.19.29.32.15.42-.5.37-.28.85-.41 1.28-.13.43-.14.89-.24 1.32-.02.07.2.18.01.24-.18.06-.07.18-.08.28-.01.09.06.2-.06.26-.48.28-.28.67-.38 1.01-.1.34-.2.68-.15 1.04.03.2.21.52.11.61-.04.02.18.03-.21.06-.11.02.18.02.2.02.03.02 0 .05 0 .08s-.04.09 0 .1c.02 0 .2-.11.25-.15.05-.03.04-.03 0 .02-.06.06-.18.25-.19.29 0 .05.15-.18.06.03-.12.38.09.15.15.17.04 0 .09.01.14 0 .02 0 .05-.01.07-.03.07-.03.14-.06.21-.1.15-.09.39.19.55.14.07-.02.42.88.48 1.2.01.06.01.13 0 .15-.08.33-.1.83-.29.85-.16.02-.22.03-.46.1l-.68.19zM123.21 93.75c.47-.21.94-.38 1.39-.62.17-.09.43.05.44-.45 0-.25.38.2.53.11.41-.22.88-.31 1.3-.51.41-.2.77-.52 1.18-.72.41-.19.92-.08 1.25-.48.28-.34.73-.02 1.04-.22.33-.21.68-.39 1.09-.29.3.07.6.18.83.02.14-.1.22-.41.39-.44.17-.03.41.15.41-.41 0-.05.1.03.15.09.27.29.47.21.56-.06.08-.26.21-.27.34-.32.35-.13.72-.25 1.08-.29.27-.03.59.1.86.07.29-.03.51-.34.83-.16.32.18.56.1.8.02.14-.04.37.15.32-.42 0-.05.05-.06.09-.03.61.56.7-.47 1.15-.42.46.03.83-.23 1.21-.41.1-.05.28.06.23-.35-.02-.14.09-.2.18-.13.49.38.67-.05 1-.1.37-.06.6-.43 1.1-.22.22.09.46.08.38-.45-.04-.25.23-.12.32-.24.07-.09.05-.34.14-.4.08-.05.25.08.38.12.04.01.07 0 .07-.04.14-.75.97-.38 1.31-.81.33-.43.76-.7 1.21-.97.24-.16.55-.23 1.39.33.38.26.72.59.82.89.07.22.12.44.06.56-.08.19-.14.41-.23.6-.19.37-.2 1-.69 1.06-.15.02-.11.32-.46.03-.05-.04-.11-.04-.11 0-.04.88-.78.84-1.22 1.17-.37.29-.51.99-1.05 1.01.03.61-.31.66-.62.64-1.1-.1-1.78.62-2.67.89-.9.27-1.75.64-2.63.89-.15.04-.19.38-.43.2-.23-.16-.39.07-.58.12-.17.05-.33.22-.53.13-.84-.35-1.43.16-2.12.28-.68.12-1.36.25-1.98.56-.38.19-.69.6-1.13.6-.19 0-.28.34-.59-.1-.09-.12-.14.3-.24.35-.26.12-.54.18-.81.26-.38.11-.76.2-1.12.37-.22.1-.38.38-.59.5-.22.13-.46.21-.71.24-.32.04-.68-.03-.99.03-.32.06-.56.4-.93.29-.7-.2-1.15.22-1.68.41-.54.18-1.06.4-1.49.75-.23.2-.7-.04-.95.13-.11.07-.98-.89-1.17-1.28a.53.53 0 0 1-.06-.2c.06-.52.03-1.23.41-1.39.55-.24 1.06-.54 1.58-.79z"/><path d="M159.35 96.56c-.96.76-1.95 1.48-2.93 2.21-.37.27-.87.34-1.01 1-.07.33-.73.12-1.08.35-.94.64-1.94 1.19-2.92 1.76-.93.59-1.83 1.27-2.81 1.79-.96.56-2.12.74-2.98 1.43-.76.59-1.71.45-2.49.87-.84.43-1.77.76-2.7.85-.68.06-1.38.02-2 .28-.39.15-.7.55-1.16.6-.42.06-.94-.08-1.21.53-.02.05-.23 0-.34-.06a1.33 1.33 0 0 0-1.41.13c-.35.28-.69.29-1.04.34-.96.18-1.96.16-2.94.17-.39 0-.7-.1-1.15-.18-.64-.12-1.32-.15-1.86-.31-1.1-.25-2.32-.91-2.55-2-.23-1.01-.31-1.98-.02-2.91.17-.55.76-.92.57-1.53-.01-.06.18-.2.3-.25.28-.1.53-.21.75-.32.38-.15.7-.33 1.01-.54.27-.19.38-.31.57-.48.34-.33.68-.66 1.12-.82 1.06-.37 1.99-1.02 2.95-1.56.26-.14.61-.15.66-.63.02-.17.28-.33.46-.31.97.09 1.56-.61 2.31-.94.87-.38 1.54-1.06 2.55-1.2.43-.06.94-.27 1.05-.96.05-.32.55-.37.79-.61.2-.2.28-.54.49-.7.18-.14.48-.12.73-.18.07-.02.14-.07.18-.13.68-1.25 2.15-1.51 2.97-2.57.8-1.04 1.68-2 2.47-3.02.43-.57.92-1.1 2.04-1.09.51 0 .94.21 1.02.64.06.32.09.67 0 .95-.18.44-.31.91-.51 1.33-.39.88-.63 1.94-1.48 2.54-.26.19-.32.62-.81.51-.07-.02-.18.05-.2.12-.42 1.43-1.77 2.04-2.76 2.9-.85.74-1.42 1.83-2.5 2.28-.21.81-.89 1.13-1.51 1.32-2.19.68-3.9 2.06-5.83 3.02-.95.47-1.87.96-2.78 1.46l-2.2 1.24-.04.02c-.09.05.23.21-.08.15-.33-.02-.15.16-.13.22.01.09.18.08.06.22-.24.37.13.47.37.46h.43c.2.01.4.02.6 0 .4-.03.8-.06 1.21-.06 1.6-.01 3.23-.21 4.79-.67.96-.28 1.83-.85 2.82-.98.42-.08.76-.5 1.32-.14.16.1.42-.39.67-.49l1.92-.72c.9-.31 1.77-.71 2.63-1.12.53-.25.94-.72 1.44-1.01.52-.32 1.07-.57 1.62-.83.7-.32 1.47-.51 2.16-.86.71-.38 1.3-1 2.07-1.21 1.43-.42 2.48-1.42 3.63-2.25 1.14-.83 2.26-1.71 3.19-2.76.55-.57 1.34-.8 1.88-1.37.24-.26 1.54.22 1.77.62.04.08.06.18.04.25-.26.84-.31 1.86-1.03 2.49-.53.46-1.04.93-1.55 1.41l-1.59 1.35zM216.68 27.6c-.44.16-.89.28-1.31.49-.16.08-.4-.07-.41.43 0 .25-.35-.21-.5-.13-.39.21-.82.3-1.2.5-.37.21-.7.53-1.06.75-.36.21-.86.14-1.13.55-.23.36-.68.09-.95.31-.28.24-.59.45-.99.4-.29-.03-.6-.1-.79.09-.12.12-.14.43-.3.48-.15.05-.41-.09-.31.46 0 .05-.1-.01-.16-.06-.3-.25-.48-.13-.51.15-.02.27-.15.3-.26.36-.31.18-.62.35-.96.46-.26.08-.58.02-.85.09-.27.08-.43.43-.77.31-.35-.11-.56.01-.79.13-.13.07-.39-.08-.24.46.01.05-.04.07-.08.04-.7-.45-.61.58-1.06.62-.46.05-.79.37-1.15.6-.1.06-.28-.02-.18.38.04.14-.06.21-.16.16-.55-.31-.68.14-1.01.22-.38.1-.57.51-1.11.34-.23-.07-.47-.04-.37.49.05.25-.23.14-.32.26-.07.1-.04.35-.14.42-.08.05-.27-.07-.4-.1-.04 0-.07 0-.08.05-.16.77-1.03.41-1.41.84-.38.43-.89.68-1.4.92-.28.13-.63.17-1.36-.53-.33-.32-.6-.71-.64-1.02-.03-.23-.05-.45.02-.56l.29-.53c.21-.34.26-.93.72-.93.14 0 .12-.29.44.02.04.04.1.05.11 0 .06-.85.74-.76 1.15-1.07.35-.27.43-.95.93-.99-.08-.6.23-.66.52-.64 1.04.05 1.6-.72 2.4-1.08.81-.37 1.55-.85 2.34-1.24.14-.06.11-.4.37-.27.25.12.36-.13.53-.22.16-.08.27-.27.48-.23.88.2 1.34-.42 1.99-.67.65-.24 1.29-.5 1.86-.91.34-.25.6-.7 1.03-.77.18-.03.24-.38.61.02.1.11.1-.31.2-.38.25-.16.52-.24.79-.36.37-.16.76-.28 1.11-.48.21-.12.36-.41.56-.56.22-.15.46-.24.72-.29.33-.06.7 0 1.02-.08.33-.08.58-.42.96-.31.72.2 1.19-.22 1.78-.37.58-.15 1.15-.32 1.67-.6.3-.17.73.15 1.04.04.15-.05.73 1.1.81 1.53.01.08.02.17 0 .21-.17.48-.25 1.17-.6 1.24-.52.11-1.01.32-1.5.5zM217.47 35.39c-.41.12-.83.2-1.23.38-.15.06-.37-.11-.39.39-.01.25-.32-.24-.45-.17-.36.17-.77.22-1.14.39-.35.17-.67.46-1.02.64-.35.17-.81.05-1.07.43-.23.33-.64.01-.9.21-.27.21-.57.38-.94.29-.27-.06-.55-.17-.73 0-.12.1-.15.41-.31.44-.14.03-.38-.13-.32.42 0 .05-.09-.02-.15-.08-.27-.28-.44-.19-.48.08-.04.26-.16.28-.27.33-.3.14-.6.27-.92.33-.24.05-.54-.06-.79-.02-.26.04-.43.36-.74.2-.32-.16-.52-.07-.74.02-.12.05-.36-.13-.26.42 0 .05-.04.06-.08.03-.61-.53-.61.48-1.03.46-.43-.02-.76.24-1.12.41-.1.04-.26-.06-.2.34.02.14-.08.2-.16.13-.48-.39-.64.03-.95.06-.36.04-.58.4-1.06.15-.2-.11-.43-.12-.39.42.02.25-.23.1-.32.2-.08.08-.08.34-.17.38-.08.04-.24-.11-.36-.16-.04-.02-.07 0-.08.03-.23.73-1 .23-1.4.58-.4.35-.9.5-1.4.65-.28.08-.61.05-1.2-.76-.27-.37-.47-.8-.48-1.11 0-.23 0-.45.08-.54l.33-.46c.23-.29.34-.85.76-.77.13.03.14-.26.4.1.04.05.09.06.1.03.14-.81.76-.6 1.17-.83.35-.2.49-.85.95-.8-.01-.59.27-.6.54-.54.95.22 1.53-.44 2.3-.66.77-.23 1.49-.6 2.25-.86.13-.04.13-.38.36-.21.22.16.34-.08.5-.14.15-.06.27-.23.46-.15.79.32 1.26-.23 1.87-.39.61-.15 1.22-.32 1.76-.66.33-.21.59-.62.99-.63.17 0 .24-.34.56.09.09.12.11-.3.2-.35.23-.13.49-.18.74-.27.35-.12.71-.19 1.04-.35.2-.1.35-.37.54-.49.2-.12.43-.19.67-.21.3-.03.64.06.93.02.31-.04.54-.36.89-.22.65.27 1.1-.11 1.64-.21.53-.1 1.06-.22 1.55-.46.28-.14.66.2.95.12.13-.04.65 1.14.71 1.58.01.08.01.17 0 .21-.17.47-.26 1.14-.58 1.19-.48.07-.94.25-1.4.38z"/><path d="M218.38 40.4c-.39.08-.8.13-1.18.27-.14.05-.34-.14-.39.35-.03.24-.29-.26-.42-.21-.35.14-.74.15-1.09.29-.34.14-.66.4-1 .54-.34.14-.76-.02-1.03.34-.23.31-.6-.04-.86.13-.27.18-.56.33-.9.21-.25-.09-.51-.21-.69-.06-.12.09-.16.39-.31.41-.14.02-.35-.16-.32.39 0 .05-.08-.03-.13-.09-.24-.3-.41-.23-.46.04-.05.26-.16.26-.27.3-.29.12-.58.22-.89.26-.23.03-.51-.1-.75-.08-.25.02-.42.33-.71.14-.29-.18-.49-.11-.7-.04-.12.04-.33-.16-.26.4 0 .05-.04.06-.07.02-.56-.58-.6.43-1 .37-.41-.06-.73.18-1.08.32-.09.04-.25-.08-.2.33.01.14-.08.19-.16.11-.44-.42-.61-.02-.91 0-.34.01-.56.36-1.01.07-.19-.12-.4-.15-.39.38 0 .25-.22.08-.31.17-.08.08-.08.33-.17.37-.07.03-.22-.13-.34-.19-.03-.02-.06 0-.08.03-.24.7-.95.15-1.34.47-.39.32-.87.43-1.34.54-.26.06-.58 0-1.12-.84-.24-.38-.43-.82-.43-1.13 0-.22.02-.44.09-.53l.32-.43c.23-.27.35-.82.75-.71.12.03.14-.25.38.13.03.05.08.07.09.03.16-.79.74-.54 1.14-.74.34-.17.49-.81.93-.72 0-.59.28-.58.53-.5.9.29 1.48-.32 2.21-.49.74-.17 1.44-.48 2.18-.68.13-.03.14-.36.36-.18.2.17.33-.05.48-.1.15-.05.26-.21.44-.12.74.37 1.21-.13 1.8-.24.59-.1 1.17-.22 1.7-.51.32-.18.59-.56.97-.55.16 0 .25-.32.53.14.08.13.12-.29.21-.33.23-.11.48-.14.72-.2.33-.09.68-.13 1-.27.2-.08.35-.34.54-.44.2-.11.42-.15.65-.16.29 0 .6.11.88.1.29-.02.54-.31.86-.14.6.32 1.05-.01 1.57-.06.51-.05 1.02-.12 1.5-.33.27-.12.61.26.89.2.13-.03.54 1.19.57 1.63 0 .08 0 .17-.01.21-.19.45-.32 1.11-.63 1.13-.46.02-.9.16-1.35.26zM219.35 46.67c-.38.06-.77.08-1.14.2-.14.04-.32-.16-.39.33-.03.24-.26-.28-.39-.23-.34.12-.71.1-1.05.22-.33.11-.64.36-.97.48-.33.12-.73-.07-1 .27-.23.29-.57-.08-.82.08-.26.17-.54.29-.87.15-.23-.1-.48-.24-.66-.11-.11.09-.17.38-.31.39-.13 0-.33-.19-.32.37 0 .05-.08-.04-.12-.1-.22-.31-.38-.25-.44.01s-.16.25-.27.28c-.28.1-.56.18-.86.2-.22.01-.48-.13-.71-.13-.24 0-.41.3-.68.1-.27-.2-.46-.14-.67-.09-.11.03-.31-.18-.27.38 0 .05-.04.06-.07.02-.51-.61-.59.39-.97.3-.39-.08-.7.13-1.04.25-.09.03-.23-.09-.21.31 0 .14-.08.18-.16.1-.4-.45-.58-.06-.87-.07-.33-.01-.55.32-.97 0-.18-.13-.38-.18-.38.36 0 .24-.21.06-.31.15-.08.07-.09.32-.18.35-.07.03-.21-.14-.31-.21-.03-.02-.06-.01-.07.02-.26.68-.92.09-1.3.37-.39.29-.85.37-1.31.44-.25.04-.55-.03-1.04-.91-.22-.4-.37-.85-.36-1.15 0-.22.03-.44.1-.52.11-.13.22-.28.33-.41.23-.25.37-.79.74-.65.12.04.14-.24.36.15.03.05.08.07.09.04.18-.78.73-.49 1.12-.66.33-.15.5-.77.92-.65.03-.58.29-.56.53-.46.85.35 1.43-.22 2.14-.34.72-.12 1.4-.38 2.11-.54.12-.03.15-.35.35-.16.19.18.31-.03.47-.07.14-.04.26-.19.43-.09.69.42 1.16-.05 1.73-.12.57-.07 1.13-.15 1.65-.4.32-.16.59-.52.95-.49.15.02.25-.3.5.17.07.13.13-.28.22-.31.22-.09.46-.11.69-.16.32-.07.65-.09.97-.2.19-.07.35-.32.53-.41.2-.09.41-.13.62-.12.27.02.57.15.84.15.28 0 .52-.28.83-.09.56.35 1 .05 1.49.03.49-.02.97-.07 1.44-.24.26-.1.57.3.84.25.12-.02.46 1.22.47 1.66 0 .08 0 .17-.02.21-.2.43-.35 1.09-.65 1.09-.44 0-.86.11-1.29.18zM205.92 151.5c.43-.24.87-.46 1.27-.74.15-.11.42 0 .36-.5-.03-.25.39.14.53.04.37-.28.8-.43 1.18-.71.36-.27.65-.65 1.01-.92.36-.26.88-.27 1.11-.72.2-.39.7-.18.96-.44.27-.28.57-.53.99-.53.31 0 .63.03.81-.18.11-.13.11-.45.28-.52.15-.07.43.04.29-.5-.01-.05.1 0 .17.05.33.22.51.09.52-.2.01-.28.14-.32.25-.39.31-.21.63-.42.98-.56.26-.1.61-.06.88-.16.28-.1.43-.47.8-.37.37.09.59-.05.82-.18.13-.08.41.06.24-.48-.02-.05.04-.07.08-.05.73.41.63-.62 1.1-.68.48-.06.82-.41 1.21-.65.1-.06.3 0 .2-.39-.03-.14.07-.22.17-.16.56.31.71-.16 1.05-.25.39-.1.61-.52 1.17-.35.23.07.48.04.41-.5-.03-.25.25-.14.35-.26.08-.1.07-.36.16-.42.08-.05.27.07.41.11.04 0 .07 0 .08-.05.22-.79 1.1-.4 1.52-.82.43-.43.98-.66 1.53-.88.3-.12.67-.15 1.35.6.31.34.54.75.56 1.07.02.23.01.46-.06.56-.12.16-.22.36-.34.52-.24.33-.34.91-.79.89-.14 0-.14.29-.44-.04-.04-.05-.1-.05-.11-.01-.11.85-.8.72-1.23 1.03-.37.26-.47.95-.98.96.05.6-.25.66-.55.64-1.05-.07-1.63.71-2.44 1.08-.82.37-1.56.89-2.36 1.3-.14.07-.1.41-.37.29-.26-.11-.36.15-.53.25-.16.09-.26.28-.48.25-.89-.15-1.34.5-1.98.8-.64.29-1.28.59-1.82 1.06-.33.29-.55.76-.98.87-.18.05-.21.4-.62.04-.12-.1-.07.32-.17.4-.23.18-.5.3-.76.45-.35.2-.73.37-1.06.62-.2.15-.31.46-.5.63-.2.18-.43.3-.68.39-.32.11-.69.11-1.01.23-.32.12-.52.5-.92.46-.75-.08-1.16.41-1.72.67-.55.25-1.09.52-1.57.91-.27.22-.75 0-1.04.17-.13.08-.95-.92-1.11-1.33a.472.472 0 0 1-.04-.21c.09-.51.04-1.21.38-1.36.51-.22.97-.54 1.46-.81zM171.3 167.85c-.41-.02-.82-.06-1.23-.06-.15 0-.28-.24-.49.21-.1.22-.19-.34-.33-.33-.39.03-.75-.13-1.14-.13-.37-.01-.78.13-1.15.1-.38-.03-.69-.36-1.11-.17-.36.16-.52-.34-.83-.32-.33.02-.67 0-.9-.29-.17-.21-.32-.46-.55-.45-.15.01-.36.23-.5.16-.13-.07-.2-.33-.5.13-.03.04-.05-.08-.05-.16-.02-.39-.19-.43-.4-.26-.2.17-.29.1-.41.07-.31-.09-.62-.19-.88-.38-.2-.14-.33-.43-.52-.57-.2-.16-.55-.04-.63-.39-.08-.34-.28-.43-.47-.54-.11-.06-.12-.35-.48.08-.03.04-.07.01-.07-.04.03-.79-.73-.17-.96-.52-.23-.36-.63-.44-.96-.65-.09-.05-.09-.25-.39.02-.11.1-.21.05-.19-.07.08-.61-.36-.5-.54-.76-.2-.29-.62-.29-.62-.83 0-.23-.09-.41-.54-.13-.21.13-.18-.16-.31-.2-.1-.03-.33.08-.41.02-.07-.05 0-.26 0-.39 0-.04-.02-.06-.06-.05-.76.11-.58-.8-1.04-1.03-.47-.23-.77-.64-1.04-1.07-.15-.23-.22-.55.41-1.33.28-.35.65-.66.94-.76.21-.08.42-.14.51-.11l.49.12c.32.09.82-.01.85.35 0 .12.27 0 .01.37-.04.05-.03.1 0 .09.76-.22.71.39 1.04.6.28.19.87-.02.97.38.48-.3.59-.1.63.14.14.86.9.94 1.39 1.36.49.45 1.11.7 1.65 1.07.1.06.33-.17.33.1 0 .26.23.18.35.24.12.06.29.02.34.21.21.73.84.65 1.29.92.46.24.92.51 1.46.55.33.02.72-.16.98.05.11.09.33-.15.31.37 0 .15.23-.19.32-.19.22.02.42.1.62.16.28.09.57.17.87.19.18 0 .4-.16.59-.17.19 0 .38.01.55.1.22.1.43.32.66.41.24.1.52-.12.73.14.4.48.87.32 1.31.38.44.06.89.14 1.33.01.25-.07.49.37.74.36.11 0 .33 1.27.31 1.7 0 .08-.02.17-.04.2-.24.41-.48 1.04-.8 1-.47-.05-.93 0-1.4-.04zM133.52 190.99c-.56-1.67-.87-3.39-1.09-5.1-.08-.65.1-1.3-.37-1.96-.25-.34.32-.96.3-1.54-.01-1.59.23-3.14.39-4.68.15-1.5.22-3 .43-4.46.2-1.44.72-2.86.65-4.26-.06-1.2.51-2.19.51-3.3 0-1.18-.03-2.37.16-3.5.14-.82.26-1.65.08-2.45-.13-.5-.46-.91-.55-1.44-.08-.49.02-1.11-.63-1.37-.05-.02-.02-.26.02-.38.18-.61-.08-1.23-.48-1.52-.37-.3-.53-.62-.71-.96-.53-.91-1.17-1.75-1.87-2.64-.53-.66-.98-1.43-1.58-2.11-.63-.7-1.55-1.25-2.01-2.08-.47-.83-1.09-1.47-1.71-2.16-.35-.41-.55-1.03-1.26-1.06-.07 0-.19-.17-.21-.27-.33-1.66-1.91-2.59-2.31-4.25-.39-1.65-.82-3.3-.95-4.96-.02-.44.1-.91-.29-1.32-.14-.14-.15-.61-.05-.83.59-1.19.37-2.46.65-3.65.31-1.34.35-2.74 1.1-3.96.31-.51.61-1.23.31-2.03-.14-.37.27-.92.36-1.4.07-.39-.04-.83.06-1.2.09-.32.38-.58.57-.87.06-.09.09-.2.09-.3-.01-1.97 1.25-3.53 1.49-5.37.23-1.83.58-3.61.66-5.37.07-.98.13-1.94 1.02-2.76.4-.37.87-.47 1.21-.04.24.31.51.69.57 1.09.13.63.26 1.27.34 1.9.14 1.3.47 2.66.01 3.96-.15.39.03.93-.47 1.18-.07.03-.14.19-.12.28.31 1.88-.61 3.54-1.06 5.22-.38 1.44-.29 2.97-.93 4.31.29.93-.04 1.78-.39 2.51-1.24 2.58-1.31 5.44-1.27 8.06.03 2.7.85 5.21 2.33 7.33.25.37.74.48.89 1.05.15.54.74.92 1.16 1.36.39.41.9.75 1.19 1.24 1.22 2.01 3.26 3.42 4.72 5.53 1.46 2.12 2.37 4.54 3.02 6.94.39 1.47.85 2.96.78 4.48-.03.64.26 1.33-.27 1.95-.16.17.22.78.21 1.19-.01 1.02-.16 2.03-.28 3.03l-.63 4.08c-.11.82-.05 1.66-.14 2.47-.1.85-.24 1.69-.42 2.51-.23 1.04-.55 2.05-.7 3.08-.16 1.07 0 2.19-.23 3.2-.44 1.88 0 3.76.43 5.54.43 1.78 1.15 3.5 2.27 4.88.63.76.92 1.73 1.69 2.4.34.27.12 1.71-.29 1.94-.08.04-.2.06-.29.03-1.15-.34-2.41-.69-3.26-1.81a19.323 19.323 0 0 1-2.85-5.33zM67.08 144.03c.03.7.05 1.39.11 2.09.03.26-.19.53.28.79.23.13-.31.39-.28.63.09.65 0 1.3.05 1.95.05.63.25 1.26.28 1.9.04.63-.24 1.27.02 1.88.23.54-.24.99-.16 1.49.08.54.12 1.09-.12 1.6-.18.37-.4.73-.34 1.11.04.24.3.48.26.74-.04.24-.29.48.23.74.04.02-.06.12-.14.17-.38.22-.39.54-.17.78.21.23.16.42.15.61-.03.54-.06 1.08-.19 1.6-.09.39-.35.76-.46 1.15-.11.41.08.89-.24 1.23-.32.34-.37.71-.43 1.08-.03.21-.32.42.19.69.05.02.03.1-.02.13-.8.48 0 1.24-.29 1.82-.31.6-.29 1.27-.41 1.91-.03.17-.23.32.12.56.12.08.1.27-.02.33-.64.35-.42.92-.62 1.38-.24.52-.13 1.13-.68 1.58-.23.19-.4.48.02.89.19.19-.11.39-.11.61 0 .18.18.4.14.56-.03.14-.27.22-.4.34-.04.03-.06.08-.04.13.34.96-.64 1.53-.74 2.36-.09.85-.42 1.63-.77 2.4-.19.42-.5.82-1.53.79-.46-.02-.92-.18-1.12-.45-.15-.2-.28-.42-.28-.59 0-.27-.02-.55-.02-.81 0-.55-.26-1.17.13-1.6.12-.14-.07-.4.39-.4.06 0 .12-.06.1-.1-.45-.88.22-1.45.35-2.16.12-.61-.24-1.32.15-1.85-.44-.47-.25-.83 0-1.12.87-1.03.76-2.31 1.09-3.48.34-1.19.49-2.42.74-3.62.04-.21-.24-.44.04-.64.26-.19.13-.51.18-.78.04-.24-.03-.52.14-.72.69-.87.5-1.89.67-2.85.16-.95.34-1.91.27-2.89-.04-.59-.29-1.2-.13-1.78.07-.25-.21-.53.31-.75.15-.06-.23-.32-.24-.48-.02-.4.03-.81.05-1.21.03-.56.07-1.12.04-1.68-.02-.34-.23-.68-.27-1.02-.04-.36-.05-.72 0-1.07.07-.45.25-.9.3-1.35.06-.47-.2-.95.03-1.41.42-.85.18-1.68.18-2.51 0-.83.01-1.67-.17-2.49-.1-.46.3-.93.26-1.39-.02-.21 1.23-.62 1.67-.58.08 0 .17.04.21.07.44.42 1.1.8 1.1 1.33 0 .79.11 1.58.14 2.37z"/><path d="M190.84 184.4c-1.43-.25-2.85-.49-4.28-.61-.53-.04-1.05-.33-1.65.08-.29.21-.76-.4-1.25-.4-1.33-.04-2.65-.15-3.98-.09-1.28.09-2.54.33-3.78.54-1.23.19-2.56.16-3.68.7-.96.46-1.99.29-2.93.68-1 .41-2.02.83-3.08 1.01-.77.13-1.56.24-2.24.62-.42.25-.72.68-1.21.87-.45.19-1.06.2-1.21.87-.01.06-.25.06-.38.04-.63-.09-1.2.21-1.49.63-.28.4-.63.55-.99.74-.97.53-1.93 1.07-2.93 1.55-.75.37-1.57.59-2.33.95-.79.38-1.48 1.06-2.31 1.23-.84.17-1.51.57-2.2.97-.4.22-.98.27-1.04.93 0 .06-.16.14-.25.14-1.48.01-2.15 1.46-3.41 1.93-1.29.49-2.49 1.25-3.74 1.88-.34.17-.76.2-.9.7-.05.18-.4.36-.62.35-1.17-.06-2.04.68-3.07 1-1.17.36-2.24 1.03-3.56 1.02-.55 0-1.25.11-1.72.78-.21.31-.86.24-1.29.41-.35.14-.64.45-1.01.54-.31.08-.66-.05-.99-.08-.1 0-.21.01-.3.06-1.69.93-3.62.42-5.43.69-1.84.27-3.76.17-5.62-.14-1.02-.17-2.07-.52-2.52-1.64-.2-.5-.09-.96.37-1.16.34-.14.7-.27 1.04-.26.54 0 1.09-.03 1.61-.06 1.09-.06 2.15-.44 3.25-.21.35.08.74-.19 1.04.23.04.06.19.09.25.05 1.44-.75 2.98-.48 4.48-.8 1.27-.28 2.34-1.09 3.65-1.21.54-.72 1.35-.86 2.08-.94 2.6-.25 4.86-1.64 7.22-2.69 2.41-1.07 4.71-2.41 7.06-3.69.4-.22.59-.68 1.17-.74.55-.05 1.03-.53 1.54-.82.47-.27.9-.65 1.41-.78 2.11-.55 3.81-1.9 5.73-2.85 1.91-.95 3.85-1.86 5.75-2.87 1.16-.61 2.25-1.4 3.55-1.76.54-.16 1.02-.63 1.72-.34.19.08.57-.45.92-.58.86-.33 1.75-.56 2.64-.78 1.24-.33 2.5-.55 3.76-.81.77-.15 1.51-.47 2.3-.6.82-.14 1.65-.19 2.48-.18 1.05.02 2.08.2 3.11.28 1.06.08 2.19-.09 3.18.23 1.84.6 3.7.61 5.53.96 1.81.34 3.61.73 5.41.98 1.03.15 1.86.77 2.84.97.46.1.81 1.47.53 1.86a.46.46 0 0 1-.23.16c-1.05.19-2.06.62-3.14.35-1.61-.4-3.23-.67-4.85-.94z"/><path d="M179.62 188.08c.03 1.24.04 2.49.01 3.72 0 .46-.23.92.18 1.43.21.26-.38.65-.4 1.08-.03 1.15-.32 2.27-.43 3.41-.16 1.1-.16 2.23-.37 3.32-.18 1.09-.73 2.11-.73 3.21 0 .95-.67 1.61-.81 2.48-.18.91-.4 1.84-.88 2.63-.35.57-.74 1.12-.86 1.77-.08.4.05.85-.11 1.26-.16.38-.53.74-.14 1.26.03.04-.12.18-.23.24-.48.29-.65.8-.55 1.23.1.42-.04.71-.15 1.02-.29.86-.6 1.74-.97 2.56-.27.62-.71 1.18-.99 1.8-.29.64-.32 1.43-.79 1.96-.46.53-.66 1.12-.87 1.72-.12.34-.49.67-.06 1.12.04.04 0 .17-.07.21-1.02.76-.41 2.01-.89 2.95-.47.98-.66 2.07-.9 3.12-.06.28-.29.54.03.89.11.12.06.42-.08.54-.7.65-.55 1.55-.81 2.32-.25.9-.2 1.84-.71 2.7-.23.37-.39.9.05 1.42.2.24-.05.66-.03 1 .02.28.24.56.22.83 0 .23-.24.45-.33.68a.28.28 0 0 0 0 .22c.52 1.33-.21 2.64.04 3.98.15.66.24 1.32.32 1.98.11.66.2 1.32.28 1.98.14.72.17 1.48-.64 2.26-.37.35-.82.5-1.18.25-.26-.18-.52-.41-.65-.68-.19-.43-.44-.85-.61-1.27-.31-.89-1-1.75-.85-2.77.04-.31-.26-.64.15-.94.06-.04.08-.17.04-.22-.79-1.24-.42-2.65-.42-3.96-.05-1.13-.49-2.25-.17-3.38-.49-.68-.28-1.41-.04-2.02.89-2.12.93-4.36 1.56-6.49.61-2.15 1.19-4.3 1.91-6.39.12-.36-.07-.76.3-1.1.34-.32.36-.88.51-1.34.15-.42.19-.89.46-1.24 1.12-1.42 1.41-3.16 2.07-4.74.66-1.57 1.31-3.14 1.74-4.77.27-1 .32-2.06.76-2.99.19-.4.05-.93.67-1.18.18-.07-.07-.58 0-.86.18-.68.39-1.34.59-2.01.29-.93.55-1.86.75-2.8.11-.58.03-1.19.11-1.77.09-.61.2-1.21.36-1.79.22-.74.52-1.47.67-2.22.19-.78.02-1.63.33-2.36.56-1.38.4-2.82.4-4.22.02-1.4-.06-2.81-.4-4.16-.15-.77.09-1.55-.09-2.31-.08-.34 1.04-1.16 1.49-1.13.09 0 .19.05.23.1.56.69 1.38 1.3 1.5 2.26l.28 2.11.19 2.11zM235.34 257.87c-.33.64-.63 1.31-.84 2.01-.08.26-.38.46-.03.87.17.2-.43.28-.48.54-.14.67-.39 1.32-.48 2.02-.1.67-.03 1.37-.08 2.04-.05.67-.39 1.33-.18 2 .18.58-.29 1.05-.23 1.6.06.58.1 1.18-.13 1.74-.17.41-.38.82-.3 1.24.05.26.32.51.29.8-.03.26-.27.56.27.8.04.02-.06.14-.13.2-.36.28-.35.63-.11.88.23.24.19.45.2.67.02.6.02 1.21-.05 1.81-.05.45-.27.9-.34 1.36-.07.47.15 1-.14 1.43-.29.43-.3.85-.33 1.29-.02.25-.29.51.24.77.05.02.03.12-.01.16-.78.64.08 1.43-.19 2.15-.28.72-.27 1.51-.41 2.28-.04.2-.23.39.11.66.12.1.09.31-.04.4-.65.44-.49 1.1-.74 1.65-.29.61-.27 1.35-.9 1.84-.27.21-.5.53-.16 1.05.16.24-.2.45-.26.71-.05.21.09.49 0 .68-.07.16-.34.23-.5.34-.05.03-.08.09-.08.15.02 1.18-1.17 1.67-1.65 2.57-.49.93-1.25 1.72-2.08 2.38-.44.38-1.05.64-1.94.09-.4-.25-.68-.64-.69-.99 0-.26 0-.52.11-.67.17-.23.28-.52.42-.75.29-.5.31-1.19.84-1.46.17-.09.09-.4.53-.25.06.02.13-.02.12-.07-.1-1.01.69-1.39 1.02-2.11.29-.6.07-1.4.55-1.91-.36-.55-.12-.89.16-1.18 1-1.03.98-2.44 1.32-3.71.35-1.3.45-2.67.61-4.05.03-.24-.26-.46 0-.72.24-.24.1-.59.11-.9.02-.28-.08-.58.07-.83.63-1.07.32-2.21.41-3.33.09-1.11.17-2.24.06-3.37-.07-.69-.34-1.39-.19-2.09.06-.29-.21-.63.31-.9.15-.08-.23-.38-.23-.57-.01-.48.05-.97.1-1.45.06-.68.17-1.35.21-2.03.02-.42-.13-.86-.11-1.28.01-.44.1-.88.23-1.31.18-.54.47-1.04.66-1.58.19-.55.14-1.2.52-1.67.73-.85.89-1.89 1.36-2.83l1.49-2.76c.29-.53.94-.73 1.3-1.17.17-.22 1.36.33 1.63.69.05.07.09.16.09.21-.01.65.23 1.37-.11 1.79-.5.63-.88 1.36-1.23 2.09zM167.87 317.24c-.44 0-.88-.05-1.32.03-.16.03-.35-.2-.49.28-.07.24-.26-.3-.42-.27-.41.09-.84.06-1.25.16-.4.11-.78.35-1.17.47-.39.12-.86-.06-1.19.29-.29.3-.68-.06-.98.11-.32.18-.66.33-1.05.2-.28-.09-.57-.22-.8-.07-.14.09-.22.4-.39.42-.16.02-.39-.16-.4.39 0 .05-.09-.03-.15-.09-.25-.3-.46-.23-.54.04-.08.26-.21.26-.34.31-.35.12-.7.22-1.08.26-.28.02-.6-.11-.88-.1-.3.01-.55.32-.87.13-.32-.2-.57-.13-.83-.08-.15.03-.37-.18-.39.38 0 .05-.06.06-.09.02-.56-.62-.81.38-1.28.28-.49-.11-.93.1-1.4.18-.12.02-.28-.12-.34.29-.02.14-.15.18-.23.09-.41-.51-.74-.14-1.11-.2-.42-.08-.82.21-1.26-.21-.18-.17-.42-.26-.63.25-.1.23-.31 0-.46.05-.13.04-.26.27-.38.28-.11 0-.21-.2-.31-.31-.03-.03-.07-.03-.1 0-.66.55-1.23-.29-1.86-.21-.65.06-1.29-.13-1.89-.36-.33-.14-.65-.4-.56-1.41.04-.45.19-.91.4-1.14.15-.17.31-.33.43-.35.19-.03.38-.1.55-.14.38-.1.77-.46 1.06-.17.09.09.26-.15.27.3 0 .06.04.1.07.07.55-.61.95-.11 1.44-.13.41-.01.8-.55 1.19-.31.22-.54.47-.46.69-.3.81.55 1.6.1 2.41.07.83-.02 1.64-.24 2.47-.37.14-.02.2-.35.41-.15.2.19.37-.03.55-.07.17-.04.31-.19.5-.09.78.41 1.36-.08 2.04-.18.68-.1 1.36-.21 1.99-.51.39-.18.73-.57 1.17-.55.19 0 .31-.32.6.14.08.13.16-.29.28-.33.28-.11.57-.14.86-.2.4-.09.82-.12 1.21-.25.24-.07.46-.32.7-.42.25-.1.53-.13.8-.12.35.01.71.16 1.06.17.35.01.71-.25 1.07-.04.66.4 1.28.15 1.92.21.63.06 1.26.12 1.91.09.37-.03.64.45.99.5.17.02.16 1.31.02 1.73-.03.08-.06.16-.09.19-.38.35-.72.93-1.04.85-.48-.12-.98-.1-1.48-.12zM165.43 331.42c-.76.06-1.53.14-2.26.34-.27.08-.61-.08-.77.44-.08.26-.48-.2-.73-.1-.65.27-1.33.43-1.94.78-.58.34-1.07.82-1.57 1.23-.5.39-1.18.62-1.44 1.25-.21.52-.86.6-1.16 1.09-.31.52-.69 1.07-1.28 1.43-.43.26-.9.48-1.2.9-.18.26-.23.67-.53.89-.28.21-.73.24-.7.87 0 .05-.19.06-.3.04-.52-.09-.92.13-1.14.48-.21.36-.51.42-.8.52-.8.27-1.63.43-2.41.41-.59 0-1.14-.23-1.67-.31-.55-.09-1.15.1-1.6-.22-.44-.32-.89-.37-1.33-.43-.25-.03-.51-.33-.79.19-.03.05-.12.03-.15-.02-.61-.8-1.38.06-1.99-.14-.65-.2-1.32-.05-1.97.08-.17.02-.39-.1-.48.32-.03.15-.2.2-.31.12-.6-.43-1.03.04-1.54.11-.59.1-1.04.55-1.76.43-.31-.05-.68.03-.71.63-.01.27-.38.21-.54.37-.13.14-.16.42-.3.52-.12.09-.36 0-.54.01-.05 0-.1.03-.12.08-.37.97-1.52.91-2.09 1.65-.56.7-1.01 1.21-1.21 1.56-.08.18-.28.04-1.13.63-.37.25-.79.49-1.16.31-.27-.13-.52-.36-.59-.63a3.51 3.51 0 0 1-.07-1.36c.12-.86.25-1.83.97-2.28.22-.13.25-.53.68-.34.06.03.15 0 .16-.06.2-1.15 1.27-1.45 2-2.05.62-.52 1.01-1.41 1.86-1.64.13-.7.69-.89 1.19-.94 1.74-.2 3.19-1.08 4.92-1.28 1.71-.21 3.53-.21 5.08.05.27.04.54-.24.81.04.26.26.64.14.97.19.29.04.61-.03.86.13 1.05.7 2.17.41 3.1.32.95-.09 1.79-.4 2.46-1.12.41-.44.63-1.08 1.16-1.5.23-.18.21-.61.8-.5.17.03.06-.44.18-.61.3-.41.66-.79 1.04-1.19.53-.55 1.14-1.08 1.74-1.59.35-.33.63-.77 1.01-1.08.4-.32.85-.57 1.32-.77.6-.24 1.25-.33 1.85-.51.62-.18 1.19-.62 1.85-.55 1.2.13 2.23-.3 3.35-.37l3.28-.16c.62-.04 1.16.42 1.75.47.28.02.5 1.33.34 1.75-.03.08-.08.16-.13.19-.58.34-1.1.93-1.69.86-.87-.09-1.75-.04-2.62.04zM248.28 274.18c-.5.65-.99 1.32-1.33 2.08-.12.28-.47.47-.18.95.15.24-.48.28-.56.56-.23.74-.52 1.46-.63 2.23-.11.74 0 1.51 0 2.25 0 .73-.23 1.51.1 2.2.28.58-.06 1.19.15 1.76.23.6.44 1.2.43 1.85-.01.47-.04.97.22 1.36.16.24.51.38.62.66.09.26.03.66.62.63.05 0 .02.15-.02.24-.17.43.04.75.37.85.33.09.42.3.56.5.38.55.81 1.16 1.16 1.87.26.54.37 1.17.57 1.78.21.63.67 1.29.53 2-.14.69-.08 1.3-.14 1.98-.03.39-.35.76.08 1.23.04.04 0 .2-.08.25-.53.45-.73.94-.96 1.48-.22.53-.49 1.09-.98 1.39-.99.6-1.9 1.2-2.9 1.56-.26.1-.57.02-.71.47-.05.16-.32.24-.47.18-.82-.36-1.43.09-2.08.12-.75.03-1.31.42-2.06.2-.31-.08-.74-.06-.87.55-.06.27-.44.17-.64.32-.16.12-.24.41-.4.5-.14.08-.38-.03-.58-.04a.16.16 0 0 0-.14.08c-.53.95-1.72.84-2.38 1.6-.64.74-1.36 1.39-2.03 2.11-.37.39-.8.74-1.85.54-.47-.09-.89-.34-.98-.71-.07-.27-.1-.58-.02-.8.15-.34.26-.72.44-1.05.33-.69.53-1.57 1.27-1.97.23-.11.27-.51.72-.32.06.03.16-.01.17-.07.35-1.22 1.55-1.54 2.43-2.12.76-.5 1.34-1.4 2.32-1.55.28-.7.93-.83 1.49-.82 2 .01 3.59-.49 4.91-.84 1.32-.32 2.3-1.16 2.6-1.94.06-.15-.21-.34.06-.47.25-.15.09-.43.08-.67-.01-.23-.16-.45-.08-.7.34-1.12-.56-2.06-1.19-3.15l-2.08-3.61c-.44-.75-1.04-1.47-1.2-2.36-.07-.37-.46-.68-.06-1.17.11-.13-.35-.38-.42-.62-.18-.58-.25-1.19-.33-1.79-.11-.84-.13-1.69-.18-2.54-.04-.52-.22-1.04-.24-1.57 0-.56.06-1.12.2-1.66.18-.69.52-1.33.76-1.98.26-.67.28-1.47.78-2.01.9-.99 1.31-2.17 2.08-3.18.77-.99 1.63-1.9 2.51-2.82.51-.52 1.29-.57 1.86-.95.28-.18 1.29.69 1.4 1.13.02.08.03.18 0 .23-.29.66-.34 1.44-.83 1.8-.75.54-1.37 1.24-1.94 1.97z"/><ellipse cx="115.18" cy="79.43" rx=".81" ry=".84"/><path d="M115.22 79.44h-.02v.05s0-.03 0 0c0 0 0 .01 0 0v-.02l-.03-.02h-.03s-.04-.01-.01-.01h.04l.02-.03v-.02h.01v.03l.02.02h.03-.32c-.33 0-.69.02-.91-.02-.15-.03-.3-.07-.34-.11-.06-.06-.14-.13-.18-.21-.1-.14-.38-.42-.14-.5.07-.02-.08-.16.23-.04.04.02.07.01.06 0-.34-.44.1-.46.22-.61.1-.14.06-.6.35-.55-.07-.42.14-.43.3-.34.53.3.89.02 1.33.21.39.18.79.38 1.04.72.04.05.27-.03.17.14-.09.16.06.17.11.25.04.07.16.12.09.23-.29.43 0 .62-.06.93-.06.29-.16.54-.2.84-.02.18.05.48-.15.58-.08.04 0 .27-.32.04-.09-.07.05.2 0 .25-.09.11-.22.17-.35.23-.18.09-.37.13-.56.21-.11.05-.22.22-.35.26-.14.05-.28.04-.42-.02-.17-.07-.3-.25-.44-.34-.13-.09-.38-.01-.42-.25-.05-.42-.32-.45-.45-.7-.12-.23-.19-.45-.33-.67-.08-.14.22-.31.21-.42 0-.07.95-.13 1.28-.11h.5z"/><g><ellipse cx="124.87" cy="79.57" rx="1.08" ry="1.12"/><path d="M124.91 79.58s-.01 0-.02.02l-.01.01v.03-.01c0 .01 0 .01 0 0v-.02l-.03-.02h-.02v-.02h-.04.05v-.02l.02-.02.02-.03v.02-.02.04l.03.03h.02-.6c-.34 0-.69.02-.9-.02-.15-.03-.3-.08-.34-.13-.06-.07-.13-.16-.18-.24-.1-.16-.37-.46-.12-.56.07-.02-.07-.18.24-.06.04.02.08.01.06 0-.33-.47.13-.51.27-.68.12-.15.09-.64.41-.59-.06-.43.17-.44.34-.36.58.28.99 0 1.48.21.44.2.88.43 1.17.81.05.06.28-.02.19.16-.09.16.08.19.13.28.04.08.17.14.1.26-.28.47.02.7-.04 1.05-.06.33-.18.62-.23.96-.03.2.03.52-.19.64-.08.04-.01.28-.34.06-.09-.07.04.21 0 .26-.1.12-.25.19-.39.26-.2.1-.41.14-.62.23-.13.05-.24.23-.39.27-.15.05-.31.04-.46-.02-.19-.07-.34-.25-.49-.35-.15-.1-.42-.03-.47-.28-.08-.44-.37-.5-.52-.77-.14-.26-.23-.51-.38-.77-.09-.15.21-.35.2-.48 0-.08.95-.15 1.28-.13h.15c.29.06.81-.02.65 0h-.02z"/></g></g></g></svg>