<?xml version="1.0" encoding="utf-8"?>
<svg version="1.1" id="helfi_etusivu_icon_dashboard" xmlns="http://www.w3.org/2000/svg" x="0px" y="0px" viewBox="0 0 78 78" style="enable-background:new 0 0 78 78;" xml:space="preserve">
	<path d="M70.9,4H7.1C3.2,4,0,7.2,0,11.1v43.9C0,58.8,3.2,62,7.1,62h25.1v7.2h-3.8c-2.1,0-3.7,1.7-3.7,3.7v3.6h28.8v-3.6 c0-2.1-1.7-3.7-3.7-3.7h-3.8V62h25.1c3.9,0,7.1-3.2,7.1-7.1V11.1C78,7.2,74.8,4,70.9,4z M71.3,51.8c0,1.6-1.3,2.8-2.8,2.8h-59 c-1.6,0-2.8-1.3-2.8-2.8V14.2c0-1.6,1.3-2.8,2.8-2.8h59c1.6,0,2.8,1.3,2.8,2.8V51.8z" />
	<rect x="14" y="18.6" width="32.2" height="18"/>
	<rect x="14" y="40.2" width="32.2" height="7.3"/>
	<rect x="49.5" y="18.6" width="14.5" height="7.4"/>
	<rect x="49.5" y="29.1" width="14.5" height="8"/>
	<rect x="49.5" y="40.2" width="14.5" height="7.3"/>
</svg>
